<svg width="1920" height="700" viewBox="0 0 1920 700" fill="none" xmlns="http://www.w3.org/2000/svg">
<mask id="mask0_1941_7243" style="mask-type:alpha" maskUnits="userSpaceOnUse" x="0" y="0" width="1920" height="700">
<rect width="1920" height="700" fill="#D9D9D9"/>
</mask>
<g mask="url(#mask0_1941_7243)">
<path fill-rule="evenodd" clip-rule="evenodd" d="M0 713.246C294.156 577.387 647.744 613.011 978.166 646.3C1179.32 666.566 1371.88 685.966 1537.23 665.286C1704.32 644.387 1828.62 587.941 1920 522.848V490C1822.43 560.647 1689.87 621.076 1517.61 640.788C1357.58 659.101 1170.36 627.173 974.793 593.82C643.252 537.279 287.719 476.647 0 649.768V713.246Z" fill="url(#paint0_linear_1941_7243)"/>
<path d="M0 873.072V676.261C195.936 566.046 618.132 586.602 804.738 610.657C1004.46 635.441 1442.41 677.573 1596.36 647.832C1750.31 618.092 1876.26 542.138 1920 507.878V873.072H0Z" fill="white"/>
<path fill-rule="evenodd" clip-rule="evenodd" d="M0 695.678C293.94 536.712 655.846 579.514 992.263 619.302C1181.79 641.718 1363.23 663.176 1519.87 647.061C1690.04 629.554 1822.2 581.281 1920 525.869V490.001C1822.43 560.648 1689.87 621.077 1517.62 640.789C1357.58 659.102 1170.36 627.173 974.794 593.821C643.252 537.28 287.719 476.648 0 649.768V695.678Z" fill="url(#paint1_linear_1941_7243)"/>
</g>
<defs>
<linearGradient id="paint0_linear_1941_7243" x1="907.113" y1="-112.801" x2="704.69" y2="840.528" gradientUnits="userSpaceOnUse">
<stop offset="0.453125" stop-color="#00AFFF"/>
<stop offset="1" stop-color="white"/>
</linearGradient>
<linearGradient id="paint1_linear_1941_7243" x1="-114.667" y1="556.983" x2="2154.37" y2="601.035" gradientUnits="userSpaceOnUse">
<stop stop-color="#01AFFF"/>
<stop offset="0.71875" stop-color="#007CB5"/>
</linearGradient>
</defs>
</svg>
