<?xml version="1.0" encoding="utf-8"?>
<!-- Generator: Adobe Illustrator 25.0.1, SVG Export Plug-In . SVG Version: 6.00 Build 0)  -->
<svg version="1.1" id="圖層_1" xmlns="http://www.w3.org/2000/svg" xmlns:xlink="http://www.w3.org/1999/xlink" x="0px" y="0px"
	 viewBox="0 0 75 77.2" style="enable-background:new 0 0 75 77.2;" xml:space="preserve">
<style type="text/css">
	.st0{fill:#231815;}
	.st1{fill:#FFFFFF;}
	.st2{fill:#893B22;}
	.st3{fill:#642C17;}
	.st4{fill:#F9CCAD;}
	.st5{fill:#FFFFFF;stroke:#231815;stroke-width:3.0593;stroke-miterlimit:10;}
	.st6{fill:#E4B37F;}
	.st7{fill:#E27748;}
	.st8{fill:#F08B74;}
	.st9{fill:#B81C25;}
	.st10{fill:#F7F7F7;}
	.st11{fill:#040000;}
</style>
<g>
	<g>
		<ellipse class="st0" cx="50.15" cy="31.3" rx="24.99" ry="23.44"/>
		<ellipse class="st1" cx="50.15" cy="31.3" rx="22.95" ry="21.53"/>
		<path class="st0" d="M65.44,48.95c0,0-4.85,10.33-12.67,11.94c0,0,2.78-6.74,1.91-7.95C54.69,52.93,64.64,51.25,65.44,48.95z"/>
		<path class="st1" d="M57.46,49.32c0,0-0.69,7.74-1.74,8.54c0,0,6.07-3.8,8.33-11.31L57.46,49.32z"/>
	</g>
	<g>
		<g>
			<path class="st0" d="M41.96,1.18l30.56,5.26l-6.16,35.77c-0.45,3.03-2.04,3.83-4.04,3.83c-0.1,0-0.21,0-0.32-0.01l-30.56-5.26
				L37.6,5l1.23,0.21c0.01,0,0.02,0,0.03,0c1.02,0,1.89-0.44,2.57-0.97L41.96,1.18 M41.12,0l-0.17,1l-0.46,2.66
				C39.97,4,39.44,4.18,38.91,4.2L37.77,4l-1-0.17l-0.17,1L30.44,40.6l-0.17,1l1,0.17l30.56,5.26l0.07,0.01l0.07,0
				c0.12,0,0.24,0.01,0.36,0.01c2.89,0,4.59-1.58,5.05-4.7l6.15-35.75l0.17-1l-1-0.17L42.13,0.17L41.12,0L41.12,0z"/>
		</g>
		<g>
			
				<rect x="38.65" y="3.54" transform="matrix(0.9855 0.1696 -0.1696 0.9855 4.4646 -8.8724)" class="st2" width="31.01" height="36.3"/>
			<path class="st0" d="M66.57,42.5l-0.25-0.04l-30.81-5.3l0.04-0.25l6.2-36.02l31.06,5.35l-0.04,0.25L66.57,42.5z M36.09,36.74
				l30.06,5.17l6.07-35.27L42.16,1.47L36.09,36.74z"/>
		</g>
		<g>
			<g>
				
					<rect x="32.16" y="10.52" transform="matrix(0.1696 -0.9855 0.9855 0.1696 16.2034 70.2685)" class="st2" width="35.28" height="29.99"/>
			</g>
			<g>
				<path class="st0" d="M38.43,6.18l28.55,4.91l-5.81,33.76l-28.55-4.91L38.43,6.18 M37.6,5l-6.16,35.77L62,46.03l6.16-35.77
					L37.6,5L37.6,5z"/>
			</g>
		</g>
		<g>
			<path class="st3" d="M72.52,6.44c0,0-0.86,3.89-4.36,3.83L62,46.03c2.15,0.08,3.88-0.64,4.36-3.83L72.52,6.44z"/>
			<path class="st0" d="M62.34,46.3c-0.12,0-0.23,0-0.34-0.01l-0.29-0.01l0.05-0.29l6.19-35.99l0.22,0c0.03,0,0.05,0,0.08,0
				c3.18,0,4-3.48,4.03-3.63l0.5,0.1l-6.16,35.77C66.09,45.76,64.01,46.3,62.34,46.3z M62.3,45.79
				C62.31,45.79,62.31,45.79,62.3,45.79c2.29,0,3.43-1.1,3.81-3.61l5.81-33.76c-0.66,1.01-1.76,2.05-3.54,2.1L62.3,45.79z"/>
		</g>
		<g>
			<path class="st4" d="M42.99,2.54c0,0-1.63,2.7-4.16,2.67l29.33,5.05c0,0,2.58,0.44,3.95-2.71L42.99,2.54z"/>
			<path class="st0" d="M68.47,10.54c-0.21,0-0.34-0.02-0.35-0.02L38.78,5.47l0.05-0.51c2.35,0.01,3.92-2.53,3.94-2.55l0.09-0.15
				l0.17,0.03l29.45,5.07l-0.13,0.3C71.22,10.26,69.26,10.54,68.47,10.54z M40.27,5.21l27.93,4.81c0.1,0.02,2.25,0.34,3.54-2.26
				L43.11,2.82C42.8,3.27,41.79,4.63,40.27,5.21z"/>
		</g>
		<g>
			
				<rect x="56.77" y="-9.02" transform="matrix(0.1696 -0.9855 0.9855 0.1696 41.6832 60.9702)" class="st0" width="0.51" height="29.54"/>
		</g>
		<g>
			
				<rect x="56.17" y="-8.37" transform="matrix(0.1696 -0.9855 0.9855 0.1696 40.409 61.0393)" class="st0" width="0.51" height="29.82"/>
		</g>
		<g>
			
				<rect x="55.14" y="-7.66" transform="matrix(0.1696 -0.9855 0.9855 0.1696 38.8462 60.6168)" class="st0" width="0.51" height="29.83"/>
		</g>
		<g>
			<g>
				<g>
					<path class="st1" d="M44.84,26.05c-0.2-0.36-0.33-0.55-0.99-1.46c-0.74,0.26-1.41,0.31-2.26,0.17
						c-2.84-0.49-4.32-2.75-3.79-5.79c0.52-3.02,2.68-4.66,5.52-4.17c2.8,0.48,4.26,2.72,3.75,5.72c-0.23,1.36-0.69,2.23-1.68,3.16
						l0.34,0.47c0.2,0.27,0.41,0.51,0.63,0.73L44.84,26.05z M43.3,20.81c0.16,0.26,0.15,0.27,0.73,1.03
						c0.35-0.45,0.53-0.91,0.67-1.69c0.32-1.87-0.34-3.15-1.75-3.39c-1.4-0.24-2.45,0.73-2.77,2.56c-0.19,1.1-0.06,2.01,0.39,2.64
						c0.3,0.44,0.78,0.74,1.34,0.83c0.22,0.04,0.43,0.04,0.61,0c-0.3-0.39-0.47-0.61-0.75-0.91L43.3,20.81z"/>
				</g>
			</g>
			<g>
				<g>
					<path class="st1" d="M58.45,33.53c0-0.55-0.02-0.85-0.06-1.25l-0.14-1l-3.17-0.55l-0.46,0.89c-0.22,0.42-0.36,0.75-0.48,1.15
						l-2.6-0.45c0.22-0.3,0.37-0.55,0.77-1.27l3.55-6.28c0.29-0.51,0.45-0.83,0.56-1.14l2.9,0.5c0.02,0.34,0.05,0.64,0.17,1.27
						l1.26,7.11c0.11,0.63,0.21,1.11,0.3,1.45L58.45,33.53z M57.55,25.81l-1.61,3.16l2.09,0.36L57.55,25.81z"/>
				</g>
			</g>
			<g>
				<g>
					<path class="st1" d="M51.32,27.95c-0.08-0.2-0.16-0.36-0.25-0.5c-0.36,0.15-0.51,0.21-0.78,0.26c-0.44,0.08-0.9,0.08-1.37-0.01
						c-0.74-0.13-1.33-0.44-1.63-0.88c-0.25-0.36-0.35-0.87-0.27-1.35c0.08-0.48,0.34-0.9,0.74-1.2c0.27-0.21,0.5-0.32,1.02-0.48
						l-0.14-0.23c-0.31-0.52-0.39-0.83-0.31-1.29c0.17-0.98,1.09-1.45,2.39-1.22c1.25,0.22,1.96,0.96,1.8,1.9
						c-0.13,0.75-0.64,1.19-1.72,1.49l0.78,1.13c0.49-0.39,0.75-0.71,1.05-1.26l1.06,0.9c-0.52,0.74-0.85,1.07-1.35,1.45l0.48,0.7
						c0.15,0.23,0.44,0.61,0.72,0.98L51.32,27.95z M49.43,24.86c-0.29,0.11-0.4,0.16-0.53,0.24c-0.2,0.13-0.32,0.3-0.35,0.52
						c-0.08,0.43,0.22,0.78,0.72,0.86c0.33,0.06,0.65,0.01,1.09-0.19L49.43,24.86z M50.32,23.36c0.49-0.15,0.7-0.3,0.74-0.55
						c0.05-0.29-0.16-0.52-0.54-0.59c-0.39-0.07-0.68,0.09-0.73,0.41c-0.03,0.18,0.03,0.4,0.17,0.61l0.13,0.18L50.32,23.36z"/>
				</g>
			</g>
		</g>
	</g>
	<g>
		<g>
			<path class="st1" d="M49.52,57.28c0,9.78-10.26,17.3-22.05,18.45C12.64,77.19,6.02,67.8,6.02,58.02S15.62,40.3,27.47,40.3
				S49.52,47.5,49.52,57.28z"/>
			<path class="st5" d="M49.75,62.96"/>
			<path class="st6" d="M19.41,75.74c0,0-9.75-2.67-6.58-11.71c0,0,1.21-2.29,4.58-2.87c3.37-0.58,4.96-4.37,4.96-4.37
				s0.62-2.62,3.04-2.42c2.42,0.21,2.29-1.16,2.29-1.16s0.5-1.74,2.5-1.08s6.04,0.91,8.71-1.22c2.67-2.12,6.37-0.29,6.37-0.29
				s7.95,6.14,0.71,16.36c0,0,4.62-4.2,4.83-9.74s-1.62-11.84-12.28-19.13l-3.13-1.58l-4.92-5.29l-3.62-0.5l-1.54,5.04L24,39.95
				c0,0-3.08-0.62-5.37,1.67S16,43.11,16,43.11s-4.39-2.95-5.61-3.02s-3.26-0.27-3.26-0.27L6.83,50.94c0,0-1.83,11.1,0,15.28
				S11.87,75.37,19.41,75.74z"/>
			<g>
				<path class="st0" d="M22.29,74.84c0.05,0,0.07,0,0.14,0.06c0.24,0.17,0.53,0.47,0.64,0.85c0.11,0.37,0.01,0.86-0.66,1.36
					c-0.02,0.02-0.14,0.08-0.2,0.09c-1.38-0.05-2.73-0.22-4.07-0.5c-2.1-0.45-4.16-1.18-6.05-2.3c-1.88-1.13-3.57-2.66-4.78-4.54
					c-0.16-0.23-0.29-0.47-0.43-0.71c-0.14-0.24-0.28-0.48-0.39-0.73c-0.12-0.25-0.24-0.5-0.36-0.75l-0.3-0.77
					c-0.11-0.26-0.18-0.52-0.26-0.78c-0.08-0.26-0.17-0.52-0.23-0.79l-0.18-0.8l-0.04-0.17l0,0.02l0,0l0,0l0,0l0.01,0.02
					c0,0.01,0,0,0-0.01l-0.04-0.11C5.06,64.18,5.03,64.08,5.02,64l-0.05-0.24c-0.11-0.6-0.15-1.14-0.17-1.69l-0.02-0.4l0-0.4
					c-0.01-0.27-0.01-0.53,0-0.79c0.01-1.06,0.07-2.09,0.15-3.13l0.01-0.11l0.01-0.11c0.16-1.95,0.38-3.88,0.66-5.8l0.05-0.36
					l0.01-0.05l0-0.02c0-0.01,0,0,0,0c0,0.01,0,0,0,0l0-0.06L5.61,50.1c-0.02-0.49-0.03-0.98-0.04-1.47c-0.01-0.98,0-1.96,0.03-2.95
					c0.04-0.99,0.11-1.98,0.23-2.97c0.03-0.25,0.06-0.5,0.1-0.75l0.13-0.75c0.04-0.25,0.11-0.51,0.17-0.76
					c0.02-0.08,0.08-0.37,0.17-0.57l0.24-0.64l0.12-0.32l0.06-0.16l0.03-0.08c0.01-0.01,0.01-0.03,0.02-0.04l0.04-0.01
					c0.22-0.04,0.43-0.09,0.66-0.11c0.22-0.04,0.46-0.03,0.69-0.03c0.12,0,0.24,0,0.36,0.02l0.29,0.03c0.56,0.08,1.09,0.2,1.6,0.35
					c1.02,0.31,1.96,0.73,2.86,1.2l0.34,0.18l0.33,0.19c0.22,0.13,0.44,0.25,0.66,0.38l0.64,0.4l0.32,0.2l0.31,0.21L16,41.69
					c0,0,0,0,0,0l0.48-0.3c0.22-0.13,0.43-0.27,0.65-0.39c1.75-1,3.63-1.83,5.69-2.27l0.7-0.12l0,0c0,0,0,0,0,0l0.06-0.43
					c0.14-0.98,0.31-1.96,0.53-2.94c0.22-0.98,0.49-1.96,0.88-2.94c0.2-0.49,0.42-0.98,0.73-1.48c0.08-0.12,0.15-0.25,0.25-0.37
					l0.07-0.09c0.03-0.04,0.06-0.09,0.1-0.13c0.08-0.09,0.16-0.17,0.24-0.26c0.08-0.08,0.16-0.18,0.25-0.25l0.27-0.21
					c0.18-0.14,0.37-0.28,0.55-0.42l0.04-0.03c0.01-0.01,0.03,0.01,0.04,0.01l0.09,0.04l0.18,0.07l0.37,0.15
					c0.24,0.09,0.49,0.21,0.73,0.32c0.26,0.12,0.51,0.24,0.76,0.38c0.5,0.26,0.99,0.54,1.47,0.83c0.96,0.58,1.88,1.24,2.76,1.96
					c0.87,0.72,1.69,1.51,2.45,2.37l0.5,0.6c-0.01-0.01,0,0,0,0l0.36,0.19c0.49,0.27,0.97,0.55,1.44,0.83
					c2.02,1.24,3.94,2.64,5.7,4.23c1.76,1.59,3.38,3.39,4.71,5.42c0.7,1.08,1.31,2.22,1.79,3.43c0.24,0.6,0.45,1.22,0.63,1.85
					c0.08,0.32,0.17,0.64,0.23,0.96l0.09,0.49c0.03,0.16,0.06,0.33,0.08,0.49c0.18,1.31,0.16,2.65-0.02,3.95
					c-0.08,0.65-0.23,1.3-0.4,1.93c-0.09,0.32-0.19,0.63-0.28,0.94l-0.06,0.18c-0.23,0.69-0.53,1.36-0.84,2.02
					c0,0-0.12,0.2-0.33,0.55c-0.21,0.34-0.52,0.8-0.89,1.31c-0.38,0.51-0.83,1.06-1.32,1.59c-0.49,0.53-1.01,1.02-1.5,1.44
					c-0.82,0.73-1.42,1.12-1.8,1.3c-0.38,0.18-0.54,0.15-0.53-0.01c0.02-0.31,0.67-1.16,1.42-2.22c-0.11,0.08,0.85-1.13,1.62-2.47
					c0.39-0.67,0.74-1.36,0.98-1.89c0.11-0.27,0.21-0.49,0.28-0.64c0.06-0.16,0.1-0.25,0.1-0.25l0.17-0.37l0.15-0.38
					c0.11-0.25,0.19-0.5,0.29-0.76l0.06-0.15c0.08-0.27,0.17-0.54,0.24-0.81c0.14-0.54,0.27-1.09,0.34-1.64
					c0.16-1.1,0.16-2.22,0.02-3.31c-0.01-0.14-0.04-0.27-0.06-0.41l-0.07-0.41c-0.05-0.27-0.13-0.54-0.2-0.81
					c-0.15-0.54-0.33-1.08-0.54-1.6c-0.42-1.05-0.96-2.06-1.59-3.02c-1.18-1.82-2.67-3.47-4.31-4.95c-1.64-1.48-3.45-2.81-5.35-3.97
					c-0.44-0.27-0.89-0.53-1.34-0.77l-0.35-0.19l-0.36-0.18c-0.03-0.01-0.05-0.04-0.07-0.07l-0.06-0.08l-0.13-0.16l-0.53-0.64
					c-0.66-0.75-1.39-1.45-2.17-2.1c-0.78-0.65-1.61-1.23-2.48-1.76c-0.44-0.26-0.88-0.52-1.33-0.75c-0.22-0.12-0.45-0.23-0.68-0.34
					l0,0c0,0,0,0.01-0.01,0.01l-0.04,0.05c-0.05,0.07-0.1,0.15-0.15,0.23c-0.2,0.32-0.38,0.71-0.54,1.11
					c-0.32,0.81-0.57,1.69-0.77,2.58c-0.2,0.9-0.36,1.82-0.49,2.74l-0.05,0.35l-0.04,0.31l-0.04,0.35
					c-0.03,0.24-0.05,0.48-0.07,0.73l-0.03,0.36l-0.01,0.09l0,0.05c0,0.01-0.01,0.01-0.01,0.01l-0.02,0l-0.18,0.02l-1.44,0.15
					l-0.05,0l-0.02,0c0.01,0-0.03,0-0.06,0.01l-0.04,0.01l-0.08,0.01l-0.16,0.03l-0.32,0.06c-1.71,0.36-3.4,1.09-4.98,2
					c-0.2,0.11-0.39,0.23-0.59,0.35l-0.29,0.18l-0.15,0.1l-0.3,0.2c-0.2,0.14-0.4,0.29-0.59,0.43l-0.3,0.22
					c-0.02,0.02-0.05,0.04-0.07,0.05l-0.07-0.05l-0.15-0.1l-1.15-0.79l-0.29-0.2l-0.29-0.18l-0.58-0.37
					c-0.2-0.12-0.4-0.23-0.59-0.34l-0.3-0.17l-0.3-0.16c-0.8-0.42-1.63-0.79-2.45-1.03c-0.41-0.13-0.82-0.22-1.22-0.27l-0.07-0.01
					l-0.03,0.11c-0.05,0.22-0.1,0.43-0.14,0.65l-0.12,0.67c-0.03,0.23-0.06,0.45-0.09,0.68c-0.11,0.91-0.18,1.84-0.22,2.78
					c-0.04,0.94-0.05,1.88-0.03,2.82c0.01,0.47,0.02,0.94,0.04,1.41L8,50.7c0,0.03,0.01,0.19,0.02,0.3l-0.04,0.29l-0.05,0.35
					c-0.27,1.89-0.48,3.78-0.64,5.67l-0.01,0.11l-0.01,0.11c-0.07,1-0.14,1.99-0.14,2.98c-0.01,0.25-0.01,0.49,0,0.73l0,0.36
					l0.02,0.36c0.02,0.48,0.06,0.95,0.13,1.35l0.03,0.13c0.01,0.05,0.02,0.07,0.03,0.1c0.01,0.02-0.04-0.08-0.03-0.05l0.01,0.03
					c0.01,0.01,0.01,0.01,0.02,0.04c0.01,0.02,0.01,0.05,0.02,0.07l0.03,0.09l0.02,0.05L7.4,63.8l0.01,0.04l0.05,0.2l0.16,0.69
					c0.05,0.23,0.13,0.45,0.2,0.68c0.07,0.22,0.13,0.45,0.22,0.67l0.25,0.65l0.3,0.63c0.09,0.21,0.21,0.41,0.33,0.61
					c0.12,0.2,0.22,0.41,0.36,0.59c1.01,1.56,2.41,2.83,4.01,3.8c1.62,0.97,3.44,1.62,5.33,2.02C19.83,74.64,21.07,74.8,22.29,74.84
					z"/>
			</g>
			<path class="st7" d="M8.92,43.7c0,0-0.25,4,0.33,5.5c0,0,0.75-1.58,2.67-2.17L8.92,43.7z"/>
			<path class="st7" d="M30.33,38.95c0,0,2.42-0.92,3.5-1c0,0-2.92-3.33-4-3.25L30.33,38.95z"/>
			<circle class="st1" cx="18.11" cy="52.35" r="1.22"/>
			<circle class="st1" cx="30.13" cy="46.72" r="1.22"/>
			
				<ellipse transform="matrix(0.9318 -0.363 0.363 0.9318 -18.1694 13.5383)" class="st0" cx="26.94" cy="55.12" rx="2.83" ry="2.08"/>
			<g>
				<path class="st0" d="M26.6,56.79c-0.01-0.02-0.01-0.03,0.01-0.07c0.13-0.28,0.58-0.82,1.46-0.78c0.02,0,0.08,0.01,0.09,0.03
					c0.01,0.02,0.25,0.49,0.61,1.16c0.09,0.17,0.18,0.35,0.29,0.55c0.05,0.1,0.11,0.21,0.17,0.32c0.05,0.1,0.11,0.2,0.16,0.31
					c0.05,0.1,0.1,0.21,0.15,0.31l0.04,0.08c0,0.03-0.02,0.05-0.03,0.08l-0.06,0.16c-0.04,0.11-0.09,0.22-0.14,0.33l-0.08,0.17
					l-0.06,0.13l-0.09,0.18C29,60,28.86,60.24,28.71,60.48c-0.31,0.48-0.67,0.94-1.11,1.32c-0.44,0.38-0.98,0.68-1.52,0.79
					c-0.13,0.03-0.26,0.04-0.39,0.06c-0.06,0-0.12,0-0.17,0.01c-0.03,0-0.05,0-0.08,0c-0.03,0-0.06,0-0.09,0
					c-0.2-0.01-0.36-0.03-0.5-0.05c-0.27-0.04-0.43-0.09-0.43-0.09s-0.1-0.04-0.26-0.12c-0.16-0.08-0.4-0.21-0.64-0.43
					c-0.24-0.21-0.48-0.54-0.58-0.9c-0.1-0.36-0.08-0.72,0-0.99c0.06-0.23,0.14-0.4,0.22-0.53c0.08-0.13,0.15-0.21,0.22-0.27
					c0.14-0.11,0.23-0.11,0.3-0.05c0.14,0.13,0.14,0.55,0.23,0.9c0.01-0.02,0.03,0.08,0.08,0.21c0.05,0.12,0.14,0.24,0.26,0.31
					c0.12,0.07,0.29,0.13,0.44,0.15c0.15,0.03,0.26,0.03,0.26,0.03s0.08,0.02,0.24,0.04c0.17,0.02,0.36,0.03,0.56-0.02
					c0.2-0.05,0.46-0.18,0.72-0.43c0.26-0.24,0.53-0.57,0.76-0.94c0.12-0.18,0.22-0.38,0.32-0.57c0.02-0.05,0.05-0.1,0.07-0.15
					c-0.16-0.3-0.31-0.59-0.44-0.83C26.86,57.27,26.62,56.81,26.6,56.79z"/>
			</g>
			<g>
				<path class="st0" d="M28.64,59.65c-0.02-0.01-0.02-0.01-0.04-0.05c-0.05-0.14-0.09-0.38-0.04-0.67
					c0.06-0.28,0.19-0.61,0.44-0.93c0.01-0.01,0.05-0.05,0.06-0.06c0.01,0,0.11,0.03,0.27,0.06c0.16,0.04,0.4,0.08,0.68,0.13
					c0.55,0.08,1.3,0.14,1.94,0.03c0.31-0.06,0.59-0.16,0.78-0.28c0.19-0.12,0.3-0.26,0.38-0.42c0.08-0.17,0.1-0.28,0.11-0.35
					c0-0.07,0-0.11,0-0.11c0,0,0.01-0.03,0.02-0.08c0.01-0.05,0.01-0.13-0.01-0.24c-0.03-0.22-0.21-0.56-0.4-0.85
					c-0.36-0.46-0.49-0.69-0.36-0.83c0.13-0.13,0.51-0.13,0.94,0.04c-0.03-0.04,0.47,0.16,0.92,0.61c0.23,0.22,0.42,0.52,0.52,0.79
					c0.05,0.13,0.09,0.25,0.1,0.33c0.02,0.08,0.03,0.13,0.03,0.13s0,0.04,0,0.11c0,0.08,0,0.18-0.01,0.32
					c-0.03,0.27-0.13,0.65-0.33,1c-0.2,0.38-0.56,0.78-1.01,1.05c-0.44,0.27-0.94,0.43-1.41,0.51c-0.95,0.16-1.82,0.07-2.47-0.02
					C29.1,59.78,28.66,59.66,28.64,59.65z"/>
			</g>
			
				<ellipse transform="matrix(0.9097 -0.4152 0.4152 0.9097 -24.7073 11.8623)" class="st8" cx="14.93" cy="62.76" rx="3.3" ry="1.98"/>
			
				<ellipse transform="matrix(0.9097 -0.4152 0.4152 0.9097 -17.5756 21.397)" class="st8" cx="40.42" cy="51.12" rx="3.3" ry="1.98"/>
			<g>
				<path class="st9" d="M21.24,77.12c-0.06,0-0.08,0-0.16-0.07c-0.26-0.18-0.57-0.51-0.63-0.9c-0.05-0.39,0.12-0.84,0.74-1.3
					c0.02-0.02,0.13-0.08,0.18-0.08c1.25,0.07,2.52,0.06,3.78,0c4.04-0.2,8.07-0.98,11.74-2.55l0.95-0.43l0.93-0.47
					c0,0,0.05-0.02,0.14-0.06c0.09-0.04,0.22-0.1,0.38-0.18c0.16-0.08,0.36-0.17,0.58-0.27c0.22-0.11,0.46-0.24,0.71-0.37
					c0.26-0.13,0.53-0.29,0.81-0.45c0.14-0.08,0.28-0.16,0.43-0.24c0.14-0.08,0.28-0.18,0.42-0.26l0.43-0.27l0.21-0.13
					c0.07-0.05,0.14-0.09,0.2-0.14c0.27-0.19,0.54-0.37,0.8-0.54c0.41-0.32,0.76-0.58,1.05-0.79c0.28-0.22,0.5-0.38,0.68-0.49
					c0.36-0.22,0.52-0.22,0.53-0.06c0.01,0.16-0.12,0.47-0.36,0.9c-0.06,0.11-0.13,0.22-0.2,0.33c-0.08,0.11-0.16,0.23-0.25,0.35
					c-0.18,0.24-0.38,0.5-0.6,0.76c0.06-0.04-0.19,0.24-0.61,0.67c-0.2,0.22-0.48,0.46-0.76,0.72c-0.14,0.13-0.29,0.27-0.45,0.4
					c-0.16,0.13-0.32,0.26-0.49,0.39c-0.16,0.13-0.33,0.27-0.49,0.39c-0.17,0.12-0.34,0.24-0.5,0.36c-0.16,0.12-0.32,0.23-0.47,0.34
					c-0.15,0.1-0.3,0.19-0.43,0.28c-0.27,0.17-0.5,0.32-0.66,0.42c-0.16,0.09-0.26,0.15-0.26,0.15c-0.29,0.15-0.58,0.3-0.87,0.44
					l-0.89,0.4c-1,0.42-2.01,0.81-3.05,1.12l-0.39,0.12l-0.39,0.11c-0.26,0.07-0.52,0.15-0.78,0.21c-0.52,0.13-1.05,0.26-1.57,0.37
					c-2.1,0.45-4.24,0.7-6.38,0.81C23.93,77.19,22.59,77.2,21.24,77.12z"/>
			</g>
			<g>
				<path class="st0" d="M19.99,56.1c0.83,1.27-0.1,2.11-1.37,2.94c-1.27,0.83-2.41,1.34-3.24,0.07c-0.83-1.27-0.47-2.98,0.8-3.81
					S19.16,54.82,19.99,56.1z"/>
				<path class="st10" d="M19.66,55.42c0.16,0.1,0.15,0.41-0.02,0.68c-0.17,0.27-0.61,0.31-0.61,0.31s-0.15-0.41,0.02-0.68
					C19.22,55.46,19.5,55.32,19.66,55.42z"/>
			</g>
			<g>
				<path class="st0" d="M36.73,48.85c0.45,1.45-0.67,2-2.12,2.45c-1.45,0.45-2.69,0.63-3.14-0.82c-0.45-1.45,0.36-3,1.82-3.44
					C34.74,46.58,36.28,47.39,36.73,48.85z"/>
				<path class="st10" d="M36.6,48.11c0.13,0.14,0.04,0.43-0.2,0.65c-0.24,0.21-0.67,0.13-0.67,0.13s-0.04-0.43,0.2-0.65
					C36.17,48.03,36.47,47.97,36.6,48.11z"/>
			</g>
		</g>
		<g>
			<g>
				<g>
					<path class="st9" d="M13.05,47.25c0,0,4.72,0.54,4.31,3.36c-0.2,1.41-1.37,2.97-2.18,3.29c-0.81,0.33-1.77-0.45-2.31-0.66
						c0,0-1.35-1.21-1.39-4.48L13.05,47.25z"/>
				</g>
				<g>
					<g>
						<path class="st11" d="M13.05,47.25c0.87,0.36,1.55,0.73,2.19,1.15c0.62,0.42,1.25,0.91,1.39,1.59
							c0.01,0.06,0.03,0.12,0.04,0.21c-0.01,0.09-0.01,0.19-0.01,0.31c-0.04,0.27-0.14,0.66-0.39,1.15
							c-0.1,0.21-0.32,0.56-0.53,0.83c-0.21,0.27-0.4,0.45-0.4,0.45s-0.04,0.04-0.11,0.09c-0.07,0.05-0.16,0.12-0.24,0.17
							c-0.09,0.04-0.12,0.05-0.21,0.06c-0.08,0-0.18-0.01-0.28-0.04c-0.28-0.08-0.58-0.25-0.89-0.42c-0.08-0.04-0.16-0.08-0.24-0.13
							c-0.12-0.06-0.05-0.02-0.07-0.03c0.03,0.04-0.09-0.11-0.14-0.18c-0.25-0.36-0.39-0.69-0.48-0.92
							c-0.35-0.91-0.51-1.71-0.66-2.48l-0.05-0.1c0-0.03,0.01-0.07,0.03-0.11c0.11-0.16,0.22-0.32,0.34-0.49
							C12.57,48.01,12.8,47.65,13.05,47.25c-0.41,0.24-0.78,0.46-1.14,0.68c-0.19,0.12-0.33,0.21-0.54,0.35
							c-0.12,0.1-0.29,0.19-0.37,0.33c-0.01,0.17-0.02,0.34-0.03,0.51c-0.08,0.86-0.05,1.8,0.38,2.95c0.11,0.28,0.27,0.69,0.63,1.22
							c0.11,0.15,0.15,0.23,0.4,0.48c0.05,0.06,0.12,0.09,0.19,0.13l0.15,0.07c0.07,0.03,0.13,0.07,0.2,0.11
							c0.29,0.15,0.66,0.38,1.18,0.53c0.19,0.06,0.44,0.11,0.74,0.1c0.29-0.01,0.63-0.11,0.84-0.24c0.21-0.12,0.36-0.24,0.47-0.33
							c0.1-0.09,0.16-0.14,0.16-0.14s0.29-0.26,0.56-0.61c0.28-0.35,0.54-0.79,0.68-1.07c0.32-0.64,0.46-1.17,0.53-1.6
							c0.01-0.23,0.02-0.43,0.02-0.6c-0.01-0.17-0.05-0.32-0.07-0.44c-0.17-0.74-0.62-1.26-1.05-1.59
							c-0.44-0.32-0.88-0.52-1.31-0.64C14.82,47.19,14,47.15,13.05,47.25z"/>
					</g>
				</g>
			</g>
			<g>
				<g>
					<path class="st9" d="M8.46,48.07c0,0-4.23,2.16-2.87,4.66c0.68,1.25,2.32,2.3,3.19,2.33c0.87,0.03,1.5-1.03,1.94-1.43
						c0,0,0.84-1.61-0.26-4.69L8.46,48.07z"/>
				</g>
				<g>
					<g>
						<path class="st11" d="M8.46,48.07c-0.92,0.24-1.68,0.56-2.39,1.1c-0.36,0.27-0.69,0.61-1,1.06c-0.28,0.46-0.53,1.11-0.43,1.86
							c0.02,0.12,0.04,0.27,0.09,0.44c0.06,0.16,0.14,0.34,0.23,0.55c0.21,0.38,0.53,0.83,1.05,1.31c0.22,0.21,0.62,0.54,1.01,0.76
							c0.38,0.23,0.73,0.38,0.73,0.38s0.08,0.03,0.2,0.08c0.13,0.05,0.32,0.11,0.56,0.15c0.25,0.04,0.6,0.03,0.87-0.07
							c0.28-0.09,0.5-0.23,0.66-0.35c0.44-0.33,0.7-0.67,0.92-0.91c0.05-0.06,0.1-0.11,0.15-0.17l0.11-0.12
							c0.06-0.05,0.11-0.11,0.14-0.18c0.15-0.32,0.16-0.42,0.21-0.59c0.15-0.62,0.16-1.06,0.17-1.37c0-1.23-0.31-2.13-0.68-2.9
							c-0.07-0.15-0.13-0.31-0.2-0.46c-0.12-0.1-0.32-0.12-0.46-0.18c-0.24-0.07-0.41-0.1-0.63-0.14
							C9.35,48.23,8.92,48.15,8.46,48.07c0.38,0.29,0.72,0.55,1.06,0.8c0.17,0.12,0.33,0.24,0.49,0.35
							c0.03,0.03,0.06,0.06,0.06,0.09c0,0.04-0.01,0.08-0.01,0.11c0.12,0.78,0.26,1.58,0.25,2.55c0,0.24-0.02,0.6-0.13,1.02
							c-0.02,0.08-0.08,0.27-0.07,0.22c-0.01,0.01,0.04-0.04-0.05,0.06c-0.06,0.07-0.12,0.13-0.18,0.2
							c-0.23,0.26-0.46,0.53-0.69,0.7c-0.08,0.06-0.18,0.11-0.25,0.14c-0.08,0.02-0.12,0.03-0.21,0.02
							c-0.1-0.02-0.21-0.05-0.29-0.08c-0.08-0.03-0.13-0.05-0.13-0.05s-0.24-0.1-0.53-0.28c-0.29-0.18-0.61-0.43-0.78-0.6
							c-0.4-0.38-0.63-0.7-0.77-0.94c-0.04-0.12-0.08-0.21-0.12-0.29c-0.03-0.08-0.02-0.15-0.04-0.21
							c-0.11-0.69,0.31-1.37,0.75-1.97C7.26,49.3,7.77,48.71,8.46,48.07z"/>
					</g>
				</g>
			</g>
			<g>
				<g>
					<path class="st9" d="M12.08,44.27c0,0,3.54-5.91,6.35-2.47c2.8,3.44,1.38,6.97,0.23,8.03c0,0-2.34,1.42-5.91-1.86L12.08,44.27z
						"/>
				</g>
				<g>
					<g>
						<path class="st11" d="M12.08,44.27c0.91-0.86,1.75-1.49,2.6-2.01c0.43-0.25,0.87-0.47,1.29-0.56
							c0.43-0.08,0.75-0.06,1.14,0.17c0.13,0.1,0.31,0.21,0.55,0.5c0.12,0.15,0.27,0.36,0.44,0.58c0.14,0.24,0.33,0.5,0.47,0.84
							c0.19,0.34,0.38,0.96,0.47,1.5c0.05,0.27,0.06,0.52,0.06,0.7c0.01,0.18,0,0.29,0,0.29s-0.01,0.38-0.11,0.85
							c-0.09,0.47-0.3,1.02-0.51,1.36c-0.11,0.19-0.23,0.36-0.35,0.5c-0.12,0.1,0.07,0-0.16,0.09c-0.3,0.09-0.61,0.1-0.88,0.1
							c-0.55-0.04-0.98-0.18-1.26-0.29c-0.58-0.23-1.09-0.51-1.56-0.81c-0.24-0.14-0.46-0.29-0.68-0.44
							c-0.16-0.11-0.15,0.01-0.23-0.19C13.02,46.4,12.6,45.43,12.08,44.27c-0.08,1.26-0.13,2.31-0.1,3.41c0,0.05,0.01,0.18,0.03,0.3
							l0.04,0.37c0.16,0.16,0.33,0.33,0.49,0.49c0.2,0.22,0.43,0.44,0.69,0.65c0.5,0.43,1.12,0.83,1.9,1.15
							c0.38,0.16,0.98,0.37,1.86,0.43c0.44,0.02,0.96,0,1.54-0.17c0.07-0.02,0.15-0.05,0.22-0.08c0.06-0.02,0.22-0.09,0.31-0.14
							c0.11-0.05,0.21-0.12,0.29-0.21l0.22-0.23c0.22-0.25,0.4-0.52,0.57-0.81c0.3-0.51,0.59-1.27,0.71-1.92
							C21,46.88,21,46.36,21,46.36s0.02-0.15,0.01-0.4c0-0.25-0.02-0.59-0.08-0.96c-0.12-0.74-0.38-1.58-0.63-2.03
							c-0.19-0.44-0.43-0.78-0.61-1.09c-0.22-0.29-0.38-0.53-0.56-0.75c-0.36-0.45-0.73-0.71-1.01-0.89
							c-0.43-0.27-0.94-0.42-1.41-0.44c-0.48-0.02-0.91,0.07-1.28,0.21c-0.73,0.3-1.23,0.73-1.64,1.17
							C12.98,42.09,12.49,43.08,12.08,44.27z"/>
					</g>
				</g>
			</g>
			<g>
				<g>
					<path class="st9" d="M13.03,45.95c0,0,1.07-0.8,3.32-0.21"/>
				</g>
				<g>
					<g>
						<path class="st11" d="M13.03,45.95c0.38,0.3,0.52,0.51,0.66,0.47c0.07-0.02,0.3-0.1,0.54-0.13c0.23-0.04,0.45-0.04,0.45-0.04
							s0.22,0,0.47,0.02c0.25,0.02,0.52,0.07,0.62,0.08c0.17,0.02,0.32-0.19,0.59-0.6c-0.04-0.48-0.11-0.75-0.31-0.8
							c-0.11-0.03-0.45-0.09-0.77-0.11c-0.32-0.02-0.62-0.01-0.62-0.01s-0.3,0-0.63,0.05c-0.33,0.04-0.7,0.16-0.82,0.21
							C12.97,45.17,12.92,45.48,13.03,45.95z"/>
					</g>
				</g>
			</g>
			<g>
				<g>
					<path class="st9" d="M8.33,44.95c0,0-5.38-4.3-6.81-0.1s1.14,7.02,2.58,7.61c0,0,2.69,0.52,4.89-3.81L8.33,44.95z"/>
				</g>
				<g>
					<g>
						<path class="st11" d="M8.33,44.95c-0.8-0.98-1.6-1.73-2.67-2.3c-0.54-0.27-1.15-0.5-1.94-0.53c-0.39,0-0.83,0.06-1.28,0.25
							C2,42.56,1.58,42.89,1.27,43.28c-0.2,0.27-0.45,0.64-0.64,1.19c-0.09,0.26-0.16,0.55-0.27,0.89
							c-0.06,0.35-0.17,0.75-0.19,1.23c-0.08,0.51-0.03,1.39,0.12,2.12c0.07,0.37,0.17,0.69,0.26,0.93
							c0.07,0.24,0.15,0.37,0.15,0.37s0.19,0.48,0.54,1.05c0.34,0.57,0.88,1.18,1.34,1.55c0.26,0.21,0.53,0.4,0.82,0.56
							c0.1,0.05,0.19,0.09,0.28,0.14c0.11,0.06,0.23,0.09,0.35,0.1c0.1,0.02,0.28,0.02,0.34,0.02c0.08,0,0.16,0,0.24-0.01
							c0.61-0.04,1.09-0.21,1.5-0.38c0.8-0.37,1.29-0.77,1.59-1.05c0.63-0.57,1.06-1.17,1.38-1.74c0.17-0.29,0.31-0.57,0.42-0.85
							c0.1-0.21,0.19-0.42,0.29-0.63l-0.09-0.36c-0.03-0.12-0.06-0.25-0.08-0.29C9.26,47.07,8.84,46.1,8.33,44.95
							c-0.08,1.26-0.13,2.31-0.1,3.41c-0.01,0.22-0.03,0.1-0.15,0.26c-0.15,0.22-0.31,0.44-0.48,0.66c-0.33,0.44-0.72,0.89-1.18,1.3
							c-0.22,0.21-0.57,0.48-1.08,0.72c-0.25,0.1-0.55,0.2-0.86,0.22c-0.24-0.01-0.04,0.03-0.18-0.02c-0.15-0.09-0.32-0.2-0.5-0.34
							c-0.31-0.25-0.7-0.69-0.95-1.1c-0.26-0.41-0.4-0.76-0.4-0.76s-0.05-0.1-0.1-0.27c-0.06-0.17-0.13-0.41-0.18-0.68
							c-0.1-0.53-0.14-1.18-0.08-1.57c0.01-0.36,0.1-0.67,0.15-0.95c0.08-0.27,0.14-0.51,0.2-0.7c0.12-0.36,0.25-0.52,0.34-0.66
							c0.28-0.35,0.57-0.49,1.01-0.56c0.43-0.06,0.92-0.01,1.4,0.08C6.17,44.17,7.17,44.46,8.33,44.95z"/>
					</g>
				</g>
			</g>
			<g>
				<g>
					<path class="st9" d="M12.3,48.56l-2.39,0.43c-0.8,0.14-1.57-0.39-1.71-1.19l-0.26-1.46c-0.14-0.8,0.39-1.57,1.19-1.71
						l2.39-0.43c0.8-0.14,1.57,0.39,1.71,1.19l0.26,1.46C13.64,47.65,13.1,48.42,12.3,48.56z"/>
				</g>
				<g>
					<g>
						<path class="st11" d="M12.3,48.56c-0.93-0.07-1.76-0.09-2.53-0.08c-0.27-0.03-0.5-0.15-0.67-0.34
							c-0.19-0.22-0.19-0.35-0.29-0.99c-0.03-0.18-0.08-0.42-0.14-0.77c-0.04-0.22-0.05-0.26-0.03-0.4
							c0.02-0.12,0.07-0.26,0.17-0.38c0.05-0.07,0.21-0.18,0.21-0.18s0.06-0.03,0.13-0.05c0.04-0.02,0.05-0.01,0.13-0.03
							c0.72-0.13,1.37-0.25,1.91-0.35c0.14-0.02,0.27-0.05,0.39-0.07c0.13-0.02,0.14-0.02,0.21-0.02c0.11,0,0.21,0.03,0.28,0.06
							c0.27,0.11,0.44,0.32,0.51,0.57c0.11,0.44,0.23,0.85,0.36,1.24c0.07,0.22,0.12,0.31,0.14,0.47c0.02,0.15,0.02,0.31-0.03,0.47
							C12.97,48.01,12.74,48.36,12.3,48.56c0.47,0.03,0.97-0.19,1.28-0.57c0.16-0.19,0.28-0.43,0.34-0.68
							c0.07-0.24,0.05-0.56,0.05-0.74c-0.01-0.41-0.04-0.83-0.09-1.29c-0.07-0.64-0.52-1.35-1.28-1.66c-0.2-0.09-0.48-0.16-0.8-0.17
							c-0.15,0-0.37,0.02-0.48,0.05c-0.12,0.02-0.25,0.05-0.39,0.07c-0.55,0.1-1.2,0.21-1.91,0.34c-0.14,0.03-0.22,0.04-0.33,0.08
							c-0.21,0.07-0.38,0.17-0.38,0.17c-0.01-0.01-0.48,0.3-0.61,0.5c-0.3,0.36-0.44,0.76-0.49,1.11c-0.05,0.34,0.02,0.71,0.04,0.84
							c0.06,0.35,0.11,0.59,0.14,0.77c0.06,0.28,0.07,0.48,0.2,0.87c0.13,0.34,0.35,0.63,0.6,0.84c0.51,0.43,1.16,0.54,1.7,0.41
							C10.74,49.26,11.42,48.95,12.3,48.56z"/>
					</g>
				</g>
			</g>
			<g>
				<g>
					<path class="st9" d="M10.12,47.44c0,0,0.81-1.06,0.26-3.32"/>
				</g>
				<g>
					<g>
						<path class="st11" d="M10.12,47.44c0.47,0.12,0.78,0.07,0.88-0.15c0.06-0.12,0.18-0.49,0.23-0.82
							c0.06-0.33,0.06-0.63,0.06-0.63s0.02-0.3,0-0.62c-0.02-0.32-0.07-0.66-0.1-0.78c-0.05-0.21-0.32-0.28-0.8-0.33
							c-0.41,0.26-0.63,0.41-0.61,0.58c0.01,0.09,0.05,0.37,0.07,0.62c0.01,0.25,0.01,0.47,0.01,0.47s-0.01,0.22-0.05,0.45
							c-0.04,0.23-0.11,0.46-0.14,0.53C9.61,46.91,9.82,47.06,10.12,47.44z"/>
					</g>
				</g>
			</g>
			<g>
				<g>
					<path class="st9" d="M8.02,46.85c0,0-1.28-0.37-3.19,0.96"/>
				</g>
				<g>
					<g>
						<path class="st11" d="M8.02,46.85c-0.06-0.48-0.22-0.75-0.45-0.76c-0.13-0.01-0.52,0.01-0.85,0.09
							c-0.33,0.07-0.61,0.17-0.61,0.17s-0.28,0.09-0.58,0.23c-0.29,0.14-0.59,0.31-0.69,0.38c-0.17,0.12-0.14,0.4-0.01,0.86
							c0.4,0.29,0.61,0.44,0.76,0.36c0.08-0.04,0.32-0.18,0.55-0.29c0.23-0.1,0.43-0.18,0.43-0.18s0.21-0.07,0.44-0.12
							c0.23-0.05,0.47-0.06,0.55-0.06C7.71,47.51,7.77,47.27,8.02,46.85z"/>
					</g>
				</g>
			</g>
		</g>
	</g>
</g>
</svg>
