<?xml version="1.0" encoding="utf-8"?>
<!-- Generator: Adobe Illustrator 25.0.1, SVG Export Plug-In . SVG Version: 6.00 Build 0)  -->
<svg version="1.1" id="圖層_1" xmlns="http://www.w3.org/2000/svg" xmlns:xlink="http://www.w3.org/1999/xlink" x="0px" y="0px"
	 viewBox="0 0 45 45" style="enable-background:new 0 0 45 45;" xml:space="preserve">
<style type="text/css">
	.st0{fill:#454545;}
</style>
<g>
	<path class="st0" d="M9.4,20.5c0.1,0,0.2-0.1,0.2-0.2v-0.1l0.1,0l0,0C9.8,20,10,20,10.1,20h0c0.1,0,0.2,0,0.3,0.1
		c0.2,0.2,0.8,0.1,1.3,0c-0.1,0.1-0.2,0.3-0.3,0.4c-0.4,0.5-0.8,1-1.2,1.5c-0.1,0.2-0.2,0.5-0.3,0.8c-0.1,0.3-0.1,0.7-0.2,1
		c0,0.1,0.1,0.3,0.2,0.3h0H12c0.1,0,0.2-0.1,0.2-0.2c0,0,0,0,0,0c-0.1-0.5,0-1,0.1-1.6c0.1-0.5,0.2-1,0.5-1.4
		c0.2-0.4,0.5-0.8,0.8-1.2c0.3-0.4,0.5-0.7,0.8-1.1c0.1-0.1,0.1-0.2,0-0.3v0L14,17.8c-0.1-0.1-0.2-0.1-0.3,0l0,0L13,18.5l-0.1-0.1
		c-0.5-0.6-1-0.8-1.5-0.8c-0.5,0-1,0.3-1.6,0.7l-0.2,0.1v-0.2c0-0.1-0.1-0.2-0.2-0.2c-0.1,0-0.2,0.1-0.2,0.2v2
		C9.1,20.4,9.2,20.5,9.4,20.5z"/>
	<path class="st0" d="M22.5,18.2l-0.3-0.3c-0.1-0.1-0.2-0.1-0.3,0l0,0l-0.6,0.6l-0.1-0.1c-0.5-0.6-1-0.8-1.5-0.8
		c-0.5,0-1,0.3-1.6,0.7l-0.2,0.1v-0.2c0-0.1-0.1-0.2-0.2-0.2c-0.1,0-0.2,0.1-0.2,0.2v2c0,0.1,0.1,0.2,0.2,0.2c0.1,0,0.2-0.1,0.2-0.2
		v-0.1l0.1,0l0,0C18,20,18.1,20,18.3,20h0c0.1,0,0.2,0,0.3,0.1c0.2,0.2,0.8,0.1,1.3,0c-0.1,0.1-0.2,0.3-0.3,0.4
		c-0.4,0.5-0.8,1-1.2,1.5c-0.1,0.2-0.2,0.5-0.3,0.8c-0.1,0.3-0.1,0.7-0.2,1c0,0.1,0.1,0.3,0.2,0.3h0h1.9c0.1,0,0.2-0.1,0.2-0.2
		c0,0,0,0,0,0c-0.1-0.5,0-1,0.1-1.6c0.1-0.5,0.2-1,0.5-1.4c0.2-0.4,0.5-0.8,0.8-1.2c0.3-0.4,0.5-0.7,0.8-1.1
		C22.6,18.4,22.6,18.3,22.5,18.2L22.5,18.2z"/>
	<path class="st0" d="M30.6,18.2l-0.3-0.3c-0.1-0.1-0.2-0.1-0.3,0l0,0l-0.6,0.6l-0.1-0.1c-0.5-0.6-1-0.8-1.5-0.8
		c-0.5,0-1,0.3-1.6,0.7l-0.2,0.1v-0.2c0-0.1-0.1-0.2-0.2-0.2c-0.1,0-0.2,0.1-0.2,0.2v2c0,0.1,0.1,0.2,0.2,0.2c0.1,0,0.2-0.1,0.2-0.2
		v-0.1l0.1,0l0,0c0.1-0.1,0.3-0.1,0.4-0.1h0c0.1,0,0.2,0,0.3,0.1c0.2,0.2,0.8,0.1,1.3,0c-0.1,0.1-0.2,0.3-0.3,0.4
		c-0.4,0.5-0.8,1-1.2,1.5c-0.1,0.2-0.2,0.5-0.3,0.8c-0.1,0.3-0.1,0.7-0.2,1c0,0.1,0.1,0.3,0.2,0.3h0h1.9c0.1,0,0.2-0.1,0.2-0.2
		c0,0,0,0,0,0c-0.1-0.5,0-1,0.1-1.6c0.1-0.5,0.2-1,0.5-1.4c0.2-0.4,0.5-0.8,0.8-1.2c0.3-0.4,0.5-0.7,0.8-1.1
		C30.7,18.4,30.7,18.3,30.6,18.2L30.6,18.2z"/>
	<path class="st0" d="M42,16.1c0-2.5-2-4.4-4.4-4.4c-2.5,0-4.4,2-4.4,4.4c0,2.1,1.5,3.9,3.5,4.3v7.4h-3.5v-15v0c0-3.3-2.7-6-6-6
		H12.9c-3.3,0-6,2.7-6,6v0v15.3v3.2c0,3.3,2.7,6,6,6H27c3.3,0,6-2.7,6-6v-1.6h5.4v-9.3C40.5,20.1,42,18.3,42,16.1z M14.9,26.4H8.7
		V14.8h6.3V26.4z M16.8,14.8h6.3v11.6h-6.3V14.8z M24.9,14.8h6.3v11.6h-6.3V14.8z M8.7,12.9c0-2.3,1.9-4.2,4.2-4.2H27
		c2.3,0,4.2,1.9,4.2,4.2v0h-6.3h-1.8h-6.3h-1.8L8.7,12.9L8.7,12.9z M27,35.6H12.9c-2.3,0-4.2-1.9-4.2-4.2v-3.2h6.3h1.8h6.3h1.8h6.3
		v3.2C31.2,33.7,29.3,35.6,27,35.6z M37.5,18.7c-1.4,0-2.6-1.2-2.6-2.6c0-1.4,1.2-2.6,2.6-2.6c1.4,0,2.6,1.2,2.6,2.6
		C40.1,17.6,39,18.7,37.5,18.7z"/>
</g>
</svg>
