<?xml version="1.0" encoding="utf-8"?>
<!-- Generator: Adobe Illustrator 25.0.1, SVG Export Plug-In . SVG Version: 6.00 Build 0)  -->
<svg version="1.1" id="圖層_1" xmlns="http://www.w3.org/2000/svg" xmlns:xlink="http://www.w3.org/1999/xlink" x="0px" y="0px"
	 viewBox="0 0 45 45" style="enable-background:new 0 0 45 45;" xml:space="preserve">
<style type="text/css">
	.st0{clip-path:url(#SVGID_2_);}
	.st1{fill:#454545;}
</style>
<g>
	<defs>
		<rect id="SVGID_1_" x="7.5" y="11" width="30" height="23"/>
	</defs>
	<clipPath id="SVGID_2_">
		<use xlink:href="#SVGID_1_"  style="overflow:visible;"/>
	</clipPath>
	<g class="st0">
		<path class="st1" d="M37.4,18.7l-4.5-7.3c-0.1-0.2-0.4-0.4-0.7-0.4H12.7c-0.3,0-0.5,0.1-0.7,0.4l-4.5,7.3
			c-0.2,0.3-0.1,0.7,0.1,0.9L22,33.8c0.1,0.1,0.3,0.2,0.5,0.2c0.2,0,0.4-0.1,0.5-0.2l14.2-14.1C37.5,19.4,37.6,19,37.4,18.7
			L37.4,18.7z M20.8,13.2l-3.5,4.9l-3.5-5.7h7.5L20.8,13.2L20.8,13.2z M17,19.6l4,11.1L9.9,19.6H17z M9.5,18.6l3.4-5.6l3.5,5.6
			L9.5,18.6L9.5,18.6z M20,16.2l2.5-3.5l2.5,3.5l1.7,2.4h-8.3L20,16.2z M23.7,12.5h7.5l-3.5,5.7l-3.5-4.9L23.7,12.5L23.7,12.5z
			 M26.9,19.6l-4.4,12.1l-4.4-12.1H26.9L26.9,19.6z M28.6,18.6l3.5-5.6l3.4,5.6H28.6L28.6,18.6z M35.1,19.6L24,30.7l4-11.1H35.1z"/>
	</g>
</g>
</svg>
