<?xml version="1.0" encoding="utf-8"?>
<!-- Generator: Adobe Illustrator 25.0.1, SVG Export Plug-In . SVG Version: 6.00 Build 0)  -->
<svg version="1.1" id="圖層_1" xmlns="http://www.w3.org/2000/svg" xmlns:xlink="http://www.w3.org/1999/xlink" x="0px" y="0px"
	 viewBox="0 0 45 45" style="enable-background:new 0 0 45 45;" xml:space="preserve">
<style type="text/css">
	.st0{fill:#454545;}
</style>
<g>
	<path class="st0" d="M27.1,24.5c0.5,0,0.8-0.4,0.8-0.8v-3.4c0-0.5-0.4-0.8-0.8-0.8c-0.5,0-0.8,0.4-0.8,0.8v3.4
		C26.2,24.1,26.6,24.5,27.1,24.5z"/>
	<path class="st0" d="M22.7,25.9c1.2,0,2.1-0.6,2.1-1.5c0-0.5-0.4-0.8-0.8-0.8c-0.4,0-0.7,0.2-0.8,0.6c-0.1,0-0.3,0.1-0.5,0.1
		c-0.2,0-0.4,0-0.5-0.1c-0.1-0.3-0.4-0.6-0.8-0.6c-0.5,0-0.8,0.4-0.8,0.8C20.6,25.3,21.5,25.9,22.7,25.9z"/>
	<path class="st0" d="M37.6,20.7c0-1.6-1-3-2.5-3.6c0.1-1.3-0.3-4.5-4.8-7.7l0,0l0,0c0,0,0,0,0,0c-0.1-0.1-3.7-2.3-7.8-2.3
		c-1.9,0-3.6,0.5-5.2,1.4c-0.5,0.2-2.1,0.7-3.7,2.3c-1.2,1.1-2.7,3.1-3.5,6.2c-1.6,0.5-2.8,1.9-2.8,3.7c0,1.5,0.9,2.9,2.3,3.5
		c0,6.8,1,10,6.7,11.1c-0.1,0.6-0.1,1.2-0.1,1.8c0,0.5,0.4,0.8,0.8,0.8h3.5H25h3.2c0.4,0,0.8-0.3,0.8-0.8c0,0,0.1-1-0.1-2.1
		c1.6-0.4,3-1,4-1.8c1.3-1,2.1-2.3,2.3-3.8c0.1-0.5,0.1-1,0.2-1.4c0.2-1.9,0.4-2.8,0.3-4C36.9,23.3,37.6,22.1,37.6,20.7z M26.1,36
		l0-0.2c0-0.1,0-0.1,0-0.2c0-0.1,0-0.1,0-0.2c0,0,0-0.1,0-0.1l0-0.1c0.1-0.4,0.1-0.8,0.2-1.3l0-0.1c0-0.1,0-0.1,0-0.2
		c0-0.2,0-0.3,0.1-0.5c0.1,0.1,0.2,0.3,0.3,0.4c0,0.1,0.1,0.1,0.1,0.2l0,0c0.2,0.4,0.3,0.8,0.4,1.3c0.1,0.4,0.1,0.7,0.1,1H26
		C26,36.1,26.1,36.1,26.1,36z M28.2,32.9c-0.4-0.8-1-1.5-1.7-2c3-1.1,5.5-3.6,6.6-6.6c0.2,0.1,0.4,0.1,0.7,0.1c0.1,0,0.1,0,0.2,0
		c0,0.9-0.1,1.8-0.3,3.4c-0.1,0.4-0.1,0.9-0.2,1.4c-0.1,1-0.7,1.9-1.6,2.6c-0.8,0.6-2,1.1-3.4,1.5C28.4,33.2,28.3,33.1,28.2,32.9
		L28.2,32.9L28.2,32.9z M12.9,21.9c-0.1-0.4-0.1-0.8-0.1-1.2s0.1-0.8,0.1-1.2c0.1-0.7,0.3-1.5-0.2-2c-0.2-0.2-0.4-0.4-0.7-0.5
		c1.5-5.6,5.8-6.8,6-6.9C18,10,18,10,18.1,10c1.3-0.8,2.7-1.2,4.4-1.2c2.2,0,4.2,0.7,5.5,1.3c-1.7,1-4.6,3-6.1,6
		c-0.6,1.2-2,2-3.5,2.8c-2.3,1.2-5.1,2.8-5.4,6.7c0,0,0,0.1,0,0.1l0,0c-0.1,1.1,0.1,2.4,0.4,3.7c0.1,0.4,0.4,0.6,0.8,0.6
		c0.1,0,0.1,0,0.2,0c0.4-0.1,0.7-0.6,0.6-1c-0.1-0.2-0.1-0.4-0.2-0.7c1.2,1.1,2.6,2,4.1,2.6c-0.7,0.5-1.3,1.1-1.7,1.8
		c-0.1,0.2-0.3,0.5-0.4,0.8c-4.7-0.8-5.5-3-5.5-9.2c0.6,0,1-0.2,1.3-0.6C13.1,23.3,13,22.6,12.9,21.9z M31.2,17
		c-3.8,0-5.5-1.6-6.1-2.4c1.7-1.9,3.8-3,4.7-3.5c3.4,2.4,3.7,4.7,3.7,5.7C32.7,16.9,31.9,17,31.2,17z M17,21.7v1.9
		c0,0.5,0.4,0.8,0.8,0.8s0.8-0.4,0.8-0.8v-2.9c0.2-0.1,0.3-0.2,0.5-0.3c1.7-0.9,3.4-1.8,4.2-3.5c0.2-0.3,0.4-0.7,0.6-1
		c1,1.1,3.1,2.8,7.2,2.8c0.3,0,0.6,0,0.8,0c0,0.3,0.1,0.5,0.1,0.8l0,0.2l0,0.8c0,5.2-4.3,9.5-9.5,9.5c-3.2,0-6.3-1.7-8-4.4
		C14.8,23.5,15.9,22.5,17,21.7z M18.1,35.3c0.1-0.5,0.2-0.9,0.4-1.3l0-0.1c0-0.1,0.1-0.2,0.1-0.3c0.2-0.3,0.4-0.6,0.6-0.8
		c0,0.3,0,0.6,0.1,0.9c0,0.1,0,0.2,0,0.2l0,0.1c0,0.3,0.1,0.6,0.1,0.8c0,0.1,0,0.2,0,0.3l0,0.1c0,0.1,0,0.1,0,0.2
		c0,0.2,0.1,0.5,0.1,0.7H18C18,35.9,18,35.7,18.1,35.3z M34,22.8c0,0-0.1,0-0.2,0c-0.1,0-0.1,0-0.1,0c0-0.2,0.1-0.4,0.1-0.6
		c0.1-0.4,0.2-0.9,0.2-1.5c0-0.4-0.1-0.8-0.1-1.1V19v-0.5c0.4,0,0.8,0.1,1.1,0.3c0.6,0.4,1,1.1,1,1.8c0,0.6-0.2,1.1-0.7,1.5
		C35,22.5,34.5,22.7,34,22.8C34,22.8,34,22.8,34,22.8z M11.2,22.9C11.2,22.9,11.2,22.9,11.2,22.9L11.2,22.9
		c-0.4-0.1-0.9-0.2-1.3-0.5C9.4,22,9,21.3,9,20.7c0-0.7,0.4-1.4,1-1.8c0.3-0.2,0.7-0.3,1.1-0.3c0,0,0.1,0,0.1,0
		c0,0.2-0.1,0.4-0.1,0.6l0,0.3c-0.1,0.4-0.1,0.8-0.1,1.3c0,0.2,0,0.4,0,0.6c0,0.3,0.1,0.6,0.1,0.9c0,0.2,0.1,0.5,0.1,0.6
		C11.3,22.8,11.2,22.8,11.2,22.9L11.2,22.9L11.2,22.9L11.2,22.9C11.2,22.9,11.2,22.9,11.2,22.9z M21.1,34.6c0.1,0,0.2,0,0.3,0l0.1,0
		c0.3,0,0.5,0,0.8,0l0,0c0.1,0,0.2,0,0.3,0l0.1,0c0.1,0,0.2,0,0.3,0c0.2,0,0.4,0,0.6,0l0.1,0c0.1,0,0.1,0,0.2,0c0.2,0,0.5,0,0.7-0.1
		c0,0.1,0,0.2-0.1,0.4l0,0.1l0,0.1l0,0.1c0,0,0,0.1,0,0.1c0,0,0,0.1,0,0.1c0,0.2-0.1,0.5-0.1,0.7h-3c0-0.2-0.1-0.4-0.1-0.6l0,0l0,0
		l0-0.1l0-0.1C21.2,35.1,21.1,34.8,21.1,34.6L21.1,34.6z M22.8,32.9L22.8,32.9L22.8,32.9c-0.1,0-0.2,0-0.3,0c-0.3,0-0.6,0-0.8,0
		c-0.1,0-0.2,0-0.2,0l-0.1,0c-0.1,0-0.2,0-0.3,0l0,0l0-0.1c0-0.2,0-0.4,0-0.6l0-0.2c0.6-0.2,1.3-0.2,1.7-0.2c0.4,0,0.6,0,0.6,0
		c0,0,0.1,0,0.1,0c0.6,0,1.1,0.1,1.6,0.3l0,0.2c0,0.2,0,0.4-0.1,0.5l0,0.1c0,0,0,0,0,0c-0.1,0-0.2,0-0.3,0l-0.2,0l-0.1,0
		c-0.1,0-0.1,0-0.2,0C23.6,32.9,23.2,32.9,22.8,32.9z"/>
</g>
</svg>
