<svg width="45" height="45" viewBox="0 0 45 45" fill="none" xmlns="http://www.w3.org/2000/svg">
<g clip-path="url(#clip0_4155_14027)">
<path d="M36.8927 19.7155L32.4126 12.3691C32.2745 12.1416 32.0239 12 31.7529 12H12.2422C11.9711 12 11.7256 12.1416 11.5824 12.3691L7.10748 19.7155C6.92848 20.0138 6.97451 20.3931 7.21999 20.6408L21.4529 34.7725C21.5961 34.914 21.7904 34.9949 21.995 34.9949C22.1995 34.9949 22.3939 34.914 22.5371 34.7725L36.7699 20.6408C37.0205 20.3931 37.0666 20.0138 36.8825 19.7155H36.8927ZM20.338 14.2398L16.8705 19.1847L13.3213 13.5168H20.8494L20.3431 14.2398H20.338ZM16.487 20.6105L20.5323 31.7085L9.35773 20.6105H16.487ZM8.96905 19.5993L12.4007 13.9719L15.9295 19.6043H8.96905V19.5993ZM19.5299 17.1622L21.995 13.6432L24.46 17.1622L26.1682 19.5993H17.8218L19.5299 17.1622ZM23.1508 13.5168H30.6789L27.1296 19.1847L23.6622 14.2398L23.1559 13.5168H23.1508ZM26.4239 20.6105L22.0001 32.745L17.5763 20.6105H26.429H26.4239ZM28.0707 19.5993L31.5995 13.9668L35.0311 19.5993H28.0758H28.0707ZM34.6373 20.6105L23.4627 31.7085L27.5081 20.6105H34.6373Z" fill="#454545"/>
</g>
<defs>
<clipPath id="clip0_4155_14027">
<rect width="30" height="23" fill="white" transform="translate(7 12)"/>
</clipPath>
</defs>
</svg>
