<?xml version="1.0" encoding="utf-8"?>
<!-- Generator: Adobe Illustrator 25.0.1, SVG Export Plug-In . SVG Version: 6.00 Build 0)  -->
<svg version="1.1" id="圖層_1" xmlns="http://www.w3.org/2000/svg" xmlns:xlink="http://www.w3.org/1999/xlink" x="0px" y="0px"
	 viewBox="0 0 45 45" style="enable-background:new 0 0 45 45;" xml:space="preserve">
<style type="text/css">
	.st0{fill:#454545;}
	.st1{fill-rule:evenodd;clip-rule:evenodd;fill:#454545;}
</style>
<path class="st0" d="M31.7,24.2c1.2-1.8,1.9-4,1.9-6.3c0-6.2-5-11.2-11.2-11.2c-6.2,0-11.2,5-11.2,11.2c0,2.4,0.8,4.7,2.1,6.5
	l-5.9,8.4l5.5-1l1,5.5l5.9-8.5c0.8,0.2,1.7,0.3,2.6,0.3c1,0,2-0.1,2.9-0.4l6,8.6l1-5.5l5.5,1L31.7,24.2z M20.6,27.5
	c-0.2,0-0.5-0.1-0.7-0.2c0,0-0.1,0-0.1,0c-0.2-0.1-0.5-0.1-0.7-0.2c-1.6-0.6-3-1.5-4.1-2.8c-0.2-0.2-0.3-0.4-0.5-0.6c0,0,0,0,0-0.1
	c-0.1-0.2-0.3-0.4-0.4-0.6c-1-1.5-1.5-3.3-1.5-5.2c0-5.4,4.4-9.8,9.8-9.8c5.4,0,9.8,4.4,9.8,9.8c0,1.8-0.5,3.5-1.4,5
	c-0.1,0.2-0.3,0.4-0.4,0.6c0,0-0.1,0.1-0.1,0.1c-0.1,0.2-0.2,0.3-0.4,0.5c-0.2,0.2-0.3,0.4-0.5,0.5c-0.1,0.1-0.2,0.2-0.2,0.2
	c-0.1,0.1-0.2,0.2-0.4,0.3c-0.1,0.1-0.3,0.3-0.5,0.4c-0.1,0.1-0.2,0.2-0.3,0.2c-0.1,0.1-0.3,0.2-0.4,0.3c-0.1,0-0.1,0.1-0.2,0.1
	c-0.3,0.2-0.6,0.4-1,0.5c0,0,0,0,0,0c-0.2,0.1-0.4,0.2-0.6,0.2c-0.5,0.2-1,0.3-1.5,0.4c-0.7,0.1-1.3,0.2-2,0.2
	C21.8,27.7,21.2,27.6,20.6,27.5z"/>
<path class="st1" d="M22.4,10.3c4.1,0,7.5,3.4,7.5,7.5c0,4.1-3.4,7.5-7.5,7.5c-4.1,0-7.5-3.4-7.5-7.5C14.9,13.6,18.2,10.3,22.4,10.3
	z M23.7,16.4l-1.3-4.1L21,16.4h-4.4l3.5,2.6l-1.3,4.1l3.5-2.6l3.5,2.6L24.6,19l3.5-2.6H23.7z"/>
</svg>
