<svg width="45" height="45" viewBox="0 0 45 45" fill="none" xmlns="http://www.w3.org/2000/svg">
<path d="M35.7484 18.3566C35.3156 17.0223 34.3893 15.9413 33.144 15.3138C32.3924 14.9472 31.5572 14.7507 30.7257 14.7507C30.5093 14.7507 30.2967 14.762 30.0841 14.7885L29.9589 14.8036L29.9209 14.6826L27.9582 8.65768C27.8936 8.46113 27.7911 8.3175 27.6582 8.23435L27.6431 8.22679L27.6317 8.21923C27.4684 8.0756 27.271 8 27.0584 8C26.7737 8 26.5041 8.13607 26.3143 8.37042L19.4884 16.9391C19.2644 17.1962 19.1885 17.5515 19.2834 17.8501L19.3289 17.9937L19.1847 18.0391L12.7156 20.1255C11.3603 20.5639 10.2631 21.5089 9.62153 22.7864L9.60635 22.8167C8.94198 24.1018 8.82049 25.5495 9.25708 26.8988C9.66329 28.1499 10.5213 29.2045 11.6678 29.8659C12.5144 30.3498 13.4217 30.603 14.2949 30.603C14.4506 30.603 14.6062 30.5954 14.7581 30.5803L14.8454 30.5728L14.8985 30.6408L20.2363 37.6334C20.4109 37.8677 20.6729 38 20.9614 38C21.174 38 21.3752 37.9282 21.5498 37.7959L23.2886 36.5032L25.0084 35.2257C25.4298 34.8893 25.5171 34.3034 25.1982 33.8914L21.3524 28.8454L21.2233 28.6753L21.4283 28.6073L22.5103 28.2595L22.6584 28.2142L22.7039 28.3616C22.8026 28.664 23.0494 28.8983 23.3531 28.9853L33.9375 31.9524C34.0438 31.994 34.1387 32.0129 34.2412 32.0129C34.3399 32.0129 34.4424 31.9977 34.5449 31.9637C34.7879 31.8843 34.9815 31.7218 35.0992 31.5026C35.2131 31.2834 35.2359 31.0339 35.1599 30.7995L33.1858 24.7255L33.1478 24.6045L33.2617 24.544C34.2146 24.0338 34.9625 23.2703 35.4257 22.3291C36.0559 21.112 36.1736 19.6681 35.7484 18.3566ZM21.9333 26.4831L19.3935 27.3033C19.1467 27.3826 18.9455 27.5527 18.8278 27.7757C18.7139 27.995 18.6873 28.2482 18.7595 28.4674C18.805 28.6111 18.8658 28.7169 18.9531 28.819L23.0266 34.1522L23.1215 34.2732L23.0001 34.3639L22.1459 35.0064L21.2993 35.6603L21.1778 35.7548L21.0829 35.6339L16.0223 29.0117C15.8438 28.7736 15.5667 28.6375 15.263 28.6375C15.2022 28.6375 15.1415 28.6413 15.0846 28.6526C14.853 28.7018 14.61 28.7282 14.367 28.7282C13.7558 28.7282 13.1484 28.5619 12.6169 28.2444C11.8462 27.7946 11.2995 27.1332 11.0376 26.3243C10.7529 25.4512 10.844 24.5138 11.2882 23.6822C11.6906 22.8394 12.4043 22.2157 13.2965 21.9284L19.7693 19.842L19.9136 19.7966L19.9591 19.9403L22.0244 26.2903L22.0699 26.4339L21.9333 26.4831ZM32.5366 29.624L24.4199 27.3259L24.3402 27.3033L24.3136 27.2239L24.1731 26.793L24.1656 26.7703L24.1504 26.725L24.139 26.6909L21.4246 18.349L21.417 18.3263L21.4094 18.3036L21.398 18.2696L21.2537 17.8274L21.2271 17.748L21.2765 17.6838L26.5041 11.107L26.6826 10.884L26.7699 11.1561L32.7226 29.4313L32.81 29.7034L32.5366 29.624ZM33.7401 21.4635C33.5503 21.9171 33.2276 22.2989 32.7264 22.6617L32.5556 22.7864L32.4911 22.5861L30.608 16.7993L30.5397 16.5952L30.7561 16.599C31.2762 16.6103 31.8039 16.7464 32.2823 16.9883C33.0985 17.4041 33.6793 18.0769 33.9565 18.9311C34.2412 19.808 34.1615 20.7303 33.7401 21.4635Z" fill="#454545"/>
</svg>
