<svg width="26" height="26" viewBox="0 0 26 26" fill="none" xmlns="http://www.w3.org/2000/svg">
<g clip-path="url(#clip0_4159_13484)">
<g clip-path="url(#clip1_4159_13484)">
<path d="M21.9979 8.86378C21.9979 7.9476 21.3774 7.33574 20.4602 7.33467C19.6372 7.33467 18.8143 7.33467 17.9956 7.33467C17.8563 7.33467 17.8241 7.29716 17.8263 7.16215C17.8349 6.62637 17.8263 6.09059 17.8263 5.55481C17.8263 4.6022 17.2144 3.99355 16.2586 3.99248C12.7067 3.99248 9.15418 3.99248 5.60089 3.99248C5.4639 3.99009 5.32704 4.0023 5.19263 4.02891C4.47576 4.18536 4.03535 4.75972 4.03535 5.53552C4.03535 7.75793 4.03535 9.9807 4.03535 12.2038C4.03535 14.3684 4.03535 16.5326 4.03535 18.6964C4.02857 19.0092 4.06462 19.3214 4.14251 19.6244C4.53255 21.0227 5.74984 21.9303 7.24038 21.9303C11.1066 21.9303 14.9727 21.9303 18.8389 21.9303C18.9171 21.9303 18.9954 21.9303 19.0736 21.9303C20.7088 22.0129 21.9979 20.8138 22.0011 19.1829C22.0046 15.7453 22.0036 12.3056 21.9979 8.86378ZM16.7847 20.682H7.26395C6.2524 20.682 5.49696 20.0862 5.31586 19.1411C5.29226 18.993 5.28257 18.8431 5.28693 18.6932C5.28693 14.3269 5.28693 9.96034 5.28693 5.59339C5.28693 5.28478 5.31907 5.25263 5.62018 5.25263H16.2372C16.5265 5.25263 16.5726 5.30085 16.5726 5.59768C16.5683 8.70591 16.564 11.8134 16.5597 14.9202C16.5597 16.34 16.5715 17.7609 16.5715 19.1818C16.5688 19.7111 16.7139 20.2307 16.9905 20.682H16.7847ZM20.7495 19.1647C20.7495 19.9147 20.3209 20.472 19.6286 20.6413C18.7435 20.8556 17.8531 20.2126 17.8402 19.3007C17.8209 17.9902 17.8402 16.6808 17.8402 15.3703C17.8402 14.9266 17.8402 14.4841 17.8402 14.0405C17.8402 12.2874 17.8402 10.5343 17.8402 8.7802C17.8402 8.61625 17.882 8.57982 18.0427 8.58196C18.8389 8.59053 19.6361 8.58196 20.4323 8.58196C20.7066 8.58196 20.7538 8.62911 20.7538 8.89486C20.7481 12.3196 20.7449 15.7428 20.7441 19.1647H20.7495Z" fill="black"/>
<path d="M10.918 13.5926C9.67819 13.5926 8.4384 13.5926 7.19861 13.5926C6.70783 13.5926 6.39172 13.1254 6.59639 12.7043C6.65017 12.5879 6.73821 12.4908 6.8487 12.4259C6.9592 12.361 7.08689 12.3314 7.21468 12.341C8.81345 12.341 10.4122 12.341 12.011 12.341H14.6138C15.0263 12.341 15.3157 12.5993 15.3167 12.9657C15.3178 13.3322 15.0274 13.5915 14.617 13.5926H10.918Z" fill="black"/>
<path d="M10.9276 16.0957C9.68819 16.0957 8.44876 16.0957 7.20932 16.0957C6.84714 16.0957 6.57389 15.8642 6.54495 15.5406C6.53316 15.453 6.54051 15.3638 6.56648 15.2793C6.59245 15.1948 6.63643 15.1169 6.6954 15.051C6.75437 14.9851 6.82692 14.9328 6.90806 14.8976C6.98919 14.8625 7.07698 14.8453 7.16538 14.8473C9.67069 14.8473 12.176 14.8473 14.6813 14.8473C14.7633 14.8483 14.8444 14.8654 14.9198 14.8978C14.9952 14.9301 15.0635 14.9769 15.1208 15.0356C15.1781 15.0943 15.2233 15.1637 15.2538 15.2399C15.2843 15.3161 15.2995 15.3975 15.2985 15.4795C15.2975 15.5616 15.2804 15.6426 15.2481 15.718C15.2158 15.7935 15.1689 15.8618 15.1102 15.9191C15.0515 15.9764 14.9821 16.0216 14.9059 16.0521C14.8298 16.0826 14.7483 16.0978 14.6663 16.0968C13.4201 16.0978 12.1738 16.0957 10.9276 16.0957Z" fill="black"/>
<path d="M10.9169 18.6021C9.67711 18.6021 8.43732 18.6021 7.1986 18.6021C6.70675 18.6021 6.39172 18.1349 6.59638 17.7138C6.65047 17.5975 6.73872 17.5004 6.84937 17.4355C6.96002 17.3706 7.08783 17.3409 7.21575 17.3505C8.84023 17.3505 10.4647 17.3505 12.0892 17.3505C12.93 17.3505 13.7715 17.3505 14.6138 17.3505C15.0263 17.3505 15.3156 17.6098 15.3167 17.9752C15.3178 18.3406 15.0274 18.6021 14.6223 18.6021H10.9169Z" fill="black"/>
<path d="M13.6322 8.16515C13.3 8.16515 12.9678 8.16515 12.6346 8.16515C12.2499 8.16515 11.9713 7.8994 11.9681 7.54686C11.9683 7.46185 11.9856 7.37776 12.0191 7.2996C12.0525 7.22144 12.1013 7.15081 12.1626 7.09191C12.2239 7.03301 12.2964 6.98706 12.3759 6.95679C12.4553 6.92652 12.54 6.91255 12.6249 6.91571C13.3036 6.90928 13.9822 6.90928 14.6609 6.91571C14.7459 6.91284 14.8305 6.92705 14.9099 6.9575C14.9893 6.98794 15.0617 7.034 15.123 7.09296C15.1842 7.15191 15.233 7.22255 15.2665 7.3007C15.2999 7.37885 15.3174 7.46292 15.3178 7.54793C15.3178 7.90047 15.0349 8.16086 14.6513 8.16515C14.3105 8.16836 13.9719 8.16515 13.6322 8.16515Z" fill="black"/>
<path d="M13.6311 10.6726C13.299 10.6726 12.9668 10.6726 12.6335 10.6726C12.2499 10.6726 11.9713 10.4058 11.9681 10.0543C11.9685 9.96925 11.9859 9.88514 12.0195 9.80697C12.053 9.7288 12.1019 9.65818 12.1633 9.5993C12.2247 9.54041 12.2973 9.49448 12.3768 9.46422C12.4563 9.43396 12.541 9.42 12.626 9.42316C13.3047 9.41673 13.9833 9.41673 14.662 9.42316C14.7469 9.42043 14.8316 9.43478 14.9109 9.46536C14.9902 9.49594 15.0626 9.54212 15.1237 9.60117C15.1849 9.66022 15.2336 9.73094 15.2669 9.80914C15.3002 9.88735 15.3175 9.97144 15.3178 10.0564C15.3178 10.409 15.0349 10.6683 14.6502 10.6726C14.3094 10.6726 13.9708 10.6726 13.6311 10.6726Z" fill="black"/>
<path d="M11.1344 7.59611C11.1344 6.9446 10.6983 6.50741 10.0436 6.50419C9.24062 6.49991 8.43802 6.49991 7.63578 6.50419C6.97463 6.50419 6.54601 6.93281 6.54065 7.58968C6.54065 7.99366 6.54065 8.39763 6.54065 8.80054C6.54065 9.20344 6.54065 9.60849 6.54065 10.0125C6.54815 10.6554 6.98534 11.084 7.62828 11.084C8.43123 11.084 9.23419 11.084 10.0371 11.084C10.6876 11.084 11.1323 10.6425 11.1344 9.99532C11.1366 9.19808 11.1366 8.39835 11.1344 7.59611ZM9.88069 8.80054C9.88069 9.107 9.88069 9.41347 9.88069 9.71993C9.88069 9.81316 9.85605 9.83995 9.76175 9.83995C9.14168 9.83566 8.5216 9.83566 7.90153 9.83995C7.81795 9.83995 7.79437 9.81852 7.79437 9.73279C7.79437 9.11451 7.79437 8.49514 7.79437 7.87686C7.79437 7.76113 7.8458 7.7547 7.93581 7.75577C8.54231 7.75577 9.14881 7.75577 9.75746 7.75577C9.86462 7.75577 9.88926 7.78363 9.88712 7.88543C9.8764 8.18868 9.88069 8.49514 9.88069 8.80054V8.80054Z" fill="black"/>
</g>
</g>
<defs>
<clipPath id="clip0_4159_13484">
<rect width="26" height="26" fill="white"/>
</clipPath>
<clipPath id="clip1_4159_13484">
<rect width="17.9689" height="17.9411" fill="white" transform="translate(4.03107 4)"/>
</clipPath>
</defs>
</svg>
