<svg width="45" height="45" viewBox="0 0 45 45" fill="none" xmlns="http://www.w3.org/2000/svg">
<path d="M22 8C13.7184 8 7 14.7184 7 23C7 31.2854 13.7184 38 22 38C30.2854 38 37 31.2816 37 23C37.0038 14.7184 30.2854 8 22 8ZM22 35.0739C20.6987 35.0739 19.4435 34.866 18.2692 34.481C17.7187 33.6917 16.6407 32.1825 16.1632 31.5434L19.1779 27.4661C20.4061 27.5123 23.7248 27.5123 24.8298 27.4623L27.8175 31.5588C27.3324 32.2094 26.2659 33.7033 25.723 34.4849C24.5526 34.866 23.3013 35.0739 22 35.0739ZM18.0305 11.6037C18.9007 11.9079 20.9374 12.5778 21.6997 12.8126V17.5945C20.7988 18.1951 17.761 20.4012 16.9217 21.0634L12.2785 19.5927C12.29 18.8457 12.2823 16.8629 12.2631 15.8696C13.6992 13.9215 15.7051 12.4161 18.0305 11.6037ZM31.6753 15.7849C31.6561 16.7782 31.6484 18.9805 31.6599 19.6735L26.9435 21.0287C26.0696 20.3434 23.2397 18.2875 22.2811 17.6407V12.8088C23.0164 12.5739 24.9915 11.8963 25.8848 11.5729C28.2141 12.366 30.2277 13.8483 31.6753 15.7849ZM12.0937 20.1394L16.7908 21.6255C17.1219 22.7998 18.2924 26.3996 18.6235 27.2428L15.7243 31.1622C15.1083 30.9543 13.2449 30.3768 12.2246 30.0726C10.7847 28.0898 9.93378 25.6566 9.92608 23.0231C10.5459 22.2261 11.6663 20.7323 12.0937 20.1394ZM31.7793 30.0726C30.7474 30.3806 28.8493 30.9697 28.2526 31.1699L25.3226 27.1504C25.6999 26.1494 26.8396 22.6458 27.136 21.5716L31.8948 20.2048C32.3683 20.8593 33.4926 22.3532 34.0739 23.104C34.0508 25.7066 33.2038 28.1091 31.7793 30.0726ZM33.1614 15.6771C32.7649 15.5578 32.3645 15.4422 32.0834 15.3691C30.5857 13.394 28.5221 11.8732 26.135 11.0454C25.9695 10.7952 25.7307 10.4487 25.4882 10.1137C28.6799 10.9761 31.3942 12.9859 33.1614 15.6771ZM18.4849 10.1214C18.2538 10.4525 18.0228 10.7952 17.8573 11.0493C15.4856 11.8732 13.4297 13.3863 11.9358 15.346C11.6702 15.4153 11.2659 15.5308 10.854 15.6502C12.6211 12.982 15.3201 10.9838 18.4849 10.1214ZM8.65169 23C8.65169 22.8344 8.65939 22.6727 8.66324 22.511C8.9366 22.8768 9.20226 23.2233 9.36011 23.412C9.44096 25.8683 10.2187 28.1514 11.5085 30.0649C11.4892 30.2998 11.4777 30.7387 11.47 31.2046C9.70662 28.9407 8.65169 26.0955 8.65169 23ZM17.2836 35.4936C17.6879 35.3511 18.0806 35.2087 18.3309 35.1086C19.4936 35.4628 20.7256 35.6514 22 35.6514C23.2744 35.6514 24.5026 35.4589 25.6653 35.1086C25.9194 35.2087 26.3121 35.3511 26.7125 35.4936C25.2456 36.048 23.6594 36.3522 22 36.3522C20.3406 36.3522 18.7505 36.048 17.2836 35.4936ZM32.5262 31.2123C32.5185 30.7503 32.5031 30.3152 32.4877 30.0765C33.7967 28.1437 34.5821 25.826 34.6437 23.335C34.817 23.1194 35.0788 22.7805 35.3368 22.434C35.3445 22.6227 35.3522 22.8152 35.3522 23.0039C35.3522 26.0993 34.2972 28.9446 32.5262 31.2123Z" fill="#454545"/>
</svg>
