<?xml version="1.0" encoding="utf-8"?>
<!-- Generator: Adobe Illustrator 25.0.1, SVG Export Plug-In . SVG Version: 6.00 Build 0)  -->
<svg version="1.1" id="圖層_1" xmlns="http://www.w3.org/2000/svg" xmlns:xlink="http://www.w3.org/1999/xlink" x="0px" y="0px"
	 viewBox="0 0 55 47" style="enable-background:new 0 0 55 47;" xml:space="preserve">
<style type="text/css">
	.st0{fill:#FFFFFF;stroke:#A25700;stroke-width:1.7818;stroke-linecap:round;stroke-linejoin:round;stroke-miterlimit:10;}
	.st1{fill:#999999;}
	.st2{fill:#999999;stroke:#000000;stroke-width:1.4329;stroke-miterlimit:10;}
	.st3{fill:#FFFFFF;stroke:#000000;stroke-width:1.4329;stroke-miterlimit:10;}
	.st4{fill:#545454;stroke:#000000;stroke-width:1.4329;stroke-miterlimit:10;}
	.st5{fill:#D3D3D3;stroke:#000000;stroke-width:1.4329;stroke-miterlimit:10;}
	.st6{opacity:0.6;fill:#FF6D00;enable-background:new    ;}
	.st7{opacity:0.6;fill:#FFA943;enable-background:new    ;}
	.st8{fill:none;stroke:#000000;stroke-width:1.8479;stroke-linecap:round;stroke-linejoin:round;stroke-miterlimit:10;}
	.st9{fill:none;stroke:#A25700;stroke-width:1.6131;stroke-linecap:round;stroke-linejoin:round;stroke-miterlimit:10;}
	.st10{fill:none;stroke:#A25700;stroke-width:1.7818;stroke-linecap:round;stroke-linejoin:round;stroke-miterlimit:10;}
	.st11{fill:none;stroke:#000000;stroke-width:1.7818;stroke-linecap:round;stroke-linejoin:round;stroke-miterlimit:10;}
	.st12{fill:none;stroke:#4D4D4D;stroke-width:0.9162;stroke-linecap:round;stroke-linejoin:round;stroke-miterlimit:10;}
	.st13{fill:#FFFFFF;stroke:#000000;stroke-width:1.7818;stroke-linecap:round;stroke-linejoin:round;stroke-miterlimit:10;}
	.st14{fill:#FFFFFF;stroke:#000000;stroke-width:1.8479;stroke-linecap:round;stroke-linejoin:round;stroke-miterlimit:10;}
	.st15{fill:#D6682C;stroke:#000000;stroke-width:1.5;}
	.st16{fill:#FFFFFF;stroke:#231815;stroke-width:2;stroke-miterlimit:10;}
	.st17{fill:#F7E47F;}
	.st18{fill:#FFFFFF;}
</style>
<g>
	<g>
		<g>
			<g>
				<path class="st0" d="M49,27.8c-0.3-2.4-0.7-4.9-1.4-7.3c-1.1-3.7-2.7-7.1-5.1-9c-2.7-2.2-5.4-3.5-7.9-4.2
					c-3.9-1-7.7-0.8-11.5-0.3c-0.7,0.1-1.3,0.2-1.9,0.4C16.1,8.6,12,12.2,10,16.1c-0.2,0.3-0.3,0.7-0.5,1c-0.8,2-1.8,5.6-2.7,9.7
					C6.4,28.5,6,30.3,5.7,32c-0.8,4.3-1.4,8.3-1.5,10.6c0,3.2-0.5-6.2,3.6-3.1c-0.1,1.2-0.3,2.6-0.9,3.5c-1.1,1.6,2.6,1.9,3.9,1.2
					c0.8-0.4,1.6-1.3,2.2-2.3c3,0.9,6.9,1.4,12.1,1.2c5.2-0.1,9.2-1.2,12.3-2.6c0.9,1.3,2.2,2.4,3.4,2.8c1.5,0.5,5.5-0.5,4-2
					c-1.1-1.1-1.7-3.5-1.9-4.7c4.4-4.5,6,3.7,6.4,1.4c0.2-1.1,0.3-3.2,0.2-5.9c0.3,0.1,1.2,0.4,2,0C52.1,31.8,50,29,49,27.8z"/>
				<path class="st1" d="M28.3,6.6c0,0,0.5,21.3-21.6,20.1C6.7,26.7,9.2,5.2,28.3,6.6z"/>
				<g>
					<path class="st2" d="M18.4,8.3c0.9-0.4,1.8-0.7,2.7-0.9c-3-1.4-7.5-3.2-8.6-2.3c-1.1,1-2.2,7-2.6,10.9c0.8-1.5,1.9-3,3.2-4.2
						c0.1-1.3,0.3-2.8,0.6-4.1C13.9,6.6,15.9,7.1,18.4,8.3z"/>
					<path class="st3" d="M45,5.3c-1.4-1.2-7.2,0.8-10.4,2c1.3,0.3,2.6,0.8,3.9,1.5c1.2-0.6,2.9-1.3,4.1-1.3c1.2,0,1.9,3.5,2.3,6.6
						c1.2,1.8,2.1,4,2.7,6.4C47.7,15.8,46.5,6.5,45,5.3z"/>
					<path class="st4" d="M13.7,7.7c-0.3,1.3-0.5,2.8-0.6,4.1c1.5-1.4,3.3-2.7,5.3-3.5C15.9,7.1,13.9,6.6,13.7,7.7z"/>
					<path class="st5" d="M42.6,7.5c-1.2,0-2.8,0.7-4.1,1.3c1.3,0.7,2.6,1.6,4,2.6c0.9,0.7,1.7,1.6,2.3,2.7
						C44.5,11,43.8,7.5,42.6,7.5z"/>
				</g>
				<g>
					<g>
						<path d="M19,18.6c-0.6,0.5-1.3,0.8-2.2,0.8c-0.9,0-1.7-0.4-2.3-1s-0.9-1.4-0.9-2.3s0.4-1.7,1-2.3s1.4-0.9,2.3-0.9
							c0.9,0,1.7,0.4,2.3,1c0.6,0.6,0.9,1.4,0.9,2.3l0,0C20.1,17.1,19.7,18,19,18.6z M15.3,14.3l-0.1,0.1c-0.5,0.5-0.7,1.1-0.7,1.7
							c0,1.3,1.1,2.5,2.4,2.5s2.5-1.1,2.5-2.4l0,0c0-0.7-0.2-1.3-0.7-1.7c-0.5-0.5-1.1-0.7-1.7-0.7C16.3,13.7,15.8,13.9,15.3,14.3z"
							/>
					</g>
					<g>
						<circle cx="16.9" cy="16.1" r="2"/>
					</g>
				</g>
				<g>
					<g>
						<path d="M39.4,19.7c-0.6,0.5-1.4,0.8-2.2,0.8c-0.9,0-1.7-0.4-2.3-1S34,18.1,34,17.2s0.4-1.7,1-2.3s1.4-0.9,2.3-0.9
							c1.8,0,3.2,1.5,3.2,3.3l0,0c0,0.9-0.4,1.7-1,2.3C39.5,19.6,39.5,19.7,39.4,19.7z M35.7,15.4l-0.1,0.1
							c-0.5,0.5-0.7,1.1-0.7,1.7c0,1.3,1.1,2.5,2.4,2.5c0.7,0,1.3-0.2,1.7-0.7c0.5-0.5,0.7-1.1,0.7-1.7l0,0c0-1.3-1.1-2.5-2.4-2.5
							C36.7,14.8,36.2,15,35.7,15.4z"/>
					</g>
					<g>
						<circle cx="37.3" cy="17.2" r="2"/>
					</g>
				</g>
				<path d="M28.4,17.9c-0.1,0-0.2,0-0.2,0.1c0,0-0.2,0.3-0.5,0.3c-0.4,0-0.6-0.1-0.5-0.5l0,0l0.3-0.2c0.2-0.2,0.1-0.5-0.2-0.5h-0.5
					c-0.3,0-0.4,0.3-0.2,0.5l0.3,0.2l0,0c0,0.4-0.2,0.5-0.6,0.4c-0.3,0-0.4-0.3-0.4-0.3c0-0.1-0.1-0.1-0.2-0.1s-0.1,0.1-0.1,0.2
					c0,0,0.2,0.5,0.7,0.5c0.2,0,0.5,0,0.7-0.2c0.2,0.2,0.5,0.2,0.7,0.2c0.5,0,0.7-0.5,0.7-0.5C28.5,18,28.4,17.9,28.4,17.9z"/>
				
					<ellipse transform="matrix(1.394018e-02 -0.9999 0.9999 1.394018e-02 -8.3277 33.9651)" class="st6" cx="13.1" cy="21.2" rx="1.4" ry="2.5"/>
				
					<ellipse transform="matrix(1.394018e-02 -0.9999 0.9999 1.394018e-02 17.2632 61.4645)" class="st6" cx="39.8" cy="22" rx="1.4" ry="2.5"/>
				<path class="st7" d="M26.1,22.3c21,0,19.4,17.4,19.3,21C45.2,46.9,28,45.5,25,43.2C19.5,39,10.7,45.3,9.5,42
					C5.8,32.3,15.6,22.3,26.1,22.3z"/>
				<path class="st8" d="M48.5,27.2c0,0,3.8,4.4,2.8,5c-1,0.6-2.1,0-2.1,0l-3.5-2.9"/>
				<path class="st9" d="M7.7,37.8c0,0,0.2,3.6-1,5.2c-1.1,1.6,2.6,1.9,3.9,1.2c1.2-0.7,2.7-2.5,2.9-4.2"/>
				<path class="st10" d="M42.6,35.9c0,0,0.5,4,2,5.5s-2.5,2.6-4,2c-1.5-0.5-3.4-2.3-4-4"/>
				<path class="st11" d="M49,27.8c-0.3-2.4-0.7-4.9-1.4-7.3c-1.1-3.7-2.7-7.1-5.1-9c-2.7-2.2-5.4-3.5-7.9-4.2
					c-3.9-1-7.7-0.8-11.5-0.3c-0.7,0.1-1.3,0.2-1.9,0.4C16.1,8.6,12,12.2,10,16.1c-0.2,0.3-0.3,0.7-0.5,1c-0.8,2-1.8,5.6-2.7,9.7
					C6.4,28.5,6,30.3,5.7,32c-0.8,4.3-1.4,8.3-1.5,10.6c0,3.2-0.5-6.2,3.6-3.1c-0.1,1.2-0.3,2.6-0.9,3.5c-1.1,1.6,2.6,1.9,3.9,1.2
					c0.8-0.4,1.6-1.3,2.2-2.3c3,0.9,6.9,1.4,12.1,1.2c5.2-0.1,9.2-1.2,12.3-2.6c0.9,1.3,2.2,2.4,3.4,2.8c1.5,0.5,5.5-0.5,4-2
					c-1.1-1.1-1.7-3.5-1.9-4.7c4.4-4.5,6,3.7,6.4,1.4c0.2-1.1,0.3-3.2,0.2-5.9c0.3,0.1,1.2,0.4,2,0C52.1,31.8,50,29,49,27.8z"/>
				<path class="st12" d="M12,17.6c0,0-7.9,0-9.7,2"/>
				<path class="st12" d="M11.4,18.9c0,0-7.7,1.9-8.9,4.2"/>
				<path class="st12" d="M43.8,18.1c0,0,7.9,0.3,9.6,2.2"/>
				<path class="st12" d="M44.3,19.4c0,0,7.6,2.1,8.8,4.5"/>
			</g>
		</g>
	</g>
	<path class="st13" d="M6.7,26.7L6.7,26.7c-0.1,0-4.7,4.5-3.7,5.2c1.5,1,4.1-1,4.1-1l3.1-3.2"/>
	<path class="st14" d="M48.6,26.7c0,0,2.7,3.4,2.1,4.4c-1.1,1.8-5-1.8-5-1.8l-2-1.9"/>
</g>
<path class="st15" d="M33.2,45.5H4.3c-1.2,0-2.2-1-2.2-2.2V32.5c0-1.2,1-2.2,2.2-2.2h28.9c1.2,0,2.2,1,2.2,2.2v10.8
	C35.4,44.5,34.4,45.5,33.2,45.5z"/>
<circle class="st16" cx="42.4" cy="35" r="10.8"/>
<g>
	<path class="st17" d="M42.3,43.6c4.7,0,8.6-3.8,8.6-8.6s-3.8-8.6-8.6-8.6c-4.7,0-8.6,3.8-8.6,8.6S37.6,43.6,42.3,43.6z"/>
	<g>
		<path class="st15" d="M47.9,32.1l-7.3-2.6c-2.4-0.9-5.1,0.4-5.9,2.8l-0.1,0.2c-0.8,2.4,0.4,5.1,2.8,5.9l7.3,2.6
			c2.4,0.9,5.1-0.4,5.9-2.8l0.1-0.2C51.6,35.6,50.3,32.9,47.9,32.1z"/>
		<path class="st18" d="M46.3,41.8c-0.6,0-1.2-0.1-1.8-0.3L37.4,39c-0.7-0.2-1.3-0.6-1.8-1.1s-0.9-1-1.2-1.7s-0.5-1.3-0.5-2
			s0.1-1.4,0.3-2.1c0.2-0.7,0.6-1.3,1.1-1.8s1-0.9,1.7-1.2c0.6-0.3,1.3-0.5,2-0.5s1.4,0.1,2.1,0.3l7,2.5c1.2,0.4,2.2,1.2,2.8,2.3
			s0.9,2.4,0.7,3.6c-0.2,1.2-0.9,2.4-1.8,3.2C48.7,41.4,47.5,41.8,46.3,41.8L46.3,41.8z M39.2,29.8c-0.6,0-1.3,0.1-1.8,0.4
			c-0.8,0.4-1.4,0.9-1.8,1.7c-0.4,0.7-0.6,1.5-0.6,2.4c0,0.8,0.3,1.6,0.8,2.3s1.2,1.2,2,1.4l7,2.5c1.1,0.4,2.2,0.3,3.2-0.2
			s1.8-1.4,2.2-2.4c0.4-1.1,0.3-2.2-0.2-3.2s-1.3-1.8-2.4-2.2l-7-2.5C40.1,29.9,39.7,29.8,39.2,29.8L39.2,29.8z"/>
		<path class="st18" d="M40.1,35.5c-0.1,0-0.3,0-0.4-0.1l-3-1.1c-0.3-0.1-0.5-0.3-0.6-0.6s-0.1-0.6,0-0.8c0.1-0.3,0.3-0.5,0.5-0.6
			c0.3-0.1,0.5-0.2,0.8-0.1l3,1.1c0.3,0.1,0.5,0.3,0.6,0.5s0.2,0.5,0.1,0.8c0,0.3-0.2,0.5-0.4,0.7C40.6,35.4,40.4,35.5,40.1,35.5
			L40.1,35.5z"/>
		<path class="st18" d="M38.1,36.5c-0.2,0-0.4,0-0.5-0.1c-0.2-0.1-0.3-0.2-0.4-0.3C37.1,36,37,35.8,37,35.6s0-0.4,0-0.5l1.1-3
			c0-0.1,0.1-0.3,0.2-0.4c0.1-0.1,0.2-0.2,0.3-0.3c0.1-0.1,0.3-0.1,0.4-0.1c0.1,0,0.3,0,0.4,0.1c0.1,0,0.3,0.1,0.4,0.2
			c0.1,0.1,0.2,0.2,0.3,0.3c0.1,0.1,0.1,0.3,0.1,0.4s0,0.3-0.1,0.4l-1.1,3c-0.1,0.2-0.2,0.4-0.4,0.5C38.5,36.4,38.3,36.5,38.1,36.5
			L38.1,36.5z"/>
		<path class="st18" d="M44.4,36.7c0.4,0,0.7-0.3,0.7-0.7s-0.3-0.7-0.7-0.7s-0.7,0.3-0.7,0.7S44,36.7,44.4,36.7z"/>
		<path class="st18" d="M47.3,35.3c0.4,0,0.7-0.3,0.7-0.7s-0.3-0.7-0.7-0.7s-0.7,0.3-0.7,0.7C46.7,35,47,35.3,47.3,35.3z"/>
		<path class="st18" d="M45.6,39.2c0.4,0,0.7-0.3,0.7-0.7s-0.3-0.7-0.7-0.7s-0.7,0.3-0.7,0.7C45,38.9,45.3,39.2,45.6,39.2z"/>
		<path class="st18" d="M48.6,37.8c0.4,0,0.7-0.3,0.7-0.7s-0.3-0.7-0.7-0.7s-0.7,0.3-0.7,0.7C47.9,37.5,48.2,37.8,48.6,37.8z"/>
		<path d="M39.2,29.3c0.5,0,1.1,0.1,1.6,0.3l7,2.5c1.2,0.4,2.1,1.3,2.7,2.4c0.5,1.1,0.6,2.4,0.2,3.6c-0.4,1.2-1.3,2.2-2.4,2.7
			c-1.1,0.6-2.4,0.6-3.6,0.2l-7.1-2.5c-1.1-0.4-2-1.1-2.5-2.1c-0.6-1-0.8-2.1-0.6-3.2c0.2-1.1,0.8-2.1,1.6-2.8
			C37,29.7,38,29.3,39.2,29.3L39.2,29.3z M39.2,28.7c-1.1,0-2.2,0.3-3.1,1s-1.6,1.5-2,2.6c-0.5,1.3-0.4,2.8,0.2,4.1
			c0.6,1.3,1.7,2.3,3,2.7l7.1,2.5c0.6,0.2,1.2,0.3,1.8,0.3c0.9,0,1.8-0.2,2.6-0.7c0.8-0.4,1.5-1.1,1.9-1.8c0.5-0.8,0.8-1.6,0.8-2.5
			c0.1-0.9-0.1-1.8-0.5-2.6c-0.3-0.6-0.7-1.2-1.2-1.7s-1.1-0.8-1.8-1.1L41,29C40.4,28.8,39.8,28.7,39.2,28.7L39.2,28.7z"/>
		<path d="M39.2,28.7c0.6,0,1.2,0.1,1.8,0.3l7,2.5c1.2,0.4,2.2,1.2,2.8,2.3s0.9,2.4,0.7,3.6c-0.2,1.2-0.9,2.4-1.8,3.2
			c-1,0.8-2.2,1.3-3.4,1.3c-0.6,0-1.2-0.1-1.8-0.3l-7.1-2.5c-1-0.3-1.9-1-2.5-1.8s-1-1.9-1.1-2.9c-0.1-1.1,0.2-2.1,0.7-3
			c0.5-0.9,1.3-1.6,2.3-2.1C37.6,28.9,38.4,28.7,39.2,28.7L39.2,28.7z M39.2,28.1c-1.4,0-2.7,0.5-3.8,1.4s-1.8,2.1-2,3.5
			c-0.2,1.4,0,2.8,0.7,4s1.8,2.1,3.1,2.6l7.1,2.5c0.6,0.2,1.3,0.3,1.9,0.3c1.4,0,2.7-0.5,3.8-1.4s1.8-2.1,2-3.5s0-2.8-0.7-4
			s-1.8-2.1-3.1-2.6l-7.1-2.5C40.5,28.3,39.8,28.1,39.2,28.1L39.2,28.1z"/>
	</g>
</g>
<g>
	<path class="st18" d="M15.1,34.3v1.8c0,0.7,0.2,0.8,0.9,0.8h1c0.6,0,0.7-0.2,0.8-1.2c-0.2,0-0.5-0.1-0.6-0.2c0,0.8-0.1,0.9-0.3,0.9
		h-0.8c-0.2,0-0.3,0-0.3-0.2v-1.8L15.1,34.3L15.1,34.3z M12.5,34h4.4v1.1h0.7v-1.7h-5.8v1.8h0.7V34z M13.4,34.3
		c-0.1,1.3-0.4,1.9-1.8,2.3c0.1,0.1,0.3,0.4,0.4,0.5c1.7-0.4,2.1-1.3,2.2-2.8H13.4z M11.5,37.7L11.4,37c-0.3,0.1-0.7,0.2-1,0.3v-1.8
		h1.1v-0.7h-1.1v-2H9.7v2H8.4v0.7h1.3v2c-0.5,0.2-1,0.3-1.4,0.4l0.2,0.7l1.2-0.4V41c0,0.1-0.1,0.2-0.2,0.2c-0.1,0-0.5,0-1,0
		c0.1,0.2,0.2,0.5,0.2,0.7c0.6,0,1,0,1.3-0.1s0.3-0.3,0.3-0.7v-3L11.5,37.7z M17.7,38.6v-0.7H15v-1.1h-0.7v1.1h-2.6v0.7h2.1
		c-0.6,1-1.6,1.9-2.7,2.3c0.2,0.1,0.4,0.4,0.5,0.6c1-0.5,2-1.4,2.7-2.5v2.9H15V39c0.6,1,1.5,1.9,2.4,2.4c0.1-0.2,0.4-0.4,0.5-0.6
		c-0.9-0.4-1.9-1.3-2.5-2.3L17.7,38.6L17.7,38.6z"/>
	<path class="st18" d="M24.7,33.3h-0.9c0,0.1,0.1,0.4,0.1,0.6c0,0.1,0,0.4,0,0.7c-1.5,0-3.5,0.1-4.6,0.1v0.8c1.3-0.1,3-0.2,4.6-0.2
		c0,0.3,0,0.7,0,1c-0.2-0.1-0.4-0.1-0.7-0.1c-1,0-1.8,0.7-1.8,1.7c0,1.1,0.8,1.7,1.7,1.7c0.3,0,0.6-0.1,0.9-0.3
		c-0.4,0.9-1.4,1.5-2.7,1.8l0.7,0.7c2.4-0.7,3.1-2.2,3.1-3.5c0-0.5-0.1-0.9-0.3-1.3c0-0.5,0-1.1,0-1.6c0.1,0,0.1,0,0.1,0
		c1.5,0,2.4,0,3,0v-0.7c-0.5,0-1.8,0-3,0c-0.1,0-0.1,0-0.2,0c0-0.3,0-0.5,0-0.6C24.6,33.8,24.6,33.4,24.7,33.3z M22.1,37.9
		c0-0.6,0.5-1.1,1-1.1c0.4,0,0.7,0.2,0.9,0.6c0.1,0.9-0.3,1.4-0.9,1.4C22.6,38.8,22.1,38.5,22.1,37.9z"/>
</g>
</svg>
