<?xml version="1.0" encoding="utf-8"?>
<!-- Generator: Adobe Illustrator 25.0.1, SVG Export Plug-In . SVG Version: 6.00 Build 0)  -->
<svg version="1.1" id="圖層_1" xmlns="http://www.w3.org/2000/svg" xmlns:xlink="http://www.w3.org/1999/xlink" x="0px" y="0px"
	 viewBox="0 0 321.4 212" style="enable-background:new 0 0 321.4 212;" xml:space="preserve">
<style type="text/css">
	.st0{opacity:0.5;}
	.st1{fill:#278255;}
	.st2{fill:#5BC192;}
	.st3{fill:#FFFFFF;}
</style>
<g class="st0">
	<path class="st1" d="M319,115.5c0.3,0.4,0.8,0.5,1.2,0.5c0.4,0,0.7-0.1,1-0.4c0.6-0.7,0.7-1.7,0.2-2.3c-2.2-2.6-5.9-4.7-10.5-6.4
		c-7-2.7-15.8-4.5-24.2-5.7c-1.3-29.8-7.5-74.5-16.5-82.1c-7.1-6-29.1-2.1-65.5,11.5c0,0,0,0-0.1,0c-25.4-6.8-49.8-4.7-72.6-1.9
		c-4,0.5-8.1,1.3-12.3,2.3c-45.3-20.8-52-14.9-54.2-12.9C56.3,26.4,50.1,74,48.7,85.5c-0.2,0.3-0.4,0.6-0.5,0.9
		c-1.1,2.1-2.1,4.3-3,6.5c-0.5,1.3-1.1,2.7-1.6,4.3c-15.1,1.3-34.2,4.5-40.9,11.7c-0.6,0.6-0.5,1.6,0.1,2.2c0.3,0.3,0.7,0.4,1.1,0.4
		c0.4,0,0.9-0.2,1.2-0.5c5.7-6.3,23-9.2,37.4-10.6c-1,3-2.1,6.2-3.2,9.8C25.1,115.1,8,122.6,3.5,131c-0.4,0.8-0.1,1.7,0.6,2.1
		c0.2,0.1,0.5,0.2,0.8,0.2c0.6,0,1.1-0.3,1.4-0.8c3.9-7.1,18.7-13.8,31.9-18.5c-1.8,6.2-3.7,13.3-5.7,20.9c-0.4,0.9-0.7,1.5-0.7,1.5
		s-2.5,5.1-2.7,12.4c-0.1,2.9,0.2,6.2,1.1,9.6c1.2,4.4,3.4,9.1,7.4,13.7c1.2,1.5,2.7,2.9,4.3,4.3c11.3,10,31.8,19.1,68.5,23.2
		c93.9,10.4,143.6,3,170.1-19.2c1.7-1.4,3.2-2.8,4.7-4.3c1-1.1,2.1-2.1,3.1-3.2c0,0,2.7-2.7,4.8-7c1.4-2.7,2.4-6,2.5-9.6
		c-0.1-0.8-0.2-1.5-0.3-2.3c-1.7-12.7-4-24.6-6.8-35.5c8.2,3.3,16.7,7.4,22.5,11.8c2.9,2.2,5.1,4.4,6.3,6.6c0.3,0.5,0.8,0.9,1.4,0.9
		c0.2,0,0.5-0.1,0.7-0.2c0.8-0.4,1.1-1.3,0.7-2.1c-1.6-3.1-4.9-6.1-9.1-9c-6.5-4.5-15.3-8.5-23.5-11.7v-0.1c-0.1-0.5-0.3-1-0.5-1.5
		c0-2.7,0-5.5-0.1-8.6c8.6,1.2,17.5,3.1,24,5.8C314.4,111.8,317.3,113.5,319,115.5z"/>
</g>
<g>
	<path class="st2" d="M316.2,111.5c0.3,0.4,0.8,0.5,1.2,0.5c0.4,0,0.7-0.1,1-0.4c0.6-0.7,0.7-1.7,0.2-2.3c-2.2-2.6-5.9-4.7-10.5-6.4
		c-7-2.7-15.8-4.5-24.2-5.7c-1.3-29.8-7.5-74.5-16.5-82.1c-7.1-6-29.1-2.1-65.5,11.5c0,0,0,0-0.1,0c-25.4-6.8-49.8-4.7-72.6-1.9
		c-4,0.5-8.1,1.3-12.3,2.3c-45.3-20.8-52-14.9-54.2-12.9C53.5,22.4,47.3,70,45.9,81.5c-0.2,0.3-0.4,0.6-0.5,0.9
		c-1.1,2.1-2.1,4.3-3,6.5c-0.5,1.3-1.1,2.7-1.6,4.3c-15.1,1.3-34.2,4.5-40.9,11.7c-0.6,0.6-0.5,1.6,0.1,2.2c0.3,0.3,0.7,0.4,1.1,0.4
		c0.4,0,0.9-0.2,1.2-0.5c5.7-6.3,23-9.2,37.4-10.6c-1,3-2.1,6.2-3.2,9.8C22.3,111.1,5.2,118.6,0.7,127c-0.4,0.8-0.1,1.7,0.6,2.1
		c0.2,0.1,0.5,0.2,0.8,0.2c0.6,0,1.1-0.3,1.4-0.8c3.9-7.1,18.7-13.8,31.9-18.5c-1.8,6.2-3.7,13.3-5.7,20.9c-0.4,0.9-0.7,1.5-0.7,1.5
		s-2.5,5.1-2.7,12.4c-0.1,2.9,0.2,6.2,1.1,9.6c1.2,4.4,3.4,9.1,7.4,13.7c1.2,1.5,2.7,2.9,4.3,4.3c11.3,10,31.8,19.1,68.5,23.2
		c93.9,10.4,143.6,3,170.1-19.2c1.7-1.4,3.2-2.8,4.7-4.3c1-1.1,2.1-2.1,3.1-3.2c0,0,2.7-2.7,4.8-7c1.4-2.7,2.4-6,2.5-9.6
		c-0.1-0.8-0.2-1.5-0.3-2.3c-1.7-12.7-4-24.6-6.8-35.5c8.2,3.3,16.7,7.4,22.5,11.8c2.9,2.2,5.1,4.4,6.3,6.6c0.3,0.5,0.8,0.9,1.4,0.9
		c0.2,0,0.5-0.1,0.7-0.2c0.8-0.4,1.1-1.3,0.7-2.1c-1.6-3.1-4.9-6.1-9.1-9c-6.5-4.5-15.3-8.5-23.5-11.7v-0.1c-0.1-0.5-0.3-1-0.5-1.5
		c0-2.7,0-5.5-0.1-8.6c8.6,1.2,17.5,3.1,24,5.8C311.6,107.8,314.5,109.5,316.2,111.5z"/>
</g>
<g>
	<path class="st3" d="M318.6,109.3c-2.2-2.6-5.9-4.7-10.5-6.4c-7-2.7-15.8-4.5-24.2-5.7c-1.3-29.8-7.5-74.5-16.5-82.1
		c-7.1-6-29.1-2.1-65.5,11.5c0,0,0,0-0.1,0c-25.4-6.8-49.8-4.7-72.6-1.9c-4,0.5-8.1,1.3-12.3,2.3c-45.3-20.8-52-14.9-54.2-12.9
		C53.5,22.4,47.3,70,45.9,81.5c-0.2,0.3-0.4,0.6-0.5,0.9c-1.1,2.1-2.1,4.3-3,6.5c-0.5,1.3-1.1,2.7-1.6,4.3
		c-15.1,1.3-34.2,4.5-40.9,11.7c-0.6,0.6-0.5,1.6,0.1,2.2c0.3,0.3,0.7,0.4,1.1,0.4s0.9-0.2,1.2-0.5c5.7-6.3,23-9.2,37.4-10.6
		c-1,3-2.1,6.2-3.2,9.8C22.3,111.1,5.2,118.6,0.7,127c-0.4,0.8-0.1,1.7,0.6,2.1c0.2,0.1,0.5,0.2,0.8,0.2c0.6,0,1.1-0.3,1.4-0.8
		c3.9-7.1,18.7-13.8,31.9-18.5c-1.8,6.2-3.7,13.3-5.7,20.9c-0.4,0.9-0.7,1.5-0.7,1.5s-2.5,5.1-2.7,12.4c-0.1,2.9,0.2,6.2,1.1,9.6
		c1.2,4.4,3.4,9.1,7.4,13.7c1.2,1.5,2.7,2.9,4.3,4.3c11.3,10,31.8,19.1,68.5,23.2c93.9,10.4,143.6,3,170.1-19.2
		c1.7-1.4,3.2-2.8,4.7-4.3c1-1.1,2.1-2.1,3.1-3.2c0,0,2.7-2.7,4.8-7c1.4-2.7,2.4-6,2.5-9.6c-0.1-0.8-0.2-1.5-0.3-2.3
		c-1.7-12.7-4-24.6-6.8-35.5c8.2,3.3,16.7,7.4,22.5,11.8c2.9,2.2,5.1,4.4,6.3,6.6c0.3,0.5,0.8,0.9,1.4,0.9c0.2,0,0.5-0.1,0.7-0.2
		c0.8-0.4,1.1-1.3,0.7-2.1c-1.6-3.1-4.9-6.1-9.1-9c-6.5-4.5-15.3-8.5-23.5-11.7v-0.1c-0.1-0.5-0.3-1-0.5-1.5c0-2.7,0-5.5-0.1-8.6
		c8.6,1.2,17.5,3.1,24,5.8c3.5,1.4,6.4,3.1,8.1,5.1c0.3,0.4,0.8,0.5,1.2,0.5c0.4,0,0.7-0.1,1-0.4C319,110.9,319.1,109.9,318.6,109.3
		z M264.2,18.8c6.5,5.5,13,43.8,14.6,74.4c-3.5-9-7.4-16.8-11.9-23.5c-0.2-1.8-0.5-3.7-0.7-5.3c0-0.2-0.1-0.4-0.1-0.6
		c-0.3-1.9-0.6-3.7-0.9-5.4c-0.1-0.3-0.1-0.6-0.2-0.9c-0.3-1.5-0.6-3-0.8-4.4c-0.1-0.3-0.1-0.5-0.2-0.8c-0.3-1.3-0.6-2.6-0.8-3.8
		c-0.1-0.4-0.2-0.7-0.3-1.1c-0.3-1-0.5-2-0.8-3c-0.1-0.4-0.2-0.7-0.4-1.1c-0.2-0.8-0.5-1.6-0.7-2.3c-0.1-0.4-0.3-0.7-0.4-1.1
		c-0.2-0.6-0.5-1.3-0.7-1.9c-0.1-0.4-0.3-0.7-0.4-1c-0.2-0.5-0.4-1-0.7-1.5c-0.2-0.3-0.3-0.6-0.5-0.9c-0.2-0.4-0.4-0.8-0.6-1.1
		s-0.3-0.5-0.5-0.7c-0.2-0.3-0.4-0.6-0.6-0.9c-0.2-0.2-0.3-0.3-0.5-0.5c-0.2-0.2-0.4-0.5-0.6-0.7c-0.2-0.2-0.3-0.3-0.5-0.5
		s-0.4-0.3-0.5-0.5c-0.2-0.1-0.3-0.2-0.5-0.3c-0.2-0.1-0.4-0.2-0.5-0.3c-0.2-0.1-0.3-0.1-0.5-0.2s-0.3-0.2-0.5-0.2
		c-0.2-0.1-0.4-0.1-0.5-0.1s-0.3-0.1-0.4-0.1c-0.3,0-0.6-0.1-0.9-0.1c-0.1,0-0.3,0-0.4,0c-6.1,0-14.2,2.5-24.2,7.5
		c-5.4-2.8-11-5-16.6-6.9C239,18.5,259.2,14.6,264.2,18.8z M260.8,61.6L260.8,61.6c-2.7-3.2-5.6-6.1-8.6-8.5
		c-6.9-5.5-13.8-10.1-20.8-14.1l0,0c0.3-0.2,0.6-0.3,1-0.4c1.1-0.5,2.1-0.9,3.1-1.3c0.9-0.4,1.8-0.7,2.7-1c1.2-0.4,2.4-0.8,3.5-1.2
		c0.6-0.2,1.1-0.3,1.6-0.4c1.1-0.3,2.3-0.6,3.3-0.8c1.5-0.3,2.9-0.4,4.1-0.4c0,0,0.1,0,0.2,0l0,0c0.1,0,0.2,0,0.3,0.1h0.1
		c0.1,0,0.2,0.1,0.3,0.2l0.1,0.1c0.1,0.1,0.2,0.2,0.4,0.3c0.1,0,0.1,0.1,0.2,0.2c0.1,0.1,0.3,0.3,0.4,0.4c0.1,0.1,0.1,0.2,0.2,0.2
		c0.2,0.2,0.3,0.4,0.5,0.6c0.1,0.1,0.1,0.2,0.2,0.3c0.2,0.3,0.3,0.6,0.5,0.9c0.1,0.1,0.1,0.2,0.2,0.4c0.2,0.4,0.4,0.8,0.6,1.3
		c0.1,0.1,0.1,0.2,0.2,0.4c0.3,0.6,0.6,1.3,0.8,2l0,0c0.6,1.5,1.2,3.4,1.8,5.7c0,0.2,0.1,0.4,0.1,0.5c0.3,0.9,0.5,1.9,0.8,3
		c0.1,0.3,0.2,0.7,0.2,1.1c0.2,1,0.4,2,0.7,3.1c0.1,0.5,0.2,0.9,0.3,1.4c0.2,1.1,0.4,2.2,0.6,3.4c0.1,0.5,0.2,1.1,0.3,1.7
		C260.7,61,260.7,61.3,260.8,61.6z M66,17.7c0.8-0.7,2.2-1.1,4.3-1.1c6.3,0,18.8,3.3,39.5,12.4c-3.2,1-6.4,2.2-9.5,3.5
		c-0.9-0.4-1.6-0.7-2.4-1c-1.1-0.5-2.3-1-3.3-1.3c-1.2-0.4-2.1-0.8-3.2-1.1c-0.8-0.3-1.7-0.6-2.4-0.8c-1.1-0.3-2-0.6-2.9-0.8
		c-0.6-0.2-1.2-0.4-1.7-0.5c-0.9-0.2-1.7-0.4-2.6-0.5c-0.4-0.1-0.8-0.2-1.1-0.2c-0.8-0.1-1.5-0.2-2.1-0.2c-0.2,0-0.5-0.1-0.8-0.1
		c-0.7,0-1.2,0-1.8,0.1c-0.2,0-0.4,0-0.5,0c-0.5,0.1-1,0.2-1.4,0.3c-0.1,0-0.2,0-0.3,0.1c-0.5,0.2-0.9,0.4-1.3,0.5
		c-1.9,1-3.1,2.6-3.5,4.7c-0.7,3.5-1.4,7.4-2,11.7c0,0.3-0.1,0.6-0.1,0.9c-0.3,1.8-0.5,3.7-0.8,5.6c-0.1,0.4-0.1,0.9-0.2,1.3
		c-0.2,1.3-0.3,2.7-0.5,4.1c-5,4.8-9.5,10.2-13.4,15.8C55.7,46.2,61.1,22.2,66,17.7z M94.1,35.4c-8.3,4.1-15.9,9.3-22.9,15.2
		c0.3-2.8,0.7-5.5,1.1-8c0.1-0.7,0.2-1.4,0.3-2.1c0.4-2.7,0.9-5.3,1.3-7.6c0.1-0.6,0.4-1,0.9-1.3c0.2-0.1,0.4-0.2,0.7-0.3
		c0.1,0,0.3-0.1,0.5-0.1s0.4-0.1,0.6-0.1s0.5,0,0.8,0s0.5,0,0.9,0c0.3,0,0.7,0.1,1.1,0.1s0.7,0.1,1.2,0.1c0.4,0.1,0.9,0.2,1.4,0.3
		c0.5,0.1,1,0.2,1.5,0.3c0.5,0.1,1.1,0.3,1.7,0.4c0.6,0.2,1.3,0.4,2,0.6c0.7,0.2,1.3,0.4,2.1,0.7c0.8,0.3,1.7,0.6,2.7,1
		C92.6,34.8,93.3,35.1,94.1,35.4z M286.3,150.2c0,0-0.2,1.9-1.6,4.9s-4,7.2-8.7,11.7c-1.4,1.4-3.1,2.8-4.9,4.2
		c-13.1,9.8-37.3,20-82.2,22.4C122.1,197,68.2,185,45.1,166.2c-1.7-1.3-3.2-2.7-4.5-4.1c-5.7-6.1-8.4-12.7-7.4-19.7
		c3.2-13.4,6.4-25.3,9.3-34.9c8.5-2.8,15-4.4,15.2-4.5c0.8-0.2,1.4-1.1,1.1-1.9c-0.2-0.8-1.1-1.3-1.9-1.1c-0.6,0.2-6,1.5-13.2,3.8
		c0.9-2.9,1.8-5.6,2.7-7.9c8.3-0.6,14.5-0.6,14.6-0.6c0.9,0,1.6-0.7,1.6-1.6s-0.7-1.6-1.6-1.6l0,0c-0.6,0-6,0-13.4,0.5
		c0.2-0.5,0.4-1,0.5-1.4c0.8-2,1.8-4,2.8-6C63.6,60,89.5,40,118.4,32.9c3.9-1,7.8-1.7,11.6-2.2c10.4-1.3,21.1-2.4,32.1-2.6
		c1,0,2-0.1,3-0.1c11.5,0,23.2,1.1,35.1,4.3c16.9,4.5,32.6,12.8,48.1,25.4c10,8.1,18.3,20.9,25,38.1c-8.3-0.8-14.6-1.1-15.3-1.1
		c0,0,0,0-0.1,0c-0.8,0-1.5,0.7-1.6,1.5c0,0.9,0.7,1.6,1.5,1.6c0.2,0,7.3,0.3,16.7,1.2c1,2.8,2,5.7,2.9,8.7
		c-8.4-3-14.9-4.9-15.6-5.1c-0.8-0.2-1.7,0.3-1.9,1.1c-0.2,0.8,0.3,1.7,1.1,1.9c0.2,0.1,8,2.3,17.6,5.8c0,0.2,0.1,0.3,0.2,0.5
		C282,123.8,284.5,136.6,286.3,150.2z"/>
	<path class="st3" d="M91.7,64.3c-5.4-0.1-10.5,2-14.3,5.7s-6,8.8-6.1,14.1c-0.1,5.4,1.9,10.4,5.7,14.3c3.7,3.8,8.8,6,14.1,6.1
		c5.1,0.1,9.8-1.8,13.4-4.9c4.2-3.6,6.9-9,7-14.9c0.1-5.4-1.9-10.4-5.7-14.3C102.1,66.5,97.1,64.4,91.7,64.3z M91.2,99.5
		c-8.4-0.1-15.1-7-14.9-15.4c0.1-4,1.7-7.8,4.6-10.7c0.2-0.2,0.4-0.4,0.7-0.6c2.8-2.4,6.4-3.7,10.1-3.7c4,0.1,7.8,1.7,10.7,4.6
		c2.8,2.9,4.3,6.7,4.3,10.8C106.5,92.9,99.6,99.6,91.2,99.5z"/>
	<path class="st3" d="M91.6,71.9C84.7,71.8,79,77.3,79,84.2c-0.1,6.9,5.4,12.5,12.3,12.6s12.5-5.4,12.6-12.3
		C104,77.7,98.5,72,91.6,71.9z M93.1,86c8.1,8.1-11.4,8.1-3.3,0c-8.1,8.1-8.1-11.4,0-3.3c-8.1-8.1,11.4-8.1,3.3,0
		C101.2,74.6,101.2,94.2,93.1,86z"/>
	<path class="st3" d="M231.8,105.7c3.8-3.7,6-8.8,6.1-14.1c0.2-11.1-8.7-20.2-19.8-20.4c-5.4-0.1-10.4,1.9-14.3,5.7
		c-3.8,3.7-6,8.8-6.1,14.1c-0.1,5.4,1.9,10.4,5.7,14.3c3.7,3.8,8.8,6,14.1,6.1c5,0.1,9.7-1.7,13.4-4.9
		C231.2,106.2,231.5,106,231.8,105.7z M217.6,106.4c-8.4-0.1-15.1-7-14.9-15.4c0.1-4,1.7-7.8,4.6-10.7c0.2-0.2,0.4-0.4,0.7-0.6
		c2.8-2.4,6.4-3.7,10.1-3.7c8.4,0.1,15.1,7,14.9,15.4c-0.1,4-1.7,7.8-4.6,10.7S221.7,106.5,217.6,106.4z"/>
	<path class="st3" d="M218,78.8c-6.9-0.1-12.5,5.4-12.6,12.3s5.4,12.5,12.3,12.6c6.9,0.1,12.5-5.4,12.6-12.3
		C230.4,84.6,224.9,78.9,218,78.8z M219.5,93c8.1,8.1-11.4,8.1-3.3,0c-8.1,8.1-8.1-11.4,0-3.3c-8.1-8.1,11.4-8.1,3.3,0
		C227.6,81.5,227.6,101.1,219.5,93z"/>
	<path class="st3" d="M161.2,95.7c0,0-1,2.1-2.8,2.1c-2.4,0-3.4-0.4-3.4-2.9c0.1,0,0.1-0.1,0.2-0.1l1.7-1.3c1.3-1,0.6-3-1-3.1h-3.4
		c-1.6,0-2.4,2-1.1,3l1.7,1.4l0.1,0.1c0,2.4-1.1,2.8-3.5,2.8c-1.8,0-2.7-2.1-2.8-2.1c-0.2-0.5-0.7-0.7-1.2-0.5s-0.7,0.7-0.5,1.2
		c0.1,0.1,1.4,3.2,4.4,3.2c1.2,0,3.2,0,4.4-1.4c1.2,1.5,3.2,1.5,4.3,1.5c3,0,4.4-3,4.5-3.1c0.2-0.5,0-1-0.5-1.2
		C161.9,95.1,161.4,95.3,161.2,95.7z"/>
	<path class="st3" d="M72.4,105.5c-6.7,0-12.1,3-12.1,6.6s5.4,6.6,12.1,6.6s12.1-3,12.1-6.6S79.1,105.5,72.4,105.5z"/>
	<path class="st3" d="M240.5,112.7c-6.7,0-12.1,3-12.1,6.6s5.4,6.6,12.1,6.6c6.7,0,12.1-3,12.1-6.6
		C252.6,115.6,247.2,112.7,240.5,112.7z"/>
</g>
</svg>
