<svg width="28" height="28" viewBox="0 0 28 28" fill="none" xmlns="http://www.w3.org/2000/svg">
<path d="M15.7759 18.1873C17.1207 18.1873 18.2246 17.0833 18.2246 15.7385C18.2246 14.3937 17.1207 13.2898 15.7759 13.2898C14.4311 13.2898 13.3271 14.3937 13.3271 15.7385C13.3271 17.0833 14.4311 18.1873 15.7759 18.1873ZM15.7759 14.6145C16.3981 14.6145 16.8999 15.1163 16.8999 15.7385C16.8999 16.3608 16.3981 16.8626 15.7759 16.8626C15.1537 16.8626 14.6519 16.3608 14.6519 15.7385C14.6519 15.1163 15.1537 14.6145 15.7759 14.6145Z" fill="#207A80"/>
<path d="M22.5606 3.91565H19.0882L13.709 0.282676C13.3276 0.0217443 12.8659 -0.0585424 12.4444 0.041816C12.0029 0.142174 11.6014 0.403106 11.3806 0.784468L10.7986 1.70777L9.7147 1.0454C9.33333 0.824612 8.89176 0.744325 8.45018 0.864755C8.02867 0.965113 7.66738 1.24612 7.4466 1.60741L6.04158 3.91565H5.43943C2.42867 3.91565 0 6.3644 0 9.35508V22.1006C0 25.0913 2.42867 27.54 5.43943 27.54H22.5606C25.5513 27.54 28 25.1113 28 22.1006V9.35508C28 6.3644 25.5513 3.91565 22.5606 3.91565ZM13.8495 10.4189C12.4043 10.4189 11.2401 11.6031 11.2401 13.0282V18.4475C11.2401 19.8927 12.4244 21.0569 13.8495 21.0569H25.6717V22.1006C25.6717 23.8067 24.2867 25.2117 22.5606 25.2117H5.43943C3.73333 25.2117 2.32832 23.8067 2.32832 22.1006V9.35508C2.32832 7.64898 3.71326 6.24397 5.43943 6.24397H5.80072L4.89749 7.74934L4.43584 7.36798C4.15484 7.12712 3.73333 7.16726 3.51254 7.44827C3.27168 7.72927 3.31183 8.15078 3.59283 8.37156L4.63656 9.25472C4.63656 9.25472 4.65663 9.27479 4.6767 9.27479C4.71685 9.31493 4.75699 9.335 4.8172 9.35508C4.83728 9.35508 4.85735 9.37515 4.87742 9.37515C4.93763 9.39522 5.01792 9.41529 5.07814 9.41529H19.3491H23.2832H23.9054C24.2667 9.41529 24.5677 9.11422 24.5677 8.75293C24.5677 8.39164 24.2667 8.09056 23.9054 8.09056H23.4839L20.7742 6.24397H22.6007C24.3068 6.24397 25.7118 7.62891 25.7118 9.35508V10.3988H13.8495V10.4189ZM25.6717 11.7436V19.7522H13.8495C13.1269 19.7522 12.5448 19.1701 12.5448 18.4475V13.0282C12.5448 12.3056 13.1269 11.7235 13.8495 11.7235H25.6717V11.7436ZM13.8695 6.24397L16.9405 8.09056H6.22222L7.34624 6.24397L8.1491 4.91923L9.09247 3.37372L11.0194 4.53787L11.1799 4.63823L11.6616 4.91923L13.8695 6.24397ZM12.2638 3.75508L12.9864 2.61099L16.4186 4.93931L18.3656 6.26404L21.0753 8.11063H19.5097L16.4387 6.24397L14.2308 4.91923L12.2638 3.75508Z" fill="#207A80"/>
</svg>
