<svg width="28" height="20" viewBox="0 0 28 20" fill="none" xmlns="http://www.w3.org/2000/svg">
<path d="M9.33311 15.1569H4.66656C4.29527 15.1569 3.93919 15.0094 3.67664 14.7469C3.4141 14.4843 3.2666 14.1283 3.2666 13.757C3.2666 13.3857 3.4141 13.0296 3.67664 12.767C3.93919 12.5045 4.29527 12.357 4.66656 12.357H9.33311C9.7044 12.357 10.0605 12.5045 10.323 12.767C10.5856 13.0296 10.7331 13.3857 10.7331 13.757C10.7331 14.1283 10.5856 14.4843 10.323 14.7469C10.0605 15.0094 9.7044 15.1569 9.33311 15.1569Z" fill="#207A80"/>
<path d="M24.266 7.46872e-08H3.73323C2.74312 7.46872e-08 1.79356 0.393322 1.09344 1.09344C0.393322 1.79356 0 2.74312 0 3.73323L0 15.7729C0 16.763 0.393322 17.7126 1.09344 18.4127C1.79356 19.1128 2.74312 19.5061 3.73323 19.5061H24.266C25.2561 19.5061 26.2057 19.1128 26.9058 18.4127C27.6059 17.7126 27.9993 16.763 27.9993 15.7729V3.8079C28.0092 3.3114 27.92 2.8179 27.7368 2.35631C27.5536 1.89472 27.2802 1.47431 26.9326 1.1197C26.5849 0.765094 26.17 0.48341 25.7121 0.291145C25.2543 0.0988811 24.7626 -9.92558e-05 24.266 7.46872e-08ZM3.73323 1.86662H24.266C24.7611 1.86662 25.2359 2.06328 25.5859 2.41334C25.936 2.76339 26.1326 3.23818 26.1326 3.73323V5.0772H1.86662V3.8079C1.85656 3.55656 1.8974 3.30578 1.98669 3.07062C2.07598 2.83547 2.21188 2.62078 2.38622 2.43946C2.56056 2.25815 2.76976 2.11394 3.00123 2.0155C3.23271 1.91706 3.48169 1.86642 3.73323 1.86662ZM24.266 17.7889H3.73323C3.23818 17.7889 2.76339 17.5922 2.41334 17.2421C2.06328 16.8921 1.86662 16.4173 1.86662 15.9222V7.01848H26.1326V15.8476C26.1427 16.0989 26.1019 16.3497 26.0126 16.5849C25.9233 16.82 25.7874 17.0347 25.613 17.216C25.4387 17.3973 25.2295 17.5415 24.998 17.64C24.7665 17.7384 24.5176 17.7891 24.266 17.7889Z" fill="#207A80"/>
</svg>
