<svg width="45" height="45" viewBox="0 0 45 45" fill="none" xmlns="http://www.w3.org/2000/svg">
<path d="M15.9091 11H13.2727V13.6364H15.9091V11Z" fill="#454545"/>
<path d="M31.7272 11H29.0908V13.6364H31.7272V11Z" fill="#454545"/>
<path d="M34.3636 21.5454V18.9091H31.7273V16.2727H29.0909V13.6364H26.4545V16.2727H23.8182H21.1818H18.5455V13.6364H15.9091V16.2727H13.2727V18.9091H10.6364V21.5454H8V24.1818V26.8182V29.4545V32.0909H10.6364V29.4545V26.8182V24.1818H13.2727V26.8182V29.4545V32.0909H15.9091V29.4545H18.5455H21.1818V26.8182H23.8182V29.4545H26.4545H29.0909V32.0909H31.7273V29.4545V26.8182V24.1818H34.3636V26.8182V29.4545V32.0909H37V29.4545V26.8182V24.1818V21.5454H34.3636ZM15.9091 21.5454V18.9091H18.5455V21.5454V24.1818H15.9091V21.5454ZM26.4545 24.1818V21.5454V18.9091H29.0909V21.5454V24.1818H26.4545Z" fill="#454545"/>
<path d="M18.5455 34.7273H21.1819V32.0909H18.5455H15.9092V34.7273H18.5455Z" fill="#454545"/>
<path d="M23.8181 32.0909V34.7273H26.4545H29.0908V32.0909H26.4545H23.8181Z" fill="#454545"/>
</svg>
