<svg width="26" height="26" viewBox="0 0 26 26" fill="none" xmlns="http://www.w3.org/2000/svg">
<g clip-path="url(#clip0_1677_7034)">
<path d="M21.4768 14.1941C22.1741 13.36 22.1746 12.641 21.4768 11.806C21.2808 11.571 21.0786 11.3418 20.8792 11.1097C20.8255 11.0487 20.787 10.9758 20.7671 10.897C20.7472 10.8182 20.7463 10.7357 20.7646 10.6565C20.8253 10.3387 20.8874 10.0209 20.9442 9.70255C21.1109 8.76736 20.7699 8.14277 19.8891 7.78882C19.6064 7.67517 19.3156 7.57934 19.0223 7.49025C18.7522 7.40791 18.5913 7.23936 18.5032 6.97113C18.3833 6.60803 18.2822 6.23771 18.1112 5.89291C17.7982 5.26206 17.2622 4.96494 16.5591 5.02321C16.2105 5.0521 15.8719 5.13108 15.5334 5.20765C15.2218 5.27747 14.9632 5.22498 14.7248 4.99817C14.4561 4.74246 14.1855 4.48434 13.8701 4.28305C13.467 4.02493 13.0375 3.91947 12.5699 4.06779C12.267 4.1641 12.0127 4.34372 11.7738 4.54646C11.5538 4.73234 11.3375 4.92256 11.1194 5.11037C11.0567 5.16674 10.9813 5.20716 10.8997 5.2282C10.818 5.24924 10.7325 5.25029 10.6503 5.23124C10.3386 5.17057 10.0266 5.11198 9.71419 5.05547C8.76069 4.88355 8.13418 5.22787 7.77879 6.12888C7.66899 6.40674 7.5746 6.69134 7.48985 6.97691C7.4575 7.0988 7.39381 7.2101 7.3051 7.29974C7.21639 7.38938 7.10576 7.45423 6.98421 7.48785C6.67119 7.58801 6.35818 7.6877 6.05335 7.81387C5.27563 8.13699 4.96357 8.66238 5.02906 9.49404C5.06165 9.81025 5.11897 10.1234 5.2005 10.4307C5.27996 10.762 5.22843 11.036 4.98428 11.2879C4.73001 11.5498 4.4796 11.8176 4.2812 12.1291C4.0226 12.5327 3.91954 12.9627 4.06931 13.4294C4.16562 13.7313 4.34573 13.9856 4.55087 14.2244C4.7435 14.4484 4.93612 14.6699 5.12538 14.8933C5.17676 14.9525 5.21347 15.023 5.23254 15.0991C5.25162 15.1751 5.25252 15.2546 5.23518 15.3311C5.17402 15.6547 5.10949 15.9778 5.05266 16.3029C4.88845 17.2409 5.24529 17.878 6.13522 18.2175C6.40874 18.322 6.68612 18.4184 6.96639 18.5031C7.24666 18.5879 7.4075 18.7583 7.49611 19.0328C7.61457 19.3959 7.71619 19.7667 7.88907 20.1111C8.20353 20.7371 8.73854 21.0313 9.43007 20.9735C9.77014 20.9393 10.1071 20.8791 10.438 20.7934C10.7707 20.7135 11.0433 20.7718 11.2937 21.0149C11.5352 21.2576 11.797 21.4791 12.0763 21.6771C12.6946 22.0989 13.2956 22.1013 13.9182 21.6834C14.1946 21.4912 14.4525 21.2739 14.6887 21.0342C14.9502 20.7766 15.2358 20.7101 15.5907 20.7987C15.9678 20.895 16.3496 20.9788 16.7465 20.9817C17.3725 20.9759 17.8223 20.6774 18.1073 20.1207C18.2802 19.7836 18.3823 19.419 18.495 19.0612C18.5875 18.766 18.7608 18.5869 19.0589 18.494C19.4177 18.3818 19.7813 18.2787 20.1184 18.1087C20.7444 17.7914 21.0333 17.2616 20.9765 16.5677C20.9438 16.1531 20.8205 15.7558 20.7656 15.3455C20.7425 15.1755 20.7656 15.0243 20.8802 14.8919C21.0796 14.6588 21.2808 14.4286 21.4768 14.1941ZM20.3615 13.5551C20.2773 13.6514 20.1968 13.7477 20.1087 13.8363C19.5472 14.4084 19.382 15.0826 19.5694 15.8589C19.6329 16.1203 19.6695 16.3886 19.7196 16.6529C19.7509 16.8196 19.6859 16.9289 19.5313 16.9958C19.2609 17.1086 18.984 17.205 18.7021 17.2848C17.9797 17.5024 17.5092 17.9667 17.2877 18.6885C17.2006 18.9741 17.1168 19.2625 16.9901 19.5341C16.9131 19.6988 16.8577 19.7301 16.7296 19.7268C16.3708 19.7003 16.0496 19.6194 15.7284 19.5495C15.0061 19.3921 14.3926 19.5895 13.86 20.0884C13.663 20.2729 13.4588 20.4506 13.2469 20.6181C13.0442 20.7785 12.958 20.7775 12.7524 20.6181C12.5527 20.4642 12.3616 20.2996 12.1798 20.125C11.5976 19.5548 10.9171 19.3791 10.1293 19.5751C9.87985 19.6372 9.62317 19.6714 9.37035 19.7195C9.17773 19.7576 9.05782 19.6868 8.99425 19.5048C8.90372 19.2447 8.79874 18.9895 8.72121 18.7261C8.50354 17.9888 8.03691 17.5082 7.29819 17.2862C7.02207 17.2074 6.75053 17.1134 6.48483 17.0045C6.31484 16.9318 6.25609 16.8196 6.27872 16.6366C6.32977 16.2321 6.44919 15.8401 6.49061 15.4327C6.5447 14.9862 6.42694 14.5358 6.16122 14.1729C6.00327 13.9528 5.81546 13.7583 5.63873 13.5546C5.56794 13.4727 5.49425 13.3918 5.42924 13.3075C5.21398 13.0359 5.21158 12.9555 5.43406 12.6815C5.5819 12.5004 5.73407 12.3213 5.89684 12.1518C6.45497 11.5739 6.61919 10.8997 6.42656 10.1292C6.36396 9.87351 6.33025 9.61106 6.28209 9.35198C6.24935 9.17958 6.31291 9.06641 6.47472 8.9961C6.76365 8.87282 7.05982 8.78373 7.35598 8.68983C8.05906 8.46638 8.49776 7.99541 8.71302 7.29763C8.79392 7.03518 8.88349 6.77417 8.98414 6.51846C9.08045 6.27238 9.13631 6.25216 9.39539 6.28105C9.77727 6.32391 10.1462 6.43515 10.528 6.48234C10.7782 6.51725 11.033 6.49873 11.2756 6.42801C11.5181 6.35729 11.7429 6.23597 11.9352 6.07205C12.1856 5.86643 12.423 5.64491 12.6724 5.4388C12.959 5.20235 13.0399 5.20283 13.3249 5.4388C13.5012 5.58327 13.676 5.73159 13.8393 5.89002C14.4138 6.45104 15.0879 6.61814 15.8584 6.42793C16.1084 6.36629 16.3636 6.32535 16.6179 6.28346C16.8548 6.24638 16.9107 6.27527 17.0031 6.50353C17.0982 6.72967 17.1799 6.96122 17.2478 7.19698C17.4702 8.00745 17.9812 8.52128 18.7916 8.74424C19.0336 8.81266 19.2712 8.89531 19.5034 8.99177C19.6825 9.06544 19.7403 9.18102 19.7158 9.37172C19.6676 9.76467 19.5535 10.1456 19.5082 10.5395C19.4756 10.7809 19.4932 11.0264 19.5599 11.2607C19.6266 11.4949 19.741 11.7129 19.8959 11.9009C20.0452 12.0882 20.205 12.2678 20.3649 12.447C20.8417 12.9791 20.8421 13.0171 20.3615 13.5551V13.5551Z" fill="black"/>
<path d="M12.9955 7.41357C11.8907 7.41434 10.8109 7.7427 9.89265 8.35715C8.97444 8.97159 8.25905 9.84452 7.83695 10.8655C7.41486 11.8866 7.30501 13.0098 7.5213 14.0933C7.73759 15.1767 8.2703 16.1717 9.05207 16.9524C9.83385 17.7331 10.8296 18.2644 11.9133 18.4792C12.9971 18.694 14.1202 18.5826 15.1406 18.1591C16.1611 17.7356 17.033 17.019 17.6462 16.1C18.2594 15.1809 18.5862 14.1007 18.5855 12.9958C18.5829 11.5148 17.9929 10.0952 16.9449 9.04868C15.8969 8.00213 14.4765 7.41408 12.9955 7.41357ZM13.0032 17.3251C12.1469 17.3259 11.3097 17.0726 10.5975 16.5973C9.88532 16.1219 9.33026 15.4458 9.00263 14.6547C8.675 13.8636 8.58955 12.9931 8.75709 12.1534C8.92463 11.3137 9.33763 10.5426 9.94377 9.93778C10.5499 9.33298 11.3219 8.9217 12.162 8.75604C13.0021 8.59037 13.8724 8.67777 14.6628 9.00716C15.4532 9.33656 16.128 9.89312 16.6018 10.6064C17.0756 11.3196 17.327 12.1574 17.3243 13.0137C17.3223 15.3887 15.3855 17.3217 13.0032 17.3251V17.3251Z" fill="black"/>
<path d="M12.0237 15.3487C11.9379 15.3513 11.8525 15.3356 11.7732 15.3029C11.6938 15.2701 11.6223 15.2209 11.5634 15.1585C11.0751 14.6702 10.5839 14.1847 10.0994 13.6931C9.83552 13.4258 9.83793 13.042 10.0922 12.7911C10.3465 12.5402 10.7235 12.545 10.9942 12.8104C11.299 13.1085 11.6033 13.407 11.8966 13.7167C11.9987 13.8245 12.0488 13.8029 12.1417 13.7099C13.0808 12.7641 14.0261 11.8241 14.9661 10.8793C15.1558 10.6867 15.373 10.6019 15.634 10.6727C15.7297 10.6993 15.8178 10.7483 15.8908 10.8157C15.9638 10.883 16.0198 10.9668 16.0541 11.06C16.0883 11.1533 16.0999 11.2534 16.0878 11.352C16.0757 11.4506 16.0403 11.5449 15.9846 11.6272C15.9467 11.6812 15.9035 11.7312 15.8555 11.7764C14.7438 12.8892 13.6317 14.0019 12.5193 15.1146C12.3782 15.2562 12.2217 15.3559 12.0237 15.3487Z" fill="black"/>
</g>
<defs>
<clipPath id="clip0_1677_7034">
<rect width="26" height="26" fill="white"/>
</clipPath>
</defs>
</svg>
