<svg width="45" height="45" viewBox="0 0 45 45" fill="none" xmlns="http://www.w3.org/2000/svg">
<path d="M16.2243 32.1897L12.954 33.1378C12.5477 33.2545 12.1164 33.2107 11.7402 33.0163C11.364 32.8169 11.0881 32.496 10.9678 32.1021L5.48049 14.3594C5.2297 13.5425 5.7062 12.677 6.55387 12.429L16.9867 9.39976C17.1372 9.356 17.2927 9.33655 17.4431 9.33655C18.1303 9.33655 18.7673 9.7693 18.9729 10.4403L20.257 14.5976L21.6313 10.9022L21.2802 9.7693C20.6432 7.71738 18.4062 6.55042 16.2895 7.16307L5.85668 10.1923C3.74002 10.8098 2.53623 12.9785 3.16822 15.0304L8.65548 32.7731C8.96144 33.7651 9.6486 34.5819 10.5966 35.073C11.1935 35.3842 11.8405 35.5398 12.4976 35.5398C12.8838 35.5398 13.27 35.4863 13.6462 35.3745L18.4613 33.9741C17.5384 33.5754 16.776 32.9482 16.2243 32.1897Z" fill="#454545"/>
<path d="M15.6776 24.2542L11.7653 22.2996C11.354 22.0954 11.0129 21.8085 10.7771 21.4535C10.5514 21.1229 10.426 20.7242 10.4311 20.2817C10.4361 19.8927 10.5414 19.5086 10.727 19.1682C10.9126 18.8279 11.1784 18.5264 11.5044 18.3027C11.8806 18.0402 12.3019 17.904 12.7283 17.8846C13.1095 17.8651 13.4907 17.9332 13.8618 18.0791C14.0725 17.7533 14.3484 17.4859 14.6694 17.2817C15.0305 17.058 15.4468 16.9316 15.9233 16.9316C16.3196 16.9267 16.7208 17.0288 17.072 17.199C17.4281 17.3692 17.7441 17.622 17.9798 17.9381C18.2456 18.293 18.3811 18.6869 18.4011 19.0904C18.4262 19.5086 18.3159 19.9365 18.1102 20.3303L18.1002 20.3498L16.0989 24.1278C16.0186 24.2688 15.8331 24.3272 15.6776 24.2542Z" fill="#454545"/>
<path d="M26.3262 20.8263L29.6517 19.144C29.6617 19.1391 29.6767 19.1342 29.6968 19.1245C29.8272 19.0759 29.9727 19.071 30.0931 19.1099C30.2285 19.1537 30.3589 19.2461 30.4341 19.3871L32.1545 22.5816L32.1746 22.6108C32.2749 22.7907 32.3501 22.9901 32.4003 23.1894L32.4053 23.204C32.4505 23.4131 32.4755 23.6125 32.4655 23.8167C32.4555 24.0209 32.4154 24.2203 32.3451 24.4148C32.2749 24.6044 32.1796 24.7892 32.0542 24.9545C32.0442 24.9691 32.0342 24.9837 32.0241 24.9982C31.9138 25.1392 31.7884 25.2657 31.653 25.3726C31.5075 25.4942 31.342 25.6012 31.1664 25.6887C31.0009 25.7714 30.8254 25.8297 30.6448 25.8783L30.6147 25.8881C30.4291 25.9318 30.2385 25.9561 30.0379 25.9561C29.8172 25.9561 29.6015 25.9269 29.3959 25.8735C29.1852 25.8151 28.9896 25.7276 28.804 25.6206C28.7388 25.5769 28.6786 25.5331 28.6184 25.4845C28.6335 25.572 28.6535 25.6547 28.6886 25.7373C28.799 26.0339 28.9846 26.3062 29.2404 26.525C29.3457 26.598 29.3959 26.7341 29.3557 26.8654C29.3056 27.0258 29.13 27.1134 28.9645 27.0599L26.3362 26.2576V26.2527C26.2159 26.2187 26.1306 26.1214 26.1156 25.995C26.1005 25.8248 26.2259 25.679 26.3964 25.6644C26.7425 25.6303 27.0635 25.5088 27.3394 25.3192C27.4096 25.2705 27.4798 25.217 27.545 25.1538C27.4648 25.1587 27.3896 25.1587 27.3093 25.1538C27.0936 25.149 26.883 25.1052 26.6723 25.0323C26.4767 24.9642 26.2811 24.8718 26.0955 24.7454C25.935 24.6384 25.7945 24.512 25.6641 24.3759C25.5387 24.2348 25.4234 24.0744 25.3331 23.9091C25.2378 23.7437 25.1726 23.5638 25.1174 23.3791C25.0673 23.1992 25.0372 23.0144 25.0372 22.8296C25.0321 22.6157 25.0622 22.4066 25.1174 22.2121C25.1726 22.0127 25.2579 21.8328 25.3682 21.6675L25.3732 21.6529C25.4886 21.4827 25.624 21.3272 25.7845 21.1813C25.95 21.0451 26.1356 20.9236 26.3262 20.8263Z" fill="#454545"/>
<path d="M30.9658 36.3761C30.5395 36.3761 30.1031 36.308 29.6818 36.1573L19.4345 32.5786C18.4815 32.248 17.7191 31.5721 17.2827 30.6774C16.8514 29.7827 16.8012 28.7811 17.1423 27.8573L23.6177 10.4354C23.9588 9.51159 24.656 8.77251 25.5789 8.34948C26.5018 7.93132 27.535 7.8827 28.488 8.21334L38.7353 11.792C39.6883 12.1227 40.4507 12.7985 40.887 13.6932C41.3184 14.5879 41.3686 15.5895 41.0275 16.5134L34.5521 33.9401C33.9903 35.4425 32.5257 36.3761 30.9658 36.3761ZM30.3589 34.329C31.2918 34.6548 32.3251 34.1832 32.6611 33.2788L39.1365 15.8521C39.297 15.4145 39.272 14.9428 39.0713 14.5198C38.8657 14.0968 38.5045 13.7759 38.0531 13.6203L27.8059 10.0416C27.3544 9.88113 26.8679 9.9103 26.4315 10.1048C25.9952 10.3042 25.6641 10.6542 25.5036 11.0919L19.0333 28.5185C18.8728 28.9561 18.8978 29.4278 19.0985 29.8508C19.3041 30.2738 19.6652 30.5948 20.1167 30.7504L30.3589 34.329Z" fill="#454545"/>
</svg>
