<svg width="45" height="45" viewBox="0 0 45 45" fill="none" xmlns="http://www.w3.org/2000/svg">
<path d="M12.6556 27.2755C12.2087 25.6386 10.506 24.6508 8.8644 25.0789C8.22 25.2482 7.66497 25.601 7.25104 26.1043C6.63957 25.8644 5.98576 25.8268 5.34135 25.9914C3.68566 26.4194 2.67908 28.0986 3.093 29.7261C3.23411 30.4505 4.02903 32.9105 8.42696 34.0817C8.56337 34.1193 8.69977 34.1523 8.83618 34.1852L9.3771 34.3075L9.79102 33.9359C9.89921 33.8418 9.99799 33.743 10.0968 33.649C10.172 33.5784 10.2426 33.5032 10.3178 33.4326C13.3423 30.3846 12.8719 27.9434 12.6556 27.2755ZM11.0751 27.7176L11.0892 27.76C11.1974 28.0986 11.616 29.9143 8.95847 32.4683C8.94436 32.4825 8.93025 32.4966 8.91144 32.5107L8.85029 32.4966C5.28961 31.5464 4.7628 29.7308 4.69225 29.3686C4.49469 28.5831 4.96976 27.7788 5.75528 27.5765C5.87757 27.5436 5.99987 27.5295 6.12216 27.5295C6.44672 27.5295 6.76656 27.6377 7.02997 27.8446L7.87193 28.5032L8.29055 27.5201C8.474 27.0921 8.83148 26.7769 9.27832 26.664C10.0591 26.4571 10.8682 26.9321 11.0751 27.7176Z" fill="#454545"/>
<path d="M40.8116 22.8964C39.9367 22.3743 38.9395 22.1768 37.9471 22.3085C37.5943 21.3818 36.9405 20.5963 36.0656 20.0742C33.9584 18.8183 31.2114 19.5098 29.9791 21.5606C29.3676 22.4543 27.6319 25.8268 30.9903 31.6876C31.0938 31.8663 31.1973 32.045 31.3149 32.2285L31.6912 32.8306L32.4061 32.8776C32.6178 32.8917 32.8295 32.8964 33.0317 32.9011C33.187 32.9058 33.3422 32.9058 33.4927 32.9058C39.8285 32.9105 41.8981 29.9472 42.4014 28.9783C43.6197 26.8663 42.9141 24.1429 40.8116 22.8964ZM33.0741 30.9162C32.9941 30.9162 32.9141 30.9115 32.8342 30.9115C32.7918 30.8409 32.7542 30.7751 32.7119 30.7045C29.8521 25.7186 31.2961 23.1504 31.6442 22.633C32.3497 21.4665 33.8737 21.0808 35.0496 21.7816C35.7175 22.1768 36.1503 22.8541 36.2443 23.6349L36.3949 24.919L37.599 24.4392C38.3281 24.1476 39.1277 24.2087 39.7956 24.6038C40.9668 25.3 41.3619 26.824 40.6705 28.0046L40.6423 28.0563C40.3883 28.5502 38.8267 31.0573 33.0741 30.9162Z" fill="#454545"/>
<path d="M22.0017 11.0949C20.6847 11.3348 19.5276 11.9933 18.6621 12.9763C17.5144 12.3602 16.188 12.1485 14.8757 12.3884C11.7054 12.9575 9.58405 16.0008 10.125 19.1005C10.2896 20.5116 11.4749 25.347 19.8428 28.2586C20.0968 28.3479 20.3602 28.4326 20.6283 28.5173L21.522 28.7901L22.2651 28.2209C22.4862 28.0516 22.7026 27.8776 22.9048 27.7082C23.0648 27.5765 23.2153 27.4448 23.3658 27.3178C29.6405 21.871 29.1419 17.1579 28.8079 15.7609C28.2012 12.6095 25.1532 10.521 22.0017 11.0949ZM21.2444 25.6998C21.1645 25.7656 21.0845 25.8315 21.0046 25.8973C20.9058 25.8644 20.807 25.8315 20.7082 25.7938C13.5822 23.3197 12.7967 19.5333 12.7026 18.7242C12.3968 16.9603 13.5728 15.267 15.3366 14.9472C16.3385 14.7637 17.3498 15.0601 18.1118 15.7515L19.3677 16.8945L20.1438 15.3846C20.6142 14.4721 21.4608 13.8371 22.4627 13.6584C24.2219 13.3385 25.9246 14.5097 26.2539 16.2689L26.268 16.3442C26.4514 17.0591 27.0582 20.8879 21.2444 25.6998Z" fill="#454545"/>
</svg>
