<svg width="45" height="45" viewBox="0 0 45 45" fill="none" xmlns="http://www.w3.org/2000/svg">
<path d="M9.5113 21.5239C9.6424 21.5239 9.74892 21.4174 9.74892 21.2822V21.1429L9.82676 21.1101L9.83905 21.1019C9.98654 21.0446 10.134 21.0118 10.2815 21.02H10.2897C10.4085 21.0241 10.5232 21.0609 10.6339 21.1347C10.8715 21.2986 11.4491 21.2002 11.9449 21.0855C11.8383 21.2125 11.7277 21.3395 11.6212 21.4624C11.2115 21.9336 10.8018 22.4088 10.4741 22.9537C10.3512 23.1626 10.2528 23.4289 10.1791 23.7116C10.0931 24.0394 10.0439 24.3999 10.0193 24.7113C10.0111 24.8465 10.1094 24.9612 10.2405 24.9735H10.2569H12.1374C12.2644 24.9735 12.375 24.867 12.375 24.7277C12.375 24.7154 12.375 24.7031 12.3709 24.6867C12.3177 24.1951 12.3423 23.6502 12.4324 23.134C12.5225 22.6423 12.6741 22.1712 12.8953 21.7861C13.1125 21.3969 13.3665 20.9954 13.641 20.598C13.895 20.2293 14.1695 19.8687 14.4522 19.5451C14.5341 19.4468 14.53 19.2993 14.4399 19.2132V19.2091L14.1162 18.8814C14.022 18.7831 13.8745 18.7831 13.7844 18.8814L13.7721 18.8896L13.133 19.5246L13.0469 19.4345C12.5061 18.8691 12.0227 18.6274 11.5147 18.6356C11.0149 18.6315 10.5232 18.8814 9.94967 19.3034L9.74892 19.4509V19.2952C9.74892 19.1641 9.6424 19.0535 9.5113 19.0535C9.3843 19.0535 9.27368 19.1641 9.27368 19.2952V21.2781C9.27368 21.4133 9.3843 21.5239 9.5113 21.5239Z" fill="#454545"/>
<path d="M22.5232 19.2008L22.1995 18.8731C22.1053 18.7748 21.9578 18.7748 21.8677 18.8731L21.8554 18.8813L21.2163 19.5163L21.1302 19.4262C20.5894 18.8608 20.106 18.6191 19.598 18.6273C19.1023 18.6355 18.6106 18.8854 18.0371 19.3033L17.8363 19.4508V19.2951C17.8363 19.164 17.7298 19.0534 17.5987 19.0534C17.4717 19.0534 17.3611 19.164 17.3611 19.2951V21.278C17.3611 21.4132 17.4676 21.5197 17.5987 21.5197C17.7298 21.5197 17.8363 21.4132 17.8363 21.278V21.1387L17.9142 21.1059L17.9265 21.0977C18.0739 21.0403 18.2214 21.0076 18.3689 21.0158H18.3771C18.4959 21.0199 18.6106 21.0567 18.7213 21.1305C18.9589 21.2944 19.5365 21.196 20.0323 21.0813C19.9257 21.2083 19.8151 21.3353 19.7086 21.4582C19.2989 21.9294 18.8892 22.4046 18.5615 22.9495C18.4386 23.1584 18.3402 23.4247 18.2665 23.7074C18.1805 24.0352 18.1313 24.3957 18.1067 24.7071C18.0985 24.8423 18.1969 24.957 18.328 24.9693H18.3443H20.2248C20.3518 24.9693 20.4624 24.8628 20.4624 24.7235C20.4624 24.7112 20.4624 24.6989 20.4583 24.6825C20.4051 24.1909 20.4297 23.646 20.5198 23.1298C20.6099 22.6381 20.7615 22.167 20.9827 21.7819C21.1999 21.3927 21.4539 20.9912 21.7284 20.5938C21.9824 20.2251 22.2569 19.8645 22.5396 19.5409C22.6174 19.4385 22.6133 19.291 22.5232 19.2008Z" fill="#454545"/>
<path d="M30.6064 19.2008L30.2828 18.8731C30.1885 18.7748 30.0411 18.7748 29.9509 18.8731L29.9386 18.8813L29.2995 19.5163L29.2135 19.4262C28.6727 18.8608 28.1893 18.6191 27.6812 18.6273C27.1855 18.6355 26.6939 18.8854 26.1203 19.3033L25.9196 19.4508V19.2951C25.9196 19.164 25.8131 19.0534 25.682 19.0534C25.555 19.0534 25.4443 19.164 25.4443 19.2951V21.278C25.4443 21.4132 25.5509 21.5197 25.682 21.5197C25.8131 21.5197 25.9196 21.4132 25.9196 21.278V21.1387L25.9974 21.1059L26.0097 21.0977C26.1572 21.0403 26.3047 21.0076 26.4522 21.0158H26.4604C26.5792 21.0199 26.6939 21.0567 26.8045 21.1305C27.0421 21.2944 27.6198 21.196 28.1155 21.0813C28.009 21.2083 27.8984 21.3353 27.7919 21.4582C27.3822 21.9294 26.9725 22.4046 26.6447 22.9495C26.5218 23.1584 26.4235 23.4247 26.3497 23.7074C26.2637 24.0352 26.2146 24.3957 26.19 24.7071C26.1818 24.8423 26.2801 24.957 26.4112 24.9693H26.4276H28.3081C28.4351 24.9693 28.5457 24.8628 28.5457 24.7235C28.5457 24.7112 28.5457 24.6989 28.5416 24.6825C28.4883 24.1909 28.5129 23.646 28.603 23.1298C28.6932 22.6381 28.8448 22.167 29.066 21.7819C29.2831 21.3927 29.5371 20.9912 29.8116 20.5938C30.0656 20.2251 30.3401 19.8645 30.6228 19.5409C30.7007 19.4385 30.6966 19.291 30.6064 19.2008Z" fill="#454545"/>
<path d="M41.84 17.2016C41.84 14.7722 39.8653 12.7975 37.4317 12.7975C34.9982 12.7975 33.0276 14.7722 33.0276 17.2016C33.0276 19.3156 34.527 21.0896 36.5181 21.5116V28.8901H33.0071V14.0183V13.9815C33.0071 10.6835 30.3236 8 27.0256 8H12.9815C9.68347 8 7 10.6835 7 13.9815V14.0183V29.1523V32.3274C7 35.6254 9.68347 38.3088 12.9815 38.3088H27.0215C30.3195 38.3088 33.003 35.6254 33.003 32.3274V30.7214H38.3453V21.5116C40.3405 21.0855 41.84 19.3156 41.84 17.2016ZM15.0586 27.3169H8.83131V15.8456H15.0586V27.3169ZM16.8899 15.8497H23.1172V27.321H16.8899V15.8497ZM24.9485 15.8497H31.1758V27.321H24.9485V15.8497ZM8.83131 13.9815C8.83131 11.6913 10.6913 9.83131 12.9815 9.83131H27.0215C29.3117 9.83131 31.1717 11.6913 31.1717 13.9815V14.0183H24.9444H23.1131H16.8858H15.0545H8.83131V13.9815ZM27.0256 36.4734H12.9815C10.6913 36.4734 8.83131 34.6134 8.83131 32.3233V29.1482H15.0586H16.8899H23.1172H24.9485H31.1758V32.3233C31.1758 34.6134 29.3117 36.4734 27.0256 36.4734ZM37.4317 19.7745C36.0101 19.7745 34.8589 18.6192 34.8589 17.1975C34.8589 15.7759 36.0142 14.6247 37.4317 14.6247C38.8534 14.6247 40.0087 15.78 40.0087 17.1975C40.0087 18.6192 38.8534 19.7745 37.4317 19.7745Z" fill="#454545"/>
</svg>
