<svg width="45" height="45" viewBox="0 0 45 45" fill="none" xmlns="http://www.w3.org/2000/svg">
<path d="M27.0424 24.4536C26.5948 24.4536 26.2278 24.0866 26.2278 23.639V19.9612C26.2278 19.5136 26.5948 19.1466 27.0424 19.1466C27.49 19.1466 27.857 19.5136 27.857 19.9612V23.639C27.857 24.0866 27.49 24.4536 27.0424 24.4536Z" fill="#454545"/>
<path d="M27.0425 19.2232C27.4498 19.2232 27.7764 19.5539 27.7764 19.9571V23.6349C27.7764 24.0423 27.4457 24.3689 27.0425 24.3689C26.6352 24.3689 26.3085 24.0382 26.3085 23.6349V19.9571C26.3085 19.5498 26.6352 19.2232 27.0425 19.2232ZM27.0425 19.0619C26.5505 19.0619 26.1472 19.4652 26.1472 19.9571V23.6349C26.1472 24.1269 26.5505 24.5302 27.0425 24.5302C27.5345 24.5302 27.9377 24.1269 27.9377 23.6349V19.9571C27.9377 19.4652 27.5345 19.0619 27.0425 19.0619Z" fill="#454545"/>
<path d="M22.3483 26.0384C21.0941 26.0384 20.1868 25.4133 20.1868 24.5503C20.1868 24.1027 20.5537 23.7357 21.0014 23.7357C21.3603 23.7357 21.6748 23.9696 21.7797 24.3084C21.8563 24.3406 22.0458 24.4092 22.3483 24.4092C22.6507 24.4092 22.8443 24.3406 22.9169 24.3084C23.0217 23.9696 23.3363 23.7357 23.6952 23.7357C24.1428 23.7357 24.5098 24.1027 24.5098 24.5503C24.5098 25.4093 23.6024 26.0384 22.3483 26.0384Z" fill="#454545"/>
<path d="M23.6953 23.8123C24.1026 23.8123 24.4292 24.143 24.4292 24.5463C24.4292 25.3609 23.5541 25.9537 22.3484 25.9537C21.1426 25.9537 20.2675 25.3609 20.2675 24.5463C20.2675 24.139 20.5982 23.8123 21.0015 23.8123C21.3442 23.8123 21.6306 24.0462 21.7112 24.3608C21.812 24.4132 22.0338 24.4858 22.3484 24.4858C22.6629 24.4858 22.8847 24.4132 22.9855 24.3608C23.0662 24.0462 23.3525 23.8123 23.6953 23.8123ZM23.6953 23.651C23.3162 23.651 22.9775 23.893 22.8525 24.2438C22.7436 24.2841 22.5661 24.3245 22.3484 24.3245C22.1306 24.3245 21.9532 24.2841 21.8443 24.2438C21.7193 23.893 21.3805 23.651 21.0015 23.651C20.5095 23.651 20.1062 24.0543 20.1062 24.5463C20.1062 25.4576 21.0498 26.115 22.3484 26.115C23.6469 26.115 24.5905 25.4536 24.5905 24.5463C24.5905 24.0543 24.1913 23.651 23.6953 23.651Z" fill="#454545"/>
<path d="M16.3881 38.7938C15.9405 38.7938 15.5735 38.4268 15.5735 37.9792C15.5735 37.2815 15.63 36.6081 15.7469 35.975C9.56884 34.8498 8.52034 31.4059 8.5284 24.1431C7.04034 23.522 6.08057 22.0864 6.08057 20.4733C6.08057 18.6627 7.29844 17.0899 9.04862 16.6302C9.83499 13.2468 11.4965 11.1296 12.7587 9.94803C14.5008 8.3148 16.2066 7.68973 16.6905 7.53649C18.3157 6.57268 20.1667 6.07666 22.175 6.07666C26.5747 6.07666 30.2928 8.44384 30.4501 8.54466C35.378 11.924 35.7006 15.3438 35.5917 16.7229C37.1846 17.2835 38.2493 18.7836 38.2493 20.4733C38.2493 21.9453 37.4427 23.2841 36.1442 23.9777C36.1765 25.2601 36.0635 26.1957 35.7934 28.3371C35.7369 28.7807 35.6724 29.2807 35.6038 29.8453C35.4103 31.4221 34.5997 32.7609 33.1963 33.8175C32.1236 34.624 30.688 35.2652 28.9257 35.7209C29.1677 37.0033 29.091 38.0276 29.091 38.0397C29.0588 38.4631 28.7039 38.7938 28.2764 38.7938H16.3881ZM27.4578 37.1646C27.4417 36.8742 27.4054 36.4548 27.3167 35.9871C27.2199 35.483 27.0787 35.0111 26.8892 34.5877L26.869 34.5434C26.8408 34.4748 26.8085 34.4062 26.7763 34.3377C26.6593 34.1038 26.5222 33.882 26.377 33.6844C26.3488 33.9183 26.3206 34.1562 26.2924 34.3901L26.248 34.6966C26.1875 35.1402 26.119 35.5918 26.0423 36.0516L26.0181 36.2089C26.006 36.2774 25.9496 36.5839 25.9496 36.5839C25.9496 36.5839 25.8689 37.0517 25.8488 37.1686H27.4578V37.1646ZM24.1792 37.1646C24.2317 36.8823 24.2841 36.6041 24.3325 36.3258L24.3849 36.0354C24.3849 36.0354 24.4938 35.366 24.518 35.2047L24.4656 35.2087C24.1913 35.2329 23.9211 35.2531 23.651 35.2692L23.3364 35.2854C23.1146 35.2975 22.8928 35.3055 22.671 35.3096C22.5581 35.3136 22.2032 35.3176 22.2032 35.3176L21.8806 35.3136C21.5822 35.3096 21.312 35.3055 21.0499 35.2934L20.5861 35.2733C20.6224 35.5959 20.6587 35.8983 20.695 36.1968L20.7232 36.3903L20.6506 36.4468L20.7313 36.4347C20.7636 36.6726 20.7999 36.9105 20.8321 37.1364L20.8361 37.1686H24.1792V37.1646ZM19.1948 37.1646C19.1545 36.8823 19.1142 36.6041 19.0779 36.3218L19.0093 35.729C18.9771 35.4346 18.9448 35.1362 18.9166 34.8297L18.8803 34.4425C18.848 34.0836 18.8238 33.7207 18.7996 33.3537C18.4932 33.636 18.227 33.9707 18.0092 34.3498C17.9568 34.4425 17.9084 34.5434 17.8641 34.6442L17.8237 34.7329C17.6302 35.1483 17.481 35.6241 17.3801 36.1403C17.3075 36.5113 17.2592 36.842 17.235 37.1646H19.1948ZM10.1536 24.4496C10.1616 31.9947 11.7505 33.636 16.1784 34.3982C16.2994 34.0917 16.4365 33.8013 16.5897 33.5352C17.0696 32.7044 17.7269 32.0229 18.5536 31.5148C16.7793 30.9139 15.1622 29.8937 13.8556 28.5548C13.9201 28.8976 13.9887 29.2242 14.0733 29.5428C14.1822 29.9784 13.9201 30.422 13.4846 30.5349C13.416 30.551 13.3515 30.5591 13.2829 30.5591C12.9119 30.5591 12.5853 30.305 12.4925 29.9461C12.1215 28.4903 11.9683 27.1515 12.0328 25.9699L12.0449 25.7682C12.3595 21.6468 15.3799 20.0176 17.8076 18.707C19.4207 17.836 20.945 17.0173 21.6266 15.6623C23.292 12.3475 26.4254 10.2182 28.2401 9.20602C26.7642 8.51643 24.5543 7.72603 22.1508 7.72603C20.4087 7.72603 18.8279 8.14946 17.4447 8.98422C17.3801 9.02455 17.3116 9.05278 17.239 9.07294C17.0374 9.1294 12.3312 10.5086 10.7464 16.5737C11.1053 16.6624 11.3755 16.8197 11.5731 17.0576C12.0651 17.6464 11.932 18.3884 11.7949 19.1748C11.7223 19.5902 11.6457 20.0217 11.6457 20.4693C11.6457 20.9169 11.7223 21.3484 11.7949 21.7638C11.936 22.5502 12.0651 23.2922 11.5731 23.8769C11.2585 24.2479 10.7988 24.4334 10.1536 24.4496ZM26.3408 31.4543C27.1352 31.9665 27.7683 32.6883 28.2281 33.5997C28.3127 33.765 28.3894 33.9425 28.474 34.1522C30.0468 33.7529 31.305 33.2005 32.2123 32.5149C33.2608 31.7245 33.8415 30.7849 33.9827 29.6436C34.0512 29.075 34.1158 28.575 34.1763 28.1274C34.3981 26.3731 34.515 25.4698 34.519 24.4375C34.4384 24.4415 34.3577 24.4455 34.273 24.4455C33.9787 24.4455 33.7246 24.4092 33.4947 24.3407C32.293 27.6313 29.6314 30.2727 26.3408 31.4543ZM20.5135 33.6199C20.6264 33.6279 20.7434 33.64 20.8603 33.6441C20.8603 33.6441 21.1346 33.6602 21.2193 33.6642C21.5177 33.6763 21.8201 33.6804 22.1226 33.6804H22.4613C22.8888 33.6723 23.3243 33.6562 23.8042 33.6199C23.8768 33.6158 24.3365 33.5755 24.3365 33.5755C24.4736 33.5634 24.6067 33.5553 24.7438 33.5392L24.768 33.3214C24.7882 33.1319 24.8083 32.9424 24.8285 32.7528L24.8527 32.5028C24.3405 32.3012 23.7477 32.1963 23.0944 32.1963C23.0501 32.1963 23.0098 32.1923 22.9654 32.1842C22.9614 32.1842 22.6952 32.1439 22.2798 32.1439C21.8121 32.1439 21.1063 32.1963 20.3845 32.4343L20.4006 32.7206C20.4127 32.9464 20.4248 33.1722 20.4409 33.394L20.4571 33.6037L20.5135 33.6199ZM13.6781 25.7198C15.5412 28.6839 18.8601 30.5228 22.3484 30.5228C27.9942 30.5228 32.5833 25.9295 32.5833 20.2878V19.3885L32.5471 19.1829C32.4866 18.8401 32.4341 18.5255 32.4261 18.2312C32.0994 18.2513 31.7728 18.2594 31.4582 18.2594C27.0102 18.2594 24.7357 16.4245 23.7477 15.2671C23.4977 15.6381 23.2719 16.0212 23.0783 16.4044C22.1669 18.2191 20.3401 19.203 18.5778 20.1507C18.3964 20.2475 18.2189 20.3443 18.0415 20.4411V23.639C18.0415 24.0866 17.6745 24.4536 17.2269 24.4536C16.7793 24.4536 16.4123 24.0866 16.4123 23.639V21.417C15.1702 22.2598 13.908 23.4454 13.6781 25.7198ZM34.0472 22.8083C34.0956 22.8163 34.1682 22.8204 34.273 22.8204C34.3335 22.8204 34.39 22.8123 34.4424 22.8042L34.5231 22.7921C35.0513 22.7357 35.5232 22.5139 35.8942 22.155C36.3579 21.7073 36.616 21.1065 36.616 20.4693C36.616 19.6708 36.2087 18.9328 35.5312 18.4973C35.1481 18.2513 34.7126 18.1223 34.269 18.1223C34.2488 18.1223 34.2287 18.1223 34.2125 18.1223V19.2555C34.265 19.566 34.3255 20.0015 34.3255 20.4653C34.3255 21.054 34.2287 21.6025 34.148 22.0461C34.1077 22.3001 34.0512 22.6268 34.0472 22.8083ZM10.0568 18.1263C9.63739 18.1263 9.23412 18.2392 8.85908 18.4651C8.14127 18.8966 7.70977 19.6466 7.70977 20.4733C7.70977 21.2194 8.06061 21.909 8.67358 22.3566C9.08491 22.659 9.56077 22.8204 10.0568 22.8204C10.1657 22.8204 10.2342 22.8123 10.2826 22.8042C10.2786 22.6268 10.2221 22.3042 10.1818 22.0622C10.1294 21.7678 10.077 21.4613 10.0447 21.1307C10.0165 20.8726 10.0044 20.6669 10.0044 20.4733C10.0044 19.9894 10.0729 19.5337 10.1374 19.1506L10.1818 18.8966C10.2262 18.6465 10.2826 18.3239 10.2867 18.1424C10.2141 18.1303 10.1415 18.1263 10.0568 18.1263ZM24.7801 13.9565C25.4052 14.7993 27.2441 16.6262 31.4542 16.6262C32.2486 16.6262 33.0955 16.5616 33.9787 16.4326C34.0149 15.4043 33.656 12.8758 29.9218 10.1739C28.962 10.6376 26.6432 11.8999 24.7801 13.9565Z" fill="#454545"/>
<path d="M22.1711 6.16131C26.5183 6.16131 30.188 8.47607 30.4018 8.61721C30.4058 8.62124 30.4058 8.62124 30.4098 8.62528C30.4139 8.62528 30.4179 8.62931 30.4179 8.62931C35.37 12.0248 35.62 15.4647 35.4991 16.7834C37.0436 17.2996 38.1647 18.7594 38.1647 20.4773C38.1647 21.9815 37.3057 23.2841 36.0556 23.9333C36.0919 25.2641 35.9709 26.236 35.7047 28.329C35.6483 28.7725 35.5837 29.2726 35.5152 29.8372C35.3216 31.3938 34.5232 32.7125 33.1399 33.7529C32.0027 34.6078 30.5106 35.2329 28.825 35.6604C29.075 36.9347 29.0064 37.9671 29.0024 38.0316C28.9742 38.4147 28.6556 38.7131 28.2685 38.7131H24.8528H20.1587H16.3882C15.9809 38.7131 15.6542 38.3824 15.6542 37.9792C15.6542 37.2371 15.7188 36.5476 15.8397 35.9064C9.60925 34.8054 8.59301 31.3172 8.60914 24.0866C7.17754 23.5099 6.16131 22.1106 6.16131 20.4733C6.16131 18.6505 7.42354 17.1181 9.11726 16.6987C9.87137 13.404 11.4522 11.2868 12.8152 10.0085C14.5573 8.37525 16.2753 7.75825 16.7148 7.61711C18.5215 6.54441 20.4007 6.16131 22.1711 6.16131ZM16.2309 34.4869C16.3559 34.1642 16.4971 33.8618 16.6624 33.5755C17.1746 32.6842 17.8803 31.9947 18.7473 31.4946C16.8398 30.8776 15.1058 29.7807 13.7266 28.3088C13.7952 28.708 13.8758 29.1234 13.9887 29.567C14.0896 29.9582 13.8516 30.3614 13.4564 30.4582C13.3959 30.4743 13.3354 30.4824 13.275 30.4824C12.9483 30.4824 12.6499 30.2606 12.5652 29.9299C12.1781 28.4015 12.045 27.099 12.1055 25.9779C12.1095 25.9093 12.1135 25.8448 12.1176 25.7763C12.4321 21.6992 15.372 20.1144 17.84 18.7836C19.4651 17.9085 20.9975 17.0818 21.6912 15.7026C23.3849 12.3353 26.5989 10.198 28.4096 9.20598C27.0546 8.55672 24.7076 7.64937 22.1428 7.64937C20.5822 7.64937 18.9409 7.98408 17.3964 8.91966C17.3399 8.95595 17.2754 8.98015 17.2109 9.00031C16.977 9.06484 12.2103 10.4843 10.6376 16.6382C11.0086 16.7148 11.2989 16.8681 11.5046 17.1141C11.9724 17.6706 11.8434 18.3965 11.7062 19.1627C11.6337 19.5821 11.553 20.0176 11.553 20.4733C11.553 20.929 11.6296 21.3605 11.7062 21.7839C11.8434 22.5501 11.9724 23.276 11.5046 23.8325C11.2022 24.1914 10.7344 24.3689 10.077 24.3689C10.073 31.1357 11.0167 33.6077 16.2309 34.4869ZM31.4543 16.7068C32.2366 16.7068 33.1036 16.6422 34.0594 16.5011C34.1159 15.4889 33.8134 12.8717 29.9299 10.077C29.0266 10.5126 26.5949 11.8111 24.6753 13.9484C25.2802 14.7953 27.1272 16.7068 31.4543 16.7068ZM17.223 24.3729C16.8156 24.3729 16.489 24.0422 16.489 23.6389V21.2677C14.9888 22.2638 13.8113 23.526 13.5935 25.74C15.4728 28.7403 18.7997 30.5994 22.3485 30.5994C28.0386 30.5994 32.6641 25.9698 32.6641 20.2838V19.3845C32.652 19.3119 32.6399 19.2353 32.6278 19.1627C32.5633 18.8078 32.5068 18.461 32.5068 18.1384C32.1439 18.1585 31.7971 18.1706 31.4583 18.1706C26.978 18.1706 24.7197 16.3116 23.7398 15.126C23.4696 15.5171 23.2236 15.9244 23.0058 16.36C22.1065 18.1505 20.2918 19.1264 18.5416 20.07C18.3481 20.1749 18.1545 20.2797 17.9609 20.3846V23.6309C17.9569 24.0422 17.6303 24.3729 17.223 24.3729ZM34.2731 22.901C34.3618 22.901 34.4465 22.8848 34.5353 22.8727C35.0837 22.8122 35.5797 22.5784 35.9548 22.2154C36.4145 21.7718 36.7008 21.1548 36.7008 20.4733C36.7008 19.6143 36.2532 18.8643 35.5797 18.4328C35.2006 18.1908 34.757 18.0456 34.2731 18.0456C34.2167 18.0456 34.1763 18.0496 34.132 18.0537V18.7392V19.2635C34.1925 19.6264 34.2449 20.0418 34.2449 20.4733C34.2449 21.054 34.1481 21.5984 34.0715 22.038C34.0191 22.3243 33.9545 22.7034 33.9707 22.8727C34.0191 22.8889 34.1118 22.901 34.2731 22.901ZM10.0569 22.901C10.069 22.901 10.073 22.901 10.0851 22.901C10.2222 22.901 10.315 22.8848 10.3593 22.8727C10.3755 22.7034 10.3069 22.3243 10.2585 22.038C10.2101 21.7678 10.1577 21.4573 10.1214 21.1226C10.1012 20.9129 10.0811 20.6951 10.0811 20.4733C10.0811 19.9974 10.1456 19.5498 10.2101 19.1627C10.2262 19.074 10.2383 18.9893 10.2545 18.9086C10.3029 18.6223 10.3714 18.2432 10.3553 18.0738C10.3513 18.0738 10.3432 18.0738 10.3392 18.0698C10.2867 18.0577 10.198 18.0456 10.0528 18.0456C9.59715 18.0456 9.17775 18.1787 8.81078 18.3965C8.10506 18.8199 7.62517 19.5901 7.62517 20.4733C7.62517 21.2758 8.02037 21.9815 8.62124 22.4251C9.02854 22.7195 9.52053 22.901 10.0569 22.901ZM28.4257 34.2489C29.942 33.8699 31.2728 33.3295 32.2608 32.5834C33.3295 31.7769 33.9182 30.8211 34.0634 29.6597C34.132 29.0911 34.1965 28.5911 34.253 28.1434C34.4828 26.3489 34.5998 25.4295 34.5957 24.3568C34.4869 24.3648 34.382 24.3729 34.2691 24.3729C33.9505 24.3729 33.6763 24.3285 33.4424 24.2479C32.2366 27.6152 29.5388 30.2767 26.1513 31.4382C26.9941 31.9422 27.6676 32.6802 28.1515 33.64C28.2564 33.8376 28.3451 34.0433 28.4257 34.2489ZM22.1307 33.761C22.2235 33.761 22.3162 33.761 22.413 33.761C22.417 33.761 22.417 33.761 22.4211 33.761C22.4372 33.761 22.4533 33.761 22.4654 33.761C22.4695 33.761 22.4735 33.761 22.4775 33.761C22.9131 33.7529 23.3607 33.7327 23.8124 33.7005C23.9293 33.6924 24.0462 33.6803 24.1632 33.6723C24.381 33.6561 24.5987 33.64 24.8165 33.6158H24.8205C24.8205 33.6118 24.8205 33.6118 24.8205 33.6077C24.8326 33.515 24.8367 33.4263 24.8488 33.3375C24.8689 33.144 24.8891 32.9544 24.9092 32.7689C24.9213 32.6641 24.9294 32.5592 24.9375 32.4584C24.4011 32.2366 23.7841 32.1237 23.0905 32.1237C23.0502 32.1237 23.0139 32.1197 22.9736 32.1156C22.9695 32.1156 22.6953 32.0753 22.2719 32.0753C21.7637 32.0753 21.0338 32.1318 20.2918 32.3899C20.2959 32.5068 20.3039 32.6238 20.308 32.7367C20.3201 32.9625 20.3321 33.1883 20.3483 33.4101C20.3563 33.5029 20.3604 33.5956 20.3684 33.6924C20.5297 33.7045 20.687 33.7206 20.8483 33.7287C20.9693 33.7368 21.0863 33.7448 21.2113 33.7489C21.5178 33.7569 21.8202 33.761 22.1307 33.761ZM17.1423 37.2452H19.2877C19.2877 37.2412 19.2877 37.2371 19.2877 37.2331C19.2433 36.9347 19.199 36.6242 19.1586 36.3096C19.1465 36.2169 19.1385 36.1241 19.1264 36.0314C19.1143 35.9265 19.1022 35.8217 19.0901 35.7168C19.0578 35.4224 19.0256 35.124 18.9973 34.8175C18.9852 34.6885 18.9731 34.5635 18.961 34.4304C18.9247 34.0191 18.8965 33.6037 18.8683 33.1803C18.5013 33.4908 18.1908 33.8658 17.9408 34.3054C17.8722 34.4264 17.8117 34.5635 17.7512 34.6966C17.5536 35.12 17.4044 35.5958 17.2996 36.1201C17.227 36.479 17.1705 36.846 17.1423 37.2452ZM25.748 37.2452H27.5385C27.5224 36.9024 27.4821 36.4548 27.3893 35.9709C27.3006 35.5152 27.1635 35.0272 26.9578 34.5514C26.9215 34.4667 26.8853 34.378 26.8409 34.2933C26.6877 33.9868 26.5102 33.7126 26.3086 33.4706C26.2763 33.769 26.24 34.0675 26.1997 34.3699C26.1876 34.4707 26.1674 34.5756 26.1553 34.6724C26.0948 35.116 26.0263 35.5676 25.9537 36.0273C25.9456 36.0798 25.9376 36.1322 25.9295 36.1846C25.9093 36.3056 25.8811 36.4346 25.861 36.5597C25.8247 36.7935 25.7924 37.0153 25.748 37.2452ZM24.6108 35.1119C24.5624 35.116 24.514 35.12 24.4656 35.124C24.1914 35.1482 23.9212 35.1684 23.6551 35.1845C23.5502 35.1926 23.4454 35.1966 23.3405 35.2006C23.1187 35.2127 22.8969 35.2208 22.6792 35.2248C22.5663 35.2289 22.4574 35.2289 22.3445 35.2289C22.3001 35.2289 22.2557 35.2289 22.2114 35.2289C22.0944 35.2289 21.9775 35.2289 21.8646 35.2248C21.5944 35.2208 21.3282 35.2168 21.0621 35.2047C20.9411 35.2006 20.8201 35.1966 20.6991 35.1885C20.6346 35.1845 20.5701 35.1845 20.5056 35.1805C20.5056 35.1926 20.5096 35.2047 20.5096 35.2168C20.5459 35.5515 20.5822 35.8781 20.6265 36.2007C20.6346 36.2653 20.6467 36.3298 20.6548 36.3943C20.6588 36.4104 20.6588 36.4266 20.6628 36.4427C20.6951 36.6806 20.7314 36.9186 20.7677 37.1484C20.7717 37.1807 20.7798 37.2129 20.7838 37.2492H24.2519C24.3084 36.9468 24.3689 36.6403 24.4173 36.3419C24.4334 36.2451 24.4535 36.1443 24.4697 36.0515C24.4818 35.9749 24.4939 35.8983 24.506 35.8257C24.5463 35.5878 24.5826 35.3539 24.6189 35.12C24.6149 35.1119 24.6149 35.1119 24.6108 35.1119ZM22.1711 6C20.1547 6 18.2956 6.49199 16.6463 7.4679C16.1382 7.6292 14.4323 8.26637 12.7023 9.89154C11.4401 11.0771 9.77459 13.1903 8.98015 16.5697C7.2219 17.0495 6 18.6425 6 20.4733C6 22.0985 6.95575 23.5502 8.44784 24.1955C8.4438 31.4381 9.5044 34.8942 15.6502 36.0394C15.5454 36.6564 15.4929 37.3057 15.4929 37.9792C15.4929 38.4711 15.8962 38.8744 16.3882 38.8744H20.1587H24.8608H28.2765C28.7443 38.8744 29.1355 38.5074 29.1718 38.0437C29.1758 38.0034 29.2444 37.0274 29.0185 35.7813C30.7607 35.3257 32.1802 34.6845 33.2448 33.882C34.6643 32.8133 35.4829 31.4583 35.6805 29.8573C35.7491 29.2928 35.8136 28.7927 35.8701 28.3491C36.1241 26.365 36.2532 25.3488 36.2249 24.0301C37.5275 23.3123 38.33 21.9614 38.33 20.4773C38.33 18.7755 37.2694 17.2592 35.6765 16.6745C35.7692 15.2429 35.3861 11.8393 30.5147 8.50026L30.5026 8.4922H30.4985C30.4945 8.4922 30.4945 8.48816 30.4905 8.48816C30.3332 8.37928 26.5909 6 22.1711 6ZM10.8312 16.5213C12.4241 10.569 17.0536 9.21001 17.2512 9.15759C17.3318 9.13339 17.4085 9.10113 17.477 9.0608C18.8441 8.23411 20.4128 7.81471 22.1428 7.81471C24.4576 7.81471 26.5909 8.55269 28.0588 9.22211C26.2199 10.2706 23.1833 12.3837 21.55 15.6341C20.8806 16.9649 19.3683 17.7795 17.7674 18.6425C15.3236 19.9611 12.2789 21.5984 11.9643 25.7682C11.9603 25.8166 11.9563 25.869 11.9563 25.9174L11.9522 25.9698C11.8877 27.1595 12.045 28.5024 12.416 29.9703C12.5168 30.3695 12.8757 30.6437 13.283 30.6437C13.3556 30.6437 13.4322 30.6356 13.5048 30.6155C13.7387 30.555 13.9323 30.4098 14.0533 30.2041C14.1742 29.9985 14.2105 29.7565 14.15 29.5267C14.0896 29.2887 14.0371 29.0508 13.9847 28.8008C15.2308 30.0186 16.731 30.9542 18.3723 31.539C17.602 32.0431 16.981 32.7004 16.5253 33.4948C16.3801 33.7448 16.247 34.0191 16.1301 34.3054C11.1296 33.4263 10.2464 31.0591 10.2343 24.5261C10.8634 24.4979 11.3191 24.3003 11.6256 23.9333C12.1418 23.3163 12.0006 22.5219 11.8635 21.7517C11.7909 21.3363 11.7143 20.9088 11.7143 20.4693C11.7143 20.0297 11.7909 19.6022 11.8635 19.1869C12.0006 18.4166 12.1418 17.6222 11.6256 17.0052C11.428 16.7794 11.1699 16.618 10.8312 16.5213ZM24.885 13.9605C26.7038 11.9764 28.9419 10.7424 29.9138 10.2625C33.5029 12.8757 33.9183 15.3074 33.9021 16.36C33.0472 16.4809 32.2245 16.5455 31.4543 16.5455C27.3651 16.5455 25.5383 14.8154 24.885 13.9605ZM18.1182 20.4854C18.2835 20.3967 18.4489 20.308 18.6142 20.2192C20.3886 19.2635 22.2235 18.2755 23.147 16.4366C23.3244 16.0857 23.526 15.7389 23.7519 15.3961C24.7842 16.5656 27.0748 18.336 31.4543 18.336C31.7446 18.336 32.0431 18.3279 32.3455 18.3118C32.3616 18.586 32.406 18.8643 32.4665 19.1949L32.5028 19.4046V20.2838C32.5028 25.8851 27.9459 30.438 22.3485 30.438C18.8965 30.438 15.6139 28.6233 13.7629 25.6996C13.9887 23.5543 15.1542 22.3928 16.3317 21.5702V23.6389C16.3317 24.1309 16.735 24.5342 17.227 24.5342C17.719 24.5342 18.1222 24.1309 18.1222 23.6389V20.4854H18.1182ZM10.0569 22.901V22.7397C9.57699 22.7397 9.11726 22.5864 8.72206 22.292C8.12926 21.8565 7.79051 21.1951 7.79051 20.4733C7.79051 19.6789 8.20588 18.953 8.8995 18.5376C9.26244 18.3198 9.65361 18.2069 10.0569 18.2069C10.1093 18.2069 10.1537 18.2069 10.198 18.211C10.1859 18.3924 10.1375 18.6666 10.1012 18.8643L10.0528 19.1344C9.98832 19.5216 9.91977 19.9813 9.91977 20.4733C9.91977 20.6749 9.93186 20.8806 9.96009 21.1387C9.99639 21.4774 10.0488 21.796 10.0972 22.0662C10.1335 22.2719 10.1819 22.5501 10.198 22.7316C10.1658 22.7356 10.1295 22.7356 10.0811 22.7356H10.077H10.0609L10.0569 22.901ZM34.2933 19.2514V18.7392V18.2069C34.7127 18.211 35.1281 18.336 35.491 18.5699C36.1483 18.9933 36.5395 19.703 36.5395 20.4733C36.5395 21.0903 36.2935 21.667 35.8418 22.1025C35.4829 22.4493 35.0272 22.659 34.5151 22.7155C34.4869 22.7195 34.4586 22.7235 34.4304 22.7276C34.378 22.7356 34.3256 22.7437 34.2691 22.7437C34.2126 22.7437 34.1683 22.7397 34.128 22.7397C34.14 22.5582 34.1925 22.2759 34.2247 22.0743C34.3054 21.6226 34.4022 21.0742 34.4022 20.4773C34.4062 20.0095 34.3457 19.578 34.2933 19.2514ZM26.5183 31.4744C29.7404 30.2687 32.3415 27.6676 33.5432 24.4455C33.761 24.506 33.9989 24.5342 34.2691 24.5342C34.3256 24.5342 34.378 24.5342 34.4304 24.5302C34.4183 25.5222 34.3054 26.4215 34.0876 28.1233C34.0312 28.5709 33.9666 29.071 33.8981 29.6396C33.761 30.7566 33.1924 31.6761 32.16 32.4544C31.2728 33.1238 30.0469 33.6642 28.5185 34.0594C28.4499 33.8941 28.3854 33.7408 28.3169 33.6037L28.3007 33.5674C27.8612 32.6883 27.2603 31.9906 26.5183 31.4744ZM20.4612 32.4987C21.1548 32.281 21.8242 32.2326 22.2719 32.2326C22.6832 32.2326 22.9453 32.2729 22.9453 32.2729C22.9937 32.281 23.0381 32.285 23.0865 32.285C23.7075 32.285 24.2721 32.3778 24.76 32.5633C24.756 32.6278 24.7479 32.6883 24.7439 32.7528C24.7237 32.9423 24.7076 33.1319 24.6834 33.3214L24.6713 33.4464C24.6713 33.4545 24.6713 33.4626 24.6673 33.4706C24.5503 33.4827 24.4374 33.4908 24.3245 33.4988L24.1471 33.5109L24.01 33.523C23.9414 33.5311 23.8688 33.5351 23.8003 33.5392C23.3244 33.5714 22.8889 33.5916 22.4735 33.5956H22.4453H22.4211C22.3162 33.5956 22.2235 33.5956 22.1307 33.5956C21.8363 33.5956 21.542 33.5916 21.2274 33.5795C21.1427 33.5755 21.058 33.5714 20.9733 33.5674L20.8685 33.5634C20.7556 33.5553 20.6427 33.5472 20.5297 33.5392L20.5177 33.398C20.5015 33.1762 20.4894 32.9504 20.4773 32.7246L20.4612 32.4987ZM17.3197 37.0839C17.3439 36.7895 17.3883 36.4911 17.4568 36.1524C17.5577 35.6442 17.7028 35.1764 17.8964 34.7651L17.9367 34.6764C17.9851 34.5715 18.0295 34.4748 18.0779 34.386C18.2594 34.0675 18.4771 33.7811 18.7271 33.5311C18.7473 33.8416 18.7715 34.1481 18.7957 34.4465C18.8038 34.5272 18.8118 34.6078 18.8199 34.6885L18.836 34.8377C18.8643 35.1442 18.8965 35.4426 18.9288 35.737C18.9409 35.8418 18.953 35.9467 18.9651 36.0556L18.9772 36.1685C18.9852 36.2249 18.9893 36.2774 18.9973 36.3338C19.0296 36.5879 19.0659 36.8379 19.1022 37.0839H17.3197ZM25.9416 37.0839C25.9577 36.9992 25.9698 36.9145 25.986 36.8298L26.0263 36.5959C26.0344 36.5395 26.0465 36.483 26.0586 36.4266C26.0707 36.358 26.0828 36.2895 26.0949 36.2209C26.0989 36.1927 26.1029 36.1645 26.1069 36.1362L26.119 36.0636C26.1916 35.616 26.2602 35.1603 26.3247 34.7046L26.3449 34.5675C26.3529 34.5111 26.361 34.4546 26.3691 34.3981C26.3892 34.2328 26.4134 34.0675 26.4296 33.8981C26.5263 34.0473 26.6191 34.2046 26.7038 34.3699C26.736 34.4344 26.7643 34.503 26.7925 34.5675L26.8127 34.6159C26.9982 35.0353 27.1393 35.5031 27.2321 35.9991C27.3127 36.4185 27.349 36.7976 27.3692 37.0799H25.9416V37.0839ZM22.2073 35.3902H22.3404C22.4533 35.3902 22.5622 35.3861 22.6751 35.3861C22.8969 35.3821 23.1187 35.374 23.3405 35.3619L23.4333 35.3579C23.5059 35.3539 23.5825 35.3498 23.6551 35.3458C23.9091 35.3297 24.1632 35.3136 24.4213 35.2894C24.4011 35.4184 24.3769 35.5515 24.3568 35.6846L24.3406 35.7934L24.3245 35.8943L24.3043 36.0233C24.2963 36.0717 24.2842 36.1241 24.2761 36.1765C24.268 36.2209 24.26 36.2693 24.2519 36.3137C24.2076 36.5677 24.1592 36.8258 24.1108 37.0879H20.9129C20.8806 36.8702 20.8483 36.6484 20.8161 36.4225L20.812 36.3983L20.808 36.3782L20.7959 36.2895L20.7798 36.1846C20.7435 35.9144 20.7112 35.6402 20.679 35.3579H20.683C20.7717 35.3619 20.8645 35.366 20.9532 35.37L21.0459 35.374C21.3161 35.3861 21.5903 35.3942 21.8525 35.3942H21.9049C22.0097 35.3902 22.1106 35.3902 22.2073 35.3902Z" fill="#454545"/>
</svg>
