<?xml version="1.0" encoding="utf-8"?>
<!-- Generator: Adobe Illustrator 25.0.1, SVG Export Plug-In . SVG Version: 6.00 Build 0)  -->
<svg version="1.1" id="圖層_1" xmlns="http://www.w3.org/2000/svg" xmlns:xlink="http://www.w3.org/1999/xlink" x="0px" y="0px"
	 viewBox="0 0 55 55.1" style="enable-background:new 0 0 55 55.1;" xml:space="preserve">
<style type="text/css">
	.st0{fill:#FFFFFF;}
	.st1{fill:#FFFFFF;stroke:#000000;stroke-width:1.5904;stroke-miterlimit:10;}
	.st2{opacity:0.6;fill:#FFFFFF;enable-background:new    ;}
	.st3{fill:#FFFFFF;stroke:#000000;stroke-width:2.0511;stroke-linecap:round;stroke-linejoin:round;stroke-miterlimit:10;}
	.st4{fill:#FFFFFF;stroke:#000000;stroke-width:1.9777;stroke-linecap:round;stroke-linejoin:round;stroke-miterlimit:10;}
	.st5{fill:#FFFFFF;stroke:#4D4D4D;stroke-width:1.0169;stroke-linecap:round;stroke-linejoin:round;stroke-miterlimit:10;}
	.st6{fill:#999999;}
	.st7{fill:#999999;stroke:#000000;stroke-width:1.5904;stroke-miterlimit:10;}
	.st8{fill:#545454;stroke:#000000;stroke-width:1.5904;stroke-miterlimit:10;}
	.st9{fill:#D3D3D3;stroke:#000000;stroke-width:1.5904;stroke-miterlimit:10;}
	.st10{opacity:0.6;fill:#FF6D00;enable-background:new    ;}
	.st11{opacity:0.6;fill:#FFA943;enable-background:new    ;}
	.st12{fill:none;stroke:#000000;stroke-width:2.0511;stroke-linecap:round;stroke-linejoin:round;stroke-miterlimit:10;}
	.st13{fill:none;stroke:#000000;stroke-width:1.9777;stroke-linecap:round;stroke-linejoin:round;stroke-miterlimit:10;}
	.st14{fill:none;stroke:#4D4D4D;stroke-width:1.0169;stroke-linecap:round;stroke-linejoin:round;stroke-miterlimit:10;}
	.st15{fill:#FFFFFF;stroke:#231815;stroke-width:2.5585;stroke-miterlimit:10;}
	.st16{fill:#FFFFFF;stroke:#231815;stroke-width:2.6707;stroke-miterlimit:10;}
	.st17{fill:#4CE7FC;}
	.st18{fill:#D6682C;stroke:#000000;stroke-width:2.003;}
</style>
<g>
	<g>
		<g>
			<g>
				<path class="st0" d="M28.1,4.7c0,0,0.5,24.9-22.8,23.5C5.3,28.2,7.9,3.1,28.1,4.7z"/>
				<g>
					<path class="st1" d="M17.7,6.7c0.9-0.5,1.9-0.8,2.8-1.1C17.3,4,12.6,1.9,11.4,3c-1.2,1.2-2.3,8.2-2.7,12.7
						c0.8-1.8,2-3.5,3.4-4.9c0.1-1.5,0.3-3.3,0.6-4.8C12.9,4.7,15,5.3,17.7,6.7z"/>
					<path class="st1" d="M45.7,3.2c-1.5-1.4-7.6,0.9-11,2.3c1.4,0.4,2.7,0.9,4.1,1.8c1.3-0.7,3.1-1.5,4.3-1.5c1.3,0,2,4.1,2.4,7.7
						c1.3,2.1,2.2,4.7,2.8,7.5C48.6,15.5,47.3,4.6,45.7,3.2z"/>
					<path class="st1" d="M12.7,6c-0.3,1.5-0.5,3.3-0.6,4.8c1.6-1.6,3.5-3.2,5.6-4.1C15,5.3,12.9,4.7,12.7,6z"/>
					<path class="st1" d="M43.2,5.8c-1.3,0-3,0.8-4.3,1.5c1.4,0.8,2.7,1.9,4.2,3c0.9,0.8,1.8,1.9,2.4,3.2
						C45.2,9.9,44.5,5.8,43.2,5.8z"/>
				</g>
				<g>
					<g>
						<path class="st0" d="M18.3,18.8c-0.6,0.6-1.4,0.9-2.3,0.9c-0.9,0-1.8-0.5-2.4-1.2c-0.6-0.7-0.9-1.6-0.9-2.7s0.4-2,1.1-2.7
							c0.6-0.7,1.5-1.1,2.4-1.1c0.9,0,1.8,0.5,2.4,1.2c0.6,0.7,0.9,1.6,0.9,2.7l0,0C19.4,17,19,18.1,18.3,18.8z M14.4,13.7l-0.1,0.1
							c-0.5,0.6-0.7,1.3-0.7,2c0,1.5,1.2,2.9,2.5,2.9s2.6-1.3,2.6-2.8l0,0c0-0.8-0.2-1.5-0.7-2c-0.5-0.6-1.2-0.8-1.8-0.8
							C15.4,13,14.9,13.3,14.4,13.7z"/>
					</g>
					<g>
						<ellipse class="st0" cx="16.1" cy="15.8" rx="2.1" ry="2.3"/>
					</g>
				</g>
				<g>
					<g>
						<path class="st0" d="M39.8,20c-0.6,0.6-1.5,0.9-2.3,0.9c-0.9,0-1.8-0.5-2.4-1.2c-0.6-0.7-0.9-1.6-0.9-2.7s0.4-2,1.1-2.7
							s1.5-1.1,2.4-1.1c1.9,0,3.4,1.8,3.4,3.9l0,0c0,1.1-0.4,2-1.1,2.7C39.9,19.9,39.9,20,39.8,20z M35.9,15l-0.1,0.1
							c-0.5,0.6-0.7,1.3-0.7,2c0,1.5,1.2,2.9,2.5,2.9c0.7,0,1.4-0.2,1.8-0.8c0.5-0.6,0.7-1.3,0.7-2l0,0c0-1.5-1.2-2.9-2.5-2.9
							C37,14.3,36.4,14.5,35.9,15z"/>
					</g>
					<g>
						<ellipse class="st0" cx="37.6" cy="17.1" rx="2.1" ry="2.3"/>
					</g>
				</g>
				<path class="st0" d="M28.2,17.9c-0.1,0-0.2,0-0.2,0.1c0,0-0.2,0.4-0.5,0.4c-0.4,0-0.6-0.1-0.5-0.6l0,0l0.3-0.2
					c0.2-0.2,0.1-0.6-0.2-0.6h-0.5c-0.3,0-0.4,0.4-0.2,0.6l0.3,0.2l0,0c0,0.5-0.2,0.6-0.6,0.5c-0.3,0-0.4-0.4-0.4-0.4
					c0-0.1-0.1-0.1-0.2-0.1s-0.1,0.1-0.1,0.2c0,0,0.2,0.6,0.7,0.6c0.2,0,0.5,0,0.7-0.2c0.2,0.2,0.5,0.2,0.7,0.2
					c0.5,0,0.7-0.6,0.7-0.6C28.3,18.1,28.2,17.9,28.2,17.9z"/>
				
					<ellipse transform="matrix(1.718657e-02 -0.9999 0.9999 1.718657e-02 -9.9334 33.3786)" class="st2" cx="12" cy="21.7" rx="1.6" ry="2.6"/>
				
					<ellipse transform="matrix(1.718658e-02 -0.9999 0.9999 1.718658e-02 16.8712 62.5469)" class="st2" cx="40.3" cy="22.7" rx="1.6" ry="2.6"/>
				<path class="st2" d="M23.4,24.3c22.2,0,22.2,16.5,22.1,20.7c-0.8,16.1-18,1.9-23.3,3.7c-14-11.9-9.4,19.8-16.4-1.4
					C2,36,12.4,24.3,23.4,24.3z"/>
				<path class="st3" d="M49.4,28.8c0,0,4,5.1,3,5.8c-1.1,0.7-2.2,0-2.2,0l-3.7-3.4"/>
				<path class="st4" d="M49.9,29.5c-0.3-2.8-0.7-5.7-1.5-8.5c-1.2-4.3-2.8-8.3-5.4-10.5c-2.8-2.6-5.7-4.1-8.3-4.9
					c-4.1-1.2-8.1-0.9-12.1-0.4c-0.7,0.1-1.4,0.2-2,0.5c-5.4,1.4-9.7,5.6-11.8,10.2c-0.2,0.4-0.3,0.8-0.5,1.2
					c-0.8,2.3-1.9,6.5-2.8,11.3c-0.4,2-0.8,4.1-1.2,6.1c-0.8,5-1.5,9.7-1.6,12.4c0,3.7,4.6,6.6,6,5.8c0.8-0.5,32.8-2.2,33.3-0.8
					c2.7,6.9,7.9-4.7,8.3-10.3c0.2-1.3,0.3-3.7,0.2-6.9c0.3,0.1,1.3,0.5,2.1,0C53.2,34.2,51,30.9,49.9,29.5z"/>
				<path class="st5" d="M10.9,17.6c0,0-8.3,0-10.2,2.3"/>
				<path class="st5" d="M10.3,19.1c0,0-8.1,2.2-9.4,4.9"/>
				<path class="st5" d="M44.5,18.2c0,0,8.3,0.4,10.1,2.6"/>
				<path class="st5" d="M45,19.7c0,0,8,2.5,9.3,5.3"/>
			</g>
		</g>
	</g>
	<g>
		<g>
			<g>
				<g>
					<path class="st6" d="M28.1,4.7c0,0,0.5,24.9-22.8,23.5C5.3,28.2,7.9,3.1,28.1,4.7z"/>
					<g>
						<path class="st7" d="M17.7,6.7c0.9-0.5,1.9-0.8,2.8-1.1C17.3,4,12.6,1.9,11.4,3c-1.2,1.2-2.3,8.2-2.7,12.7
							c0.8-1.8,2-3.5,3.4-4.9c0.1-1.5,0.3-3.3,0.6-4.8C12.9,4.7,15,5.3,17.7,6.7z"/>
						<path class="st1" d="M45.7,3.2c-1.5-1.4-7.6,0.9-11,2.3c1.4,0.4,2.7,0.9,4.1,1.8c1.3-0.7,3.1-1.5,4.3-1.5c1.3,0,2,4.1,2.4,7.7
							c1.3,2.1,2.2,4.7,2.8,7.5C48.6,15.5,47.3,4.6,45.7,3.2z"/>
						<path class="st8" d="M12.7,6c-0.3,1.5-0.5,3.3-0.6,4.8c1.6-1.6,3.5-3.2,5.6-4.1C15,5.3,12.9,4.7,12.7,6z"/>
						<path class="st9" d="M43.2,5.8c-1.3,0-3,0.8-4.3,1.5c1.4,0.8,2.7,1.9,4.2,3c0.9,0.8,1.8,1.9,2.4,3.2
							C45.2,9.9,44.5,5.8,43.2,5.8z"/>
					</g>
					<path d="M28.2,17.9c-0.1,0-0.2,0-0.2,0.1c0,0-0.2,0.4-0.5,0.4c-0.4,0-0.6-0.1-0.5-0.6l0,0l0.3-0.2c0.2-0.2,0.1-0.6-0.2-0.6
						h-0.5c-0.3,0-0.4,0.4-0.2,0.6l0.3,0.2l0,0c0,0.5-0.2,0.6-0.6,0.5c-0.3,0-0.4-0.4-0.4-0.4c0-0.1-0.1-0.1-0.2-0.1
						s-0.1,0.1-0.1,0.2c0,0,0.2,0.6,0.7,0.6c0.2,0,0.5,0,0.7-0.2c0.2,0.2,0.5,0.2,0.7,0.2c0.5,0,0.7-0.6,0.7-0.6
						C28.3,18.1,28.2,17.9,28.2,17.9z"/>
					
						<ellipse transform="matrix(1.718657e-02 -0.9999 0.9999 1.718657e-02 -9.9334 33.3786)" class="st10" cx="12" cy="21.7" rx="1.6" ry="2.6"/>
					
						<ellipse transform="matrix(1.718658e-02 -0.9999 0.9999 1.718658e-02 16.8712 62.5469)" class="st10" cx="40.3" cy="22.7" rx="1.6" ry="2.6"/>
					<path class="st11" d="M23.4,24.3c22.2,0,22.2,16.5,22.1,20.7c-0.8,16.1-0.1,2.5-22.8,6.6C9,52,8,55.3,5.9,47.3
						C2,36,12.4,24.3,23.4,24.3z"/>
					<path class="st12" d="M49.4,28.8c0,0,4,5.1,3,5.8c-1.1,0.7-2.2,0-2.2,0l-3.7-3.4"/>
					<path class="st13" d="M49.9,29.5c-0.3-2.8-0.7-5.7-1.5-8.5c-1.2-4.3-2.8-8.3-5.4-10.5c-2.8-2.6-5.7-4.1-8.3-4.9
						c-4.1-1.2-8.1-0.9-12.1-0.4c-0.7,0.1-1.4,0.2-2,0.5c-5.4,1.4-9.7,5.6-11.8,10.2c-0.2,0.4-0.3,0.8-0.5,1.2
						c-0.8,2.3-1.9,6.5-2.8,11.3c-0.4,2-0.8,4.1-1.2,6.1c-0.8,5-1.5,9.7-1.6,12.4c0,3.7,4.6,6.6,6,5.8c0.8-0.5,32.8-2.2,33.3-0.8
						c2.7,6.9,7.9-4.7,8.3-10.3c0.2-1.3,0.3-3.7,0.2-6.9c0.3,0.1,1.3,0.5,2.1,0C53.2,34.2,51,30.9,49.9,29.5z"/>
					<path class="st14" d="M10.9,17.6c0,0-8.3,0-10.2,2.3"/>
					<path class="st14" d="M10.3,19.1c0,0-8.1,2.2-9.4,4.9"/>
					<path class="st14" d="M44.5,18.2c0,0,8.3,0.4,10.1,2.6"/>
					<path class="st14" d="M45,19.7c0,0,8,2.5,9.3,5.3"/>
				</g>
			</g>
		</g>
		<path class="st4" d="M5.3,28.2L5.3,28.2c-0.1,0-5,5.3-3.9,6.1c1.6,1.2,4.3-1.2,4.3-1.2L9,29.4"/>
		<path class="st3" d="M49.5,28.2c0,0,2.8,4,2.2,5.1c-1.2,2.1-5.3-2.1-5.3-2.1L44.3,29"/>
	</g>
</g>
<g>
	<path class="st15" d="M21.4,43L11.1,53.1c-0.7,0.7-1.8,0.7-2.5,0l-0.1-0.1c-0.7-0.7-0.7-1.8,0-2.5l10.3-10.1c0.7-0.7,1.8-0.7,2.5,0
		l0.1,0.1C22.1,41.1,22.1,42.3,21.4,43z"/>
	<g>
		<circle class="st16" cx="27.3" cy="36" r="14.4"/>
		<g>
			<path class="st17" d="M30.1,47.1c6.1-1.6,9.8-7.8,8.2-14c-1.6-6.2-7.8-9.8-14-8.2c-6.1,1.6-9.8,7.8-8.2,14
				C17.7,45.1,24,48.7,30.1,47.1z"/>
			<g>
				<path class="st18" d="M33.4,30.4l-10.3-0.9c-3.4-0.4-6.5,2.2-6.7,5.6l-0.1,0.3c-0.2,3.4,2.2,6.5,5.6,6.7L32.3,43
					c3.4,0.4,6.5-2.2,6.7-5.6l0.1-0.3C39.4,33.7,36.8,30.6,33.4,30.4z"/>
				<path class="st0" d="M34.6,43.5c-0.8,0.2-1.6,0.3-2.4,0.2l-10-0.8c-1,0-1.9-0.3-2.7-0.8c-0.8-0.5-1.5-1-2.1-1.8
					c-0.6-0.8-1.1-1.5-1.3-2.4c-0.2-0.9-0.3-1.8-0.3-2.8c0-1,0.3-1.9,0.8-2.7c0.5-0.8,1-1.5,1.8-2.1c0.7-0.6,1.5-1.1,2.4-1.3
					c0.9-0.2,1.8-0.3,2.8-0.3l9.9,0.9c1.7,0.1,3.2,0.8,4.4,2c1.1,1.2,2,2.8,2.1,4.4c0.1,1.6-0.4,3.4-1.3,4.7
					C37.6,42.1,36.2,43.1,34.6,43.5L34.6,43.5z M21.4,30.3c-0.8,0.2-1.6,0.6-2.2,1.1c-0.9,0.8-1.5,1.6-1.8,2.8c-0.3,1-0.3,2.1,0,3.3
					c0.3,1,0.9,2,1.8,2.7c0.9,0.7,2,1.1,3.1,1.1l9.9,0.9c1.6,0.1,2.9-0.4,4.1-1.3s1.9-2.4,2-3.8c0.1-1.6-0.4-2.9-1.3-4.1
					c-1-1.1-2.3-1.9-3.8-2l-9.9-0.9C22.6,30.2,22.1,30.2,21.4,30.3L21.4,30.3z"/>
				<path class="st0" d="M24.5,37.4c-0.1,0-0.4,0.1-0.6,0L19.7,37c-0.4,0-0.7-0.2-1-0.6c-0.2-0.4-0.3-0.7-0.3-1
					c0-0.4,0.2-0.7,0.4-0.9c0.4-0.2,0.6-0.4,1-0.4l4.2,0.4c0.4,0,0.7,0.2,0.9,0.4c0.2,0.2,0.4,0.6,0.4,1c0.1,0.4-0.1,0.7-0.3,1
					C25.1,37.1,24.9,37.3,24.5,37.4L24.5,37.4z"/>
				<path class="st0" d="M22.3,39.4c-0.3,0.1-0.5,0.1-0.7,0c-0.3-0.1-0.5-0.2-0.6-0.3c-0.2-0.1-0.4-0.3-0.4-0.6
					c-0.1-0.3-0.1-0.5-0.2-0.6l0.4-4.2c0-0.1,0-0.4,0.1-0.6c0.1-0.2,0.2-0.3,0.3-0.5c0.1-0.2,0.4-0.2,0.5-0.3c0.1,0,0.4-0.1,0.6,0
					c0.1,0,0.4,0,0.6,0.1c0.2,0.1,0.3,0.2,0.5,0.3c0.2,0.1,0.2,0.4,0.3,0.5c0,0.1,0.1,0.4,0,0.6L23.2,38c-0.1,0.3-0.1,0.6-0.3,0.8
					C22.7,39.1,22.5,39.3,22.3,39.4L22.3,39.4z"/>
				<path class="st0" d="M30.5,37.5c0.5-0.1,0.8-0.6,0.7-1.1c-0.1-0.5-0.6-0.8-1.1-0.7c-0.5,0.1-0.8,0.6-0.7,1.1
					C29.5,37.4,29.9,37.6,30.5,37.5z"/>
				<path class="st0" d="M33.7,34.7c0.5-0.1,0.8-0.6,0.7-1.1c-0.1-0.5-0.6-0.8-1.1-0.7c-0.5,0.1-0.8,0.6-0.7,1.1
					C32.9,34.5,33.4,34.8,33.7,34.7z"/>
				<path class="st0" d="M32.9,40.3c0.5-0.1,0.8-0.6,0.7-1.1s-0.6-0.8-1.1-0.7c-0.5,0.1-0.8,0.6-0.7,1.1
					C32,40.1,32.5,40.4,32.9,40.3z"/>
				<path class="st0" d="M36.3,37.5c0.5-0.1,0.8-0.6,0.7-1.1c-0.1-0.5-0.6-0.8-1.1-0.7c-0.5,0.1-0.8,0.6-0.7,1.1
					C35.3,37.4,35.7,37.7,36.3,37.5z"/>
				<path d="M21.3,29.7c0.6-0.2,1.5-0.2,2.2-0.1l9.9,0.9c1.7,0.1,3.2,1,4.3,2.2c1,1.3,1.6,2.9,1.5,4.6c-0.1,1.7-0.9,3.3-2.2,4.3
					c-1.2,1.1-2.9,1.6-4.6,1.5l-10-0.8c-1.6-0.1-3-0.8-3.9-1.9c-1.1-1.1-1.7-2.4-1.8-3.9c-0.1-1.5,0.3-3,1.1-4.2
					C18.6,30.9,19.7,30.1,21.3,29.7L21.3,29.7z M21.1,28.9c-1.4,0.4-2.7,1.1-3.7,2.3c-0.9,1.2-1.6,2.5-1.7,4
					c-0.2,1.8,0.4,3.8,1.6,5.2c1.2,1.5,3,2.4,4.8,2.5l10,0.8c0.8,0.1,1.7,0,2.4-0.2c1.2-0.3,2.3-0.9,3.1-1.8c0.9-0.8,1.6-1.9,1.9-3
					c0.4-1.2,0.5-2.3,0.2-3.5c-0.2-1.2-0.7-2.3-1.5-3.2c-0.6-0.7-1.3-1.3-2.1-1.8c-0.8-0.5-1.7-0.7-2.7-0.8l-9.9-0.9
					C22.6,28.6,21.8,28.7,21.1,28.9L21.1,28.9z"/>
				<path d="M21.2,29.1c0.8-0.2,1.5-0.3,2.4-0.2l9.6,0.9c1.6,0.1,3.2,0.8,4.3,2c1.1,1.2,1.9,2.7,2.1,4.3c0.1,1.6-0.3,3.3-1.2,4.6
					c-1,1.3-2.3,2.4-3.9,2.7c-0.8,0.2-1.5,0.3-2.4,0.2l-9.8-0.8c-1.4-0.1-2.7-0.6-3.7-1.4c-1-0.8-1.9-2.1-2.3-3.3
					c-0.5-1.4-0.4-2.7-0.1-4c0.3-1.3,1.1-2.4,2.2-3.4C19.3,29.9,20.2,29.4,21.2,29.1L21.2,29.1z M21,28.3c-1.8,0.5-3.2,1.5-4.3,3
					c-1.1,1.5-1.6,3.2-1.4,5.1c0.2,1.8,0.9,3.5,2.2,4.8c1.3,1.3,3,2.1,4.8,2.3l9.8,0.8c0.8,0.1,1.7,0,2.5-0.2c1.8-0.5,3.2-1.5,4.3-3
					c1.1-1.5,1.6-3.2,1.4-5.1c-0.2-1.8-0.9-3.5-2.2-4.8s-3-2.1-4.8-2.3l-9.8-0.8C22.7,28.2,21.8,28.2,21,28.3L21,28.3z"/>
			</g>
		</g>
	</g>
</g>
<g>
	<path class="st0" d="M16.3,11.4c-1.1,0-2,0.4-2.7,1.1c-0.7,0.7-1.2,1.7-1.2,2.8s0.4,2.1,1.1,2.8c0.7,0.7,1.7,1.2,2.7,1.2
		s1.9-0.4,2.6-1c0.8-0.7,1.3-1.8,1.3-2.9s-0.4-2.1-1.1-2.8C18.3,11.9,17.4,11.4,16.3,11.4z"/>
	<path class="st0" d="M38.3,11.8c-1.1,0-2,0.4-2.7,1.1c-0.7,0.7-1.2,1.7-1.2,2.8s0.4,2.1,1.1,2.8c0.7,0.7,1.7,1.2,2.7,1.2
		c1,0,1.9-0.4,2.6-1c0.1,0,0.1-0.1,0.1-0.1c0.7-0.7,1.2-1.7,1.2-2.8C42.1,13.7,40.4,11.8,38.3,11.8z"/>
</g>
<g>
	<g>
		<path d="M18.8,18.4c-0.7,0.6-1.5,1-2.6,1c-1.1,0-2-0.5-2.7-1.2c-0.7-0.7-1.1-1.7-1.1-2.8s0.5-2.1,1.2-2.8c0.7-0.7,1.7-1.1,2.7-1.1
			c1.1,0,2,0.5,2.7,1.2c0.7,0.7,1.1,1.7,1.1,2.8l0,0C20.1,16.6,19.6,17.7,18.8,18.4z M14.4,13.1l-0.1,0.1c-0.6,0.6-0.8,1.4-0.8,2.1
			c0,1.6,1.3,3.1,2.9,3.1c1.5,0,3-1.4,3-2.9l0,0c0-0.9-0.2-1.6-0.8-2.1c-0.6-0.6-1.3-0.9-2-0.9C15.6,12.4,15,12.6,14.4,13.1z"/>
	</g>
	<g>
		<ellipse cx="16.3" cy="15.3" rx="2.4" ry="2.5"/>
	</g>
</g>
<g>
	<g>
		<path d="M40.8,18.8c-0.7,0.6-1.7,1-2.6,1c-1.1,0-2-0.5-2.7-1.2c-0.7-0.7-1.1-1.7-1.1-2.8s0.5-2.1,1.2-2.8c0.7-0.7,1.7-1.1,2.7-1.1
			c2.1,0,3.8,1.8,3.8,4.1l0,0c0,1.1-0.5,2.1-1.2,2.8C40.9,18.7,40.9,18.8,40.8,18.8z M36.4,13.5l-0.1,0.1c-0.6,0.6-0.8,1.4-0.8,2.1
			c0,1.6,1.3,3.1,2.9,3.1c0.8,0,1.5-0.2,2-0.9c0.6-0.6,0.8-1.4,0.8-2.1l0,0c0-1.6-1.3-3.1-2.9-3.1C37.6,12.8,37,13,36.4,13.5z"/>
	</g>
	<g>
		<ellipse cx="38.3" cy="15.7" rx="2.4" ry="2.5"/>
	</g>
</g>
</svg>
