<svg width="333" height="70" viewBox="0 0 333 70" fill="none" xmlns="http://www.w3.org/2000/svg">
<path d="M0 32.1281C0.0360002 22.3903 6.32703 13.6652 15.7501 10.3094C18.1987 9.46966 20.7459 8.94999 23.3281 8.76337C24.1321 8.69446 24.4051 9.02105 24.0871 9.78509C23.374 11.3585 22.792 12.988 22.3471 14.657C21.1801 19.6248 21.8761 24.3918 23.8471 29.039C27.2731 37.072 33.2011 42.597 41.0762 46.1746C46.6262 48.6974 52.4762 50.1566 58.4763 51.0255C61.2513 51.427 64.0383 51.7026 66.8313 51.8974C67.6053 51.9513 68.2053 52.248 68.4753 53.027C70.1433 57.8629 71.6673 62.7408 72.8674 67.7086C73.2394 69.2577 72.7533 69.9079 71.1693 69.9648C67.9143 70.0876 64.6653 69.8599 61.4193 69.7251C58.1733 69.5903 54.8792 69.3655 51.6122 69.0929C40.9772 68.194 30.7081 65.9109 21.1081 61.1049C14.8081 57.9528 9.35403 53.785 5.34901 47.9214C2.631 43.9304 0.711009 39.6158 0.156007 34.7738C0.0720062 33.8809 0.0540003 33 0 32.1281Z" fill="#177EFF"/>
<path d="M72.8134 47.8256C66.1473 47.9544 59.5293 47.496 53.0133 46.0278C47.1812 44.7065 41.6432 42.642 36.7652 39.1005C31.4672 35.2533 27.9332 30.1926 26.3221 23.8196C24.2521 15.6189 28.5992 3.63086 40.3892 0.646597C46.1252 -0.806585 51.3873 0.248098 56.3673 3.22337C61.6863 6.3964 65.7093 10.8518 69.0394 15.9874C73.6774 23.1514 76.8184 30.9687 79.2574 39.1035C79.8574 41.1469 80.4394 43.1994 80.9074 45.2787C81.2764 46.9237 80.7514 47.6428 79.0804 47.7806C78.8434 47.8016 78.6094 47.8435 78.3724 47.8435C76.5184 47.8286 74.6674 47.8256 72.8134 47.8256Z" fill="#91C73E"/>
<path d="M197.404 31.0017V13.141C197.404 12.1133 197.479 12.0384 198.478 12.0354C200.878 12.0354 203.278 12.0354 205.678 12.0354C205.91 12.0136 206.144 12.0619 206.348 12.1741C206.552 12.2863 206.718 12.4571 206.824 12.6646C209.824 17.5225 212.836 22.3715 215.86 27.2114C216.364 28.0204 216.373 28.0204 216.886 27.2114C219.886 22.4054 222.873 17.5974 225.847 12.7874C225.963 12.5465 226.149 12.3462 226.381 12.213C226.613 12.0798 226.879 12.02 227.146 12.0414C229.498 12.0803 231.85 12.0564 234.205 12.0564C235.264 12.0564 235.339 12.1283 235.339 13.177V45.2488C235.339 46.5043 235.321 47.7627 235.339 49.0181C235.339 49.6803 235.114 49.9619 234.439 49.9529C232.275 49.927 230.112 49.927 227.95 49.9529C227.251 49.9529 227.05 49.6743 227.05 49.0151C227.064 41.5904 227.064 34.1667 227.05 26.744C227.05 26.4444 227.245 25.962 226.87 25.8451C226.495 25.7283 226.414 26.2466 226.24 26.5073C223.106 31.2533 219.975 36.0014 216.847 40.7515C216.385 41.4496 216.229 41.4436 215.761 40.7335L206.461 26.6062C206.349 26.4253 206.228 26.2503 206.098 26.0818C205.912 25.8541 205.759 25.938 205.711 26.1837C205.678 26.4178 205.666 26.6545 205.675 26.8908V48.8773C205.675 49.8691 205.618 49.926 204.634 49.929H198.502C197.47 49.929 197.401 49.8601 197.401 48.8473L197.404 31.0017Z" fill="white"/>
<path d="M277.411 20.9071C278.503 20.9071 279.598 20.943 280.69 20.9071C281.353 20.8771 281.656 21.1228 281.863 21.746C283.807 27.6287 285.768 33.5053 287.746 39.376C287.753 39.4222 287.765 39.4674 287.782 39.5108C287.914 39.6936 287.833 40.0561 288.145 40.0591C288.457 40.0621 288.445 39.7295 288.505 39.5228C289.351 36.912 290.192 34.3013 291.028 31.6906C292.108 28.3378 293.2 24.988 294.256 21.6292C294.292 21.4087 294.412 21.2106 294.591 21.077C294.77 20.9433 294.995 20.8845 295.216 20.9131C297.472 20.931 299.731 20.9131 301.987 20.9131C302.806 20.9131 302.995 21.1737 302.722 21.9048C298.966 31.8923 295.206 41.8698 291.442 51.8374C290.809 53.6308 289.795 55.2662 288.469 56.6314C286.762 58.3243 284.608 58.7467 282.319 58.7647C280.08 58.7834 277.869 58.2547 275.881 57.2246C275.098 56.8261 275.05 56.6853 275.413 55.9093C276.079 54.4711 276.769 53.0449 277.405 51.5947C277.669 50.9954 278.005 50.8816 278.575 51.1542C279.544 51.6672 280.629 51.9202 281.725 51.8883C282.784 51.8224 283.48 51.2741 283.987 50.3902C284.23 49.9707 284.023 49.6082 283.879 49.2426C280.963 41.778 278.042 34.3153 275.116 26.8546C274.48 25.2247 273.844 23.5947 273.208 21.9647C272.908 21.1707 273.07 20.9131 273.916 20.9071C275.08 20.8981 276.247 20.9071 277.411 20.9071Z" fill="white"/>
<path d="M166.054 20.9071C167.173 20.9071 168.289 20.9371 169.405 20.9071C170.035 20.8831 170.329 21.1139 170.527 21.7131C172.471 27.5977 174.433 33.4734 176.413 39.3401C176.5 39.6037 176.455 40.0711 176.857 40.0532C177.178 40.0382 177.157 39.6127 177.232 39.358C179.122 33.5093 181.001 27.6567 182.869 21.8C183.076 21.1468 183.364 20.9011 184.069 20.9011C186.256 20.9401 188.443 20.9011 190.627 20.9011C191.506 20.9011 191.677 21.1678 191.362 22.0007C187.708 31.7226 184.053 41.4414 180.397 51.1573C180.008 52.1742 179.552 53.1642 179.032 54.1206C177.313 57.3176 174.637 58.8456 171.016 58.7737C168.73 58.7685 166.478 58.2168 164.449 57.1648C163.885 56.8651 163.753 56.5655 164.038 55.9902C164.752 54.5251 165.43 53.0389 166.099 51.5498C166.351 50.9865 166.699 50.8906 167.227 51.1453C168.195 51.6596 169.28 51.9156 170.377 51.8884C171.46 51.8254 172.177 51.2741 172.684 50.3543C172.75 50.2161 172.782 50.0636 172.775 49.9104C172.768 49.7572 172.723 49.6081 172.645 49.4764C170.347 43.5997 168.047 37.7221 165.745 31.8434C164.461 28.5635 163.178 25.2816 161.896 21.9977C161.569 21.1588 161.737 20.9131 162.634 20.9071C163.774 20.9011 164.914 20.9071 166.054 20.9071Z" fill="white"/>
<path d="M127.867 23.4898C127.48 19.7355 125.803 16.6794 122.632 14.5311C119.965 12.7333 116.95 12.0711 113.788 12.0442C108.847 12.0052 103.887 12.0442 98.9585 12.0442C97.9535 12.0442 97.9174 12.0831 97.9174 13.0869V48.958C97.9174 49.9018 97.9685 49.9527 98.9315 49.9557H105.276C106.218 49.9557 106.284 49.8898 106.284 48.94C106.284 45.7849 106.284 42.6299 106.284 39.4778C106.284 38.8396 106.492 38.579 107.158 38.6059C108.295 38.6479 109.438 38.6059 110.578 38.6209C112.885 38.6389 115.186 38.6209 117.445 38.0696C121.327 37.1438 124.507 35.2381 126.481 31.6396C127.876 29.0719 128.161 26.3153 127.867 23.4898ZM119.449 25.8359C119.281 28.185 118.009 29.785 115.828 30.6539C115.029 30.9629 114.179 31.1164 113.323 31.1063C111.259 31.1063 109.195 31.0823 107.131 31.1063C106.455 31.1063 106.267 30.8516 106.276 30.2254C106.303 28.6134 106.276 27.0044 106.276 25.3925C106.276 23.7805 106.276 22.1236 106.276 20.4906C106.276 19.8913 106.465 19.6427 107.101 19.6516C109.117 19.6816 111.136 19.6516 113.152 19.6516C114.392 19.6381 115.618 19.9271 116.722 20.4936C118.891 21.6352 119.614 23.5468 119.449 25.8389V25.8359Z" fill="white"/>
<path d="M269.209 30.1507C268.576 25.2069 265.486 21.878 260.569 20.9791C255.514 20.0533 250.615 20.6795 245.869 22.6271C245.32 22.8488 245.221 23.1514 245.398 23.6728C245.917 25.1919 246.412 26.723 246.919 28.2451C247.219 29.1439 247.309 29.2068 248.182 28.8952C250.638 27.9959 253.246 27.5846 255.859 27.6848C258.922 27.8196 261.175 29.1829 261.436 32.1791C261.517 33.114 261.319 33.3267 260.434 33.078C257.097 32.087 253.564 31.9479 250.159 32.6735C245.899 33.5484 243.259 36.1641 242.755 40.2121C242.356 43.3492 243.055 46.2525 245.677 48.242C249.442 51.0945 253.621 51.0945 257.884 49.4405C259.005 48.9658 260.023 48.2802 260.884 47.4211C260.998 47.3162 261.097 47.1214 261.295 47.2113C261.493 47.3012 261.439 47.49 261.442 47.6458C261.442 48.1192 261.466 48.5956 261.442 49.069C261.403 49.7012 261.649 49.9679 262.309 49.9679C264.373 49.9409 266.44 49.9679 268.507 49.9679C269.335 49.9679 269.434 49.86 269.434 49.0121C269.434 46.0697 269.434 43.1294 269.434 40.1911C269.434 40.0743 269.434 39.9544 269.434 39.8346C269.338 36.5896 269.623 33.3776 269.209 30.1507ZM255.991 44.7394C254.996 44.8457 253.99 44.7437 253.036 44.4398C251.713 43.9454 250.813 43.0795 250.69 41.6023C250.561 40.0503 251.104 38.8188 252.49 38.0248C253.708 37.3357 255.043 37.1859 256.411 37.1859C257.956 37.1846 259.489 37.4628 260.935 38.0068C261.13 38.051 261.301 38.1639 261.419 38.3247C261.536 38.4856 261.592 38.6834 261.574 38.8817C261.652 42.3933 259.618 44.5417 255.991 44.7394Z" fill="white"/>
<path d="M157.84 30.4563C157.288 25.4436 154.459 22.1267 149.53 21.0691C144.325 19.9515 139.249 20.6526 134.344 22.6751C133.906 22.8548 133.813 23.1395 133.963 23.5739C134.515 25.2069 135.049 26.8488 135.577 28.4908C135.727 28.9612 135.976 29.1679 136.477 28.9702C136.717 28.8773 136.975 28.8204 137.221 28.7395C139.978 27.8106 142.795 27.3942 145.699 27.7986C148.279 28.1582 149.815 29.7762 150.019 32.293C150.085 33.111 149.872 33.2998 149.098 33.0691C145.993 32.1394 142.715 31.9434 139.522 32.4968C137.23 32.8833 135.124 33.6953 133.483 35.4121C131.587 37.3837 131.119 39.8226 131.305 42.4473C131.359 43.5996 131.666 44.726 132.202 45.7476C132.738 46.7693 133.492 47.6616 134.41 48.3619C137.62 50.8788 143.374 51.2054 147.106 49.117C147.938 48.6654 148.708 48.1085 149.398 47.46C149.527 47.3342 149.656 47.1305 149.866 47.2024C150.076 47.2743 150.004 47.526 150.01 47.6968C150.01 48.1492 150.04 48.5956 150.01 49.0481C149.959 49.7372 150.268 49.9649 150.934 49.9469C152.977 49.92 155.02 49.9469 157.063 49.9469C157.927 49.9469 158.002 49.869 158.002 49.0151C158.002 46.1237 158.002 43.2293 158.002 39.7267C157.888 37.0421 158.2 33.7402 157.84 30.4563ZM144.481 44.7424C144.268 44.7424 144.055 44.7424 143.842 44.7424C143.012 44.7896 142.183 44.6535 141.412 44.3439C140.239 43.8496 139.438 43.0436 139.312 41.7312C139.159 40.29 139.537 39.0616 140.797 38.2016C141.674 37.6311 142.685 37.2977 143.731 37.2338C145.694 37.0363 147.677 37.2947 149.524 37.9889C149.728 38.0373 149.908 38.1589 150.029 38.3305C150.15 38.5021 150.204 38.7121 150.181 38.9207C150.181 42.4623 148.114 44.6046 144.481 44.7424Z" fill="white"/>
<path d="M332.384 30.4382C331.832 25.4584 329.024 22.1565 324.128 21.0839C318.899 19.9393 313.802 20.6554 308.875 22.6809C308.428 22.8636 308.368 23.1633 308.515 23.5977C309.028 25.1198 309.517 26.6509 310.015 28.179C310.333 29.1528 310.414 29.2067 311.377 28.8681C313.819 28.0027 316.399 27.5963 318.989 27.6696C322.331 27.7685 324.317 29.4045 324.569 32.3288C324.638 33.1258 324.41 33.3176 323.63 33.0839C320.524 32.1572 317.246 31.9643 314.053 32.5206C311.785 32.9011 309.7 33.7191 308.053 35.391C306.187 37.3086 305.674 39.6906 305.824 42.2823C305.87 43.5673 306.219 44.8232 306.845 45.9467C307.471 47.0703 308.355 48.0294 309.424 48.7453C312.646 51.0314 319.691 51.5198 323.75 47.6606C323.843 47.5541 323.943 47.454 324.05 47.361C324.158 47.2801 324.257 47.1393 324.419 47.2082C324.581 47.2771 324.545 47.4479 324.548 47.5797C324.548 48.0771 324.572 48.5775 324.548 49.0778C324.509 49.716 324.767 49.9767 325.418 49.9767C327.485 49.9527 329.552 49.9767 331.619 49.9767C332.459 49.9767 332.537 49.8868 332.54 49.0269V39.7385C332.432 37.0239 332.747 33.7251 332.384 30.4382ZM319.13 44.7363C318.086 44.7932 317.03 44.7902 316.052 44.3827C314.822 43.8823 313.978 43.0674 313.84 41.6861C313.69 40.173 314.14 38.9236 315.488 38.0906C316.745 37.3206 318.149 37.1618 319.586 37.1677C321.123 37.1698 322.648 37.4511 324.086 37.9977C324.275 38.0483 324.44 38.1655 324.551 38.3278C324.661 38.4902 324.709 38.6868 324.686 38.8816C324.746 42.4262 322.742 44.5415 319.13 44.7363Z" fill="white"/>
</svg>
