<svg xmlns="http://www.w3.org/2000/svg" viewBox="0 0 68.3 15"><defs><style>.cls-1{fill:#fff;}</style></defs><g id="圖層_1" data-name="圖層 1"><path class="cls-1" d="M.05,11.91V1.59H2.74L6.09,7.12h.08V1.59h2.5V11.91H6.23l-3.6-6H2.55v6Z"/><path class="cls-1" d="M10.64,2.7V.77h2.47V2.7Zm0,9.21V4.26H13.1v7.65Z"/><path class="cls-1" d="M17.93,12l-1,0c-.38,0-.74,0-1.1-.08s-.67-.06-.95-.1v-1.7l.55.05a6.28,6.28,0,0,0,.64,0l.63,0h.56a7.75,7.75,0,0,0,1-.05.52.52,0,0,0,.39-.19.8.8,0,0,0,.08-.38.9.9,0,0,0-.05-.34.35.35,0,0,0-.21-.16L17.91,9l-1.78-.22a1.88,1.88,0,0,1-1-.38,1.49,1.49,0,0,1-.44-.8,5.71,5.71,0,0,1-.11-1.18,2.75,2.75,0,0,1,.24-1.25,1.65,1.65,0,0,1,.67-.69,3.14,3.14,0,0,1,1-.31,12.3,12.3,0,0,1,1.27-.07l1,0,1,.08.77.12V6l-.79,0c-.28,0-.54,0-.79,0l-.63,0c-.4,0-.71,0-.92,0a.7.7,0,0,0-.44.15.59.59,0,0,0-.11.39.92.92,0,0,0,0,.32.25.25,0,0,0,.18.16c.1,0,.26.06.47.09l1.8.22a2.63,2.63,0,0,1,.87.24,1.22,1.22,0,0,1,.55.64A4.12,4.12,0,0,1,21,9.57a3.44,3.44,0,0,1-.22,1.33,1.6,1.6,0,0,1-.62.73,2.38,2.38,0,0,1-1,.33A11,11,0,0,1,17.93,12Z"/><path class="cls-1" d="M25.43,12l-1,0c-.38,0-.74,0-1.1-.08s-.67-.06-.95-.1v-1.7l.55.05a6.28,6.28,0,0,0,.64,0l.63,0h.56a7.75,7.75,0,0,0,1-.05.52.52,0,0,0,.39-.19.8.8,0,0,0,.08-.38.9.9,0,0,0-.05-.34A.35.35,0,0,0,26,9.13L25.41,9l-1.78-.22a1.88,1.88,0,0,1-1-.38,1.49,1.49,0,0,1-.44-.8,5.71,5.71,0,0,1-.11-1.18,2.75,2.75,0,0,1,.24-1.25A1.65,1.65,0,0,1,23,4.52a3.14,3.14,0,0,1,1-.31,12.3,12.3,0,0,1,1.27-.07l1,0,1,.08.77.12V6l-.79,0c-.28,0-.54,0-.79,0l-.63,0c-.4,0-.71,0-.92,0a.7.7,0,0,0-.44.15.59.59,0,0,0-.11.39.92.92,0,0,0,0,.32.25.25,0,0,0,.18.16c.1,0,.26.06.47.09l1.8.22a2.63,2.63,0,0,1,.87.24,1.22,1.22,0,0,1,.55.64,4.12,4.12,0,0,1,.19,1.4,3.44,3.44,0,0,1-.22,1.33,1.6,1.6,0,0,1-.62.73,2.38,2.38,0,0,1-1,.33A11,11,0,0,1,25.43,12Z"/><path class="cls-1" d="M29.93,2.7V.77H32.4V2.7Zm0,9.21V4.26h2.43v7.65Z"/><path class="cls-1" d="M34.25,11.91V4.26h2.28l.06.93h.13a2,2,0,0,1,.56-.62A2,2,0,0,1,38,4.24a3.76,3.76,0,0,1,.92-.1,3.43,3.43,0,0,1,1.22.19,1.52,1.52,0,0,1,.69.58,2.23,2.23,0,0,1,.33.92,9.91,9.91,0,0,1,.08,1.29v4.79H38.86v-4c0-.41,0-.73,0-1a1.17,1.17,0,0,0-.13-.51.48.48,0,0,0-.32-.21,4.26,4.26,0,0,0-.58,0,1.75,1.75,0,0,0-.61.09.6.6,0,0,0-.34.28,1.2,1.2,0,0,0-.15.54,7.34,7.34,0,0,0,0,.88v4Z"/><path class="cls-1" d="M43.25,11.91V1.59h5a4.78,4.78,0,0,1,1.61.23,2,2,0,0,1,.94.68,2.58,2.58,0,0,1,.45,1.08,8.32,8.32,0,0,1,.12,1.49,7.57,7.57,0,0,1-.11,1.4,2.74,2.74,0,0,1-.43,1.11,2.16,2.16,0,0,1-1,.71,4.48,4.48,0,0,1-1.66.26H45.86v3.36Zm2.61-5.34h1.3A4.65,4.65,0,0,0,48,6.51a.8.8,0,0,0,.46-.22.78.78,0,0,0,.19-.45,5.1,5.1,0,0,0,.05-.77,5.57,5.57,0,0,0,0-.78.78.78,0,0,0-.19-.46A.86.86,0,0,0,48,3.62a5.66,5.66,0,0,0-.82-.05H45.86Z"/><path class="cls-1" d="M54.62,12a2.8,2.8,0,0,1-1.22-.23,1.46,1.46,0,0,1-.74-.73,3.12,3.12,0,0,1-.25-1.33,3.76,3.76,0,0,1,.21-1.39,1.23,1.23,0,0,1,.72-.74,3.91,3.91,0,0,1,1.49-.23h.94l.63,0,.57,0V7.16a3,3,0,0,0-.06-.68.56.56,0,0,0-.26-.35A1.23,1.23,0,0,0,56.09,6l-1,0-.76,0-.81,0-.67.06V4.38c.41-.07.88-.13,1.39-.17s1.06-.07,1.63-.07a8.92,8.92,0,0,1,1.6.12,2.83,2.83,0,0,1,1,.37,1.5,1.5,0,0,1,.58.62,2.52,2.52,0,0,1,.25.88,10.19,10.19,0,0,1,.06,1.16v4.62H57.08L57,11H56.9a2.05,2.05,0,0,1-.66.68,2.32,2.32,0,0,1-.8.28A5.76,5.76,0,0,1,54.62,12Zm1.14-1.71a2.17,2.17,0,0,0,.47,0,.76.76,0,0,0,.58-.38,1.73,1.73,0,0,0,.12-.4,3.3,3.3,0,0,0,0-.58V8.64H55.58a2.65,2.65,0,0,0-.57,0,.37.37,0,0,0-.26.24,1.71,1.71,0,0,0-.07.58,1.39,1.39,0,0,0,.07.51.43.43,0,0,0,.31.24A3.06,3.06,0,0,0,55.76,10.32Z"/><path class="cls-1" d="M64.47,15l-1,0-.93-.07-.78-.09V13.16h2.09A8,8,0,0,0,65,13.11a1,1,0,0,0,.58-.23.76.76,0,0,0,.23-.5,6.93,6.93,0,0,0,0-.88v-.61h-.12a1.82,1.82,0,0,1-.52.58,2.09,2.09,0,0,1-.73.31,3.68,3.68,0,0,1-.91.1,3.24,3.24,0,0,1-1.23-.19,1.37,1.37,0,0,1-.7-.57,2.27,2.27,0,0,1-.32-.93,9.56,9.56,0,0,1-.07-1.28V4.26h2.4V8.17a8.25,8.25,0,0,0,0,1,1.16,1.16,0,0,0,.14.52.46.46,0,0,0,.31.21,2.79,2.79,0,0,0,.57.05,1.83,1.83,0,0,0,.63-.09.57.57,0,0,0,.33-.28A1.73,1.73,0,0,0,65.82,9c0-.23,0-.53,0-.87V4.26h2.42v6.79a12.47,12.47,0,0,1-.11,1.75A2.62,2.62,0,0,1,67.7,14a2.13,2.13,0,0,1-1.13.73A7.38,7.38,0,0,1,64.47,15Z"/></g></svg>