<svg xmlns="http://www.w3.org/2000/svg" viewBox="0 0 58.83 14.01"><defs><style>.cls-1{fill:#fff;}</style></defs><g id="圖層_1" data-name="圖層 1"><path class="cls-1" d="M13.74,13,11.85,9v2.71h1.07L12.41,13H9.52v-8H9.06v.75H8v1H9.26V7.89H8v3.46l1.19-.15v1.28l-4.93.46V11.69l1.58-.15V7.89H4.36V6.68H5.81v-1H4.61V4.92H4.05L5,1.61H8.67l.85,3.07V1.59h6v6H11.85V8h1.77l.49,1,.35-1h1.37l-1,2.56L16,13ZM4.66,11.07,4.34,8.34h1l.31,2.73ZM7,2.89H6.68L6.24,4.48h1.2Zm2,8H8.18l.26-2.51h.82Zm4.37-8H11.85V4h1.51Zm0,2.37H11.85V6.38h1.51Z"/><path class="cls-1" d="M19.77,7.14h.59V13H17.9V7.7h-1l1.74-3.09H17l1.77-3.08h2.49L19.73,4.19h1.69Zm7.28-.41V13H22.33l-.77-1.29h3V6.73H20.94V5.42h7.7V6.73ZM21.54,3V1.72h6.8V3Z"/><path class="cls-1" d="M33.23,4.44v1.9L33.84,6V7.34l-.61.4v5.2h-2.6l-.57-1.23h1V9.11l-.92.57V8.29l.92-.58V4.44h-.92V3.24h.92V1.55h2.17V3.24h.62v1.2Zm6.61,8.5L38.57,9.26v2.47h.7l-.47,1.21H36.66V7.47H36.3V11l-.52,1.93H33.51l.59-2.16V1.67h7.5V2.89H36.3V6.26h5.35V7.47H38.57v.42H40l.33,1,.24-1h1.15l-.57,1.84h-.51l1.13,3.21ZM36.57,5.09V3.91h4.67V5.09Z"/><path class="cls-1" d="M54.16,13h-6.7l-1.41-.75L45.5,13H42.81l1.63-2.34V9H43.12V7.88l1.32-2.21H43V4.43h3.61v1.5L45.54,7.78h1.12v3.05L48.75,4.3H50L49.57,3h-2V1.68h3.94l3.27,9.51H52.33L50.57,5.93l-1.63,5.26H46.78l1,.54h7ZM44.08,4l-1-2.46h2.51L46.6,4Z"/></g></svg>