<svg width="262" height="70" viewBox="0 0 262 70" fill="none" xmlns="http://www.w3.org/2000/svg">
<path d="M141.747 21.3362C140.101 19.6561 138.136 18.321 135.968 17.4088C133.8 16.4967 131.472 16.0259 129.12 16.0239C126.01 16.0713 122.97 16.959 120.324 18.5929C116.405 21.2055 113.139 24.0794 107.304 31.6994V37.1423C112.312 30.6544 116.927 25.5598 120.454 22.7295C122.911 20.7813 125.941 19.695 129.076 19.638C136.827 19.638 143.315 26.213 143.315 33.9637V37.273C143.315 39.1656 142.942 41.0396 142.217 42.7879C141.492 44.5363 140.43 46.1246 139.091 47.4621C137.782 48.7914 136.224 49.8489 134.505 50.5737C132.786 51.2986 130.941 51.6765 129.076 51.6857C126.002 51.6817 123.016 50.6615 120.583 48.784C118.149 46.9065 116.405 44.277 115.621 41.3051L113.096 44.4402C114.924 50.7104 121.674 55.3695 129.076 55.3695C133.824 55.3249 138.363 53.4132 141.712 50.0478C145.061 46.6824 146.951 42.134 146.972 37.3862V34.0769C147.003 31.7083 146.557 29.3577 145.659 27.1656C144.761 24.9735 143.431 22.9849 141.747 21.3187M63.4564 19.6206C65.7067 19.6003 67.9248 20.1549 69.9008 21.2317C70.6674 20.264 71.4964 19.3477 72.3828 18.4884C70.3798 16.9209 66.9399 15.9629 63.4564 15.9629C58.449 15.9629 53.964 17.7917 50.7418 21.101C47.4583 24.5895 45.6582 29.2169 45.7213 34.0072V55.3434H49.2918V34.0072C49.2918 25.6034 55.0831 19.638 63.4434 19.638M98.0602 55.3869V34.1378C98.0602 31.0718 96.8422 28.1312 94.6741 25.9632C92.5061 23.7951 89.5656 22.5771 86.4995 22.5771C83.4334 22.5771 80.4929 23.7951 78.3248 25.9632C76.1568 28.1312 74.9388 31.0718 74.9388 34.1378V37.4471C74.9388 43.7609 80.2075 49.1167 86.4777 49.1167C88.2194 49.1167 90.5272 48.6813 91.9641 47.5056V43.6303C90.384 44.8175 88.4539 45.4455 86.4777 45.4155C85.4256 45.4197 84.3832 45.2143 83.4113 44.8113C82.4394 44.4083 81.5574 43.8158 80.8169 43.0684C80.0764 42.321 79.4921 41.4337 79.0982 40.4581C78.7042 39.4825 78.5085 38.4382 78.5224 37.3862V34.0769C78.5224 33.0305 78.7285 31.9943 79.1289 31.0275C79.5294 30.0607 80.1163 29.1823 80.8563 28.4424C81.5962 27.7024 82.4746 27.1155 83.4414 26.715C84.4082 26.3146 85.4443 26.1085 86.4908 26.1085C87.5372 26.1085 88.5734 26.3146 89.5401 26.715C90.5069 27.1155 91.3853 27.7024 92.1253 28.4424C92.8652 29.1823 93.4522 30.0607 93.8526 31.0275C94.2531 31.9943 94.4592 33.0305 94.4592 34.0769V55.326H98.0297V55.3695L98.0602 55.3869ZM0.000974963 32.0478V33.267C-0.0555711 39.5839 2.34951 45.6747 6.70662 50.2488C8.82878 52.4608 11.378 54.2189 14.1997 55.4164C17.0215 56.614 20.057 57.2261 23.1224 57.2157C28.1299 57.2157 32.5277 56.0401 36.2724 53.7758C38.0156 52.7139 39.5744 51.3757 40.888 49.8134V29.6964H22.2646V33.4412H37.287V48.6377C35.5453 50.423 31.3651 53.471 23.179 53.471C20.5855 53.4883 18.0158 52.9759 15.6273 51.9651C13.2389 50.9543 11.0819 49.4664 9.28873 47.5927C5.5836 43.735 3.54954 38.5717 3.62812 33.2234V32.0042C3.62812 26.8661 5.93591 21.641 9.89834 17.8092C13.8834 13.9274 19.2269 11.7556 24.7901 11.7567C29.9282 11.7567 33.5858 12.5404 36.4597 14.3257V10.102C33.4116 8.79572 29.8411 8.18612 24.7901 8.18612C11.3788 8.31675 0.000974963 19.2025 0.000974963 32.0478ZM63.4434 26.0388C64.624 26.0025 65.7982 26.2255 66.8833 26.692C67.3085 25.5871 67.8332 24.5232 68.4508 23.5133C67.4929 22.7731 65.1416 22.3812 63.4434 22.3812C56.8684 22.3376 51.948 27.3887 51.948 34.0508V55.3869H55.5185V34.0508C55.5185 29.3481 58.7843 26.0388 63.4434 26.0388M36.4902 21.5974V17.156C33.1809 15.3707 29.6103 14.5434 24.8206 14.5434C19.9839 14.531 15.3258 16.3694 11.8012 19.6815C10.0892 21.2552 8.72176 23.1664 7.78499 25.2948C6.84822 27.4231 6.36245 29.7224 6.35828 32.0478V33.267C6.35828 42.89 13.9348 50.7713 23.1659 50.7713C30.7425 50.7713 33.834 48.2458 34.6178 47.4621V36.2279H22.3081V39.9726H31.2345V45.5897H31.1909C30.0588 46.0251 27.664 47.0266 23.179 47.0266C21.4371 47.0297 19.7128 46.6785 18.1109 45.9943C16.509 45.3101 15.063 44.3073 13.8608 43.0468C11.3518 40.4219 9.96209 36.9241 9.98542 33.2931V32.0739C9.98542 24.628 16.7782 18.3578 24.7901 18.3578C30.3636 18.2707 33.6294 19.1851 36.5032 21.58M123.285 28.5469C124.819 26.9602 126.913 26.0378 129.12 25.9779C130.172 25.9685 131.216 26.1696 132.19 26.5695C133.164 26.9693 134.048 27.5598 134.79 28.3063C135.533 29.0527 136.119 29.94 136.513 30.9161C136.908 31.8921 137.103 32.9371 137.088 33.9898V37.2991C137.103 38.3517 136.908 39.3968 136.513 40.3728C136.119 41.3489 135.533 42.2362 134.79 42.9826C134.048 43.7291 133.164 44.3196 132.19 44.7194C131.216 45.1193 130.172 45.3204 129.12 45.311C126.942 45.311 124.852 44.1354 123.241 41.9582C121.771 39.9636 120.895 37.5934 120.716 35.1219L117.798 38.6925C118.366 41.4761 119.78 44.0161 121.848 45.9642C123.843 47.839 126.469 48.8958 129.207 48.9251C130.733 48.9194 132.244 48.613 133.652 48.0235C135.061 47.4339 136.339 46.5728 137.415 45.4892C138.49 44.4055 139.342 43.1207 139.921 41.708C140.5 40.2952 140.795 38.7823 140.789 37.2555V33.9463C140.772 30.8697 139.535 27.9257 137.349 25.7601C136.29 24.6696 135.025 23.8001 133.627 23.2021C132.229 22.6041 130.727 22.2896 129.207 22.2767C127.291 22.2767 124.286 22.9298 120.629 26.2391C119.671 27.1971 117.363 29.5049 115.969 31.1595C113.618 33.7285 110.265 37.6039 107.391 41.4792V47.1834C110.57 43.0468 112.442 40.739 115.447 37.212C118.06 34.0333 121.369 30.2015 123.285 28.5469M68.7252 37.4297C68.7189 39.7857 69.1815 42.1194 70.086 44.2948C70.9906 46.4702 72.319 48.4439 73.9939 50.1008C75.6257 51.7759 77.5754 53.1086 79.7287 54.0207C81.8821 54.9329 84.1958 55.4063 86.5343 55.413C88.4229 55.4313 90.2936 55.0453 92.0208 54.2809V50.6233C90.2838 51.3564 88.4196 51.7411 86.5343 51.7554C78.8707 51.7554 72.2957 45.1804 72.2957 37.4297V34.1204C72.2957 26.3262 78.7836 19.7947 86.5343 19.7947C88.4121 19.7796 90.274 20.1389 92.0112 20.8519C93.7484 21.5648 95.326 22.6169 96.6518 23.9468C97.9776 25.2766 99.0249 26.8574 99.7325 28.5968C100.44 30.3362 100.794 32.1992 100.773 34.0769V55.326H104.343V33.3541C104.131 28.7189 102.152 24.3408 98.8135 21.1184C96.2865 18.7157 93.11 17.1074 89.6776 16.4929C86.2452 15.8785 82.708 16.285 79.5044 17.6619C76.3009 19.0388 73.5719 21.3257 71.6557 24.239C69.7396 27.1522 68.7207 30.5638 68.7252 34.0508V37.4471V37.4297ZM111.093 23.1476C112.179 21.7636 113.373 20.4677 114.663 19.2722V0H111.093V23.1476ZM117.363 17.7917V0.0435432H121.02V15.2837C119.72 16.0013 118.495 16.8474 117.363 17.8092" fill="white"/>
<path d="M158.498 8.77819C160.414 8.77819 163.114 8.77819 166.292 8.60402C173.608 8.42985 174.087 8.42985 174.87 8.60402C179.181 9.08299 183.623 9.3878 186.932 12.7406C190.415 16.2241 190.764 20.8396 190.764 22.1024C190.764 23.2345 190.938 28.6339 186.932 32.9011C185.197 34.7285 183 36.0526 180.575 36.7329C178.354 37.5167 176.438 37.5167 172.475 37.6909H166.771V55.3258H158.498C158.629 39.7809 158.629 24.3666 158.498 8.77819ZM167.076 31.3336C168.034 31.3336 169.602 31.5077 171.387 31.5077C175.219 31.3336 177.265 31.3336 179.007 30.0708C180.749 28.9387 181.532 27.3711 181.881 26.8922C182.186 26.1084 182.839 24.8456 182.839 23.2345C182.839 22.9297 182.839 19.2721 180.139 17.0514C178.223 15.4838 176.177 15.3097 172.693 15.1355C170.888 14.9664 169.068 15.0692 167.294 15.4403C167.076 20.5348 167.076 25.9342 167.076 31.3336Z" fill="white"/>
<path d="M215.975 55.3259C215.801 54.0631 215.67 52.8004 215.496 51.4941C213.539 53.624 210.992 55.1244 208.181 55.8049C207.223 55.979 200.866 57.5466 196.598 53.2794C193.594 50.2749 193.594 46.2689 193.594 45.8335C193.548 43.9883 194.048 42.1706 195.031 40.6083C196.468 38.5618 198.384 37.6038 199.951 36.7765C202.477 35.6444 203.783 35.6444 211.403 34.3816C212.84 34.0768 213.929 33.9027 214.582 33.7285V31.8126C214.408 31.0288 214.103 29.2871 212.84 27.9808C211.272 26.2391 209.008 26.0649 207.136 25.9343C202.39 25.6295 198.384 27.3712 196.032 28.6339V22.2766C199.909 20.3089 204.23 19.3788 208.573 19.5769C211.577 19.7511 215.714 20.0559 218.892 23.0604C223.203 27.197 222.855 33.0753 222.724 34.1639V55.1517C220.765 55.3259 218.37 55.3259 215.975 55.3259ZM214.887 39.302C212.912 39.4343 210.948 39.6961 209.008 40.0858C205.046 40.7389 203.914 41.3485 202.956 42.1323C202.189 42.8468 201.683 43.797 201.519 44.832C201.39 45.6132 201.453 46.4141 201.703 47.1653C201.954 47.9165 202.384 48.5953 202.956 49.1428C204.088 50.1007 205.481 50.2749 206.787 50.2749C207.966 50.2879 209.14 50.1265 210.271 49.7959C211.418 49.4209 212.452 48.7618 213.275 47.88C213.929 47.401 214.408 46.7479 214.843 46.4431C214.887 44.0482 214.887 41.6969 214.887 39.302Z" fill="white"/>
<path d="M235.526 20.5349C237.747 26.1084 239.967 32.1174 242.057 38.6489C242.841 41.3485 243.625 43.8741 244.278 46.4431C245.715 41.8275 247.283 37.2119 248.894 32.6399C250.331 28.5033 251.768 24.5409 253.205 20.7091H261.304C258.43 28.155 255.425 35.6444 252.551 43.2644C250.635 47.5752 249.373 51.0587 248.415 53.5842C247.457 56.458 246.847 58.5046 245.236 61.3784C243.19 65.036 241.274 66.473 240.49 66.9519C239.191 67.8651 237.727 68.5159 236.179 68.8678C234.327 69.4614 232.413 69.8412 230.475 70V63.3379C232.254 63.1379 233.95 62.4775 235.395 61.4219C236.25 60.8056 237 60.0558 237.616 59.2013C237.921 58.8964 238.269 58.0691 239.053 56.3274C239.706 55.0646 239.837 54.7598 239.837 54.1067C239.801 53.499 239.637 52.9057 239.358 52.365L226.817 20.7526C229.648 20.5349 232.522 20.5349 235.526 20.5349Z" fill="white"/>
</svg>
