<svg width="274" height="70" viewBox="0 0 274 70" fill="none" xmlns="http://www.w3.org/2000/svg">
<path d="M121.389 33.1266H133.222C133.814 33.1261 134.4 33.2427 134.947 33.4697C135.493 33.6968 135.99 34.0298 136.408 34.4496C136.827 34.8695 137.158 35.368 137.384 35.9164C137.609 36.4649 137.725 37.0527 137.723 37.646C137.751 41.7212 136.585 45.7151 134.371 49.133C132.157 52.5508 128.991 55.2425 125.265 56.8746C121.54 58.5067 117.418 59.0075 113.412 58.315C109.405 57.6226 105.689 55.7672 102.724 52.9787C102.577 52.8385 102.437 52.6947 102.294 52.5471C98.3761 48.5758 96.1788 43.2162 96.1788 37.6312C96.1788 32.0462 98.3761 26.6866 102.294 22.7153C104.172 20.7188 106.445 19.1357 108.967 18.0668C111.489 16.9978 114.205 16.4664 116.942 16.5062C122.184 16.5062 126.641 18.1357 130.314 21.3946C130.679 21.7175 130.976 22.1094 131.19 22.5478C131.403 22.9861 131.529 23.4624 131.558 23.9493C131.588 24.4362 131.522 24.9242 131.363 25.3854C131.205 25.8466 130.957 26.2719 130.634 26.6371C130.479 26.8149 130.306 26.9768 130.119 27.1204L128.805 28.1239C128.152 28.6342 127.347 28.9077 126.519 28.8996C125.691 28.8916 124.891 28.6025 124.248 28.0796C122.204 26.3655 119.607 25.4554 116.942 25.5192C115.388 25.4993 113.847 25.8043 112.416 26.4147C110.986 27.0252 109.698 27.9277 108.635 29.0646C106.423 31.3681 105.187 34.4412 105.187 37.6386C105.187 40.836 106.423 43.909 108.635 46.2125C109.699 47.349 110.986 48.2509 112.417 48.8607C113.847 49.4705 115.388 49.7749 116.942 49.7543C119.348 49.7713 121.695 49.0191 123.645 47.6071C125.582 46.2498 127.067 44.3395 127.907 42.1248H121.411C120.242 42.0937 119.132 41.6073 118.316 40.7689C117.5 39.9305 117.042 38.8061 117.039 37.6346C117.037 36.4632 117.49 35.3369 118.303 34.4951C119.116 33.6534 120.224 33.1624 121.392 33.1266" fill="white"/>
<path d="M175.058 47.2859C175.521 47.6447 175.908 48.091 176.198 48.5993C176.488 49.1076 176.675 49.668 176.748 50.2483C176.821 50.8287 176.778 51.4177 176.623 51.9817C176.467 52.5457 176.202 53.0736 175.842 53.5352C175.605 53.8397 175.329 54.1117 175.021 54.344C174.146 55.0201 173.219 55.6249 172.247 56.1526C169.252 57.7855 165.891 58.633 162.478 58.6156C159.735 58.6584 157.012 58.1297 154.484 57.0632C151.957 55.9966 149.68 54.4157 147.799 52.4214C143.895 48.455 141.707 43.1173 141.707 37.5572C141.707 31.9972 143.895 26.6595 147.799 22.6931C149.679 20.7034 151.952 19.1258 154.476 18.0607C156.999 16.9956 159.717 16.4662 162.456 16.5063C165.873 16.4925 169.236 17.3518 172.225 19.0023C173.379 19.6278 174.474 20.3562 175.496 21.1785C175.972 21.5693 176.353 22.0619 176.612 22.6199C176.871 23.1778 177.001 23.7868 176.991 24.4016C176.982 25.0163 176.834 25.6212 176.559 26.1712C176.284 26.7211 175.888 27.2022 175.4 27.5786L174.829 28.0381C174.113 28.6068 173.224 28.9164 172.308 28.9164C171.392 28.9164 170.503 28.6068 169.787 28.0381C167.728 26.3533 165.129 25.467 162.467 25.542C160.912 25.5222 159.369 25.8261 157.937 26.4344C156.506 27.0426 155.217 27.9418 154.153 29.0747C151.939 31.3706 150.702 34.4332 150.702 37.6197C150.702 40.8063 151.939 43.8689 154.153 46.1647C155.218 47.2959 156.507 48.1936 157.939 48.8005C159.37 49.4074 160.912 49.7104 162.467 49.6901C165.035 49.7569 167.547 48.9319 169.573 47.3558C170.352 46.733 171.319 46.3916 172.316 46.3869C173.314 46.3822 174.284 46.7146 175.069 47.3301L175.058 47.2859Z" fill="white"/>
<path d="M210.16 58.3066H203.855C203.789 58.3066 203.725 58.2937 203.665 58.2685C203.604 58.2433 203.55 58.2063 203.504 58.1598C203.458 58.1133 203.421 58.0581 203.397 57.9974C203.372 57.9367 203.36 57.8717 203.36 57.8062C203.359 57.7404 203.345 57.6755 203.32 57.6152C203.294 57.5548 203.256 57.5002 203.209 57.4544C203.162 57.4086 203.107 57.3726 203.046 57.3483C202.985 57.3241 202.92 57.3121 202.855 57.313C202.776 57.3155 202.698 57.3357 202.628 57.3719C201.048 58.2036 198.958 58.6182 196.355 58.6157C194.252 58.652 192.164 58.2509 190.222 57.4379C188.28 56.6248 186.526 55.4172 185.07 53.8907C182.081 50.8221 180.406 46.6985 180.406 42.404C180.406 38.1095 182.081 33.9859 185.07 30.9172C186.525 29.3878 188.279 28.1775 190.222 27.3624C192.164 26.5474 194.254 26.1452 196.359 26.1812C198.908 26.1812 200.964 26.6436 202.529 27.5685C202.592 27.6054 202.662 27.6295 202.734 27.6393C202.806 27.6491 202.879 27.6445 202.95 27.6257C203.02 27.6069 203.086 27.5743 203.144 27.5297C203.202 27.4852 203.251 27.4296 203.287 27.3661C203.338 27.2765 203.365 27.1749 203.364 27.0717C203.365 26.9223 203.424 26.7793 203.529 26.6733C203.634 26.5674 203.776 26.5069 203.924 26.505H209.918C210.228 26.504 210.534 26.5644 210.82 26.6827C211.106 26.801 211.366 26.9749 211.585 27.1943C211.804 27.4138 211.978 27.6746 212.097 27.9617C212.215 28.2488 212.276 28.5566 212.276 28.8675V56.2385C212.275 56.7952 212.055 57.3287 211.663 57.7219C211.271 58.1152 210.739 58.3361 210.186 58.3361L210.16 58.3066ZM196.359 49.6699C197.281 49.6849 198.196 49.5064 199.045 49.1458C199.894 48.7853 200.659 48.2506 201.291 47.5761C201.959 46.8982 202.485 46.0935 202.84 45.209C203.194 44.3244 203.37 43.3777 203.357 42.4242V42.3984C203.369 41.445 203.193 40.4986 202.839 39.6142C202.484 38.7297 201.958 37.9249 201.291 37.2466C200.661 36.5681 199.897 36.029 199.048 35.6634C198.198 35.2979 197.283 35.1139 196.359 35.1233C195.434 35.1127 194.517 35.2938 193.664 35.6554C192.812 36.0169 192.043 36.551 191.405 37.2245C190.081 38.6194 189.343 40.4728 189.343 42.4003C189.343 44.3277 190.081 46.1812 191.405 47.5761C192.044 48.2519 192.816 48.7877 193.671 49.1499C194.526 49.5121 195.446 49.6929 196.374 49.681" fill="white"/>
<path d="M234.801 40.6554C233.477 39.6525 231.484 38.7746 228.822 38.0218C227.074 37.5362 226.126 37.2199 225.976 37.0654C225.904 36.992 225.847 36.9047 225.808 36.8087C225.77 36.7126 225.751 36.6098 225.753 36.5063C225.737 36.4226 225.729 36.3377 225.728 36.2525C225.723 35.8701 225.831 35.4949 226.039 35.1743C226.246 34.8538 226.544 34.6022 226.893 34.4515C227.242 34.3007 227.629 34.2575 228.002 34.3274C228.376 34.3972 228.721 34.5769 228.994 34.8437L229.015 34.8658C229.196 35.0476 229.339 35.264 229.435 35.5022C229.531 35.7404 229.579 35.9955 229.575 36.2525V36.293C229.641 36.354 229.695 36.4262 229.736 36.5063H236.238C236.499 36.5087 236.758 36.4595 236.999 36.3613C237.241 36.2631 237.461 36.1179 237.647 35.9341C237.832 35.7503 237.98 35.5315 238.082 35.2901C238.184 35.0487 238.237 34.7895 238.239 34.5274C238.24 34.3449 238.216 34.163 238.169 33.9867C237.681 32.144 236.673 30.4831 235.266 29.2049C233.199 27.2606 230.474 26.179 227.644 26.179C224.814 26.179 222.09 27.2606 220.023 29.2049C219.005 30.1268 218.194 31.256 217.643 32.5174C217.093 33.7788 216.816 35.1436 216.83 36.521C216.83 39.7579 218.011 42.2629 220.374 44.0358C221.697 45.0314 223.713 45.9105 226.419 46.6731C228.223 47.1636 229.198 47.5081 229.345 47.7067C229.414 47.7818 229.467 47.8706 229.501 47.9675C229.534 48.0644 229.547 48.1673 229.538 48.2695C229.557 48.3515 229.567 48.4354 229.568 48.5196C229.571 48.902 229.462 49.2769 229.254 49.5972C229.046 49.9174 228.749 50.1686 228.399 50.3192C228.05 50.4698 227.664 50.513 227.29 50.4435C226.916 50.374 226.571 50.1948 226.298 49.9284L226.276 49.9063C226.095 49.7248 225.953 49.5084 225.857 49.2701C225.762 49.0318 225.715 48.7765 225.72 48.5196C225.663 48.4452 225.617 48.362 225.585 48.2732H219.126C218.584 48.2722 218.063 48.4878 217.679 48.8726C217.294 49.2574 217.077 49.78 217.075 50.3257C217.075 50.5031 217.097 50.6798 217.141 50.8517C217.625 52.6739 218.619 54.3182 220.004 55.5893C222.07 57.5352 224.795 58.618 227.626 58.618C230.456 58.618 233.181 57.5352 235.247 55.5893C236.27 54.671 237.086 53.5428 237.639 52.2809C238.193 51.0189 238.471 49.6523 238.455 48.2732C238.455 45.0191 237.236 42.4848 234.797 40.6702" fill="white"/>
<path d="M258.345 26.4004C260.323 26.3794 262.282 26.7864 264.089 27.5939C265.897 28.4014 267.511 29.5905 268.822 31.0806C271.69 34.1408 273.25 38.2111 273.168 42.4167V54.2152C273.166 55.3829 272.704 56.5022 271.883 57.3276C271.062 58.1529 269.95 58.617 268.789 58.6179V58.6179C267.627 58.6179 266.512 58.1533 265.691 57.3263C264.869 56.4992 264.407 55.3775 264.407 54.2078V54.2078V42.4167C264.455 40.5567 263.827 38.743 262.642 37.3147C262.137 36.6641 261.49 36.1379 260.752 35.776C260.014 35.4142 259.204 35.2261 258.383 35.2261C257.563 35.2261 256.753 35.4142 256.015 35.776C255.277 36.1379 254.63 36.6641 254.125 37.3147C252.944 38.7351 252.316 40.5393 252.36 42.3908V54.7961C252.356 55.813 251.951 56.7867 251.234 57.5034C250.517 58.22 249.547 58.6209 248.537 58.6179H247.386C246.376 58.6179 245.407 58.2141 244.693 57.4953C243.979 56.7765 243.577 55.8016 243.577 54.785V21.4871C243.576 20.3181 244.037 19.1965 244.857 18.3689C245.677 17.5412 246.79 17.0752 247.952 17.0732V17.0732C248.528 17.0728 249.097 17.1863 249.629 17.4075C250.161 17.6287 250.644 17.9532 251.052 18.3623C251.459 18.7715 251.782 19.2574 252.003 19.7923C252.224 20.3271 252.337 20.9005 252.338 21.4797V27.7693C254.208 26.8615 256.258 26.3899 258.334 26.3893" fill="white"/>
<path d="M69.2681 52.4292C72.7367 48.0537 74.606 42.5672 74.5517 36.922C74.4973 31.2769 72.5226 25.8295 68.9704 21.5255C68.6064 21.0754 68.1597 20.7034 67.6558 20.4309C67.1519 20.1584 66.6008 19.9906 66.0338 19.9373C65.4669 19.8839 64.8953 19.9459 64.3517 20.1198C63.808 20.2937 63.3031 20.576 62.8656 20.9507C62.6385 21.1431 62.4317 21.3596 62.2486 21.5964C61.3597 22.7173 60.8807 24.1229 60.8946 25.5692C60.9085 27.0155 61.4145 28.4111 62.3248 29.5137C65.8853 33.6197 65.9543 40.3648 62.47 44.5493C61.5813 45.6712 61.1028 47.0777 61.1174 48.5246C61.132 49.9716 61.6388 51.3675 62.5498 52.4702C63.2901 53.3747 64.348 53.9415 65.493 54.0471C66.6379 54.1527 67.777 53.7885 68.6619 53.0339C68.8836 52.8432 69.0866 52.6307 69.2681 52.3993V52.4292Z" fill="#74BDF4"/>
<path d="M81.013 62.0893C86.8501 55.3147 90.0127 46.3603 89.9166 36.8628C89.8204 27.3652 86.4802 18.4916 80.5025 11.8161C79.7491 10.9258 78.6715 10.3672 77.5046 10.262C76.3376 10.1568 75.1761 10.5136 74.2734 11.2546C74.047 11.4456 73.839 11.6569 73.6519 11.8859C72.7483 12.9897 72.2619 14.3722 72.2768 15.7941C72.2916 17.2161 72.8068 18.5882 73.7333 19.6733C82.267 29.1378 82.4001 44.7199 74.0847 54.3679C73.178 55.47 72.689 56.8524 72.7025 58.2749C72.716 59.6974 73.2312 61.0704 74.1587 62.1553C74.9102 63.05 75.9883 63.6129 77.1571 63.7208C78.3259 63.8288 79.4902 63.4731 80.3953 62.7315C80.6212 62.544 80.8281 62.3351 81.013 62.1076" fill="#74BDF4"/>
<path d="M38.9037 31.3987H51.0933C51.6327 31.3987 52.1668 31.5048 52.6652 31.711C53.1635 31.9172 53.6163 32.2195 53.9977 32.6005C54.3791 32.9815 54.6816 33.4338 54.8881 33.9316C55.0945 34.4295 55.2007 34.963 55.2007 35.5018V35.8695C55.2442 38.63 54.7243 41.3704 53.6726 43.9235C52.6209 46.4767 51.0596 48.789 49.0838 50.7194C47.2156 52.6419 44.9866 54.1779 42.5241 55.2398C40.0617 56.3017 37.4139 56.8686 34.7321 56.9082C32.0502 56.9478 29.3869 56.4593 26.894 55.4706C24.4012 54.4819 22.1277 53.0124 20.2035 51.1459C20.0562 51.0062 19.9127 50.8628 19.7729 50.7194C15.8556 46.7624 13.6585 41.4218 13.6585 35.8566C13.6585 30.2914 15.8556 24.9508 19.7729 20.9938C21.6496 19.0021 23.9209 17.4227 26.4422 16.3561C28.9635 15.2895 31.6795 14.7591 34.4173 14.7987C39.2534 14.7987 43.4172 16.1836 46.9087 18.9533C47.4371 19.3771 47.8618 19.9157 48.1504 20.5282C48.4389 21.1407 48.5837 21.8109 48.5738 22.4878C48.5639 23.1647 48.3994 23.8303 48.093 24.4341C47.7866 25.0379 47.3463 25.5639 46.8056 25.972L46.7467 26.0124C45.9516 26.6058 44.9837 26.9225 43.9912 26.9138C42.9988 26.9052 42.0365 26.5718 41.2519 25.9646C39.2783 24.5025 36.8738 23.7381 34.4173 23.7918C32.863 23.7724 31.3218 24.0765 29.8916 24.6848C28.4615 25.2931 27.1738 26.1923 26.1106 27.325C23.8999 29.6221 22.6651 32.6849 22.6651 35.8713C22.6651 39.0578 23.8999 42.1206 26.1106 44.4177C28.0307 46.4078 30.6018 47.6436 33.3566 47.9007C36.1115 48.1577 38.8672 47.4189 41.123 45.8185C43.0557 44.4684 44.5369 42.5685 45.3739 40.366H38.889C38.2888 40.3832 37.6912 40.2799 37.1317 40.0623C36.5721 39.8447 36.0619 39.5172 35.6313 39.0992C35.2006 38.6811 34.8583 38.181 34.6246 37.6285C34.3908 37.076 34.2704 36.4822 34.2704 35.8824C34.2704 35.2825 34.3908 34.6887 34.6246 34.1362C34.8583 33.5837 35.2006 33.0836 35.6313 32.6656C36.0619 32.2475 36.5721 31.92 37.1317 31.7024C37.6912 31.4848 38.2888 31.3815 38.889 31.3987" fill="white"/>
<path d="M34.1768 7.70247C26.874 7.70247 20.6171 10.3659 15.406 15.6927C10.1949 21.0195 7.59674 27.4553 7.61142 35C7.61142 42.5471 10.2096 48.9829 15.406 54.3073C20.6024 59.6316 26.8593 62.2901 34.1768 62.2827C37.9806 62.2911 41.7402 61.4633 45.1929 59.8574C48.6456 58.2515 51.708 55.9062 54.166 52.9854C54.795 52.2459 55.6803 51.7751 56.6419 51.6689C57.6035 51.5626 58.5692 51.8288 59.3427 52.4133C60.1163 52.9978 60.6395 53.8568 60.8061 54.8157C60.9726 55.7745 60.77 56.7611 60.2394 57.575C60.1665 57.6847 60.0881 57.7907 60.0046 57.8925C57.2698 61.1546 53.9528 63.8734 50.2247 65.9086C45.2996 68.6148 39.7737 70.0222 34.1621 69.9997C24.7309 69.9997 16.6696 66.5683 9.97842 59.7055C3.28722 52.8426 -0.0388026 44.6075 0.000341497 35C0.000341497 25.3556 3.33126 17.118 9.9931 10.2871C16.6549 3.45628 24.7162 0.0273102 34.1768 0.000233021C39.7885 -0.0208111 45.3146 1.38383 50.243 4.08397C53.9684 6.12486 57.2836 8.8457 60.0193 12.1074C60.3378 12.4932 60.5776 12.9384 60.7249 13.4175C60.8723 13.8966 60.9242 14.4003 60.8779 14.8996C60.8315 15.399 60.6877 15.8842 60.4548 16.3276C60.2218 16.771 59.9042 17.1638 59.5202 17.4835C59.4202 17.5675 59.3161 17.6464 59.2082 17.7198C58.4304 18.2449 57.4874 18.4629 56.5598 18.3321C55.6322 18.2013 54.7851 17.7309 54.1807 17.0109C51.7216 14.0876 48.6569 11.7407 45.2014 10.1347C41.7459 8.52864 37.9832 7.7023 34.1768 7.71355V7.70247Z" fill="#0A27B3"/>
</svg>
