<?xml version="1.0" encoding="utf-8"?>
<!-- Generator: Adobe Illustrator 26.0.3, SVG Export Plug-In . SVG Version: 6.00 Build 0)  -->
<svg version="1.1" id="圖層_1" xmlns="http://www.w3.org/2000/svg" xmlns:xlink="http://www.w3.org/1999/xlink" x="0px" y="0px"
	 viewBox="0 0 68.9 15" style="enable-background:new 0 0 68.9 15;" xml:space="preserve">
<style type="text/css">
	.st0{display:none;fill:#FC9A9A;}
	.st1{fill:#FFFFFF;}
</style>
<rect x="-5.8" y="-4.2" class="st0" width="86.5" height="22.1"/>
<g>
	<path class="st1" d="M10.5,1c-0.1,0.7-0.1,1.2-0.1,2.5V10c0,1.3-0.3,2.3-1.1,3c-0.8,0.8-2.1,1.3-3.6,1.3c-1.7,0-3-0.5-3.8-1.4
		c-0.5-0.5-0.7-0.9-1-1.8l3-1c0.3,1.2,0.8,1.7,1.8,1.7c1,0,1.5-0.5,1.5-1.6V3.5c0-1.3,0-1.8-0.1-2.5C7.1,1,10.5,1,10.5,1z"/>
	<path class="st1" d="M23.1,11.6c0.9,1.4,1.1,1.7,1.7,2.3h-4c-0.2-0.5-0.7-1.3-1.1-2l-2.4-3.9l-1.6,1.6v2c0,1,0,1.5,0.1,2.3h-3.3
		c0.1-0.8,0.1-1.4,0.1-2.3V3.3c0-0.9,0-1.6-0.1-2.3h3.3c-0.1,0.8-0.1,1.3-0.1,2.3V6l3.1-3.3c0.6-0.6,1-1.2,1.4-1.7h4.2
		c-0.3,0.3-0.4,0.4-0.6,0.6c-0.8,0.8-0.8,0.8-1.1,1.1l-3.3,3.4L23.1,11.6z"/>
	<path class="st1" d="M34.1,5.5c-0.3-1.4-1.1-2.1-2.5-2.1c-1.9,0-3,1.5-3,4.1c0,2.5,1.2,4.1,3.1,4.1c0.9,0,1.6-0.4,2-1
		c0.3-0.4,0.4-0.7,0.5-1.3l3.2,0.5c-0.3,1.3-0.6,2.1-1.3,2.9c-1,1.1-2.5,1.7-4.4,1.7c-1.9,0-3.5-0.6-4.6-1.7c-1.2-1.2-1.8-3-1.8-5.1
		c0-2.1,0.7-3.9,1.9-5.1c1.1-1,2.6-1.6,4.5-1.6c2,0,3.6,0.7,4.6,2c0.5,0.6,0.8,1.2,1,2.1L34.1,5.5z"/>
	<path class="st1" d="M40.4,3.1c-0.7,0-1.2,0-1.7,0.1V1.1c0.5,0.1,0.9,0.1,1.8,0.1h4c0-0.4,0-0.6-0.1-0.9h2.5
		c-0.1,0.3-0.1,0.5-0.1,0.9h4.2c0.9,0,1.3,0,1.8-0.1v2.1c-0.5-0.1-1-0.1-1.7-0.1h-4.3v0.5H50c0.9,0,1.2,0,1.7,0
		c0,0.5-0.1,0.8-0.1,1.4v2.9c0,0.6,0,0.9,0.1,1.4c-0.4,0-0.6,0-1.4,0v0.5h0.7c0.9,0,1.3,0,1.8-0.1v2.2c-0.6,0-1.1-0.1-1.7-0.1h-0.8
		v1.5c0,1.3-0.7,1.7-2.8,1.7c-0.3,0-0.7,0-1.2,0c-0.2-0.9-0.3-1.5-0.7-2.1c0.7,0.1,1.2,0.1,1.8,0.1c0.5,0,0.6,0,0.6-0.3v-0.8h-4.6
		c0.7,0.6,1.3,1.1,1.9,1.8l-1.9,1.5c-0.9-1-1.4-1.5-2.3-2.3l1.4-1h-2.1c-0.6,0-1.1,0-1.7,0.1V9.5c0.5,0.1,0.9,0.1,1.8,0.1H48V9.1
		h-6.5c-0.9,0-1.2,0-1.6,0c0-0.5,0.1-0.8,0.1-1.4V4.9c0-0.6,0-0.9-0.1-1.4c0.4,0,0.7,0,1.6,0h3V3.1H40.4z M42.2,5.1v0.5h2.3V5.1
		C44.5,5.1,42.2,5.1,42.2,5.1z M42.2,7v0.6h2.3V7H42.2z M46.8,5.7h2.5V5.1h-2.5V5.7z M46.8,7.6h2.5V7h-2.5V7.6z"/>
	<path class="st1" d="M62.7,12.4c0,1,0,1.5,0.1,2h-2.5c0.1-0.5,0.1-1,0.1-2v-2.2h-3c-0.2,2-0.6,3.3-1.5,4.7
		c-0.9-0.9-1.3-1.3-2.1-1.8c1.2-2,1.4-3.8,1.4-10.4c0-0.9,0-1.5-0.1-2.1c0.6,0,1,0.1,1.9,0.1h9.1c1,0,1.4,0,1.9-0.1
		c-0.1,0.5-0.1,1-0.1,2v10.2c0,1.4-0.6,1.9-2.5,1.9c-0.5,0-1.1,0-1.7,0c-0.1-0.8-0.2-1.3-0.6-2.2c0.7,0.1,1.3,0.1,1.7,0.1
		c0.6,0,0.7-0.1,0.7-0.3v-1.9h-2.9L62.7,12.4L62.7,12.4z M57.7,6.6c0,0.6,0,0.8,0,1.5h2.8V6.6H57.7z M60.4,2.9h-2.7v1.5h2.7V2.9z
		 M65.6,4.4V2.9h-2.9v1.5H65.6z M62.7,8.1h2.9V6.6h-2.9V8.1z"/>
</g>
</svg>
