<?xml version="1.0" encoding="utf-8"?>
<!-- Generator: Adobe Illustrator 25.0.1, SVG Export Plug-In . SVG Version: 6.00 Build 0)  -->
<svg version="1.1" id="圖層_1" xmlns="http://www.w3.org/2000/svg" xmlns:xlink="http://www.w3.org/1999/xlink" x="0px" y="0px"
	 viewBox="0 0 45.7 25" style="enable-background:new 0 0 45.7 25;" xml:space="preserve">
<style type="text/css">
	.st0{fill:#351A03;}
	.st1{fill:#D2AC47;}
	.st2{fill:#EDC967;}
	.st3{fill:url(#SVGID_1_);}
	.st4{fill:url(#SVGID_2_);}
	.st5{fill:url(#SVGID_3_);}
	.st6{fill:url(#SVGID_4_);}
	.st7{fill:url(#SVGID_5_);}
	.st8{fill:#074368;}
	.st9{fill:#5EC1F7;}
	.st10{fill:url(#SVGID_6_);}
	.st11{fill:url(#SVGID_7_);}
	.st12{fill:url(#SVGID_8_);}
	.st13{fill:url(#SVGID_9_);}
	.st14{fill:url(#SVGID_10_);}
	.st15{fill:url(#SVGID_11_);}
	.st16{fill:url(#SVGID_12_);}
	.st17{fill:url(#SVGID_13_);}
	.st18{fill:url(#SVGID_14_);}
	.st19{fill:url(#SVGID_15_);}
	.st20{fill:url(#SVGID_16_);}
	.st21{fill:url(#SVGID_17_);}
	.st22{fill:url(#SVGID_18_);}
	.st23{fill:url(#SVGID_19_);}
	.st24{fill:url(#SVGID_20_);}
	.st25{fill:url(#SVGID_21_);}
	.st26{fill:url(#SVGID_22_);}
	.st27{fill:url(#SVGID_23_);}
	.st28{fill:url(#SVGID_24_);}
	.st29{fill:url(#SVGID_25_);}
</style>
<g>
	<g>
		<g>
			<path class="st0" d="M2.4,12.9c-0.3,0-0.6-0.1-0.8-0.3c-0.2-0.2-0.4-0.5-0.4-0.8L0,2.7c0-0.3,0-0.7,0.2-0.9
				C0.4,1.5,0.7,1.3,1,1.2l1.7-0.3c0.1,0,0.1,0,0.2,0c0.3,0,0.5,0.1,0.7,0.3c0.3,0.2,0.4,0.5,0.5,0.9l0.7,5.9l2.7-0.5
				c0.1,0,0.1,0,0.2,0c0.3,0,0.5,0.1,0.7,0.3C8.8,7.9,9,8.2,9,8.6l0.2,1.8c0,0.3,0,0.7-0.2,1c-0.2,0.3-0.5,0.5-0.8,0.6l-5.7,1
				C2.5,12.9,2.4,12.9,2.4,12.9z"/>
			<path class="st0" d="M2.4,12.7c-0.2,0-0.5-0.1-0.6-0.3c-0.2-0.2-0.3-0.4-0.4-0.7l-1.2-9c0-0.3,0-0.6,0.2-0.8
				c0.2-0.3,0.4-0.4,0.7-0.5l1.7-0.3c0.1,0,0.1,0,0.2,0c0.2,0,0.4,0.1,0.6,0.2c0.2,0.2,0.3,0.4,0.4,0.7l0.8,6.1l2.9-0.5
				c0.1,0,0.1,0,0.2,0c0.2,0,0.4,0.1,0.6,0.2c0.2,0.2,0.3,0.4,0.4,0.7L9,10.4c0,0.3,0,0.6-0.2,0.8c-0.2,0.3-0.4,0.4-0.7,0.5l-5.7,1
				C2.5,12.7,2.4,12.7,2.4,12.7z"/>
			<path class="st0" d="M2.1,12.9c-0.2,0-0.4-0.1-0.6-0.2c-0.2-0.2-0.3-0.4-0.3-0.7L0,2.9c0-0.3,0-0.5,0.2-0.8
				c0.1-0.3,0.4-0.4,0.7-0.5l1.7-0.3c0.1,0,0.1,0,0.2,0c0.2,0,0.4,0.1,0.6,0.2c0.2,0.2,0.3,0.4,0.4,0.7l0.8,6.1l3-0.5
				c0.1,0,0.1,0,0.2,0C7.8,8,8,8,8.1,8.2c0.2,0.2,0.3,0.4,0.4,0.7l0.2,1.8c0,0.3,0,0.6-0.2,0.8c-0.2,0.2-0.4,0.4-0.6,0.4l-5.7,1
				C2.2,12.9,2.2,12.9,2.1,12.9z"/>
			<path class="st0" d="M8.3,8.9c0-0.2-0.1-0.4-0.3-0.6C7.8,8.2,7.6,8.1,7.4,8.2L4.2,8.7L3.4,2.4c0-0.2-0.1-0.4-0.3-0.6
				C2.9,1.7,2.8,1.6,2.6,1.6L0.9,1.9C0.6,2,0.5,2.1,0.3,2.3C0.2,2.5,0.2,2.7,0.2,2.9l1.2,9c0,0.2,0.1,0.4,0.3,0.6
				c0.2,0.1,0.4,0.2,0.6,0.2l5.7-1c0.2,0,0.4-0.2,0.5-0.3c0.1-0.2,0.2-0.4,0.1-0.7L8.3,8.9z"/>
			<path class="st0" d="M13.2,12.6c-0.2,0-0.4,0-0.6,0c-0.7-0.1-1.3-0.3-1.8-0.6c-0.5-0.3-1-0.7-1.4-1.2C9.1,10.3,8.8,9.7,8.6,9
				C8.5,8.3,8.4,7.6,8.5,6.9l0.5-5.4c0-0.4,0.2-0.7,0.4-0.9c0.2-0.2,0.5-0.3,0.8-0.3c0,0,0.1,0,0.1,0L12,0.5c0.3,0,0.6,0.2,0.8,0.5
				c0.2,0.3,0.3,0.6,0.2,1l-0.5,5.4c0,0.3,0,0.4,0,0.4c0,0.1,0.1,0.2,0.1,0.2c0,0,0.1,0.1,0.1,0.1C13,8.1,13,8.1,13,8.1l0,0
				c0,0,0.1,0,0.1,0c0,0,0.1,0,0.1-0.1c0,0,0.1,0,0.1-0.2c0,0,0.1-0.2,0.1-0.4L14,2.1c0-0.4,0.2-0.7,0.4-0.9
				c0.2-0.2,0.5-0.3,0.8-0.3c0,0,0.1,0,0.1,0L17,1.1c0.3,0,0.6,0.2,0.8,0.5c0.2,0.3,0.3,0.6,0.2,1l-0.5,5.4c-0.1,0.7-0.2,1.4-0.5,2
				c-0.3,0.6-0.6,1.1-1.1,1.6c-0.5,0.4-1,0.7-1.6,0.9C14.1,12.6,13.6,12.6,13.2,12.6z"/>
			<path class="st0" d="M13.2,12.4c-0.2,0-0.4,0-0.6,0c-0.6-0.1-1.2-0.3-1.7-0.6c-0.5-0.3-1-0.7-1.3-1.2C9.2,10.2,9,9.6,8.8,8.9
				c-0.2-0.6-0.2-1.3-0.1-2l0.5-5.4c0-0.3,0.1-0.6,0.3-0.8c0.2-0.2,0.4-0.3,0.6-0.3c0,0,0.1,0,0.1,0L12,0.7c0.3,0,0.5,0.2,0.7,0.4
				c0.2,0.2,0.2,0.5,0.2,0.8l-0.5,5.4c0,0.3,0,0.4,0,0.5c0,0.2,0.1,0.2,0.1,0.3c0.1,0.1,0.1,0.1,0.2,0.1C12.9,8.3,13,8.3,13,8.3
				c0,0,0,0,0,0c0.1,0,0.1,0,0.2,0c0.1,0,0.1,0,0.2-0.1c0,0,0.1-0.1,0.2-0.2c0-0.1,0.1-0.2,0.1-0.5l0.5-5.4c0-0.3,0.1-0.6,0.4-0.8
				c0.2-0.2,0.4-0.3,0.6-0.3c0,0,0.1,0,0.1,0L17,1.3c0.3,0,0.5,0.2,0.7,0.4c0.2,0.2,0.2,0.5,0.2,0.8l-0.5,5.4
				c-0.1,0.7-0.2,1.4-0.5,2c-0.3,0.6-0.6,1.1-1,1.5c-0.4,0.4-0.9,0.7-1.5,0.9C14,12.4,13.6,12.4,13.2,12.4L13.2,12.4z"/>
			<path class="st0" d="M12.9,12.6c-0.2,0-0.4,0-0.5,0c-0.6-0.1-1.2-0.3-1.7-0.6c-0.5-0.3-0.9-0.7-1.3-1.2c-0.3-0.5-0.6-1-0.8-1.7
				c-0.2-0.6-0.2-1.3-0.1-2l0.5-5.4c0-0.3,0.1-0.5,0.3-0.7c0.2-0.2,0.4-0.3,0.6-0.3c0,0,0.1,0,0.1,0L11.7,1c0.3,0,0.5,0.2,0.7,0.4
				c0.2,0.2,0.2,0.5,0.2,0.8l-0.5,5.4c0,0.2,0,0.4,0,0.5c0,0.1,0.1,0.2,0.1,0.3c0.1,0.1,0.1,0.1,0.2,0.2c0.1,0.1,0.2,0.1,0.2,0.1
				c0,0,0,0,0.1,0c0.1,0,0.1,0,0.2,0c0.1,0,0.1,0,0.2-0.1c0,0,0.1-0.1,0.2-0.3c0-0.1,0.1-0.2,0.1-0.5L14,2.4c0-0.3,0.1-0.5,0.3-0.7
				c0.2-0.2,0.4-0.3,0.6-0.3c0,0,0.1,0,0.1,0l1.7,0.2c0.3,0,0.5,0.2,0.7,0.4c0.2,0.2,0.2,0.5,0.2,0.8l-0.5,5.4
				c-0.1,0.7-0.2,1.4-0.5,1.9c-0.3,0.6-0.6,1.1-1,1.5c-0.4,0.4-0.9,0.7-1.5,0.9C13.8,12.6,13.4,12.6,12.9,12.6L12.9,12.6z"/>
			<path class="st0" d="M17.2,2.1c-0.1-0.2-0.3-0.3-0.5-0.3L15,1.6c-0.2,0-0.4,0-0.6,0.2c-0.2,0.2-0.3,0.4-0.3,0.6l-0.5,5.4
				c0,0.3-0.1,0.5-0.1,0.6c-0.1,0.1-0.2,0.3-0.3,0.3c-0.1,0.1-0.2,0.1-0.3,0.1c-0.1,0-0.2,0-0.3,0c-0.1,0-0.2,0-0.3-0.1
				c-0.1,0-0.2-0.1-0.3-0.2c-0.1-0.1-0.1-0.2-0.2-0.4c0-0.2-0.1-0.4,0-0.6l0.5-5.4c0-0.2,0-0.5-0.2-0.6c-0.1-0.2-0.3-0.3-0.5-0.3
				L10,1c-0.2,0-0.4,0-0.6,0.2C9.3,1.4,9.2,1.6,9.1,1.8L8.7,7.2c-0.1,0.7,0,1.4,0.1,1.9c0.1,0.6,0.4,1.1,0.7,1.6
				c0.3,0.5,0.7,0.8,1.2,1.1c0.5,0.3,1,0.5,1.6,0.5c0.6,0.1,1.2,0,1.7-0.1c0.5-0.2,1-0.4,1.4-0.8c0.4-0.4,0.7-0.8,1-1.4
				c0.2-0.6,0.4-1.2,0.5-1.9l0.5-5.4C17.4,2.5,17.3,2.3,17.2,2.1z"/>
			<path class="st0" d="M22.5,12.6c-0.5,0-1-0.1-1.4-0.2c-0.7-0.2-1.3-0.6-1.8-1c-0.5-0.5-1-1.1-1.3-1.7c-0.4-0.7-0.6-1.5-0.7-2.3
				c-0.1-0.8,0-1.6,0.2-2.4c0.2-0.8,0.5-1.5,0.9-2.1c0.4-0.6,0.9-1.1,1.5-1.5c0.6-0.4,1.3-0.7,2-0.8c0.3,0,0.6-0.1,0.9-0.1
				c0.3,0,0.5,0,0.8,0.1c0.5,0.1,1,0.3,1.4,0.5c0.4,0.2,0.8,0.5,1.2,0.9c0.3,0.3,0.7,0.7,1,1.1c0.2,0.3,0.3,0.7,0.2,1
				C27.2,4.5,27,4.8,26.8,5c0,0,0,0-1.6,1c-0.1,0.1-0.3,0.2-0.5,0.2c-0.1,0-0.1,0-0.2,0c-0.1,0-0.2,0-0.3-0.1
				C24,6,23.7,5.8,23.6,5.6c-0.2-0.2-0.4-0.4-0.5-0.5C22.9,5,22.8,5,22.6,5c-0.1,0-0.1,0-0.2,0c-0.1,0-0.3,0.1-0.4,0.2
				c-0.1,0.1-0.3,0.2-0.4,0.4c-0.1,0.2-0.2,0.3-0.2,0.5c0,0.2-0.1,0.4,0,0.6c0,0.2,0.1,0.4,0.2,0.6c0.1,0.2,0.2,0.3,0.3,0.4
				C22,7.9,22.1,8,22.3,8c0.1,0,0.2,0.1,0.3,0.1c0,0,0.1,0,0.1,0c0.2,0,0.4-0.1,0.6-0.3c0.2-0.2,0.3-0.4,0.4-0.6
				c0.1-0.3,0.3-0.5,0.5-0.7c0.1-0.1,0.3-0.2,0.5-0.2c0.1,0,0.1,0,0.2,0c0.1,0,0.2,0,0.3,0c1.7,0.5,1.7,0.5,1.7,0.5
				c0.3,0.1,0.6,0.4,0.7,0.7c0.1,0.3,0.2,0.7,0,1l0,0c-0.2,0.5-0.4,1-0.7,1.4c-0.3,0.5-0.6,0.9-1,1.2c-0.4,0.3-0.8,0.6-1.3,0.9
				c-0.5,0.2-1,0.4-1.6,0.5C23,12.6,22.7,12.6,22.5,12.6z"/>
			<path class="st0" d="M22.5,12.4c-0.5,0-0.9-0.1-1.4-0.2c-0.6-0.2-1.2-0.6-1.8-1c-0.5-0.5-1-1-1.3-1.7c-0.3-0.7-0.6-1.4-0.6-2.2
				c-0.1-0.8,0-1.6,0.1-2.3c0.2-0.7,0.5-1.4,0.9-2c0.4-0.6,0.9-1.1,1.5-1.5c0.6-0.4,1.2-0.7,2-0.8c0.3,0,0.6-0.1,0.8-0.1
				c0.3,0,0.5,0,0.8,0.1c0.5,0.1,0.9,0.2,1.4,0.5c0.4,0.2,0.8,0.5,1.1,0.9c0.3,0.3,0.6,0.7,0.9,1.1c0.2,0.3,0.2,0.6,0.2,0.9
				c-0.1,0.3-0.2,0.6-0.4,0.7c0,0,0,0-1.6,1c-0.1,0.1-0.2,0.1-0.4,0.1c0,0-0.1,0-0.1,0c-0.1,0-0.2,0-0.3,0c-0.2-0.1-0.4-0.2-0.6-0.4
				c-0.2-0.3-0.4-0.5-0.6-0.6c-0.1-0.1-0.3-0.1-0.5-0.1c-0.1,0-0.2,0-0.3,0c-0.2,0-0.3,0.1-0.5,0.2c-0.2,0.1-0.3,0.3-0.4,0.5
				c-0.1,0.2-0.2,0.4-0.2,0.6c-0.1,0.2-0.1,0.5,0,0.7c0,0.2,0.1,0.4,0.2,0.6c0.1,0.2,0.2,0.4,0.4,0.5C21.9,8,22,8.2,22.2,8.2
				c0.1,0,0.2,0.1,0.3,0.1c0.1,0,0.1,0,0.2,0c0.3,0,0.5-0.2,0.7-0.3c0.2-0.2,0.4-0.4,0.5-0.7C24,7,24.2,6.8,24.4,6.7
				c0.1-0.1,0.3-0.1,0.4-0.2c0,0,0.1,0,0.1,0c0.1,0,0.2,0,0.3,0C26.9,7,26.9,7,26.9,7c0.3,0.1,0.5,0.3,0.6,0.6
				c0.1,0.3,0.1,0.6,0,0.9c0,0,0,0,0,0c-0.2,0.5-0.4,0.9-0.7,1.4c-0.3,0.4-0.6,0.8-0.9,1.2c-0.4,0.3-0.8,0.6-1.2,0.8
				c-0.5,0.2-1,0.4-1.5,0.5C22.9,12.4,22.7,12.4,22.5,12.4C22.5,12.4,22.5,12.4,22.5,12.4z"/>
			<path class="st0" d="M22.2,12.6c-0.5,0-0.9-0.1-1.4-0.2c-0.6-0.2-1.2-0.5-1.7-1c-0.5-0.5-0.9-1-1.3-1.7c-0.3-0.7-0.6-1.4-0.6-2.2
				c-0.1-0.8,0-1.6,0.1-2.3c0.2-0.7,0.5-1.4,0.9-2c0.4-0.6,0.9-1.1,1.5-1.5c0.6-0.4,1.2-0.7,1.9-0.8C21.9,1,22.2,1,22.4,1
				C22.7,1,23,1,23.2,1c0.5,0.1,0.9,0.2,1.3,0.5C25,1.7,25.3,2,25.7,2.4c0.3,0.3,0.6,0.7,0.9,1.1c0.2,0.2,0.2,0.5,0.2,0.8
				c0,0.3-0.2,0.5-0.4,0.7c0,0,0,0-1.6,1c-0.1,0.1-0.2,0.1-0.4,0.1c0,0-0.1,0-0.1,0c-0.1,0-0.2,0-0.3,0c-0.2-0.1-0.4-0.2-0.5-0.4
				c-0.2-0.3-0.4-0.5-0.6-0.6C22.7,5,22.5,5,22.3,5c-0.1,0-0.2,0-0.3,0c-0.2,0-0.3,0.1-0.5,0.2c-0.2,0.1-0.3,0.3-0.4,0.5
				C21,5.9,21,6.1,20.9,6.3c-0.1,0.2-0.1,0.5,0,0.7c0,0.2,0.1,0.5,0.2,0.7c0.1,0.2,0.2,0.4,0.4,0.5c0.1,0.1,0.3,0.2,0.5,0.3
				c0.1,0,0.2,0.1,0.4,0.1c0.1,0,0.1,0,0.2,0c0.3,0,0.5-0.2,0.7-0.4c0.2-0.2,0.4-0.4,0.5-0.7c0.1-0.2,0.2-0.4,0.4-0.5
				c0.1-0.1,0.2-0.1,0.4-0.1c0,0,0.1,0,0.1,0c0.1,0,0.2,0,0.3,0c1.7,0.5,1.7,0.5,1.7,0.5c0.2,0.1,0.4,0.3,0.6,0.5
				c0.1,0.3,0.1,0.6,0,0.8l0,0c-0.2,0.5-0.4,0.9-0.7,1.4c-0.3,0.4-0.6,0.8-0.9,1.2c-0.4,0.3-0.8,0.6-1.2,0.8
				c-0.4,0.2-0.9,0.4-1.5,0.5C22.7,12.6,22.5,12.6,22.2,12.6L22.2,12.6z"/>
			<path class="st0" d="M26.5,7.6c0,0-1.7-0.5-1.7-0.5c-0.1,0-0.2,0-0.3,0c-0.1,0-0.2,0.1-0.3,0.1c-0.2,0.1-0.3,0.3-0.3,0.4
				c-0.1,0.3-0.3,0.6-0.6,0.8c-0.2,0.2-0.5,0.4-0.9,0.4c-0.2,0-0.4,0-0.6-0.1c-0.2-0.1-0.4-0.2-0.6-0.4C21.1,8.2,21,8,20.9,7.8
				c-0.1-0.2-0.2-0.5-0.2-0.7c0-0.3,0-0.5,0-0.8C20.8,6,20.9,5.8,21,5.6c0.1-0.2,0.3-0.4,0.5-0.5c0.2-0.1,0.4-0.2,0.6-0.2
				c0.4-0.1,0.7,0,0.9,0.1c0.3,0.1,0.5,0.4,0.7,0.7c0.1,0.2,0.3,0.3,0.4,0.3c0.1,0,0.2,0,0.3,0c0.1,0,0.2-0.1,0.3-0.1
				c0,0,1.5-1,1.6-1c0.2-0.1,0.3-0.3,0.3-0.6c0-0.2,0-0.5-0.1-0.7c-0.3-0.4-0.6-0.8-0.9-1.1c-0.3-0.3-0.7-0.6-1.1-0.8
				c-0.4-0.2-0.8-0.4-1.3-0.4c-0.5-0.1-1-0.1-1.5,0C21,1.4,20.4,1.6,19.8,2c-0.5,0.4-1,0.9-1.4,1.4C18,4,17.7,4.6,17.6,5.3
				c-0.2,0.7-0.2,1.5-0.1,2.2C17.5,8.3,17.7,9,18,9.6c0.3,0.6,0.7,1.2,1.2,1.6c0.5,0.4,1.1,0.8,1.7,1c0.6,0.2,1.3,0.3,1.9,0.2
				c0.5-0.1,1-0.2,1.4-0.4c0.4-0.2,0.8-0.5,1.2-0.8c0.3-0.3,0.6-0.7,0.9-1.1c0.2-0.4,0.5-0.8,0.6-1.3c0,0,0,0,0,0
				c0.1-0.2,0.1-0.5,0-0.7C26.9,7.8,26.7,7.6,26.5,7.6z"/>
			<path class="st0" d="M28.6,12.9c-0.3,0-0.6-0.1-0.8-0.3c-0.2-0.2-0.4-0.5-0.4-0.9l-0.9-9.1c0-0.3,0-0.7,0.2-0.9
				c0.2-0.3,0.5-0.5,0.8-0.6l1.7-0.2c0.1,0,0.1,0,0.2,0c0.3,0,0.6,0.1,0.8,0.3c0.2,0.2,0.4,0.5,0.4,0.9l0,0.1L31,1.4
				c0.1-0.2,0.3-0.4,0.5-0.6c0.2-0.2,0.4-0.3,0.7-0.3l2.2-0.3c0.1,0,0.1,0,0.1,0c0.4,0,0.8,0.3,1,0.7c0.1,0.4,0.1,0.8-0.1,1.1
				l-2.3,4.3c0.2,0.2,0.4,0.4,0.6,0.6c0.3,0.3,0.7,0.6,1,1l1,0.9c0.3,0.3,0.6,0.6,0.9,0.8l0,0c0.3,0.3,0.4,0.7,0.4,1
				c0,0.6-0.4,1-1,1.1l-2.4,0.3c-0.1,0-0.1,0-0.2,0c-0.2,0-0.3,0-0.5-0.1c-0.2-0.1-0.4-0.2-0.6-0.4l-0.8-0.8l0,0.3
				c0,0.3,0,0.7-0.2,1c-0.2,0.3-0.5,0.5-0.8,0.5l-1.7,0.2C28.7,12.9,28.6,12.9,28.6,12.9z"/>
			<path class="st0" d="M28.6,12.7c-0.2,0-0.5-0.1-0.7-0.3c-0.2-0.2-0.3-0.4-0.3-0.7l-0.9-9.1c0-0.3,0-0.6,0.2-0.8
				c0.2-0.3,0.4-0.4,0.7-0.5l1.7-0.2c0,0,0.1,0,0.1,0c0.2,0,0.5,0.1,0.6,0.3c0.2,0.2,0.3,0.5,0.4,0.8L30.5,3l0.7-1.5
				c0.1-0.2,0.2-0.3,0.4-0.5c0.2-0.1,0.4-0.2,0.6-0.2l2.2-0.3c0,0,0.1,0,0.1,0c0.4,0,0.7,0.2,0.8,0.6c0.1,0.3,0.1,0.7,0,1l-2.4,4.5
				c0.2,0.2,0.4,0.4,0.7,0.7c0.3,0.3,0.7,0.6,1,1l1,0.9c0.3,0.3,0.6,0.6,0.9,0.9l0,0c0.2,0.2,0.3,0.5,0.3,0.9c0,0.5-0.3,0.8-0.8,0.9
				L33.5,12c-0.1,0-0.1,0-0.2,0c-0.1,0-0.3,0-0.4-0.1c-0.2-0.1-0.4-0.2-0.5-0.3l-1.2-1.3l0.1,0.8c0,0.3,0,0.6-0.2,0.8
				c-0.2,0.2-0.4,0.4-0.7,0.4l-1.7,0.2C28.7,12.7,28.6,12.7,28.6,12.7z"/>
			<path class="st0" d="M28.3,12.9c-0.2,0-0.5-0.1-0.6-0.3c-0.2-0.2-0.3-0.4-0.3-0.7l-0.9-9.1c0-0.3,0-0.5,0.2-0.8
				c0.2-0.2,0.4-0.4,0.7-0.4L29,1.5c0,0,0.1,0,0.1,0c0.2,0,0.4,0.1,0.6,0.2c0.2,0.2,0.3,0.4,0.3,0.7l0.1,1L31,1.8
				c0.1-0.2,0.2-0.3,0.4-0.5c0.2-0.1,0.4-0.2,0.5-0.2l2.2-0.3c0,0,0.1,0,0.1,0c0.3,0,0.6,0.2,0.8,0.6c0.1,0.3,0.1,0.6,0,0.9
				l-2.4,4.5C32.8,7,33,7.2,33.2,7.4c0.3,0.3,0.7,0.6,1,1l1,0.9c0.3,0.3,0.6,0.6,0.9,0.9l0,0c0.2,0.2,0.3,0.5,0.3,0.8
				c0,0.5-0.3,0.8-0.7,0.9l-2.4,0.3c0,0-0.1,0-0.2,0c-0.1,0-0.3,0-0.4-0.1c-0.2-0.1-0.4-0.2-0.5-0.3l-1.3-1.4l0.1,1
				c0,0.3,0,0.6-0.2,0.8c-0.2,0.2-0.4,0.4-0.6,0.4l-1.7,0.2C28.4,12.9,28.4,12.9,28.3,12.9z"/>
			<path class="st0" d="M35.9,10.3c-0.3-0.3-0.6-0.6-0.9-0.9l-0.9-0.9c-0.3-0.3-0.6-0.6-1-1c-0.3-0.3-0.6-0.5-0.8-0.8l2.5-4.6
				c0.1-0.2,0.1-0.5,0-0.7c-0.1-0.3-0.4-0.5-0.7-0.4L32,1.3c-0.2,0-0.3,0.1-0.4,0.2c-0.1,0.1-0.3,0.2-0.3,0.4L30,4.1l-0.2-1.7
				c0-0.2-0.1-0.4-0.3-0.6c-0.2-0.1-0.4-0.2-0.6-0.2l-1.7,0.2c-0.2,0-0.4,0.2-0.5,0.3c-0.1,0.2-0.2,0.4-0.1,0.6l0.9,9.1
				c0,0.2,0.1,0.4,0.3,0.6c0.2,0.2,0.4,0.2,0.6,0.2l1.7-0.2c0.2,0,0.4-0.1,0.5-0.3c0.1-0.2,0.2-0.4,0.2-0.6l-0.2-1.6l1.8,1.8
				c0.1,0.1,0.2,0.2,0.4,0.3c0.2,0.1,0.3,0.1,0.5,0.1l2.4-0.3c0.3,0,0.5-0.3,0.6-0.7C36.2,10.8,36.1,10.5,35.9,10.3
				C35.9,10.4,35.9,10.4,35.9,10.3z"/>
			<path class="st0" d="M39.7,12.5c-0.3,0-0.6-0.1-0.8-0.3c-0.2-0.2-0.4-0.5-0.4-0.9l-0.2-3c0,0,0,0,0-0.1c0,0,0,0,0,0
				c-0.5-0.8-1-1.7-1.6-2.5C36.1,4.8,35.5,4,35,3.1c-0.2-0.3-0.2-0.7-0.2-1c0.1-0.5,0.5-0.9,1-1l2-0.2c0,0,0.1,0,0.1,0
				c0.2,0,0.4,0.1,0.6,0.2c0.2,0.1,0.4,0.3,0.6,0.5l0.8,1.3l0.6-1.5C40.6,1.2,40.8,1,41,0.8c0.2-0.2,0.5-0.3,0.7-0.3l2.1-0.2
				c0,0,0.1,0,0.1,0c0.4,0,0.7,0.2,0.9,0.5c0.1,0.2,0.3,0.7,0.1,1.3c0,0,0,0-2.4,5.7c0,0,0,0,0,0.1c0,0,0,0,0,0l0.2,3
				c0,0.3-0.1,0.7-0.3,1c-0.2,0.3-0.5,0.5-0.8,0.5l-1.7,0.2C39.8,12.5,39.7,12.5,39.7,12.5z"/>
			<path class="st0" d="M39.7,12.3c-0.2,0-0.5-0.1-0.7-0.3c-0.2-0.2-0.3-0.5-0.3-0.8l-0.2-3c0,0,0,0,0-0.1c0,0,0-0.1,0-0.1
				c-0.5-0.9-1.1-1.7-1.6-2.5c-0.5-0.8-1.1-1.7-1.6-2.6C35,2.7,35,2.4,35,2.1c0.1-0.4,0.4-0.7,0.8-0.8l2-0.2c0,0,0.1,0,0.1,0
				c0.2,0,0.4,0,0.5,0.1c0.2,0.1,0.4,0.3,0.5,0.5l1,1.7l0.7-1.9c0.1-0.2,0.2-0.4,0.4-0.6c0.2-0.1,0.4-0.2,0.6-0.3l2.1-0.2
				c0,0,0.1,0,0.1,0c0.3,0,0.6,0.1,0.7,0.4c0.1,0.2,0.3,0.6,0.1,1.1c0,0,0,0-2.4,5.7c0,0,0,0.1,0,0.1c0,0.1,0,0.1,0,0.1l0.2,3
				c0,0.3-0.1,0.6-0.2,0.8c-0.2,0.2-0.4,0.4-0.7,0.4L39.7,12.3C39.8,12.3,39.7,12.3,39.7,12.3L39.7,12.3z"/>
			<path class="st0" d="M39.4,12.5c-0.2,0-0.4-0.1-0.6-0.3c-0.2-0.2-0.3-0.4-0.3-0.7l-0.2-3c0,0,0,0,0-0.1c0,0,0-0.1,0-0.1
				c-0.5-0.9-1.1-1.7-1.6-2.5C36.1,5,35.5,4.1,35,3.2c-0.2-0.3-0.2-0.5-0.1-0.8c0.1-0.4,0.4-0.7,0.7-0.7l2-0.2c0,0,0.1,0,0.1,0
				c0.2,0,0.3,0,0.5,0.1c0.2,0.1,0.4,0.3,0.5,0.5l1.1,1.8l0.8-2c0.1-0.2,0.2-0.4,0.4-0.5C41.1,1.1,41.3,1,41.5,1l2.1-0.2
				c0,0,0.1,0,0.1,0c0.3,0,0.5,0.1,0.7,0.4c0.1,0.2,0.3,0.5,0.1,1c0,0,0,0-2.4,5.7c0,0,0,0.1,0,0.1c0,0.1,0,0.1,0,0.1l0.2,3
				c0,0.3-0.1,0.6-0.2,0.8c-0.2,0.2-0.4,0.4-0.7,0.4L39.4,12.5C39.5,12.5,39.5,12.5,39.4,12.5C39.4,12.5,39.4,12.5,39.4,12.5z"/>
			<path class="st0" d="M41.7,7.8c0,0,2.4-5.7,2.4-5.7c0.2-0.4,0-0.7,0-0.9C44,1.1,43.8,1,43.5,1l-2.1,0.2c-0.2,0-0.3,0.1-0.5,0.2
				c-0.1,0.1-0.3,0.3-0.3,0.4l-0.9,2.4l-1.3-2.2c-0.1-0.2-0.2-0.3-0.4-0.4c-0.2-0.1-0.3-0.1-0.5-0.1l-2,0.2c-0.3,0-0.5,0.2-0.6,0.6
				c0,0.2,0,0.5,0.1,0.7c0.5,0.9,1.1,1.8,1.6,2.6c0.5,0.8,1.1,1.7,1.6,2.5c0,0,0,0,0.1,0.1c0,0.1,0,0.2,0,0.2l0.2,3
				c0,0.2,0.1,0.4,0.3,0.6c0.2,0.2,0.3,0.2,0.6,0.2l1.7-0.2c0.2,0,0.4-0.1,0.5-0.3c0.1-0.2,0.2-0.4,0.2-0.6l-0.2-3c0,0,0-0.1,0-0.1
				C41.7,7.9,41.7,7.9,41.7,7.8z"/>
		</g>
		<g>
			<path class="st1" d="M2.4,12.5c-0.2,0-0.5-0.1-0.6-0.3c-0.2-0.2-0.3-0.4-0.4-0.7l-1.2-9c0-0.3,0-0.6,0.2-0.8
				c0.2-0.3,0.4-0.4,0.7-0.5l1.7-0.3c0.1,0,0.1,0,0.2,0c0.2,0,0.4,0.1,0.6,0.2c0.2,0.2,0.3,0.4,0.4,0.7L4.7,8l2.9-0.5
				c0.1,0,0.1,0,0.2,0c0.2,0,0.4,0.1,0.6,0.2c0.2,0.2,0.3,0.4,0.4,0.7L9,10.2c0,0.3,0,0.6-0.2,0.8c-0.2,0.3-0.4,0.4-0.7,0.5l-5.7,1
				C2.5,12.5,2.4,12.5,2.4,12.5z"/>
			<path class="st1" d="M8.3,8.7c0-0.2-0.1-0.4-0.3-0.6C7.8,8,7.6,7.9,7.4,8L4.2,8.5L3.4,2.2c0-0.2-0.1-0.4-0.3-0.6
				C2.9,1.4,2.8,1.4,2.6,1.4L0.9,1.7c-0.2,0-0.4,0.2-0.5,0.4C0.2,2.3,0.2,2.5,0.2,2.7l1.2,9c0,0.2,0.1,0.4,0.3,0.6
				c0.2,0.1,0.4,0.2,0.6,0.2l5.7-1c0.2,0,0.4-0.2,0.5-0.3c0.1-0.2,0.2-0.4,0.1-0.7L8.3,8.7z"/>
			<path class="st1" d="M13.2,12.2c-0.2,0-0.4,0-0.6,0c-0.6-0.1-1.2-0.3-1.7-0.6c-0.5-0.3-1-0.7-1.3-1.2C9.2,9.9,9,9.4,8.8,8.7
				c-0.2-0.6-0.2-1.3-0.1-2l0.5-5.4c0-0.3,0.1-0.6,0.3-0.8c0.2-0.2,0.4-0.3,0.6-0.3c0,0,0.1,0,0.1,0L12,0.5c0.3,0,0.5,0.2,0.7,0.4
				c0.2,0.2,0.2,0.5,0.2,0.8l-0.5,5.4c0,0.3,0,0.4,0,0.5c0,0.2,0.1,0.2,0.1,0.3C12.6,8,12.7,8,12.8,8C12.9,8.1,13,8.1,13,8.1
				c0,0,0,0,0,0c0.1,0,0.1,0,0.2,0c0.1,0,0.1,0,0.2-0.1c0,0,0.1-0.1,0.2-0.2c0-0.1,0.1-0.2,0.1-0.5l0.5-5.4c0-0.3,0.1-0.6,0.4-0.8
				c0.2-0.2,0.4-0.3,0.6-0.3c0,0,0.1,0,0.1,0L17,1.1c0.3,0,0.5,0.2,0.7,0.4c0.2,0.2,0.2,0.5,0.2,0.8l-0.5,5.4
				c-0.1,0.7-0.2,1.4-0.5,2c-0.3,0.6-0.6,1.1-1,1.5c-0.4,0.4-0.9,0.7-1.5,0.9C14,12.1,13.6,12.2,13.2,12.2L13.2,12.2z"/>
			<path class="st1" d="M17.2,1.9c-0.1-0.2-0.3-0.3-0.5-0.3L15,1.4c-0.2,0-0.4,0-0.6,0.2c-0.2,0.2-0.3,0.4-0.3,0.6l-0.5,5.4
				c0,0.3-0.1,0.5-0.1,0.6c-0.1,0.1-0.2,0.3-0.3,0.3c-0.1,0.1-0.2,0.1-0.3,0.1c-0.1,0-0.2,0-0.3,0c-0.1,0-0.2,0-0.3-0.1
				c-0.1,0-0.2-0.1-0.3-0.2C12.1,8.3,12,8.1,11.9,8c0-0.2-0.1-0.4,0-0.6L12.4,2c0-0.2,0-0.5-0.2-0.6C12.1,1.2,11.9,1,11.7,1L10,0.8
				c-0.2,0-0.4,0-0.6,0.2C9.3,1.2,9.2,1.4,9.1,1.6L8.7,7c-0.1,0.7,0,1.4,0.1,1.9c0.1,0.6,0.4,1.1,0.7,1.6c0.3,0.5,0.7,0.8,1.2,1.1
				c0.5,0.3,1,0.5,1.6,0.5c0.6,0.1,1.2,0,1.7-0.1c0.5-0.2,1-0.4,1.4-0.8c0.4-0.4,0.7-0.8,1-1.4c0.2-0.6,0.4-1.2,0.5-1.9l0.5-5.4
				C17.4,2.3,17.3,2.1,17.2,1.9z"/>
			<path class="st1" d="M22.5,12.2c-0.5,0-0.9-0.1-1.4-0.2c-0.6-0.2-1.2-0.6-1.8-1c-0.5-0.5-1-1-1.3-1.7c-0.3-0.7-0.6-1.4-0.6-2.2
				c-0.1-0.8,0-1.6,0.1-2.3c0.2-0.7,0.5-1.4,0.9-2c0.4-0.6,0.9-1.1,1.5-1.5c0.6-0.4,1.2-0.7,2-0.8c0.3,0,0.6-0.1,0.8-0.1
				c0.3,0,0.5,0,0.8,0.1c0.5,0.1,0.9,0.2,1.4,0.5c0.4,0.2,0.8,0.5,1.1,0.9c0.3,0.3,0.6,0.7,0.9,1.1c0.2,0.3,0.2,0.6,0.2,0.9
				c-0.1,0.3-0.2,0.6-0.4,0.7c0,0,0,0-1.6,1c-0.1,0.1-0.2,0.1-0.4,0.1c0,0-0.1,0-0.1,0c-0.1,0-0.2,0-0.3,0c-0.2-0.1-0.4-0.2-0.6-0.4
				c-0.2-0.3-0.4-0.5-0.6-0.6c-0.1-0.1-0.3-0.1-0.5-0.1c-0.1,0-0.2,0-0.3,0c-0.2,0-0.3,0.1-0.5,0.2c-0.2,0.1-0.3,0.3-0.4,0.5
				c-0.1,0.2-0.2,0.4-0.2,0.6c-0.1,0.2-0.1,0.5,0,0.7c0,0.2,0.1,0.4,0.2,0.6c0.1,0.2,0.2,0.4,0.4,0.5C21.9,7.8,22,7.9,22.2,8
				c0.1,0,0.2,0.1,0.3,0.1c0.1,0,0.1,0,0.2,0c0.3,0,0.5-0.2,0.7-0.3c0.2-0.2,0.4-0.4,0.5-0.7c0.1-0.2,0.2-0.4,0.4-0.6
				c0.1-0.1,0.3-0.1,0.4-0.2c0,0,0.1,0,0.1,0c0.1,0,0.2,0,0.3,0c1.7,0.5,1.7,0.5,1.7,0.5c0.3,0.1,0.5,0.3,0.6,0.6
				c0.1,0.3,0.1,0.6,0,0.9c0,0,0,0,0,0c-0.2,0.5-0.4,0.9-0.7,1.4c-0.3,0.4-0.6,0.8-0.9,1.2c-0.4,0.3-0.8,0.6-1.2,0.8
				c-0.5,0.2-1,0.4-1.5,0.5C22.9,12.2,22.7,12.2,22.5,12.2C22.5,12.2,22.5,12.2,22.5,12.2z"/>
			<path class="st1" d="M26.5,7.3c0,0-1.7-0.5-1.7-0.5c-0.1,0-0.2,0-0.3,0c-0.1,0-0.2,0.1-0.3,0.1C24.1,7,24,7.2,23.9,7.4
				c-0.1,0.3-0.3,0.6-0.6,0.8c-0.2,0.2-0.5,0.4-0.9,0.4c-0.2,0-0.4,0-0.6-0.1c-0.2-0.1-0.4-0.2-0.6-0.4C21.1,8,21,7.8,20.9,7.6
				c-0.1-0.2-0.2-0.5-0.2-0.7c0-0.3,0-0.5,0-0.8c0.1-0.3,0.1-0.5,0.3-0.7c0.1-0.2,0.3-0.4,0.5-0.5c0.2-0.1,0.4-0.2,0.6-0.2
				c0.4-0.1,0.7,0,0.9,0.1c0.3,0.1,0.5,0.4,0.7,0.7c0.1,0.2,0.3,0.3,0.4,0.3c0.1,0,0.2,0,0.3,0c0.1,0,0.2-0.1,0.3-0.1
				c0,0,1.5-1,1.6-1c0.2-0.1,0.3-0.3,0.3-0.6c0-0.2,0-0.5-0.1-0.7c-0.3-0.4-0.6-0.8-0.9-1.1c-0.3-0.3-0.7-0.6-1.1-0.8
				c-0.4-0.2-0.8-0.4-1.3-0.4c-0.5-0.1-1-0.1-1.5,0c-0.7,0.1-1.3,0.3-1.8,0.7c-0.5,0.4-1,0.9-1.4,1.4c-0.4,0.6-0.7,1.2-0.8,1.9
				c-0.2,0.7-0.2,1.5-0.1,2.2c0.1,0.8,0.3,1.5,0.6,2.1c0.3,0.6,0.7,1.2,1.2,1.6c0.5,0.4,1.1,0.8,1.7,1c0.6,0.2,1.3,0.3,1.9,0.2
				c0.5-0.1,1-0.2,1.4-0.4c0.4-0.2,0.8-0.5,1.2-0.8c0.3-0.3,0.6-0.7,0.9-1.1C26.6,9.4,26.8,9,27,8.5c0,0,0,0,0,0
				c0.1-0.2,0.1-0.5,0-0.7C26.9,7.6,26.7,7.4,26.5,7.3z"/>
			<path class="st1" d="M28.6,12.5c-0.2,0-0.5-0.1-0.7-0.3c-0.2-0.2-0.3-0.4-0.3-0.7l-0.9-9.1c0-0.3,0-0.6,0.2-0.8
				c0.2-0.3,0.4-0.4,0.7-0.5l1.7-0.2c0,0,0.1,0,0.1,0c0.2,0,0.5,0.1,0.6,0.3c0.2,0.2,0.3,0.5,0.4,0.8l0.1,0.8l0.7-1.5
				c0.1-0.2,0.2-0.3,0.4-0.5c0.2-0.1,0.4-0.2,0.6-0.2l2.2-0.3c0,0,0.1,0,0.1,0c0.4,0,0.7,0.2,0.8,0.6c0.1,0.3,0.1,0.7,0,1l-2.4,4.5
				c0.2,0.2,0.4,0.4,0.7,0.7c0.3,0.3,0.7,0.6,1,1l1,0.9c0.3,0.3,0.6,0.6,0.9,0.9l0,0c0.2,0.2,0.3,0.5,0.3,0.9c0,0.5-0.3,0.8-0.8,0.9
				l-2.4,0.3c-0.1,0-0.1,0-0.2,0c-0.1,0-0.3,0-0.4-0.1c-0.2-0.1-0.4-0.2-0.5-0.3l-1.2-1.3l0.1,0.8c0,0.3,0,0.6-0.2,0.8
				c-0.2,0.2-0.4,0.4-0.7,0.4l-1.7,0.2C28.7,12.5,28.6,12.5,28.6,12.5z"/>
			<path class="st1" d="M35.9,10.1c-0.3-0.3-0.6-0.6-0.9-0.9l-0.9-0.9c-0.3-0.3-0.6-0.6-1-1c-0.3-0.3-0.6-0.5-0.8-0.8l2.5-4.6
				c0.1-0.2,0.1-0.5,0-0.7c-0.1-0.3-0.4-0.5-0.7-0.4L32,1.1c-0.2,0-0.3,0.1-0.4,0.2c-0.1,0.1-0.3,0.2-0.3,0.4L30,3.9l-0.2-1.7
				c0-0.2-0.1-0.4-0.3-0.6c-0.2-0.1-0.4-0.2-0.6-0.2l-1.7,0.2c-0.2,0-0.4,0.2-0.5,0.3c-0.1,0.2-0.2,0.4-0.1,0.6l0.9,9.1
				c0,0.2,0.1,0.4,0.3,0.6c0.2,0.2,0.4,0.2,0.6,0.2l1.7-0.2c0.2,0,0.4-0.1,0.5-0.3c0.1-0.2,0.2-0.4,0.2-0.6l-0.2-1.6l1.8,1.8
				c0.1,0.1,0.2,0.2,0.4,0.3c0.2,0.1,0.3,0.1,0.5,0.1l2.4-0.3c0.3,0,0.5-0.3,0.6-0.7C36.2,10.6,36.1,10.3,35.9,10.1
				C35.9,10.2,35.9,10.1,35.9,10.1z"/>
			<path class="st1" d="M39.7,12.1c-0.2,0-0.5-0.1-0.7-0.3c-0.2-0.2-0.3-0.5-0.3-0.8l-0.2-3c0,0,0,0,0-0.1c0,0,0-0.1,0-0.1
				c-0.5-0.9-1.1-1.7-1.6-2.5c-0.5-0.8-1.1-1.7-1.6-2.6C35,2.5,35,2.2,35,1.9c0.1-0.4,0.4-0.7,0.8-0.8l2-0.2c0,0,0.1,0,0.1,0
				c0.2,0,0.4,0,0.5,0.1c0.2,0.1,0.4,0.3,0.5,0.5l1,1.7l0.7-1.9c0.1-0.2,0.2-0.4,0.4-0.6c0.2-0.1,0.4-0.2,0.6-0.3l2.1-0.2
				c0,0,0.1,0,0.1,0c0.3,0,0.6,0.1,0.7,0.4c0.1,0.2,0.3,0.6,0.1,1.1c0,0,0,0-2.4,5.7c0,0,0,0.1,0,0.1c0,0.1,0,0.1,0,0.1l0.2,3
				c0,0.3-0.1,0.6-0.2,0.8c-0.2,0.2-0.4,0.4-0.7,0.4L39.7,12.1C39.8,12.1,39.7,12.1,39.7,12.1L39.7,12.1z"/>
			<path class="st1" d="M41.7,7.6c0,0,2.4-5.7,2.4-5.7c0.2-0.4,0-0.7,0-0.9c-0.1-0.2-0.4-0.3-0.6-0.3L41.5,1c-0.2,0-0.3,0.1-0.5,0.2
				c-0.1,0.1-0.3,0.3-0.3,0.4L39.8,4l-1.3-2.2c-0.1-0.2-0.2-0.3-0.4-0.4c-0.2-0.1-0.3-0.1-0.5-0.1l-2,0.2c-0.3,0-0.5,0.2-0.6,0.6
				c0,0.2,0,0.5,0.1,0.7c0.5,0.9,1.1,1.8,1.6,2.6c0.5,0.8,1.1,1.7,1.6,2.5c0,0,0,0,0.1,0.1c0,0.1,0,0.2,0,0.2l0.2,3
				c0,0.2,0.1,0.4,0.3,0.6c0.2,0.2,0.3,0.2,0.6,0.2l1.7-0.2c0.2,0,0.4-0.1,0.5-0.3c0.1-0.2,0.2-0.4,0.2-0.6l-0.2-3c0,0,0-0.1,0-0.1
				C41.7,7.7,41.7,7.6,41.7,7.6z"/>
		</g>
		<g>
			<path class="st2" d="M2.6,12.2c-0.2,0-0.5-0.1-0.6-0.3c-0.2-0.2-0.3-0.4-0.4-0.7l-1.2-9c0-0.3,0-0.6,0.2-0.8C0.8,1.2,1,1,1.3,1
				L3,0.7c0.1,0,0.1,0,0.2,0c0.2,0,0.4,0.1,0.6,0.2C4,1.1,4.1,1.3,4.2,1.6L5,7.7l2.9-0.5c0.1,0,0.1,0,0.2,0c0.2,0,0.4,0.1,0.6,0.2
				C8.9,7.6,9,7.9,9.1,8.2L9.3,10c0,0.3,0,0.6-0.2,0.8c-0.2,0.3-0.4,0.4-0.7,0.5l-5.7,1C2.7,12.2,2.7,12.2,2.6,12.2z"/>
			<path class="st2" d="M8.8,8.2c0-0.2-0.1-0.4-0.3-0.6C8.3,7.5,8.1,7.4,7.9,7.5L4.7,8L3.9,1.7c0-0.2-0.1-0.4-0.3-0.6
				C3.5,0.9,3.3,0.9,3.1,0.9L1.4,1.2C1.2,1.2,1,1.4,0.9,1.6C0.7,1.8,0.7,2,0.7,2.2l1.2,9c0,0.2,0.1,0.4,0.3,0.6
				C2.3,11.9,2.5,12,2.7,12l5.7-1c0.2,0,0.4-0.2,0.5-0.3C9,10.5,9.1,10.2,9,10L8.8,8.2z"/>
			<path class="st2" d="M13.4,12c-0.2,0-0.4,0-0.6,0c-0.6-0.1-1.2-0.3-1.7-0.6c-0.5-0.3-1-0.7-1.3-1.2C9.5,9.7,9.2,9.1,9.1,8.5
				c-0.2-0.6-0.2-1.3-0.1-2l0.5-5.4c0-0.3,0.1-0.6,0.3-0.8c0.2-0.2,0.4-0.3,0.6-0.3c0,0,0.1,0,0.1,0l1.7,0.2c0.3,0,0.5,0.2,0.7,0.4
				c0.2,0.2,0.2,0.5,0.2,0.8l-0.5,5.4c0,0.3,0,0.4,0,0.5c0,0.2,0.1,0.2,0.1,0.3C12.9,7.7,13,7.8,13,7.8c0.1,0.1,0.2,0.1,0.2,0.1
				c0,0,0,0,0,0c0.1,0,0.1,0,0.2,0c0.1,0,0.1,0,0.2-0.1c0,0,0.1-0.1,0.2-0.2c0-0.1,0.1-0.2,0.1-0.5l0.5-5.4c0-0.3,0.1-0.6,0.4-0.8
				c0.2-0.2,0.4-0.3,0.6-0.3c0,0,0.1,0,0.1,0l1.7,0.2c0.3,0,0.5,0.2,0.7,0.4c0.2,0.2,0.2,0.5,0.2,0.8l-0.5,5.4
				c-0.1,0.7-0.2,1.4-0.5,2c-0.3,0.6-0.6,1.1-1,1.5c-0.4,0.4-0.9,0.7-1.5,0.9C14.3,11.9,13.9,12,13.4,12L13.4,12z"/>
			<path class="st2" d="M17.7,1.4c-0.1-0.2-0.3-0.3-0.5-0.3l-1.7-0.2c-0.2,0-0.4,0-0.6,0.2c-0.2,0.2-0.3,0.4-0.3,0.6l-0.5,5.4
				c0,0.3-0.1,0.5-0.1,0.6C14,7.8,13.9,7.9,13.8,8c-0.1,0.1-0.2,0.1-0.3,0.1c-0.1,0-0.2,0-0.3,0c-0.1,0-0.2,0-0.3-0.1
				c-0.1,0-0.2-0.1-0.3-0.2c-0.1-0.1-0.1-0.2-0.2-0.4c0-0.2-0.1-0.4,0-0.6l0.5-5.4c0-0.2,0-0.5-0.2-0.6c-0.1-0.2-0.3-0.3-0.5-0.3
				l-1.7-0.2c-0.2,0-0.4,0-0.6,0.2C9.8,0.7,9.7,0.9,9.7,1.1L9.2,6.5c-0.1,0.7,0,1.4,0.1,1.9C9.5,9,9.7,9.6,10.1,10
				c0.3,0.5,0.7,0.8,1.2,1.1c0.5,0.3,1,0.5,1.6,0.5c0.6,0.1,1.2,0,1.7-0.1c0.5-0.2,1-0.4,1.4-0.8c0.4-0.4,0.7-0.8,1-1.4
				c0.2-0.6,0.4-1.2,0.5-1.9l0.5-5.4C17.9,1.8,17.9,1.6,17.7,1.4z"/>
			<path class="st2" d="M22.7,12c-0.5,0-0.9-0.1-1.4-0.2c-0.6-0.2-1.2-0.6-1.8-1c-0.5-0.5-1-1-1.3-1.7c-0.3-0.7-0.6-1.4-0.6-2.2
				c-0.1-0.8,0-1.6,0.1-2.3c0.2-0.7,0.5-1.4,0.9-2c0.4-0.6,0.9-1.1,1.5-1.5c0.6-0.4,1.2-0.7,2-0.8c0.3,0,0.6-0.1,0.8-0.1
				c0.3,0,0.5,0,0.8,0.1c0.5,0.1,0.9,0.2,1.4,0.5c0.4,0.2,0.8,0.5,1.1,0.9c0.3,0.3,0.6,0.7,0.9,1.1c0.2,0.3,0.2,0.6,0.2,0.9
				c-0.1,0.3-0.2,0.6-0.4,0.7c0,0,0,0-1.6,1c-0.1,0.1-0.2,0.1-0.4,0.1c0,0-0.1,0-0.1,0c-0.1,0-0.2,0-0.3,0C24.3,5.4,24.1,5.2,24,5
				c-0.2-0.3-0.4-0.5-0.6-0.6c-0.1-0.1-0.3-0.1-0.5-0.1c-0.1,0-0.2,0-0.3,0c-0.2,0-0.3,0.1-0.5,0.2C22,4.7,21.8,4.8,21.7,5
				c-0.1,0.2-0.2,0.4-0.2,0.6c-0.1,0.2-0.1,0.5,0,0.7c0,0.2,0.1,0.4,0.2,0.6c0.1,0.2,0.2,0.4,0.4,0.5c0.1,0.1,0.3,0.2,0.5,0.3
				c0.1,0,0.2,0.1,0.3,0.1c0.1,0,0.1,0,0.2,0c0.3,0,0.5-0.2,0.7-0.3c0.2-0.2,0.4-0.4,0.5-0.7c0.1-0.2,0.2-0.4,0.4-0.6
				c0.1-0.1,0.3-0.1,0.4-0.2c0,0,0.1,0,0.1,0c0.1,0,0.2,0,0.3,0c1.7,0.5,1.7,0.5,1.7,0.5c0.3,0.1,0.5,0.3,0.6,0.6
				c0.1,0.3,0.1,0.6,0,0.9c0,0,0,0,0,0c-0.2,0.5-0.4,0.9-0.7,1.4c-0.3,0.4-0.6,0.8-0.9,1.2c-0.4,0.3-0.8,0.6-1.2,0.8
				c-0.5,0.2-1,0.4-1.5,0.5C23.2,11.9,23,12,22.7,12C22.7,12,22.7,12,22.7,12z"/>
			<path class="st2" d="M27.1,6.8c0,0-1.7-0.5-1.7-0.5c-0.1,0-0.2,0-0.3,0c-0.1,0-0.2,0.1-0.3,0.1c-0.2,0.1-0.3,0.3-0.3,0.4
				c-0.1,0.3-0.3,0.6-0.6,0.8C23.6,7.9,23.3,8,23,8.1c-0.2,0-0.4,0-0.6-0.1c-0.2-0.1-0.4-0.2-0.6-0.4c-0.2-0.2-0.3-0.4-0.4-0.6
				c-0.1-0.2-0.2-0.5-0.2-0.7c0-0.3,0-0.5,0-0.8c0.1-0.3,0.1-0.5,0.3-0.7c0.1-0.2,0.3-0.4,0.5-0.5c0.2-0.1,0.4-0.2,0.6-0.2
				c0.4-0.1,0.7,0,0.9,0.1c0.3,0.1,0.5,0.4,0.7,0.7c0.1,0.2,0.3,0.3,0.4,0.3c0.1,0,0.2,0,0.3,0c0.1,0,0.2-0.1,0.3-0.1
				c0,0,1.5-1,1.6-1c0.2-0.1,0.3-0.3,0.3-0.6c0-0.2,0-0.5-0.1-0.7c-0.3-0.4-0.6-0.8-0.9-1.1C25.7,1.5,25.4,1.2,25,1
				c-0.4-0.2-0.8-0.4-1.3-0.4c-0.5-0.1-1-0.1-1.5,0c-0.7,0.1-1.3,0.3-1.8,0.7c-0.5,0.4-1,0.9-1.4,1.4c-0.4,0.6-0.7,1.2-0.8,1.9
				c-0.2,0.7-0.2,1.5-0.1,2.2c0.1,0.8,0.3,1.5,0.6,2.1c0.3,0.6,0.7,1.2,1.2,1.6c0.5,0.4,1.1,0.8,1.7,1c0.6,0.2,1.3,0.3,1.9,0.2
				c0.5-0.1,1-0.2,1.4-0.4c0.4-0.2,0.8-0.5,1.2-0.8c0.3-0.3,0.6-0.7,0.9-1.1c0.2-0.4,0.5-0.8,0.6-1.3c0,0,0,0,0,0
				c0.1-0.2,0.1-0.5,0-0.7C27.4,7.1,27.3,6.9,27.1,6.8z"/>
			<path class="st2" d="M28.8,12.2c-0.2,0-0.5-0.1-0.7-0.3c-0.2-0.2-0.3-0.4-0.3-0.7l-0.9-9.1c0-0.3,0-0.6,0.2-0.8
				c0.2-0.3,0.4-0.4,0.7-0.5l1.7-0.2c0,0,0.1,0,0.1,0c0.2,0,0.5,0.1,0.6,0.3c0.2,0.2,0.3,0.5,0.4,0.8l0.1,0.8L31.5,1
				c0.1-0.2,0.2-0.3,0.4-0.5c0.2-0.1,0.4-0.2,0.6-0.2L34.6,0c0,0,0.1,0,0.1,0c0.4,0,0.7,0.2,0.8,0.6c0.1,0.3,0.1,0.7,0,1L33.1,6
				c0.2,0.2,0.4,0.4,0.7,0.7c0.3,0.3,0.7,0.6,1,1l1,0.9c0.3,0.3,0.6,0.6,0.9,0.9l0,0c0.2,0.2,0.3,0.5,0.3,0.9c0,0.5-0.3,0.8-0.8,0.9
				l-2.4,0.3c-0.1,0-0.1,0-0.2,0c-0.1,0-0.3,0-0.4-0.1c-0.2-0.1-0.4-0.2-0.5-0.3l-1.2-1.3l0.1,0.8c0,0.3,0,0.6-0.2,0.8
				c-0.2,0.2-0.4,0.4-0.7,0.4L29,12.2C28.9,12.2,28.9,12.2,28.8,12.2z"/>
			<path class="st2" d="M36.4,9.6c-0.3-0.3-0.6-0.6-0.9-0.9l-0.9-0.9c-0.3-0.3-0.6-0.6-1-1c-0.3-0.3-0.6-0.5-0.8-0.8l2.5-4.6
				c0.1-0.2,0.1-0.5,0-0.7c-0.1-0.3-0.4-0.5-0.7-0.4l-2.2,0.3c-0.2,0-0.3,0.1-0.4,0.2c-0.1,0.1-0.3,0.2-0.3,0.4l-1.1,2.3l-0.2-1.7
				c0-0.2-0.1-0.4-0.3-0.6C29.9,1,29.7,0.9,29.5,1l-1.7,0.2c-0.2,0-0.4,0.2-0.5,0.3c-0.1,0.2-0.2,0.4-0.1,0.6l0.9,9.1
				c0,0.2,0.1,0.4,0.3,0.6c0.2,0.2,0.4,0.2,0.6,0.2l1.7-0.2c0.2,0,0.4-0.1,0.5-0.3c0.1-0.2,0.2-0.4,0.2-0.6l-0.2-1.6l1.8,1.8
				c0.1,0.1,0.2,0.2,0.4,0.3c0.2,0.1,0.3,0.1,0.5,0.1l2.4-0.3c0.3,0,0.5-0.3,0.6-0.7C36.7,10.1,36.6,9.8,36.4,9.6
				C36.4,9.6,36.4,9.6,36.4,9.6z"/>
			<path class="st2" d="M40,11.9c-0.2,0-0.5-0.1-0.7-0.3c-0.2-0.2-0.3-0.5-0.3-0.8l-0.2-3c0,0,0,0,0-0.1c0,0,0-0.1,0-0.1
				c-0.5-0.9-1.1-1.7-1.6-2.5c-0.5-0.8-1.1-1.7-1.6-2.6c-0.2-0.3-0.2-0.6-0.2-0.9c0.1-0.4,0.4-0.7,0.8-0.8l2-0.2c0,0,0.1,0,0.1,0
				c0.2,0,0.4,0,0.5,0.1c0.2,0.1,0.4,0.3,0.5,0.5l1,1.7L41,1c0.1-0.2,0.2-0.4,0.4-0.6c0.2-0.1,0.4-0.2,0.6-0.3L44,0c0,0,0.1,0,0.1,0
				c0.3,0,0.6,0.1,0.7,0.4C45,0.6,45.1,1,44.9,1.5c0,0,0,0-2.4,5.7c0,0,0,0.1,0,0.1c0,0.1,0,0.1,0,0.1l0.2,3c0,0.3-0.1,0.6-0.2,0.8
				c-0.2,0.2-0.4,0.4-0.7,0.4L40,11.9C40,11.9,40,11.9,40,11.9L40,11.9z"/>
			<path class="st2" d="M42.2,7.1c0,0,2.4-5.7,2.4-5.7c0.2-0.4,0-0.7,0-0.9c-0.1-0.2-0.4-0.3-0.6-0.3L42,0.5c-0.2,0-0.3,0.1-0.5,0.2
				c-0.1,0.1-0.3,0.3-0.3,0.4l-0.9,2.4L39,1.4c-0.1-0.2-0.2-0.3-0.4-0.4c-0.2-0.1-0.3-0.1-0.5-0.1l-2,0.2c-0.3,0-0.5,0.2-0.6,0.6
				c0,0.2,0,0.5,0.1,0.7c0.5,0.9,1.1,1.8,1.6,2.6c0.5,0.8,1.1,1.7,1.6,2.5c0,0,0,0,0.1,0.1c0,0.1,0,0.2,0,0.2l0.2,3
				c0,0.2,0.1,0.4,0.3,0.6c0.2,0.2,0.3,0.2,0.6,0.2l1.7-0.2c0.2,0,0.4-0.1,0.5-0.3c0.1-0.2,0.2-0.4,0.2-0.6l-0.2-3c0,0,0-0.1,0-0.1
				C42.2,7.2,42.2,7.1,42.2,7.1z"/>
		</g>
		<g>
			<linearGradient id="SVGID_1_" gradientUnits="userSpaceOnUse" x1="4.8801" y1="0.6473" x2="4.8801" y2="11.7149">
				<stop  offset="0" style="stop-color:#AE8625"/>
				<stop  offset="0.5335" style="stop-color:#D2AC47"/>
				<stop  offset="0.9078" style="stop-color:#F7EF8A"/>
			</linearGradient>
			<path class="st3" d="M8.8,7.9c0-0.2-0.1-0.4-0.3-0.6C8.3,7.2,8.1,7.2,7.9,7.2L4.7,7.8L3.9,1.4c0-0.2-0.1-0.4-0.3-0.6
				C3.5,0.7,3.3,0.6,3.1,0.7L1.4,1C1.2,1,1,1.1,0.9,1.3C0.7,1.5,0.7,1.7,0.7,1.9l1.2,9c0,0.2,0.1,0.4,0.3,0.6
				c0.2,0.1,0.4,0.2,0.6,0.2l5.7-1c0.2,0,0.4-0.2,0.5-0.3C9,10.2,9.1,10,9,9.7L8.8,7.9z"/>
			<linearGradient id="SVGID_2_" gradientUnits="userSpaceOnUse" x1="13.5351" y1="5.027516e-02" x2="13.5351" y2="11.4395">
				<stop  offset="0" style="stop-color:#AE8625"/>
				<stop  offset="0.5335" style="stop-color:#D2AC47"/>
				<stop  offset="0.9078" style="stop-color:#F7EF8A"/>
			</linearGradient>
			<path class="st4" d="M17.7,1.1c-0.1-0.2-0.3-0.3-0.5-0.3l-1.7-0.2c-0.2,0-0.4,0-0.6,0.2c-0.2,0.2-0.3,0.4-0.3,0.6l-0.5,5.4
				c0,0.3-0.1,0.5-0.1,0.6c-0.1,0.1-0.2,0.3-0.3,0.3c-0.1,0.1-0.2,0.1-0.3,0.1c-0.1,0-0.2,0-0.3,0s-0.2,0-0.3-0.1
				c-0.1,0-0.2-0.1-0.3-0.2c-0.1-0.1-0.1-0.2-0.2-0.4c0-0.2-0.1-0.4,0-0.6l0.5-5.4c0-0.2,0-0.5-0.2-0.6c-0.1-0.2-0.3-0.3-0.5-0.3
				l-1.7-0.2c-0.2,0-0.4,0-0.6,0.2C9.8,0.4,9.7,0.6,9.7,0.8L9.2,6.2c-0.1,0.7,0,1.4,0.1,1.9c0.1,0.6,0.4,1.1,0.7,1.6
				c0.3,0.5,0.7,0.8,1.2,1.1c0.5,0.3,1,0.5,1.6,0.5c0.6,0.1,1.2,0,1.7-0.1c0.5-0.2,1-0.4,1.4-0.8c0.4-0.4,0.7-0.8,1-1.4
				c0.2-0.6,0.4-1.2,0.5-1.9l0.5-5.4C17.9,1.6,17.9,1.3,17.7,1.1z"/>
			<linearGradient id="SVGID_3_" gradientUnits="userSpaceOnUse" x1="22.7319" y1="0.2195" x2="22.7319" y2="11.4295">
				<stop  offset="0" style="stop-color:#AE8625"/>
				<stop  offset="0.5335" style="stop-color:#D2AC47"/>
				<stop  offset="0.9078" style="stop-color:#F7EF8A"/>
			</linearGradient>
			<path class="st5" d="M27.1,6.6c0,0-1.7-0.5-1.7-0.5c-0.1,0-0.2,0-0.3,0c-0.1,0-0.2,0.1-0.3,0.1c-0.2,0.1-0.3,0.3-0.3,0.4
				c-0.1,0.3-0.3,0.6-0.6,0.8c-0.2,0.2-0.5,0.4-0.9,0.4c-0.2,0-0.4,0-0.6-0.1c-0.2-0.1-0.4-0.2-0.6-0.4c-0.2-0.2-0.3-0.4-0.4-0.6
				c-0.1-0.2-0.2-0.5-0.2-0.7c0-0.3,0-0.5,0-0.8c0.1-0.3,0.1-0.5,0.3-0.7c0.1-0.2,0.3-0.4,0.5-0.5c0.2-0.1,0.4-0.2,0.6-0.2
				c0.4-0.1,0.7,0,0.9,0.1c0.3,0.1,0.5,0.4,0.7,0.7c0.1,0.2,0.3,0.3,0.4,0.3c0.1,0,0.2,0,0.3,0c0.1,0,0.2-0.1,0.3-0.1
				c0,0,1.5-1,1.6-1c0.2-0.1,0.3-0.3,0.3-0.6c0-0.2,0-0.5-0.1-0.7c-0.3-0.4-0.6-0.8-0.9-1.1c-0.3-0.3-0.7-0.6-1.1-0.8
				c-0.4-0.2-0.8-0.4-1.3-0.4c-0.5-0.1-1-0.1-1.5,0c-0.7,0.1-1.3,0.3-1.8,0.7c-0.5,0.4-1,0.9-1.4,1.4c-0.4,0.6-0.7,1.2-0.8,1.9
				c-0.2,0.7-0.2,1.5-0.1,2.2C18,7.3,18.2,8,18.5,8.7c0.3,0.6,0.7,1.2,1.2,1.6c0.5,0.4,1.1,0.8,1.7,1c0.6,0.2,1.3,0.3,1.9,0.2
				c0.5-0.1,1-0.2,1.4-0.4c0.4-0.2,0.8-0.5,1.2-0.8c0.3-0.3,0.6-0.7,0.9-1.1c0.2-0.4,0.5-0.8,0.6-1.3c0,0,0,0,0,0
				c0.1-0.2,0.1-0.5,0-0.7C27.4,6.8,27.3,6.6,27.1,6.6z"/>
			<linearGradient id="SVGID_4_" gradientUnits="userSpaceOnUse" x1="31.912" y1="9.094947e-13" x2="31.912" y2="11.7273">
				<stop  offset="0" style="stop-color:#AE8625"/>
				<stop  offset="0.5335" style="stop-color:#D2AC47"/>
				<stop  offset="0.9078" style="stop-color:#F7EF8A"/>
			</linearGradient>
			<path class="st6" d="M36.4,9.4c-0.3-0.3-0.6-0.6-0.9-0.9l-0.9-0.9c-0.3-0.3-0.6-0.6-1-1c-0.3-0.3-0.6-0.5-0.8-0.8l2.5-4.6
				c0.1-0.2,0.1-0.5,0-0.7C35.2,0.1,34.9,0,34.6,0l-2.2,0.3c-0.2,0-0.3,0.1-0.4,0.2c-0.1,0.1-0.3,0.2-0.3,0.4l-1.1,2.3l-0.2-1.7
				c0-0.2-0.1-0.4-0.3-0.6c-0.2-0.1-0.4-0.2-0.6-0.2l-1.7,0.2c-0.2,0-0.4,0.2-0.5,0.3c-0.1,0.2-0.2,0.4-0.1,0.6l0.9,9.1
				c0,0.2,0.1,0.4,0.3,0.6c0.2,0.2,0.4,0.2,0.6,0.2l1.7-0.2c0.2,0,0.4-0.1,0.5-0.3c0.1-0.2,0.2-0.4,0.2-0.6l-0.2-1.6l1.8,1.8
				c0.1,0.1,0.2,0.2,0.4,0.3c0.2,0.1,0.3,0.1,0.5,0.1l2.4-0.3c0.3,0,0.5-0.3,0.6-0.7C36.7,9.8,36.6,9.6,36.4,9.4
				C36.4,9.4,36.4,9.4,36.4,9.4z"/>
			<linearGradient id="SVGID_5_" gradientUnits="userSpaceOnUse" x1="40.1437" y1="2.187730e-02" x2="40.1437" y2="11.3498">
				<stop  offset="0" style="stop-color:#AE8625"/>
				<stop  offset="0.5335" style="stop-color:#D2AC47"/>
				<stop  offset="0.9078" style="stop-color:#F7EF8A"/>
			</linearGradient>
			<path class="st7" d="M42.2,6.8c0,0,2.4-5.7,2.4-5.7c0.2-0.4,0-0.7,0-0.9C44.5,0.1,44.3,0,44.1,0L42,0.2c-0.2,0-0.3,0.1-0.5,0.2
				c-0.1,0.1-0.3,0.3-0.3,0.4l-0.9,2.4L39,1.1c-0.1-0.2-0.2-0.3-0.4-0.4c-0.2-0.1-0.3-0.1-0.5-0.1l-2,0.2c-0.3,0-0.5,0.2-0.6,0.6
				c0,0.2,0,0.5,0.1,0.7c0.5,0.9,1.1,1.8,1.6,2.6c0.5,0.8,1.1,1.7,1.6,2.5c0,0,0,0,0.1,0.1c0,0.1,0,0.2,0,0.2l0.2,3
				c0,0.2,0.1,0.4,0.3,0.6c0.2,0.2,0.3,0.2,0.6,0.2l1.7-0.2c0.2,0,0.4-0.1,0.5-0.3c0.1-0.2,0.2-0.4,0.2-0.6l-0.2-3c0,0,0-0.1,0-0.1
				C42.2,6.9,42.2,6.9,42.2,6.8z"/>
		</g>
	</g>
	<g>
		<g>
			<path class="st0" d="M5.1,25c-0.2,0-0.3,0-0.4-0.1c-0.2-0.1-0.3-0.3-0.3-0.5L2.6,13.2c0-0.2,0-0.4,0.1-0.5
				c0.1-0.2,0.3-0.3,0.5-0.3l3-0.5c1-0.2,2-0.3,3-0.5c0,0,0.1,0,0.1,0c0.4,0,0.7,0.3,0.7,0.6l0.5,2.9c0,0.2,0,0.4-0.1,0.5
				c-0.1,0.2-0.3,0.3-0.5,0.3l-2.5,0.4l0.1,0.3l1.6-0.2c0,0,0.1,0,0.1,0c0.4,0,0.7,0.3,0.7,0.6l0.4,2.9c0,0.2,0,0.4-0.1,0.5
				c-0.1,0.2-0.3,0.3-0.5,0.3l-1.5,0.2l0.5,3c0.1,0.4-0.2,0.8-0.6,0.8L5.2,25C5.2,25,5.2,25,5.1,25z"/>
			<path class="st0" d="M5.1,24.7c-0.1,0-0.2,0-0.2-0.1c-0.1-0.1-0.2-0.2-0.2-0.3L2.9,13.1c0-0.1,0-0.2,0.1-0.3
				c0.1-0.1,0.2-0.2,0.3-0.2l3-0.5c1-0.2,2-0.3,3-0.5c0,0,0.1,0,0.1,0c0.2,0,0.4,0.1,0.4,0.3l0.5,2.9c0,0.1,0,0.2-0.1,0.3
				c-0.1,0.1-0.2,0.2-0.3,0.2l-2.8,0.5l0.1,0.9l1.9-0.3c0,0,0,0,0.1,0c0.2,0,0.4,0.2,0.4,0.4l0.4,2.9c0,0.1,0,0.2-0.1,0.3
				c-0.1,0.1-0.2,0.2-0.3,0.2l-1.8,0.3l0.5,3.3c0,0.2-0.1,0.5-0.4,0.5L5.1,24.7C5.2,24.7,5.1,24.7,5.1,24.7z"/>
			<path class="st0" d="M4.9,24.8c-0.1,0-0.2,0-0.3-0.1c-0.1-0.1-0.2-0.2-0.2-0.3L2.6,13.2c0-0.3,0.1-0.5,0.4-0.6l3-0.5
				c1-0.2,2-0.3,3-0.5c0,0,0.1,0,0.1,0c0.2,0,0.4,0.2,0.5,0.4l0.5,2.9c0,0.1,0,0.3-0.1,0.4c-0.1,0.1-0.2,0.2-0.3,0.2l-2.8,0.5
				l0.1,0.8l1.8-0.3c0,0,0,0,0.1,0c0.2,0,0.4,0.2,0.5,0.4l0.4,2.9c0,0.1,0,0.3-0.1,0.4c-0.1,0.1-0.2,0.2-0.3,0.2l-1.8,0.3l0.5,3.2
				c0,0.3-0.1,0.5-0.4,0.6L4.9,24.8C4.9,24.8,4.9,24.8,4.9,24.8z"/>
			<path class="st0" d="M4.9,24.5c0,0-0.1,0-0.1,0c0,0-0.1-0.1-0.1-0.1L2.9,13.1c0-0.1,0.1-0.2,0.2-0.2l3-0.5c1-0.2,2-0.3,3-0.5
				c0,0,0,0,0,0c0.1,0,0.2,0.1,0.2,0.1l0.5,2.9c0,0,0,0.1,0,0.1c0,0-0.1,0.1-0.1,0.1l-3.1,0.5l0.2,1.4l2.1-0.3c0,0,0,0,0,0
				c0.1,0,0.2,0.1,0.2,0.2l0.4,2.9c0,0,0,0.1,0,0.1c0,0-0.1,0.1-0.1,0.1l-2.1,0.3l0.6,3.5c0,0.1-0.1,0.2-0.2,0.2L4.9,24.5
				C4.9,24.5,4.9,24.5,4.9,24.5z"/>
			<path class="st0" d="M5.1,24.8c-0.1,0-0.2,0-0.3-0.1c-0.1-0.1-0.2-0.2-0.2-0.4L2.8,13.2c0-0.3,0.2-0.6,0.5-0.6l3-0.5
				c1-0.2,2-0.3,3-0.5c0,0,0.1,0,0.1,0c0.3,0,0.5,0.2,0.5,0.4l0.5,2.9c0,0.1,0,0.3-0.1,0.4c-0.1,0.1-0.2,0.2-0.4,0.2L7.2,16l0.1,0.7
				l1.7-0.3c0,0,0.1,0,0.1,0c0.3,0,0.5,0.2,0.5,0.5l0.4,2.9c0,0.1,0,0.3-0.1,0.4c-0.1,0.1-0.2,0.2-0.4,0.2L8,20.6l0.5,3.1
				c0,0.3-0.2,0.6-0.5,0.6L5.1,24.8C5.2,24.8,5.2,24.8,5.1,24.8z"/>
			<path class="st0" d="M5.1,24.5c-0.1,0-0.1,0-0.1,0c-0.1,0-0.1-0.1-0.1-0.2L3.1,13.1c0-0.1,0.1-0.3,0.2-0.3l3-0.5
				c1-0.2,2-0.3,3-0.5c0,0,0,0,0,0c0.1,0,0.2,0.1,0.2,0.2l0.5,2.9c0,0.1,0,0.1,0,0.2c0,0.1-0.1,0.1-0.2,0.1l-3,0.5L7.1,17l2-0.3
				c0,0,0,0,0,0c0.1,0,0.2,0.1,0.2,0.2l0.4,2.9c0,0.1,0,0.1,0,0.2c0,0.1-0.1,0.1-0.2,0.1l-2,0.3l0.5,3.4c0,0.1-0.1,0.3-0.2,0.3
				L5.1,24.5C5.2,24.5,5.1,24.5,5.1,24.5z"/>
			<path class="st0" d="M2.8,12.8l3.3-0.5c1-0.2,2-0.3,3-0.5l0.3-0.1l0.6,3.5l-3.2,0.6l0.2,1.2l2.3-0.3l0.5,3.5l-2.3,0.3L8,24.1
				l-3.4,0.5L2.8,12.8z"/>
			<path class="st0" d="M9.6,15l-3.2,0.6l0.3,1.8l2.3-0.3l0.4,2.9l-2.3,0.3l0.6,3.7l-2.8,0.4L3.1,13.1c1-0.2,2-0.3,3-0.5
				c1-0.2,2-0.3,3-0.5L9.6,15z"/>
			<path class="st0" d="M13,24.9c0,0-0.1,0-0.1,0l-2.5-0.4c-0.2,0-0.4-0.1-0.5-0.3c-0.1-0.2-0.2-0.3-0.1-0.5l1.6-10.5
				c0-0.3,0.3-0.6,0.6-0.6l3.4-0.4c0,0,0.1,0,0.1,0c0.3,0,0.6,0.2,0.7,0.5l3.2,9.7c0.1,0.2,0,0.4,0,0.6c-0.1,0.2-0.2,0.3-0.4,0.4
				L16.6,24c-0.1,0-0.1,0-0.2,0c-0.3,0-0.6-0.2-0.7-0.5l-0.3-1l-1.4,0.2l-0.2,1.5C13.7,24.6,13.4,24.9,13,24.9z"/>
			<path class="st0" d="M13,24.6C13,24.6,12.9,24.6,13,24.6l-2.6-0.4c-0.1,0-0.2-0.1-0.3-0.2c-0.1-0.1-0.1-0.2-0.1-0.3l1.6-10.5
				c0-0.2,0.2-0.3,0.4-0.4l3.4-0.4c0,0,0,0,0,0c0.2,0,0.3,0.1,0.4,0.3l3.2,9.7c0,0.1,0,0.2,0,0.3c-0.1,0.1-0.1,0.2-0.2,0.2l-2.4,0.8
				c0,0-0.1,0-0.1,0c-0.2,0-0.3-0.1-0.4-0.3l-0.4-1.2l-1.9,0.2l-0.3,1.7C13.4,24.4,13.2,24.6,13,24.6z M14.2,19l0.3,0l-0.2-0.6
				L14.2,19z"/>
			<path class="st0" d="M12.7,24.6C12.7,24.6,12.7,24.6,12.7,24.6l-2.6-0.4c-0.1,0-0.2-0.1-0.3-0.2c-0.1-0.1-0.1-0.2-0.1-0.4
				l1.6-10.5c0-0.2,0.2-0.4,0.4-0.4l3.4-0.4c0,0,0,0,0.1,0c0.2,0,0.4,0.1,0.5,0.3l3.2,9.7c0,0.1,0,0.3,0,0.4
				c-0.1,0.1-0.2,0.2-0.3,0.2l-2.4,0.8c0,0-0.1,0-0.2,0c-0.2,0-0.4-0.1-0.5-0.3l-0.4-1.2l-1.8,0.2l-0.3,1.7
				C13.2,24.5,13,24.6,12.7,24.6z M14,19l0.2,0l-0.1-0.3L14,19z"/>
			<path class="st0" d="M12.7,24.3C12.7,24.3,12.7,24.3,12.7,24.3l-2.5-0.4c0,0-0.1,0-0.1-0.1c0,0,0-0.1,0-0.1l1.6-10.5
				c0-0.1,0.1-0.1,0.2-0.2l3.4-0.4c0,0,0,0,0,0c0.1,0,0.1,0,0.2,0.1l3.2,9.7c0,0,0,0.1,0,0.1c0,0-0.1,0.1-0.1,0.1l-2.4,0.8
				c0,0,0,0-0.1,0c-0.1,0-0.1,0-0.2-0.1L15.5,22l-2.3,0.3l-0.3,1.9C12.9,24.3,12.8,24.3,12.7,24.3z M13.7,19.3l0.9-0.1L14,17.3
				L13.7,19.3z"/>
			<path class="st0" d="M13,24.7C13,24.7,12.9,24.7,13,24.7l-2.6-0.4c-0.1,0-0.3-0.1-0.4-0.2C10,24,9.9,23.8,10,23.7l1.6-10.5
				c0-0.2,0.2-0.4,0.5-0.5l3.4-0.4c0,0,0,0,0.1,0c0.2,0,0.4,0.1,0.5,0.4l3.2,9.7c0,0.1,0,0.3,0,0.4c-0.1,0.1-0.2,0.2-0.3,0.3
				l-2.4,0.8c-0.1,0-0.1,0-0.2,0c-0.2,0-0.4-0.1-0.5-0.4l-0.4-1.1l-1.7,0.2l-0.3,1.6C13.5,24.5,13.3,24.7,13,24.7z M14.3,18.9
				L14.3,18.9L14.3,18.9L14.3,18.9z"/>
			<path class="st0" d="M13,24.4C13,24.4,13,24.4,13,24.4L10.5,24c-0.1,0-0.1,0-0.2-0.1c0-0.1-0.1-0.1,0-0.2l1.6-10.5
				c0-0.1,0.1-0.2,0.2-0.2l3.4-0.4c0,0,0,0,0,0c0.1,0,0.2,0.1,0.2,0.2l3.2,9.7c0,0.1,0,0.1,0,0.2c0,0.1-0.1,0.1-0.1,0.1l-2.4,0.8
				c0,0-0.1,0-0.1,0c-0.1,0-0.2-0.1-0.2-0.2l-0.5-1.3l-2.2,0.2l-0.3,1.9C13.2,24.3,13.1,24.4,13,24.4z M14,19.2l0.8-0.1l-0.5-1.5
				L14,19.2z"/>
			<path class="st0" d="M9.9,24l1.7-11l3.9-0.4l3.4,10.2l-2.9,1l-0.5-1.6l-2.1,0.2L13,24.5L9.9,24z M13.8,19.2l0.6-0.1L14,17.8
				L13.8,19.2z"/>
			<path class="st0" d="M10.3,23.8l1.6-10.5l3.4-0.4l3.2,9.7l-2.4,0.8l-0.5-1.5l-2.6,0.3l-0.3,2.1L10.3,23.8z M14.8,19.3l-0.9-2.8
				l-0.4,2.9L14.8,19.3z"/>
			<path class="st0" d="M19.4,24.3c-0.2,0-0.3-0.1-0.5-0.2c-0.1-0.1-0.2-0.3-0.3-0.5l-0.9-9.1c0-0.2,0-0.4,0.2-0.5
				c0.1-0.1,0.3-0.2,0.5-0.3l2.5-0.3c0,0,0,0,0.1,0c0.2,0,0.4,0.1,0.6,0.3l2,2.6l-0.3-2.6c0-0.2,0-0.4,0.2-0.5
				c0.1-0.1,0.3-0.2,0.5-0.3l2.5-0.3c0,0,0,0,0.1,0c0.2,0,0.3,0.1,0.5,0.2c0.1,0.1,0.2,0.3,0.3,0.5l1,9.6c0,0.2,0,0.4-0.2,0.5
				c-0.1,0.2-0.3,0.2-0.5,0.3l-2.5,0.3c0,0,0,0-0.1,0c-0.2,0-0.4-0.1-0.5-0.3l-2-2.3l0.2,1.7c0,0.2,0,0.4-0.2,0.5
				C22.3,23.9,22.2,24,22,24L19.4,24.3C19.4,24.3,19.4,24.3,19.4,24.3z"/>
			<path class="st0" d="M19.4,24c-0.1,0-0.2,0-0.3-0.1c-0.1-0.1-0.1-0.2-0.2-0.3L18,14.6c0-0.1,0-0.2,0.1-0.3
				c0.1-0.1,0.2-0.1,0.3-0.2l2.5-0.3c0,0,0,0,0,0c0.1,0,0.3,0.1,0.3,0.2l2.6,3.4l-0.4-3.7c0-0.1,0-0.2,0.1-0.3
				c0.1-0.1,0.2-0.1,0.3-0.2l2.5-0.3c0,0,0,0,0,0c0.1,0,0.2,0,0.3,0.1c0.1,0.1,0.1,0.2,0.2,0.3l1,9.6c0,0.1,0,0.2-0.1,0.3
				c-0.1,0.1-0.2,0.1-0.3,0.2L25,23.8c0,0,0,0,0,0c-0.1,0-0.2-0.1-0.3-0.1l-2.6-3l0.3,2.7c0,0.1,0,0.2-0.1,0.3
				c-0.1,0.1-0.2,0.1-0.3,0.2L19.4,24C19.4,24,19.4,24,19.4,24z"/>
			<path class="st0" d="M19.1,24.1c-0.1,0-0.2,0-0.3-0.1c-0.1-0.1-0.2-0.2-0.2-0.3l-0.9-9.1c0-0.3,0.2-0.5,0.4-0.5l2.5-0.3
				c0,0,0,0,0,0c0.1,0,0.3,0.1,0.4,0.2l2.5,3.3l-0.4-3.5c0-0.1,0-0.3,0.1-0.4c0.1-0.1,0.2-0.2,0.3-0.2l2.5-0.3c0,0,0,0,0,0
				c0.1,0,0.2,0,0.3,0.1c0.1,0.1,0.2,0.2,0.2,0.3l1,9.6c0,0.1,0,0.3-0.1,0.4c-0.1,0.1-0.2,0.2-0.3,0.2l-2.5,0.3c0,0,0,0,0,0
				c-0.1,0-0.3-0.1-0.4-0.2l-2.5-2.9l0.3,2.5c0,0.1,0,0.3-0.1,0.4c-0.1,0.1-0.2,0.2-0.3,0.2L19.1,24.1
				C19.2,24.1,19.1,24.1,19.1,24.1z"/>
			<path class="st0" d="M19.1,23.8c0,0-0.1,0-0.1,0c0,0-0.1-0.1-0.1-0.1L18,14.5c0-0.1,0.1-0.2,0.2-0.2l2.5-0.3c0,0,0,0,0,0
				c0.1,0,0.1,0,0.1,0.1l3.2,4.1l-0.5-4.5c0-0.1,0.1-0.2,0.2-0.2l2.5-0.3c0,0,0,0,0,0c0,0,0.1,0,0.1,0c0,0,0.1,0.1,0.1,0.1l1,9.6
				c0,0.1-0.1,0.2-0.2,0.2l-2.5,0.3c0,0,0,0,0,0c-0.1,0-0.1,0-0.1-0.1l-3.1-3.6l0.3,3.4c0,0.1-0.1,0.2-0.2,0.2L19.1,23.8
				C19.1,23.8,19.1,23.8,19.1,23.8z"/>
			<path class="st0" d="M19.4,24.1c-0.1,0-0.2,0-0.3-0.1c-0.1-0.1-0.2-0.2-0.2-0.4l-0.9-9.1c0-0.3,0.2-0.6,0.5-0.6l2.5-0.3
				c0,0,0,0,0.1,0c0.2,0,0.3,0.1,0.4,0.2l2.4,3.1l-0.3-3.3c0-0.1,0-0.3,0.1-0.4c0.1-0.1,0.2-0.2,0.4-0.2l2.5-0.3c0,0,0,0,0.1,0
				c0.1,0,0.2,0,0.3,0.1c0.1,0.1,0.2,0.2,0.2,0.4l1,9.6c0,0.3-0.2,0.6-0.5,0.6L25,23.9c0,0,0,0-0.1,0c-0.2,0-0.3-0.1-0.4-0.2
				L22.2,21l0.2,2.3c0,0.3-0.2,0.6-0.5,0.6L19.4,24.1C19.4,24.1,19.4,24.1,19.4,24.1z"/>
			<path class="st0" d="M19.4,23.8c-0.1,0-0.1,0-0.2-0.1c0,0-0.1-0.1-0.1-0.2l-0.9-9.1c0-0.1,0.1-0.3,0.2-0.3l2.5-0.3c0,0,0,0,0,0
				c0.1,0,0.1,0,0.2,0.1l3,3.9l-0.4-4.3c0-0.1,0.1-0.3,0.2-0.3l2.5-0.3c0,0,0,0,0,0c0.1,0,0.1,0,0.2,0.1c0,0,0.1,0.1,0.1,0.2l1,9.6
				c0,0.1-0.1,0.3-0.2,0.3L25,23.6c0,0,0,0,0,0c-0.1,0-0.1,0-0.2-0.1l-3-3.5l0.3,3.2c0,0.1-0.1,0.3-0.2,0.3L19.4,23.8
				C19.4,23.8,19.4,23.8,19.4,23.8z"/>
			<polygon class="st0" points="17.9,14.3 20.9,14 23.9,17.9 23.4,13.5 26.6,13.2 27.6,23.4 24.6,23.7 21.6,20.2 22,23.6 18.9,23.9 
							"/>
			<path class="st0" d="M19.1,23.6l-0.9-9.1l2.5-0.3l3.6,4.6l-0.5-5.2l2.5-0.3l1,9.6l-2.5,0.3l-3.5-4l0.4,4L19.1,23.6z"/>
			<path class="st0" d="M32.1,24.2C32.1,24.2,32.1,24.2,32.1,24.2L29.5,24c-0.2,0-0.4-0.1-0.5-0.3c-0.1-0.1-0.2-0.3-0.2-0.5l0.6-7.2
				L28,15.9c-0.4,0-0.7-0.4-0.7-0.8l0.2-2.5c0-0.4,0.3-0.7,0.7-0.7c0,0,0,0,0.1,0l6.5,0.5c0.2,0,0.4,0.1,0.5,0.3
				c0.1,0.1,0.2,0.3,0.2,0.5l-0.2,2.5c0,0.2-0.1,0.4-0.3,0.5c-0.1,0.1-0.3,0.2-0.5,0.2c0,0,0,0-0.1,0l-1.1-0.1l-0.6,7.1
				c0,0.2-0.1,0.4-0.3,0.5C32.4,24.1,32.3,24.2,32.1,24.2z"/>
			<path class="st0" d="M32.1,23.9C32.1,23.9,32.1,23.9,32.1,23.9l-2.6-0.2c-0.1,0-0.2-0.1-0.3-0.1c-0.1-0.1-0.1-0.2-0.1-0.3
				l0.6-7.5L28,15.6c-0.2,0-0.4-0.2-0.4-0.5l0.2-2.5c0-0.2,0.2-0.4,0.4-0.4c0,0,0,0,0,0l6.5,0.5c0.1,0,0.2,0.1,0.3,0.1
				c0.1,0.1,0.1,0.2,0.1,0.3l-0.2,2.5c0,0.1-0.1,0.2-0.1,0.3c-0.1,0.1-0.2,0.1-0.3,0.1c0,0,0,0,0,0l-1.4-0.1l-0.6,7.4
				c0,0.1-0.1,0.2-0.1,0.3C32.3,23.9,32.2,23.9,32.1,23.9z"/>
			<path class="st0" d="M31.8,23.9C31.8,23.9,31.8,23.9,31.8,23.9l-2.6-0.2c-0.1,0-0.2-0.1-0.3-0.2c-0.1-0.1-0.1-0.2-0.1-0.4
				l0.6-7.4l-1.7-0.1c-0.3,0-0.5-0.3-0.4-0.5l0.2-2.5c0-0.2,0.2-0.4,0.5-0.4c0,0,0,0,0,0l6.5,0.5c0.1,0,0.2,0.1,0.3,0.2
				c0.1,0.1,0.1,0.2,0.1,0.4l-0.2,2.5c0,0.1-0.1,0.2-0.2,0.3c-0.1,0.1-0.2,0.1-0.3,0.1c0,0,0,0,0,0l-1.3-0.1l-0.6,7.4
				c0,0.1-0.1,0.2-0.2,0.3C32.1,23.9,32,23.9,31.8,23.9z"/>
			<path class="st0" d="M31.8,23.6C31.8,23.6,31.8,23.6,31.8,23.6l-2.5-0.2c-0.1,0-0.2-0.1-0.2-0.2l0.6-7.7l-2-0.2
				c-0.1,0-0.2-0.1-0.2-0.2l0.2-2.5c0-0.1,0.1-0.2,0.2-0.2c0,0,0,0,0,0l6.5,0.5c0,0,0.1,0,0.1,0.1c0,0,0,0.1,0,0.1l-0.2,2.5
				c0,0,0,0.1-0.1,0.1c0,0-0.1,0-0.1,0c0,0,0,0,0,0l-1.6-0.1L32,23.5c0,0,0,0.1-0.1,0.1C31.9,23.6,31.9,23.6,31.8,23.6z"/>
			<path class="st0" d="M32.1,24C32.1,24,32.1,24,32.1,24l-2.6-0.2c-0.1,0-0.3-0.1-0.4-0.2c-0.1-0.1-0.1-0.3-0.1-0.4l0.6-7.3
				L28,15.7c-0.3,0-0.5-0.3-0.5-0.6l0.2-2.5c0-0.3,0.3-0.5,0.5-0.5c0,0,0,0,0,0l6.5,0.5c0.1,0,0.3,0.1,0.4,0.2
				c0.1,0.1,0.1,0.3,0.1,0.4l-0.2,2.5c0,0.1-0.1,0.3-0.2,0.4c-0.1,0.1-0.2,0.1-0.3,0.1c0,0,0,0,0,0l-1.3-0.1l-0.6,7.3
				c0,0.1-0.1,0.3-0.2,0.4C32.3,24,32.2,24,32.1,24z"/>
			<path class="st0" d="M32.1,23.7C32.1,23.7,32.1,23.7,32.1,23.7l-2.5-0.2c-0.1,0-0.2-0.1-0.2-0.3l0.6-7.6L28,15.4
				c-0.1,0-0.2-0.1-0.2-0.3l0.2-2.5c0-0.1,0.1-0.2,0.2-0.2c0,0,0,0,0,0l6.5,0.5c0.1,0,0.1,0,0.2,0.1c0,0,0.1,0.1,0.1,0.2l-0.2,2.5
				c0,0.1,0,0.1-0.1,0.2c0,0-0.1,0.1-0.2,0.1c0,0,0,0,0,0l-1.6-0.1l-0.6,7.6c0,0.1,0,0.1-0.1,0.2C32.2,23.7,32.2,23.7,32.1,23.7z"/>
			<polygon class="st0" points="29,23.5 29.6,15.7 27.5,15.5 27.7,12.3 34.8,12.9 34.5,16.1 32.7,15.9 32.1,23.8 			"/>
			<path class="st0" d="M32.5,15.6l-0.6,7.9l-2.5-0.2l0.6-7.9l-2.1-0.2l0.2-2.5l6.5,0.5l-0.2,2.5L32.5,15.6z"/>
			<path class="st0" d="M36.3,24.3c-0.1,0-0.1,0-0.2,0l-2.4-0.7c-0.2-0.1-0.3-0.2-0.4-0.4c-0.1-0.2-0.1-0.4-0.1-0.6l3.1-10.2
				c0.1-0.3,0.4-0.5,0.7-0.5c0,0,0,0,3.5,0.1c0.3,0,0.6,0.3,0.7,0.6l1.8,10.1c0,0.2,0,0.4-0.1,0.5c-0.1,0.2-0.3,0.3-0.5,0.3L39.9,24
				c0,0-0.1,0-0.1,0c-0.3,0-0.6-0.2-0.7-0.6l-0.2-1l-1.5,0L37,23.8C36.9,24.1,36.6,24.3,36.3,24.3z"/>
			<path class="st0" d="M36.3,24c0,0-0.1,0-0.1,0l-2.4-0.7c-0.1,0-0.2-0.1-0.3-0.2c-0.1-0.1-0.1-0.2,0-0.3l3.1-10.2
				c0.1-0.2,0.2-0.3,0.4-0.3c0,0,0,0,3.5,0.1c0.2,0,0.4,0.2,0.4,0.3l1.8,10.1c0,0.1,0,0.2-0.1,0.3c-0.1,0.1-0.2,0.2-0.3,0.2
				l-2.5,0.4c0,0,0,0-0.1,0c-0.2,0-0.4-0.1-0.4-0.3l-0.2-1.3l-1.9-0.1l-0.5,1.7C36.6,23.9,36.5,24,36.3,24z M38.5,18.7l-0.1-0.6
				l-0.2,0.6L38.5,18.7z"/>
			<path class="st0" d="M36,24.1c0,0-0.1,0-0.1,0l-2.4-0.7c-0.1,0-0.2-0.1-0.3-0.2c-0.1-0.1-0.1-0.2,0-0.4l3.1-10.2
				c0.1-0.2,0.2-0.3,0.5-0.3c0,0,0,0,3.5,0.1c0.2,0,0.4,0.2,0.5,0.4l1.8,10.1c0,0.1,0,0.3-0.1,0.4c-0.1,0.1-0.2,0.2-0.3,0.2
				l-2.5,0.4c0,0-0.1,0-0.1,0c-0.2,0-0.4-0.2-0.5-0.4l-0.2-1.2l-1.8,0l-0.5,1.6C36.4,24,36.2,24.1,36,24.1z M38.2,18.7l-0.1-0.3
				L38,18.7L38.2,18.7z"/>
			<path class="st0" d="M36,23.8C36,23.8,36,23.8,36,23.8l-2.5-0.7c0,0-0.1,0-0.1-0.1c0,0,0-0.1,0-0.1l3.1-10.2
				c0-0.1,0.1-0.1,0.2-0.1c0,0,3.5,0.1,3.5,0.1c0.1,0,0.2,0.1,0.2,0.1l1.8,10.1c0,0,0,0.1,0,0.1c0,0-0.1,0.1-0.1,0.1l-2.5,0.4
				c0,0,0,0,0,0c-0.1,0-0.2-0.1-0.2-0.1l-0.3-1.4l-2.3-0.1l-0.6,1.9C36.2,23.8,36.1,23.8,36,23.8z M38.5,19l-0.4-1.9l-0.6,1.9
				L38.5,19z"/>
			<path class="st0" d="M36.3,24.2c-0.1,0-0.1,0-0.2,0l-2.4-0.7c-0.1,0-0.3-0.1-0.3-0.3c-0.1-0.1-0.1-0.3,0-0.4l3.1-10.2
				c0.1-0.2,0.3-0.4,0.5-0.4c0,0,0,0,3.5,0.1c0.3,0,0.5,0.2,0.5,0.4l1.8,10.1c0,0.1,0,0.3-0.1,0.4c-0.1,0.1-0.2,0.2-0.4,0.2
				l-2.5,0.4c0,0-0.1,0-0.1,0c-0.3,0-0.5-0.2-0.5-0.4L39,22.2l-1.7,0l-0.5,1.6C36.7,24,36.5,24.2,36.3,24.2z M38.3,18.6L38.3,18.6
				L38.3,18.6L38.3,18.6z"/>
			<path class="st0" d="M36.3,23.9C36.2,23.9,36.2,23.9,36.3,23.9l-2.5-0.7c-0.1,0-0.1-0.1-0.1-0.1c0-0.1,0-0.1,0-0.2l3.1-10.2
				c0-0.1,0.1-0.2,0.2-0.2c0,0,3.5,0.1,3.5,0.1c0.1,0,0.2,0.1,0.2,0.2l1.8,10.1c0,0.1,0,0.1,0,0.2c0,0.1-0.1,0.1-0.2,0.1l-2.5,0.4
				c0,0,0,0,0,0c-0.1,0-0.2-0.1-0.2-0.2l-0.3-1.4L37,21.9l-0.5,1.8C36.5,23.8,36.4,23.9,36.3,23.9z M38.7,18.9l-0.3-1.6l-0.5,1.6
				L38.7,18.9z"/>
			<path class="st0" d="M33.2,23.1l3.2-10.7l3.9,0.1l1.9,10.6l-3.1,0.5L39,22l-2.1-0.1L36.2,24L33.2,23.1z M38.4,18.8l-0.2-1.3
				l-0.4,1.3L38.4,18.8z"/>
			<path class="st0" d="M33.6,22.9l3.1-10.2l3.5,0.1L42,22.9l-2.5,0.4l-0.3-1.6l-2.6-0.1l-0.6,2L33.6,22.9z M38.8,19.2l-0.5-2.9
				l-0.9,2.8L38.8,19.2z"/>
		</g>
		<g>
			<path class="st8" d="M5.2,24.7c-0.1,0-0.2,0-0.3-0.1c-0.1-0.1-0.2-0.2-0.2-0.3L2.9,13.1c0-0.1,0-0.3,0.1-0.4
				c0.1-0.1,0.2-0.2,0.3-0.2l3-0.5c1-0.2,2-0.3,3-0.5c0,0,0.1,0,0.1,0c0.3,0,0.5,0.2,0.5,0.4l0.5,2.9c0,0.1,0,0.3-0.1,0.4
				c-0.1,0.1-0.2,0.2-0.3,0.2l-2.7,0.5l0.1,0.7l1.8-0.3c0,0,0.1,0,0.1,0c0.3,0,0.5,0.2,0.5,0.4l0.4,2.9c0,0.1,0,0.3-0.1,0.4
				c-0.1,0.1-0.2,0.2-0.3,0.2L8,20.5l0.5,3.2c0,0.3-0.1,0.6-0.4,0.6L5.2,24.7C5.2,24.7,5.2,24.7,5.2,24.7z"/>
			<path class="st8" d="M5.2,24.6c-0.1,0-0.2,0-0.2-0.1c-0.1-0.1-0.2-0.2-0.2-0.3L3,13c0-0.1,0-0.2,0.1-0.3c0.1-0.1,0.2-0.2,0.3-0.2
				l3-0.5c1-0.2,2-0.3,3-0.5c0,0,0.1,0,0.1,0c0.2,0,0.4,0.1,0.4,0.3l0.5,2.9c0,0.1,0,0.2-0.1,0.3c-0.1,0.1-0.2,0.2-0.3,0.2l-2.8,0.5
				l0.1,0.9l1.9-0.3c0,0,0,0,0.1,0c0.2,0,0.4,0.2,0.4,0.4l0.4,2.9c0,0.1,0,0.2-0.1,0.3c-0.1,0.1-0.2,0.2-0.3,0.2l-1.8,0.3l0.5,3.3
				c0,0.2-0.1,0.5-0.4,0.5L5.2,24.6C5.2,24.6,5.2,24.6,5.2,24.6z"/>
			<path class="st8" d="M4.9,24.5c-0.1,0-0.1,0-0.2-0.1c-0.1,0-0.1-0.1-0.1-0.2L2.9,13c0-0.1,0-0.1,0.1-0.2c0-0.1,0.1-0.1,0.2-0.1
				l3-0.5c1-0.2,2-0.3,3-0.5c0,0,0,0,0.1,0c0.1,0,0.3,0.1,0.3,0.2l0.5,2.9c0,0.1,0,0.2,0,0.2c0,0.1-0.1,0.1-0.2,0.1l-3,0.5l0.2,1.2
				l2-0.3c0,0,0,0,0,0c0.1,0,0.3,0.1,0.3,0.2l0.4,2.9c0,0.1,0,0.2-0.1,0.2c0,0.1-0.1,0.1-0.2,0.1l-2,0.3L8,23.7
				C8,23.8,7.9,24,7.8,24L4.9,24.5C5,24.5,4.9,24.5,4.9,24.5z"/>
			<path class="st8" d="M4.9,24.4c0,0-0.1,0-0.1,0c0,0-0.1-0.1-0.1-0.1L3,13c0-0.1,0.1-0.2,0.2-0.2l3-0.5c1-0.2,2-0.3,3-0.5
				c0,0,0,0,0,0c0.1,0,0.2,0.1,0.2,0.1l0.5,2.9c0,0,0,0.1,0,0.1c0,0-0.1,0.1-0.1,0.1l-3.1,0.5L6.9,17l2.1-0.3c0,0,0,0,0,0
				c0.1,0,0.2,0.1,0.2,0.2l0.4,2.9c0,0,0,0.1,0,0.1c0,0-0.1,0.1-0.1,0.1l-2.1,0.3l0.6,3.5c0,0.1-0.1,0.2-0.2,0.2L4.9,24.4
				C5,24.4,4.9,24.4,4.9,24.4z"/>
			<path class="st8" d="M5.2,24.5c-0.1,0-0.1,0-0.2-0.1c-0.1-0.1-0.1-0.1-0.1-0.2L3.1,13c0-0.2,0.1-0.4,0.3-0.4l3-0.5
				c1-0.2,2-0.3,3-0.5c0,0,0,0,0.1,0c0.2,0,0.3,0.1,0.3,0.3l0.5,2.9c0,0.1,0,0.2-0.1,0.3S10,15.2,10,15.2l-2.9,0.5l0.2,1.1l1.9-0.3
				c0,0,0,0,0.1,0c0.2,0,0.3,0.1,0.3,0.3l0.4,2.9c0,0.1,0,0.2-0.1,0.3C9.9,20,9.8,20,9.7,20.1l-1.9,0.3l0.5,3.3
				c0,0.2-0.1,0.4-0.3,0.4L5.2,24.5C5.2,24.5,5.2,24.5,5.2,24.5z"/>
			<path class="st8" d="M5.2,24.4c-0.1,0-0.1,0-0.1,0c-0.1,0-0.1-0.1-0.1-0.2L3.2,13c0-0.1,0.1-0.3,0.2-0.3l3-0.5c1-0.2,2-0.3,3-0.5
				c0,0,0,0,0,0c0.1,0,0.2,0.1,0.2,0.2l0.5,2.9c0,0.1,0,0.1,0,0.2c0,0.1-0.1,0.1-0.2,0.1l-3,0.5l0.2,1.3l2-0.3c0,0,0,0,0,0
				c0.1,0,0.2,0.1,0.2,0.2l0.4,2.9c0,0.1,0,0.1,0,0.2c0,0.1-0.1,0.1-0.2,0.1l-2,0.3l0.5,3.4c0,0.1-0.1,0.3-0.2,0.3L5.2,24.4
				C5.2,24.4,5.2,24.4,5.2,24.4z"/>
			<path class="st8" d="M4.9,24.3C4.9,24.3,4.9,24.3,4.9,24.3C4.9,24.2,4.8,24.2,4.9,24.3L3.1,13c0-0.1,0-0.1,0.1-0.1l3-0.5
				c1-0.2,2-0.3,3-0.5c0,0,0,0,0,0c0,0,0.1,0,0.1,0.1l0.5,2.9c0,0,0,0.1,0,0.1c0,0,0,0-0.1,0l-3.1,0.5l0.3,1.6L9,16.7c0,0,0,0,0,0
				c0,0,0.1,0,0.1,0.1l0.4,2.9c0,0,0,0.1,0,0.1c0,0,0,0-0.1,0l-2.2,0.3l0.6,3.6c0,0.1,0,0.1-0.1,0.1L4.9,24.3
				C4.9,24.3,4.9,24.3,4.9,24.3z"/>
			<path class="st8" d="M9.7,14.9l-3.2,0.6l0.3,1.8L9,16.8l0.4,2.9L7.2,20l0.6,3.7l-2.8,0.4L3.1,13c1-0.2,2-0.3,3-0.5
				c1-0.2,2-0.3,3-0.5L9.7,14.9z"/>
			<path class="st8" d="M13,24.6C13,24.6,13,24.6,13,24.6l-2.6-0.4c-0.1,0-0.3-0.1-0.3-0.2C10,23.9,10,23.7,10,23.6l1.6-10.5
				c0-0.2,0.2-0.4,0.5-0.4l3.4-0.4c0,0,0,0,0.1,0c0.2,0,0.4,0.1,0.5,0.4l3.2,9.7c0,0.1,0,0.3,0,0.4c-0.1,0.1-0.2,0.2-0.3,0.3
				l-2.4,0.8c-0.1,0-0.1,0-0.2,0c-0.2,0-0.4-0.1-0.5-0.4l-0.4-1.1l-1.8,0.2l-0.3,1.7C13.5,24.4,13.3,24.6,13,24.6z M14.4,18.8
				L14.4,18.8L14.4,18.8L14.4,18.8z"/>
			<path class="st8" d="M13,24.5C13,24.5,13,24.5,13,24.5l-2.6-0.4c-0.1,0-0.2-0.1-0.3-0.2c-0.1-0.1-0.1-0.2-0.1-0.3l1.6-10.5
				c0-0.2,0.2-0.3,0.4-0.4l3.4-0.4c0,0,0,0,0,0c0.2,0,0.3,0.1,0.4,0.3l3.2,9.7c0,0.1,0,0.2,0,0.3c-0.1,0.1-0.1,0.2-0.2,0.2l-2.4,0.8
				c0,0-0.1,0-0.1,0c-0.2,0-0.3-0.1-0.4-0.3l-0.4-1.2l-1.9,0.2l-0.3,1.7C13.4,24.3,13.3,24.5,13,24.5z M14.3,18.9l0.3,0l-0.2-0.6
				L14.3,18.9z"/>
			<path class="st8" d="M12.8,24.3C12.8,24.3,12.8,24.3,12.8,24.3l-2.5-0.4c-0.1,0-0.1-0.1-0.2-0.1c0-0.1-0.1-0.1-0.1-0.2l1.6-10.5
				c0-0.1,0.1-0.2,0.2-0.2l3.4-0.4c0,0,0,0,0,0c0.1,0,0.2,0.1,0.3,0.2l3.2,9.7c0,0.1,0,0.1,0,0.2c0,0.1-0.1,0.1-0.2,0.1l-2.4,0.8
				c0,0-0.1,0-0.1,0c-0.1,0-0.2-0.1-0.3-0.2L15.5,22l-2.1,0.2l-0.3,1.8C13.1,24.2,12.9,24.3,12.8,24.3z M13.8,19.1l0.7-0.1l-0.4-1.3
				L13.8,19.1z"/>
			<path class="st8" d="M12.8,24.2C12.8,24.2,12.8,24.2,12.8,24.2l-2.5-0.4c0,0-0.1,0-0.1-0.1c0,0,0-0.1,0-0.1l1.6-10.5
				c0-0.1,0.1-0.1,0.2-0.2l3.4-0.4c0,0,0,0,0,0c0.1,0,0.1,0,0.2,0.1l3.2,9.7c0,0,0,0.1,0,0.1c0,0-0.1,0.1-0.1,0.1l-2.4,0.8
				c0,0,0,0-0.1,0c-0.1,0-0.1,0-0.2-0.1l-0.5-1.4l-2.3,0.3L13,24.1C13,24.2,12.9,24.2,12.8,24.2z M13.7,19.2l0.9-0.1L14,17.2
				L13.7,19.2z"/>
			<path class="st8" d="M13,24.4C13,24.4,13,24.4,13,24.4L10.5,24c-0.1,0-0.2-0.1-0.2-0.1c-0.1-0.1-0.1-0.2-0.1-0.3l1.6-10.5
				c0-0.2,0.1-0.3,0.3-0.3l3.4-0.4c0,0,0,0,0,0c0.1,0,0.3,0.1,0.3,0.2l3.2,9.7c0,0.1,0,0.2,0,0.3c0,0.1-0.1,0.1-0.2,0.2l-2.4,0.8
				c0,0-0.1,0-0.1,0c-0.1,0-0.3-0.1-0.3-0.2l-0.4-1.3l-2,0.2l-0.3,1.8C13.4,24.3,13.2,24.4,13,24.4z M14.2,19l0.5-0.1l-0.3-1
				L14.2,19z"/>
			<path class="st8" d="M13,24.3C13,24.3,13,24.3,13,24.3l-2.5-0.4c-0.1,0-0.1,0-0.2-0.1c0-0.1-0.1-0.1,0-0.2l1.6-10.5
				c0-0.1,0.1-0.2,0.2-0.2l3.4-0.4c0,0,0,0,0,0c0.1,0,0.2,0.1,0.2,0.2l3.2,9.7c0,0.1,0,0.1,0,0.2c0,0.1-0.1,0.1-0.1,0.1l-2.4,0.8
				c0,0-0.1,0-0.1,0c-0.1,0-0.2-0.1-0.2-0.2L15.8,22l-2.2,0.2l-0.3,1.9C13.3,24.2,13.2,24.3,13,24.3z M14,19.1l0.8-0.1l-0.5-1.5
				L14,19.1z"/>
			<path class="st8" d="M12.8,24.1C12.8,24.1,12.8,24.1,12.8,24.1l-2.5-0.4c0,0,0,0-0.1,0c0,0,0,0,0-0.1l1.6-10.5c0,0,0-0.1,0.1-0.1
				l3.4-0.4c0,0,0,0,0,0c0,0,0.1,0,0.1,0.1l3.2,9.7c0,0,0,0.1,0,0.1c0,0,0,0-0.1,0l-2.4,0.8c0,0,0,0,0,0c0,0-0.1,0-0.1-0.1l-0.5-1.5
				l-2.4,0.3L12.8,24.1C12.9,24.1,12.8,24.1,12.8,24.1z M13.6,19.3l1.1-0.1L14,16.9L13.6,19.3z"/>
			<path class="st8" d="M10.3,23.7l1.6-10.5l3.4-0.4l3.2,9.7l-2.4,0.8l-0.5-1.5L13.1,22L12.8,24L10.3,23.7z M14.9,19.2L14,16.5
				l-0.4,2.9L14.9,19.2z"/>
			<path class="st8" d="M19.4,24c-0.1,0-0.2,0-0.3-0.1c-0.1-0.1-0.2-0.2-0.2-0.4L18,14.5c0-0.1,0-0.3,0.1-0.4
				c0.1-0.1,0.2-0.2,0.4-0.2l2.5-0.3c0,0,0,0,0.1,0c0.2,0,0.3,0.1,0.4,0.2l2.4,3.2l-0.3-3.3c0-0.1,0-0.3,0.1-0.4
				c0.1-0.1,0.2-0.2,0.4-0.2l2.5-0.3c0,0,0,0,0.1,0c0.1,0,0.2,0,0.3,0.1c0.1,0.1,0.2,0.2,0.2,0.4l1,9.6c0,0.1,0,0.3-0.1,0.4
				c-0.1,0.1-0.2,0.2-0.4,0.2l-2.5,0.3c0,0,0,0-0.1,0c-0.2,0-0.3-0.1-0.4-0.2l-2.4-2.8l0.2,2.3c0,0.1,0,0.3-0.1,0.4
				c-0.1,0.1-0.2,0.2-0.4,0.2L19.4,24C19.5,24,19.4,24,19.4,24z"/>
			<path class="st8" d="M19.4,23.9c-0.1,0-0.2,0-0.3-0.1c-0.1-0.1-0.1-0.2-0.2-0.3l-0.9-9.1c0-0.1,0-0.2,0.1-0.3
				c0.1-0.1,0.2-0.1,0.3-0.2l2.5-0.3c0,0,0,0,0,0c0.1,0,0.3,0.1,0.3,0.2l2.6,3.4l-0.4-3.7c0-0.1,0-0.2,0.1-0.3
				c0.1-0.1,0.2-0.1,0.3-0.2l2.5-0.3c0,0,0,0,0,0c0.1,0,0.2,0,0.3,0.1c0.1,0.1,0.1,0.2,0.2,0.3l1,9.6c0,0.1,0,0.2-0.1,0.3
				c-0.1,0.1-0.2,0.1-0.3,0.2l-2.5,0.3c0,0,0,0,0,0c-0.1,0-0.2-0.1-0.3-0.1l-2.6-3l0.3,2.7c0,0.1,0,0.2-0.1,0.3
				c-0.1,0.1-0.2,0.1-0.3,0.2L19.4,23.9C19.4,23.9,19.4,23.9,19.4,23.9z"/>
			<path class="st8" d="M19.2,23.8c-0.1,0-0.1,0-0.2-0.1c-0.1,0-0.1-0.1-0.1-0.2L18,14.4c0-0.2,0.1-0.3,0.3-0.3l2.5-0.3c0,0,0,0,0,0
				c0.1,0,0.2,0,0.2,0.1l2.9,3.8l-0.4-4.2c0-0.2,0.1-0.3,0.3-0.3l2.5-0.3c0,0,0,0,0,0c0.1,0,0.1,0,0.2,0.1c0.1,0,0.1,0.1,0.1,0.2
				l1,9.6c0,0.1,0,0.1-0.1,0.2c0,0.1-0.1,0.1-0.2,0.1l-2.5,0.3c0,0,0,0,0,0c-0.1,0-0.2,0-0.2-0.1l-2.9-3.4l0.3,3.1
				c0,0.1,0,0.1-0.1,0.2c0,0.1-0.1,0.1-0.2,0.1L19.2,23.8C19.2,23.8,19.2,23.8,19.2,23.8z"/>
			<path class="st8" d="M19.2,23.7c0,0-0.1,0-0.1,0c0,0-0.1-0.1-0.1-0.1l-0.9-9.1c0-0.1,0.1-0.2,0.2-0.2l2.5-0.3c0,0,0,0,0,0
				c0.1,0,0.1,0,0.1,0.1l3.2,4.1l-0.5-4.5c0-0.1,0.1-0.2,0.2-0.2l2.5-0.3c0,0,0,0,0,0c0,0,0.1,0,0.1,0c0,0,0.1,0.1,0.1,0.1l1,9.6
				c0,0.1-0.1,0.2-0.2,0.2l-2.5,0.3c0,0,0,0,0,0c-0.1,0-0.1,0-0.1-0.1l-3.1-3.6l0.3,3.4c0,0.1-0.1,0.2-0.2,0.2L19.2,23.7
				C19.2,23.7,19.2,23.7,19.2,23.7z"/>
			<path class="st8" d="M19.4,23.8c-0.1,0-0.2,0-0.2-0.1c-0.1-0.1-0.1-0.1-0.1-0.2l-0.9-9.1c0-0.2,0.1-0.4,0.3-0.4l2.5-0.3
				c0,0,0,0,0,0c0.1,0,0.2,0.1,0.3,0.1l2.8,3.7l-0.4-4c0-0.1,0-0.2,0.1-0.3c0.1-0.1,0.1-0.1,0.2-0.1l2.5-0.3c0,0,0,0,0,0
				c0.1,0,0.2,0,0.2,0.1c0.1,0.1,0.1,0.1,0.1,0.2l1,9.6c0,0.1,0,0.2-0.1,0.3c-0.1,0.1-0.1,0.1-0.2,0.1l-2.5,0.3c0,0,0,0,0,0
				c-0.1,0-0.2,0-0.3-0.1L22,20.3l0.3,2.9c0,0.2-0.1,0.4-0.3,0.4L19.4,23.8C19.4,23.8,19.4,23.8,19.4,23.8z"/>
			<path class="st8" d="M19.4,23.7c-0.1,0-0.1,0-0.2-0.1c0,0-0.1-0.1-0.1-0.2l-0.9-9.1c0-0.1,0.1-0.3,0.2-0.3l2.5-0.3c0,0,0,0,0,0
				c0.1,0,0.1,0,0.2,0.1l3,3.9l-0.4-4.3c0-0.1,0.1-0.3,0.2-0.3l2.5-0.3c0,0,0,0,0,0c0.1,0,0.1,0,0.2,0.1c0,0,0.1,0.1,0.1,0.2l1,9.6
				c0,0.1-0.1,0.3-0.2,0.3l-2.5,0.3c0,0,0,0,0,0c-0.1,0-0.1,0-0.2-0.1l-3-3.5l0.3,3.2c0,0.1-0.1,0.3-0.2,0.3L19.4,23.7
				C19.4,23.7,19.4,23.7,19.4,23.7z"/>
			<path class="st8" d="M19.2,23.6C19.1,23.6,19.1,23.6,19.2,23.6C19.1,23.5,19.1,23.5,19.2,23.6l-1-9.1c0-0.1,0-0.1,0.1-0.1
				l2.5-0.3c0,0,0,0,0,0c0,0,0.1,0,0.1,0l3.3,4.3l-0.5-4.8c0-0.1,0-0.1,0.1-0.1l2.5-0.3c0,0,0,0,0,0c0,0,0,0,0.1,0c0,0,0,0,0,0.1
				l1,9.6c0,0.1,0,0.1-0.1,0.1l-2.5,0.3c0,0,0,0,0,0c0,0-0.1,0-0.1,0l-3.3-3.8l0.4,3.7c0,0.1,0,0.1-0.1,0.1L19.2,23.6
				C19.2,23.6,19.2,23.6,19.2,23.6z"/>
			<path class="st8" d="M19.2,23.5l-0.9-9.1l2.5-0.3l3.6,4.6l-0.5-5.2l2.5-0.3l1,9.6l-2.5,0.3l-3.5-4l0.4,4L19.2,23.5z"/>
			<path class="st8" d="M32.1,23.9C32.1,23.9,32.1,23.9,32.1,23.9l-2.6-0.2c-0.1,0-0.3-0.1-0.4-0.2c-0.1-0.1-0.1-0.2-0.1-0.4
				l0.6-7.4L28,15.6c-0.3,0-0.5-0.3-0.5-0.6l0.2-2.5c0-0.3,0.3-0.5,0.5-0.5c0,0,0,0,0,0l6.5,0.5c0.1,0,0.3,0.1,0.4,0.2
				c0.1,0.1,0.1,0.2,0.1,0.4l-0.2,2.5c0,0.1-0.1,0.3-0.2,0.4c-0.1,0.1-0.2,0.1-0.3,0.1c0,0,0,0,0,0l-1.3-0.1l-0.6,7.3
				c0,0.1-0.1,0.3-0.2,0.4C32.4,23.8,32.3,23.9,32.1,23.9z"/>
			<path class="st8" d="M32.1,23.8C32.1,23.8,32.1,23.8,32.1,23.8l-2.6-0.2c-0.1,0-0.2-0.1-0.3-0.1c-0.1-0.1-0.1-0.2-0.1-0.3
				l0.6-7.5l-1.7-0.1c-0.2,0-0.4-0.2-0.4-0.5l0.2-2.5c0-0.2,0.2-0.4,0.4-0.4c0,0,0,0,0,0l6.5,0.5c0.1,0,0.2,0.1,0.3,0.1
				c0.1,0.1,0.1,0.2,0.1,0.3L35,15.7c0,0.1-0.1,0.2-0.1,0.3c-0.1,0.1-0.2,0.1-0.3,0.1c0,0,0,0,0,0L33.2,16l-0.6,7.4
				c0,0.1-0.1,0.2-0.1,0.3C32.3,23.8,32.2,23.8,32.1,23.8z"/>
			<path class="st8" d="M31.9,23.6C31.9,23.6,31.9,23.6,31.9,23.6l-2.6-0.2c-0.1,0-0.1,0-0.2-0.1c0-0.1-0.1-0.1-0.1-0.2l0.6-7.6
				l-1.9-0.2c-0.2,0-0.3-0.2-0.3-0.3l0.2-2.5c0-0.1,0.1-0.3,0.3-0.3c0,0,0,0,0,0l6.5,0.5c0.1,0,0.1,0,0.2,0.1c0,0.1,0.1,0.1,0.1,0.2
				l-0.2,2.5c0,0.1,0,0.1-0.1,0.2c-0.1,0-0.1,0.1-0.2,0.1c0,0,0,0,0,0l-1.5-0.1l-0.6,7.6c0,0.1,0,0.1-0.1,0.2
				C32,23.6,32,23.6,31.9,23.6z"/>
			<path class="st8" d="M31.9,23.5C31.9,23.5,31.9,23.5,31.9,23.5l-2.5-0.2c-0.1,0-0.2-0.1-0.2-0.2l0.6-7.7l-2-0.2
				c-0.1,0-0.2-0.1-0.2-0.2l0.2-2.5c0-0.1,0.1-0.2,0.2-0.2c0,0,0,0,0,0l6.5,0.5c0,0,0.1,0,0.1,0.1c0,0,0,0.1,0,0.1l-0.2,2.5
				c0,0,0,0.1-0.1,0.1c0,0-0.1,0-0.1,0c0,0,0,0,0,0l-1.6-0.1l-0.6,7.7c0,0,0,0.1-0.1,0.1C32,23.5,31.9,23.5,31.9,23.5z"/>
			<path class="st8" d="M32.1,23.7C32.1,23.7,32.1,23.7,32.1,23.7l-2.6-0.2c-0.1,0-0.2,0-0.2-0.1c-0.1-0.1-0.1-0.2-0.1-0.2l0.6-7.5
				l-1.8-0.2c-0.2,0-0.3-0.2-0.3-0.4l0.2-2.5c0-0.2,0.2-0.3,0.3-0.3c0,0,0,0,0,0l6.5,0.5c0.1,0,0.2,0.1,0.2,0.1
				c0.1,0.1,0.1,0.2,0.1,0.3l-0.2,2.5c0,0.1-0.1,0.2-0.1,0.2C34.7,16,34.6,16,34.6,16c0,0,0,0,0,0l-1.5-0.1l-0.6,7.5
				c0,0.1,0,0.2-0.1,0.2C32.3,23.7,32.2,23.7,32.1,23.7z"/>
			<path class="st8" d="M32.1,23.6C32.1,23.6,32.1,23.6,32.1,23.6l-2.5-0.2c-0.1,0-0.2-0.1-0.2-0.3l0.6-7.6l-1.9-0.2
				c-0.1,0-0.2-0.1-0.2-0.3l0.2-2.5c0-0.1,0.1-0.2,0.2-0.2c0,0,0,0,0,0l6.5,0.5c0.1,0,0.1,0,0.2,0.1c0,0,0.1,0.1,0.1,0.2l-0.2,2.5
				c0,0.1,0,0.1-0.1,0.2c0,0-0.1,0.1-0.2,0.1c0,0,0,0,0,0L33,15.8l-0.6,7.6c0,0.1,0,0.1-0.1,0.2C32.3,23.6,32.2,23.6,32.1,23.6z"/>
			<path class="st8" d="M31.9,23.5l-2.5-0.2c-0.1,0-0.1-0.1-0.1-0.1l0.6-7.8l-2-0.2c-0.1,0-0.1-0.1-0.1-0.1l0.2-2.5
				c0-0.1,0-0.1,0.1-0.1c0,0,0,0,0,0l6.5,0.5c0,0,0.1,0,0.1,0c0,0,0,0,0,0.1l-0.2,2.5c0,0,0,0.1,0,0.1c0,0,0,0-0.1,0c0,0,0,0,0,0
				l-1.7-0.1L32,23.4C32,23.4,32,23.4,31.9,23.5C31.9,23.5,31.9,23.5,31.9,23.5C31.9,23.5,31.9,23.5,31.9,23.5z"/>
			<path class="st8" d="M32.5,15.5l-0.6,7.9l-2.5-0.2l0.6-7.9l-2.1-0.2l0.2-2.5l6.5,0.5l-0.2,2.5L32.5,15.5z"/>
			<path class="st8" d="M36.3,24c-0.1,0-0.1,0-0.2,0l-2.4-0.7c-0.1,0-0.2-0.1-0.3-0.3c-0.1-0.1-0.1-0.3,0-0.4l3.1-10.2
				c0.1-0.2,0.3-0.4,0.5-0.4c0,0,0,0,3.5,0.1c0.2,0,0.5,0.2,0.5,0.4l1.8,10.1c0,0.1,0,0.3-0.1,0.4c-0.1,0.1-0.2,0.2-0.3,0.2
				l-2.5,0.4c0,0-0.1,0-0.1,0c-0.3,0-0.5-0.2-0.5-0.4l-0.2-1.2l-1.8,0l-0.5,1.6C36.8,23.9,36.5,24,36.3,24z M38.4,18.5L38.4,18.5
				L38.4,18.5L38.4,18.5z"/>
			<path class="st8" d="M36.3,23.9c0,0-0.1,0-0.1,0l-2.4-0.7c-0.1,0-0.2-0.1-0.3-0.2c-0.1-0.1-0.1-0.2,0-0.3l3.1-10.2
				c0.1-0.2,0.2-0.3,0.4-0.3c0,0,0,0,3.5,0.1c0.2,0,0.4,0.2,0.4,0.3l1.8,10.1c0,0.1,0,0.2-0.1,0.3c-0.1,0.1-0.2,0.2-0.3,0.2
				l-2.5,0.4c0,0,0,0-0.1,0c-0.2,0-0.4-0.1-0.4-0.3L39.2,22L37.2,22l-0.5,1.7C36.7,23.8,36.5,23.9,36.3,23.9z M38.5,18.6L38.4,18
				l-0.2,0.6L38.5,18.6z"/>
			<path class="st8" d="M36.1,23.8C36,23.8,36,23.8,36.1,23.8l-2.5-0.7c-0.1,0-0.1-0.1-0.2-0.1c0-0.1,0-0.1,0-0.2l3.1-10.2
				c0-0.1,0.1-0.2,0.3-0.2c0,0,0,0,3.5,0.1c0.1,0,0.2,0.1,0.3,0.2l1.8,10.1c0,0.1,0,0.1,0,0.2c0,0.1-0.1,0.1-0.2,0.1l-2.5,0.4
				c0,0,0,0,0,0c-0.1,0-0.3-0.1-0.3-0.2L39,21.9l-2.2-0.1l-0.5,1.8C36.3,23.7,36.2,23.8,36.1,23.8z M38.5,18.8l-0.3-1.4l-0.4,1.4
				L38.5,18.8z"/>
			<path class="st8" d="M36.1,23.7C36.1,23.7,36,23.7,36.1,23.7L33.6,23c0,0-0.1,0-0.1-0.1c0,0,0-0.1,0-0.1l3.1-10.2
				c0-0.1,0.1-0.1,0.2-0.1c0,0,3.5,0.1,3.5,0.1c0.1,0,0.2,0.1,0.2,0.1l1.8,10.1c0,0,0,0.1,0,0.1c0,0-0.1,0.1-0.1,0.1l-2.5,0.4
				c0,0,0,0,0,0c-0.1,0-0.2-0.1-0.2-0.1l-0.3-1.4l-2.3-0.1l-0.6,1.9C36.2,23.7,36.2,23.7,36.1,23.7z M38.6,18.9L38.2,17l-0.6,1.9
				L38.6,18.9z"/>
			<path class="st8" d="M36.3,23.9C36.3,23.9,36.2,23.9,36.3,23.9l-2.5-0.7c-0.1,0-0.2-0.1-0.2-0.2c0-0.1-0.1-0.2,0-0.3l3.1-10.2
				c0-0.1,0.2-0.2,0.3-0.2c0,0,0,0,3.5,0.1c0.2,0,0.3,0.1,0.3,0.3l1.8,10.1c0,0.1,0,0.2-0.1,0.3c-0.1,0.1-0.1,0.1-0.2,0.1l-2.5,0.4
				c0,0,0,0-0.1,0c-0.2,0-0.3-0.1-0.3-0.3l-0.3-1.3l-2.1-0.1l-0.5,1.7C36.6,23.8,36.5,23.9,36.3,23.9z M38.6,18.7l-0.2-1.1l-0.3,1
				L38.6,18.7z"/>
			<path class="st8" d="M36.3,23.8C36.3,23.8,36.3,23.8,36.3,23.8L33.8,23c-0.1,0-0.1-0.1-0.1-0.1c0-0.1,0-0.1,0-0.2l3.1-10.2
				c0-0.1,0.1-0.2,0.2-0.2c0,0,3.5,0.1,3.5,0.1c0.1,0,0.2,0.1,0.2,0.2l1.8,10.1c0,0.1,0,0.1,0,0.2c0,0.1-0.1,0.1-0.2,0.1l-2.5,0.4
				c0,0,0,0,0,0c-0.1,0-0.2-0.1-0.2-0.2l-0.3-1.4l-2.2-0.1l-0.5,1.8C36.5,23.7,36.4,23.8,36.3,23.8z M38.8,18.8l-0.3-1.6L38,18.8
				L38.8,18.8z"/>
			<path class="st8" d="M36.1,23.6C36.1,23.6,36.1,23.6,36.1,23.6l-2.4-0.7c0,0,0,0-0.1,0c0,0,0-0.1,0-0.1l3.1-10.2
				c0,0,0.1-0.1,0.1-0.1c0,0,3.5,0.1,3.5,0.1c0,0,0.1,0,0.1,0.1l1.8,10.1c0,0,0,0.1,0,0.1c0,0,0,0-0.1,0l-2.5,0.4c0,0,0,0,0,0
				c0,0-0.1,0-0.1-0.1l-0.3-1.5l-2.4-0.1L36.1,23.6C36.2,23.6,36.1,23.6,36.1,23.6z M38.7,19l-0.4-2.3l-0.7,2.3L38.7,19z"/>
			<path class="st8" d="M33.7,22.8l3.1-10.2l3.5,0.1L42,22.8l-2.5,0.4l-0.3-1.6l-2.6-0.1l-0.6,2L33.7,22.8z M38.8,19.1l-0.5-2.9
				L37.4,19L38.8,19.1z"/>
		</g>
		<g>
			<path class="st9" d="M5.2,24.5c-0.1,0-0.2,0-0.2-0.1c-0.1-0.1-0.2-0.2-0.2-0.3L3,12.9c0-0.1,0-0.2,0.1-0.3
				c0.1-0.1,0.2-0.2,0.3-0.2l3-0.5c1-0.2,2-0.3,3-0.5c0,0,0.1,0,0.1,0c0.2,0,0.4,0.1,0.4,0.3l0.5,2.9c0,0.1,0,0.2-0.1,0.3
				c-0.1,0.1-0.2,0.2-0.3,0.2l-2.8,0.5l0.1,0.9l1.9-0.3c0,0,0,0,0.1,0c0.2,0,0.4,0.2,0.4,0.4l0.4,2.9c0,0.1,0,0.2-0.1,0.3
				C10,20,9.9,20,9.8,20l-1.8,0.3l0.5,3.3c0,0.2-0.1,0.5-0.4,0.5L5.2,24.5C5.3,24.5,5.2,24.5,5.2,24.5z"/>
			<path class="st9" d="M5,24.3c0,0-0.1,0-0.1,0c0,0-0.1-0.1-0.1-0.1L3,12.9c0-0.1,0.1-0.2,0.2-0.2l3-0.5c1-0.2,2-0.3,3-0.5
				c0,0,0,0,0,0c0.1,0,0.2,0.1,0.2,0.1l0.5,2.9c0,0,0,0.1,0,0.1c0,0-0.1,0.1-0.1,0.1l-3.1,0.5l0.2,1.4L9,16.6c0,0,0,0,0,0
				c0.1,0,0.2,0.1,0.2,0.2l0.4,2.9c0,0,0,0.1,0,0.1c0,0-0.1,0.1-0.1,0.1l-2.1,0.3L8,23.6c0,0.1-0.1,0.2-0.2,0.2L5,24.3
				C5,24.3,5,24.3,5,24.3z"/>
			<path class="st9" d="M5.2,24.3c-0.1,0-0.1,0-0.1,0C5,24.2,5,24.2,5,24.1L3.2,12.9c0-0.1,0.1-0.3,0.2-0.3l3-0.5c1-0.2,2-0.3,3-0.5
				c0,0,0,0,0,0c0.1,0,0.2,0.1,0.2,0.2l0.5,2.9c0,0.1,0,0.1,0,0.2c0,0.1-0.1,0.1-0.2,0.1l-3,0.5l0.2,1.3l2-0.3c0,0,0,0,0,0
				c0.1,0,0.2,0.1,0.2,0.2l0.4,2.9c0,0.1,0,0.1,0,0.2c0,0.1-0.1,0.1-0.2,0.1l-2,0.3l0.5,3.4c0,0.1-0.1,0.3-0.2,0.3L5.2,24.3
				C5.3,24.3,5.2,24.3,5.2,24.3z"/>
			<path class="st9" d="M9.7,14.8l-3.2,0.6l0.3,1.8L9,16.7l0.4,2.9l-2.3,0.3l0.6,3.7L5,24.1L3.2,12.9c1-0.2,2-0.3,3-0.5
				c1-0.2,2-0.3,3-0.5L9.7,14.8z"/>
			<path class="st9" d="M13.1,24.4C13.1,24.4,13,24.4,13.1,24.4L10.5,24c-0.1,0-0.2-0.1-0.3-0.2c-0.1-0.1-0.1-0.2-0.1-0.3L11.8,13
				c0-0.2,0.2-0.3,0.4-0.4l3.4-0.4c0,0,0,0,0,0c0.2,0,0.3,0.1,0.4,0.3l3.2,9.7c0,0.1,0,0.2,0,0.3c-0.1,0.1-0.1,0.2-0.2,0.2l-2.4,0.8
				c0,0-0.1,0-0.1,0c-0.2,0-0.3-0.1-0.4-0.3l-0.4-1.2l-1.9,0.2L13.5,24C13.5,24.2,13.3,24.4,13.1,24.4z M14.3,18.8l0.3,0l-0.2-0.6
				L14.3,18.8z"/>
			<path class="st9" d="M12.8,24.1C12.8,24.1,12.8,24.1,12.8,24.1l-2.5-0.4c0,0-0.1,0-0.1-0.1c0,0,0-0.1,0-0.1L11.8,13
				c0-0.1,0.1-0.1,0.2-0.2l3.4-0.4c0,0,0,0,0,0c0.1,0,0.1,0,0.2,0.1l3.2,9.7c0,0,0,0.1,0,0.1c0,0-0.1,0.1-0.1,0.1l-2.4,0.8
				c0,0,0,0-0.1,0c-0.1,0-0.1,0-0.2-0.1l-0.5-1.4l-2.3,0.3L13,24C13,24.1,12.9,24.1,12.8,24.1z M13.8,19.1l0.9-0.1l-0.6-1.8
				L13.8,19.1z"/>
			<path class="st9" d="M13.1,24.2C13.1,24.2,13.1,24.2,13.1,24.2l-2.5-0.4c-0.1,0-0.1,0-0.2-0.1c0-0.1-0.1-0.1,0-0.2L12,13
				c0-0.1,0.1-0.2,0.2-0.2l3.4-0.4c0,0,0,0,0,0c0.1,0,0.2,0.1,0.2,0.2l3.2,9.7c0,0.1,0,0.1,0,0.2c0,0.1-0.1,0.1-0.1,0.1l-2.4,0.8
				c0,0-0.1,0-0.1,0c-0.1,0-0.2-0.1-0.2-0.2l-0.5-1.3l-2.2,0.2L13.3,24C13.3,24.1,13.2,24.2,13.1,24.2z M14.1,19l0.8-0.1l-0.5-1.5
				L14.1,19z"/>
			<path class="st9" d="M10.4,23.6L12,13l3.4-0.4l3.2,9.7l-2.4,0.8l-0.5-1.5l-2.6,0.3l-0.3,2.1L10.4,23.6z M14.9,19.1L14,16.4
				l-0.4,2.9L14.9,19.1z"/>
			<path class="st9" d="M19.5,23.8c-0.1,0-0.2,0-0.3-0.1c-0.1-0.1-0.1-0.2-0.2-0.3l-0.9-9.1c0-0.1,0-0.2,0.1-0.3
				c0.1-0.1,0.2-0.1,0.3-0.2l2.5-0.3c0,0,0,0,0,0c0.1,0,0.3,0.1,0.3,0.2l2.6,3.4l-0.4-3.7c0-0.1,0-0.2,0.1-0.3
				c0.1-0.1,0.2-0.1,0.3-0.2l2.5-0.3c0,0,0,0,0,0c0.1,0,0.2,0,0.3,0.1c0.1,0.1,0.1,0.2,0.2,0.3l1,9.6c0,0.1,0,0.2-0.1,0.3
				c-0.1,0.1-0.2,0.1-0.3,0.2l-2.5,0.3c0,0,0,0,0,0c-0.1,0-0.2-0.1-0.3-0.1l-2.6-3l0.3,2.7c0,0.1,0,0.2-0.1,0.3
				c-0.1,0.1-0.2,0.1-0.3,0.2L19.5,23.8C19.5,23.8,19.5,23.8,19.5,23.8z"/>
			<path class="st9" d="M19.2,23.6c0,0-0.1,0-0.1,0c0,0-0.1-0.1-0.1-0.1l-0.9-9.1c0-0.1,0.1-0.2,0.2-0.2l2.5-0.3c0,0,0,0,0,0
				c0.1,0,0.1,0,0.1,0.1l3.2,4.1l-0.5-4.5c0-0.1,0.1-0.2,0.2-0.2l2.5-0.3c0,0,0,0,0,0c0,0,0.1,0,0.1,0c0,0,0.1,0.1,0.1,0.1l1,9.6
				c0,0.1-0.1,0.2-0.2,0.2l-2.5,0.3c0,0,0,0,0,0c-0.1,0-0.1,0-0.1-0.1l-3.1-3.6l0.3,3.4c0,0.1-0.1,0.2-0.2,0.2L19.2,23.6
				C19.2,23.6,19.2,23.6,19.2,23.6z"/>
			<path class="st9" d="M19.5,23.6c-0.1,0-0.1,0-0.2-0.1c0,0-0.1-0.1-0.1-0.2l-0.9-9.1c0-0.1,0.1-0.3,0.2-0.3l2.5-0.3c0,0,0,0,0,0
				c0.1,0,0.1,0,0.2,0.1l3,3.9l-0.4-4.3c0-0.1,0.1-0.3,0.2-0.3l2.5-0.3c0,0,0,0,0,0c0.1,0,0.1,0,0.2,0.1c0,0,0.1,0.1,0.1,0.2l1,9.6
				c0,0.1-0.1,0.3-0.2,0.3l-2.5,0.3c0,0,0,0,0,0c-0.1,0-0.1,0-0.2-0.1l-3-3.5l0.3,3.2c0,0.1-0.1,0.3-0.2,0.3L19.5,23.6
				C19.5,23.6,19.5,23.6,19.5,23.6z"/>
			<path class="st9" d="M19.2,23.4l-0.9-9.1l2.5-0.3l3.6,4.6l-0.5-5.2l2.5-0.3l1,9.6l-2.5,0.3l-3.5-4l0.4,4L19.2,23.4z"/>
			<path class="st9" d="M32.2,23.7C32.2,23.7,32.2,23.7,32.2,23.7l-2.6-0.2c-0.1,0-0.2-0.1-0.3-0.1c-0.1-0.1-0.1-0.2-0.1-0.3
				l0.6-7.5l-1.7-0.1c-0.2,0-0.4-0.2-0.4-0.5l0.2-2.5c0-0.2,0.2-0.4,0.4-0.4c0,0,0,0,0,0l6.5,0.5c0.1,0,0.2,0.1,0.3,0.1
				c0.1,0.1,0.1,0.2,0.1,0.3L35,15.6c0,0.1-0.1,0.2-0.1,0.3c-0.1,0.1-0.2,0.1-0.3,0.1c0,0,0,0,0,0l-1.4-0.1l-0.6,7.4
				c0,0.1-0.1,0.2-0.1,0.3C32.4,23.7,32.3,23.7,32.2,23.7z"/>
			<path class="st9" d="M31.9,23.4C31.9,23.4,31.9,23.4,31.9,23.4l-2.5-0.2c-0.1,0-0.2-0.1-0.2-0.2l0.6-7.7l-2-0.2
				c-0.1,0-0.2-0.1-0.2-0.2l0.2-2.5c0-0.1,0.1-0.2,0.2-0.2c0,0,0,0,0,0l6.5,0.5c0,0,0.1,0,0.1,0.1c0,0,0,0.1,0,0.1l-0.2,2.5
				c0,0,0,0.1-0.1,0.1c0,0-0.1,0-0.1,0c0,0,0,0,0,0l-1.6-0.1l-0.6,7.7c0,0,0,0.1-0.1,0.1C32,23.4,32,23.4,31.9,23.4z"/>
			<path class="st9" d="M32.2,23.5C32.2,23.5,32.2,23.5,32.2,23.5l-2.5-0.2c-0.1,0-0.2-0.1-0.2-0.3l0.6-7.6l-1.9-0.2
				c-0.1,0-0.2-0.1-0.2-0.3l0.2-2.5c0-0.1,0.1-0.2,0.2-0.2c0,0,0,0,0,0l6.5,0.5c0.1,0,0.1,0,0.2,0.1c0,0,0.1,0.1,0.1,0.2l-0.2,2.5
				c0,0.1,0,0.1-0.1,0.2c0,0-0.1,0.1-0.2,0.1c0,0,0,0,0,0L33,15.7l-0.6,7.6c0,0.1,0,0.1-0.1,0.2C32.3,23.5,32.3,23.5,32.2,23.5z"/>
			<path class="st9" d="M32.6,15.4l-0.6,7.9l-2.5-0.2l0.6-7.9L27.9,15l0.2-2.5l6.5,0.5l-0.2,2.5L32.6,15.4z"/>
			<path class="st9" d="M36.4,23.8c0,0-0.1,0-0.1,0l-2.4-0.7c-0.1,0-0.2-0.1-0.3-0.2c-0.1-0.1-0.1-0.2,0-0.3l3.1-10.2
				c0.1-0.2,0.2-0.3,0.4-0.3c0,0,0,0,3.5,0.1c0.2,0,0.4,0.2,0.4,0.3l1.8,10.1c0,0.1,0,0.2-0.1,0.3c-0.1,0.1-0.2,0.2-0.3,0.2
				l-2.5,0.4c0,0,0,0-0.1,0c-0.2,0-0.4-0.1-0.4-0.3l-0.2-1.3l-1.9-0.1l-0.5,1.7C36.7,23.7,36.6,23.8,36.4,23.8z M38.6,18.5l-0.1-0.6
				l-0.2,0.6L38.6,18.5z"/>
			<path class="st9" d="M36.1,23.6C36.1,23.6,36.1,23.6,36.1,23.6l-2.5-0.7c0,0-0.1,0-0.1-0.1c0,0,0-0.1,0-0.1l3.1-10.2
				c0-0.1,0.1-0.1,0.2-0.1c0,0,3.5,0.1,3.5,0.1c0.1,0,0.2,0.1,0.2,0.1l1.8,10.1c0,0,0,0.1,0,0.1c0,0-0.1,0.1-0.1,0.1l-2.5,0.4
				c0,0,0,0,0,0c-0.1,0-0.2-0.1-0.2-0.1l-0.3-1.4l-2.3-0.1l-0.6,1.9C36.3,23.6,36.2,23.6,36.1,23.6z M38.6,18.8l-0.4-1.9l-0.6,1.9
				L38.6,18.8z"/>
			<path class="st9" d="M36.4,23.7C36.3,23.7,36.3,23.7,36.4,23.7l-2.5-0.7c-0.1,0-0.1-0.1-0.1-0.1c0-0.1,0-0.1,0-0.2l3.1-10.2
				c0-0.1,0.1-0.2,0.2-0.2c0,0,3.5,0.1,3.5,0.1c0.1,0,0.2,0.1,0.2,0.2l1.8,10.1c0,0.1,0,0.1,0,0.2c0,0.1-0.1,0.1-0.2,0.1l-2.5,0.4
				c0,0,0,0,0,0c-0.1,0-0.2-0.1-0.2-0.2l-0.3-1.4l-2.2-0.1l-0.5,1.8C36.6,23.6,36.5,23.7,36.4,23.7z M38.8,18.7l-0.3-1.6L38,18.7
				L38.8,18.7z"/>
			<path class="st9" d="M33.7,22.7l3.1-10.2l3.5,0.1l1.8,10.1l-2.5,0.4l-0.3-1.6l-2.6-0.1l-0.6,2L33.7,22.7z M38.9,19l-0.5-2.9
				l-0.9,2.8L38.9,19z"/>
		</g>
		<g>
			
				<linearGradient id="SVGID_6_" gradientUnits="userSpaceOnUse" x1="7.2553" y1="24.1669" x2="7.4238" y2="11.3239" gradientTransform="matrix(0.9999 -1.311839e-02 1.311839e-02 0.9999 -0.9293 0.2554)">
				<stop  offset="0" style="stop-color:#2EAAFA"/>
				<stop  offset="1" style="stop-color:#1F2F98"/>
			</linearGradient>
			<path class="st10" d="M5.2,24.3c-0.1,0-0.1,0-0.2-0.1c-0.1-0.1-0.1-0.1-0.1-0.2L3.1,12.9c0-0.1,0-0.2,0.1-0.2
				c0.1-0.1,0.1-0.1,0.2-0.1l3-0.5c1-0.2,2-0.3,3-0.5c0,0,0,0,0.1,0c0.2,0,0.3,0.1,0.3,0.3l0.5,2.9c0,0.1,0,0.2-0.1,0.2
				C10.1,14.9,10,15,10,15L7,15.5l0.2,1.1l1.9-0.3c0,0,0,0,0.1,0c0.2,0,0.3,0.1,0.3,0.3l0.4,2.9c0,0.1,0,0.2-0.1,0.2
				c-0.1,0.1-0.1,0.1-0.2,0.1l-1.9,0.3l0.5,3.4c0,0.2-0.1,0.4-0.3,0.4L5.2,24.3C5.2,24.3,5.2,24.3,5.2,24.3z"/>
			
				<linearGradient id="SVGID_7_" gradientUnits="userSpaceOnUse" x1="7.3073" y1="24.0179" x2="7.4718" y2="11.4743" gradientTransform="matrix(0.9999 -1.311839e-02 1.311839e-02 0.9999 -0.9293 0.2554)">
				<stop  offset="0" style="stop-color:#2EAAFA"/>
				<stop  offset="1" style="stop-color:#1F2F98"/>
			</linearGradient>
			<path class="st11" d="M5.2,24.2c0,0-0.1,0-0.1,0c0,0-0.1-0.1-0.1-0.1L3.3,12.8c0-0.1,0.1-0.2,0.2-0.2l3-0.5c1-0.2,2-0.3,3-0.5
				c0,0,0,0,0,0c0.1,0,0.2,0.1,0.2,0.1l0.5,2.9c0,0,0,0.1,0,0.1c0,0-0.1,0.1-0.1,0.1l-3.1,0.5l0.2,1.4l2.1-0.3c0,0,0,0,0,0
				c0.1,0,0.2,0.1,0.2,0.2l0.4,2.9c0,0,0,0.1,0,0.1c0,0-0.1,0.1-0.1,0.1L7.7,20l0.6,3.5c0,0.1-0.1,0.2-0.2,0.2L5.2,24.2
				C5.2,24.2,5.2,24.2,5.2,24.2z"/>
			
				<linearGradient id="SVGID_8_" gradientUnits="userSpaceOnUse" x1="7.2578" y1="23.9846" x2="7.4215" y2="11.5061" gradientTransform="matrix(0.9999 -1.311839e-02 1.311839e-02 0.9999 -0.9293 0.2554)">
				<stop  offset="0" style="stop-color:#2EAAFA"/>
				<stop  offset="1" style="stop-color:#1F2F98"/>
			</linearGradient>
			<path class="st12" d="M5.2,24.1C5.1,24.1,5.1,24.1,5.2,24.1C5.1,24.1,5,24.1,5,24L3.2,12.8c0-0.1,0-0.2,0.1-0.2l3-0.5
				c1-0.2,2-0.3,3-0.5c0,0,0,0,0,0c0.1,0,0.1,0.1,0.1,0.1l0.5,2.9c0,0,0,0.1,0,0.1s-0.1,0.1-0.1,0.1l-3.1,0.5l0.2,1.5l2.1-0.3
				c0,0,0,0,0,0c0.1,0,0.1,0.1,0.1,0.1l0.4,2.9c0,0,0,0.1,0,0.1c0,0-0.1,0.1-0.1,0.1L7.6,20l0.6,3.5c0,0.1,0,0.2-0.1,0.2L5.2,24.1
				C5.2,24.1,5.2,24.1,5.2,24.1z"/>
			
				<linearGradient id="SVGID_9_" gradientUnits="userSpaceOnUse" x1="7.3097" y1="23.8356" x2="7.4694" y2="11.6566" gradientTransform="matrix(0.9999 -1.311839e-02 1.311839e-02 0.9999 -0.9293 0.2554)">
				<stop  offset="0" style="stop-color:#2EAAFA"/>
				<stop  offset="1" style="stop-color:#1F2F98"/>
			</linearGradient>
			<path class="st13" d="M9.9,14.7l-3.2,0.6L7,17l2.3-0.3l0.4,2.9l-2.3,0.3L8,23.5L5.2,24L3.4,12.8c1-0.2,2-0.3,3-0.5
				c1-0.2,2-0.3,3-0.5L9.9,14.7z"/>
			
				<linearGradient id="SVGID_10_" gradientUnits="userSpaceOnUse" x1="15.3091" y1="24.1447" x2="15.466" y2="12.1843" gradientTransform="matrix(0.9999 -1.311839e-02 1.311839e-02 0.9999 -0.9293 0.2554)">
				<stop  offset="0" style="stop-color:#2EAAFA"/>
				<stop  offset="1" style="stop-color:#1F2F98"/>
			</linearGradient>
			<path class="st14" d="M13,24.2C13,24.2,13,24.2,13,24.2l-2.5-0.4c-0.1,0-0.2-0.1-0.2-0.1c-0.1-0.1-0.1-0.2-0.1-0.2l1.6-10.5
				c0-0.1,0.1-0.3,0.3-0.3l3.4-0.4c0,0,0,0,0,0c0.1,0,0.3,0.1,0.3,0.2l3.2,9.7c0,0.1,0,0.2,0,0.3c0,0.1-0.1,0.1-0.2,0.2l-2.4,0.8
				c0,0-0.1,0-0.1,0c-0.1,0-0.3-0.1-0.3-0.2l-0.4-1.3l-2.1,0.2l-0.3,1.8C13.3,24.1,13.2,24.2,13,24.2z M14.1,18.8l0.5-0.1l-0.4-1.1
				L14.1,18.8z"/>
			
				<linearGradient id="SVGID_11_" gradientUnits="userSpaceOnUse" x1="15.361" y1="23.9957" x2="15.514" y2="12.3347" gradientTransform="matrix(0.9999 -1.311839e-02 1.311839e-02 0.9999 -0.9293 0.2554)">
				<stop  offset="0" style="stop-color:#2EAAFA"/>
				<stop  offset="1" style="stop-color:#1F2F98"/>
			</linearGradient>
			<path class="st15" d="M13.1,24C13.1,24,13.1,24,13.1,24l-2.5-0.4c0,0-0.1,0-0.1-0.1c0,0,0-0.1,0-0.1L12,12.9
				c0-0.1,0.1-0.1,0.2-0.2l3.4-0.4c0,0,0,0,0,0c0.1,0,0.1,0,0.2,0.1l3.2,9.7c0,0,0,0.1,0,0.1c0,0-0.1,0.1-0.1,0.1l-2.4,0.8
				c0,0,0,0-0.1,0c-0.1,0-0.1,0-0.2-0.1l-0.5-1.4L13.6,22l-0.3,1.9C13.3,24,13.2,24,13.1,24z M14,19l0.9-0.1l-0.6-1.8L14,19z"/>
			
				<linearGradient id="SVGID_12_" gradientUnits="userSpaceOnUse" x1="15.3116" y1="23.9625" x2="15.4637" y2="12.3667" gradientTransform="matrix(0.9999 -1.311839e-02 1.311839e-02 0.9999 -0.9293 0.2554)">
				<stop  offset="0" style="stop-color:#2EAAFA"/>
				<stop  offset="1" style="stop-color:#1F2F98"/>
			</linearGradient>
			<path class="st16" d="M13,24C13,24,13,24,13,24l-2.5-0.4c0,0-0.1,0-0.1-0.1c0,0,0-0.1,0-0.1L12,12.9c0-0.1,0.1-0.1,0.1-0.1
				l3.4-0.4c0,0,0,0,0,0c0.1,0,0.1,0,0.1,0.1l3.2,9.7c0,0,0,0.1,0,0.1c0,0,0,0.1-0.1,0.1l-2.4,0.8c0,0,0,0,0,0c-0.1,0-0.1,0-0.1-0.1
				l-0.5-1.4L13.5,22l-0.3,1.9C13.2,24,13.1,24,13,24z M13.9,19l1-0.1l-0.7-2L13.9,19z"/>
			
				<linearGradient id="SVGID_13_" gradientUnits="userSpaceOnUse" x1="15.3634" y1="23.8134" x2="15.5116" y2="12.517" gradientTransform="matrix(0.9999 -1.311839e-02 1.311839e-02 0.9999 -0.9293 0.2554)">
				<stop  offset="0" style="stop-color:#2EAAFA"/>
				<stop  offset="1" style="stop-color:#1F2F98"/>
			</linearGradient>
			<path class="st17" d="M10.6,23.5L12.2,13l3.4-0.4l3.2,9.7l-2.4,0.8L16,21.5l-2.6,0.3l-0.3,2.1L10.6,23.5z M15.2,19.1l-0.9-2.8
				l-0.4,2.9L15.2,19.1z"/>
			
				<linearGradient id="SVGID_14_" gradientUnits="userSpaceOnUse" x1="23.6461" y1="23.6853" x2="23.7873" y2="12.9222" gradientTransform="matrix(0.9999 -1.311839e-02 1.311839e-02 0.9999 -0.9293 0.2554)">
				<stop  offset="0" style="stop-color:#2EAAFA"/>
				<stop  offset="1" style="stop-color:#1F2F98"/>
			</linearGradient>
			<path class="st18" d="M19.4,23.6c-0.1,0-0.2,0-0.2-0.1c-0.1-0.1-0.1-0.1-0.1-0.2l-0.9-9.1c0-0.2,0.1-0.3,0.3-0.4l2.5-0.3
				c0,0,0,0,0,0c0.1,0,0.2,0,0.3,0.1l2.8,3.7l-0.4-4c0-0.2,0.1-0.3,0.3-0.4l2.5-0.3c0,0,0,0,0,0c0.1,0,0.2,0,0.2,0.1
				c0.1,0.1,0.1,0.1,0.1,0.2l1,9.6c0,0.1,0,0.2-0.1,0.2c-0.1,0.1-0.1,0.1-0.2,0.1l-2.5,0.3c0,0,0,0,0,0c-0.1,0-0.2,0-0.3-0.1
				L22,20.1l0.3,3c0,0.1,0,0.2-0.1,0.2c-0.1,0.1-0.1,0.1-0.2,0.1L19.4,23.6C19.4,23.6,19.4,23.6,19.4,23.6z"/>
			
				<linearGradient id="SVGID_15_" gradientUnits="userSpaceOnUse" x1="23.6979" y1="23.5362" x2="23.8352" y2="13.0726" gradientTransform="matrix(0.9999 -1.311839e-02 1.311839e-02 0.9999 -0.9293 0.2554)">
				<stop  offset="0" style="stop-color:#2EAAFA"/>
				<stop  offset="1" style="stop-color:#1F2F98"/>
			</linearGradient>
			<path class="st19" d="M19.5,23.5c0,0-0.1,0-0.1,0c0,0-0.1-0.1-0.1-0.1l-0.9-9.1c0-0.1,0.1-0.2,0.2-0.2l2.5-0.3c0,0,0,0,0,0
				c0.1,0,0.1,0,0.1,0.1l3.2,4.1l-0.5-4.5c0-0.1,0.1-0.2,0.2-0.2l2.5-0.3c0,0,0,0,0,0c0,0,0.1,0,0.1,0c0,0,0.1,0.1,0.1,0.1l1,9.6
				c0,0.1-0.1,0.2-0.2,0.2l-2.5,0.3c0,0,0,0,0,0c-0.1,0-0.1,0-0.1-0.1l-3.1-3.6l0.3,3.4c0,0.1-0.1,0.2-0.2,0.2L19.5,23.5
				C19.5,23.5,19.5,23.5,19.5,23.5z"/>
			
				<linearGradient id="SVGID_16_" gradientUnits="userSpaceOnUse" x1="23.6484" y1="23.5029" x2="23.7849" y2="13.1045" gradientTransform="matrix(0.9999 -1.311839e-02 1.311839e-02 0.9999 -0.9293 0.2554)">
				<stop  offset="0" style="stop-color:#2EAAFA"/>
				<stop  offset="1" style="stop-color:#1F2F98"/>
			</linearGradient>
			<path class="st20" d="M19.4,23.4C19.4,23.4,19.3,23.4,19.4,23.4c-0.1-0.1-0.1-0.1-0.1-0.1l-0.9-9.1c0-0.1,0.1-0.2,0.1-0.2
				l2.5-0.3c0,0,0,0,0,0c0,0,0.1,0,0.1,0.1l3.2,4.2l-0.5-4.6c0-0.1,0.1-0.2,0.1-0.2l2.5-0.3c0,0,0,0,0,0c0,0,0.1,0,0.1,0
				c0,0,0.1,0.1,0.1,0.1l1,9.6c0,0.1-0.1,0.2-0.1,0.2L25,23.2c0,0,0,0,0,0c0,0-0.1,0-0.1-0.1l-3.2-3.7l0.4,3.5
				c0,0.1-0.1,0.2-0.1,0.2L19.4,23.4C19.4,23.4,19.4,23.4,19.4,23.4z"/>
			
				<linearGradient id="SVGID_17_" gradientUnits="userSpaceOnUse" x1="23.7003" y1="23.3539" x2="23.8328" y2="13.2549" gradientTransform="matrix(0.9999 -1.311839e-02 1.311839e-02 0.9999 -0.9293 0.2554)">
				<stop  offset="0" style="stop-color:#2EAAFA"/>
				<stop  offset="1" style="stop-color:#1F2F98"/>
			</linearGradient>
			<path class="st21" d="M19.5,23.3l-0.9-9.1l2.5-0.3l3.6,4.6l-0.5-5.2l2.5-0.3l1,9.6l-2.5,0.3l-3.5-4l0.4,4L19.5,23.3z"/>
			
				<linearGradient id="SVGID_18_" gradientUnits="userSpaceOnUse" x1="32.0548" y1="23.6818" x2="32.2051" y2="12.2257" gradientTransform="matrix(0.9999 -1.311839e-02 1.311839e-02 0.9999 -0.9293 0.2554)">
				<stop  offset="0" style="stop-color:#2EAAFA"/>
				<stop  offset="1" style="stop-color:#1F2F98"/>
			</linearGradient>
			<path class="st22" d="M32.1,23.5C32.1,23.5,32.1,23.5,32.1,23.5l-2.6-0.2c-0.1,0-0.2,0-0.2-0.1c-0.1-0.1-0.1-0.2-0.1-0.2l0.6-7.6
				l-1.8-0.2c-0.2,0-0.3-0.2-0.3-0.4l0.2-2.5c0-0.2,0.2-0.3,0.3-0.3c0,0,0,0,0,0l6.5,0.5c0.1,0,0.2,0,0.2,0.1
				c0.1,0.1,0.1,0.2,0.1,0.2l-0.2,2.5c0,0.1,0,0.2-0.1,0.2c-0.1,0.1-0.1,0.1-0.2,0.1c0,0,0,0,0,0l-1.5-0.1l-0.6,7.5
				c0,0.1,0,0.2-0.1,0.2C32.3,23.5,32.2,23.5,32.1,23.5z"/>
			
				<linearGradient id="SVGID_19_" gradientUnits="userSpaceOnUse" x1="32.1066" y1="23.5327" x2="32.253" y2="12.376" gradientTransform="matrix(0.9999 -1.311839e-02 1.311839e-02 0.9999 -0.9293 0.2554)">
				<stop  offset="0" style="stop-color:#2EAAFA"/>
				<stop  offset="1" style="stop-color:#1F2F98"/>
			</linearGradient>
			<path class="st23" d="M32.2,23.4C32.2,23.4,32.2,23.4,32.2,23.4l-2.5-0.2c-0.1,0-0.2-0.1-0.2-0.2l0.6-7.7l-2-0.2
				c-0.1,0-0.2-0.1-0.2-0.2l0.2-2.5c0-0.1,0.1-0.2,0.2-0.2c0,0,0,0,0,0l6.5,0.5c0,0,0.1,0,0.1,0.1c0,0,0,0.1,0,0.1l-0.2,2.5
				c0,0,0,0.1-0.1,0.1c0,0-0.1,0-0.1,0c0,0,0,0,0,0L33,15.5l-0.6,7.7c0,0,0,0.1-0.1,0.1C32.3,23.3,32.2,23.4,32.2,23.4z"/>
			
				<linearGradient id="SVGID_20_" gradientUnits="userSpaceOnUse" x1="32.0572" y1="23.4995" x2="32.2027" y2="12.4079" gradientTransform="matrix(0.9999 -1.311839e-02 1.311839e-02 0.9999 -0.9293 0.2554)">
				<stop  offset="0" style="stop-color:#2EAAFA"/>
				<stop  offset="1" style="stop-color:#1F2F98"/>
			</linearGradient>
			<path class="st24" d="M32.1,23.3C32.1,23.3,32.1,23.3,32.1,23.3l-2.5-0.2c-0.1,0-0.1-0.1-0.1-0.2l0.6-7.7l-2-0.2
				c-0.1,0-0.1-0.1-0.1-0.2l0.2-2.5c0-0.1,0.1-0.1,0.1-0.1c0,0,0,0,0,0l6.5,0.5c0,0,0.1,0,0.1,0.1c0,0,0,0.1,0,0.1l-0.2,2.5
				c0,0,0,0.1-0.1,0.1c0,0-0.1,0-0.1,0c0,0,0,0,0,0l-1.6-0.1l-0.6,7.7C32.3,23.2,32.3,23.3,32.1,23.3C32.2,23.3,32.2,23.3,32.1,23.3
				z"/>
			
				<linearGradient id="SVGID_21_" gradientUnits="userSpaceOnUse" x1="32.109" y1="23.3505" x2="32.2506" y2="12.5583" gradientTransform="matrix(0.9999 -1.311839e-02 1.311839e-02 0.9999 -0.9293 0.2554)">
				<stop  offset="0" style="stop-color:#2EAAFA"/>
				<stop  offset="1" style="stop-color:#1F2F98"/>
			</linearGradient>
			<path class="st25" d="M32.8,15.3l-0.6,7.9L29.7,23l0.6-7.9l-2.1-0.2l0.2-2.5l6.5,0.5l-0.2,2.5L32.8,15.3z"/>
			
				<linearGradient id="SVGID_22_" gradientUnits="userSpaceOnUse" x1="38.7098" y1="23.9242" x2="38.8618" y2="12.3391" gradientTransform="matrix(0.9999 -1.311839e-02 1.311839e-02 0.9999 -0.9293 0.2554)">
				<stop  offset="0" style="stop-color:#2EAAFA"/>
				<stop  offset="1" style="stop-color:#1F2F98"/>
			</linearGradient>
			<path class="st26" d="M36.3,23.7C36.3,23.7,36.3,23.7,36.3,23.7l-2.5-0.7c-0.1,0-0.2-0.1-0.2-0.2c0-0.1-0.1-0.2,0-0.3l3.1-10.2
				c0-0.1,0.2-0.2,0.3-0.2c0,0,0,0,3.5,0.1c0.2,0,0.3,0.1,0.3,0.3l1.8,10.1c0,0.1,0,0.2-0.1,0.2c0,0.1-0.1,0.1-0.2,0.1l-2.5,0.4
				c0,0,0,0-0.1,0c-0.2,0-0.3-0.1-0.3-0.3l-0.3-1.3l-2.1-0.1l-0.5,1.7C36.6,23.6,36.5,23.7,36.3,23.7z M38.6,18.5l-0.2-1.1l-0.3,1.1
				L38.6,18.5z"/>
			
				<linearGradient id="SVGID_23_" gradientUnits="userSpaceOnUse" x1="38.7617" y1="23.7751" x2="38.9097" y2="12.4894" gradientTransform="matrix(0.9999 -1.311839e-02 1.311839e-02 0.9999 -0.9293 0.2554)">
				<stop  offset="0" style="stop-color:#2EAAFA"/>
				<stop  offset="1" style="stop-color:#1F2F98"/>
			</linearGradient>
			<path class="st27" d="M36.4,23.5C36.3,23.5,36.3,23.5,36.4,23.5l-2.5-0.7c0,0-0.1,0-0.1-0.1c0,0,0-0.1,0-0.1l3.1-10.2
				c0-0.1,0.1-0.1,0.2-0.1c0,0,3.5,0.1,3.5,0.1c0.1,0,0.2,0.1,0.2,0.1l1.8,10.1c0,0,0,0.1,0,0.1c0,0-0.1,0.1-0.1,0.1l-2.5,0.4
				c0,0,0,0,0,0c-0.1,0-0.2-0.1-0.2-0.1l-0.3-1.4l-2.3-0.1l-0.6,1.9C36.5,23.5,36.4,23.5,36.4,23.5z M38.9,18.7l-0.4-1.9L38,18.7
				L38.9,18.7z"/>
			
				<linearGradient id="SVGID_24_" gradientUnits="userSpaceOnUse" x1="38.7122" y1="23.7418" x2="38.8594" y2="12.5214" gradientTransform="matrix(0.9999 -1.311839e-02 1.311839e-02 0.9999 -0.9293 0.2554)">
				<stop  offset="0" style="stop-color:#2EAAFA"/>
				<stop  offset="1" style="stop-color:#1F2F98"/>
			</linearGradient>
			<path class="st28" d="M36.3,23.5C36.3,23.5,36.3,23.5,36.3,23.5l-2.5-0.7c0,0-0.1,0-0.1-0.1c0,0,0-0.1,0-0.1l3.1-10.2
				c0-0.1,0.1-0.1,0.1-0.1c0,0,3.5,0.1,3.5,0.1c0.1,0,0.1,0.1,0.1,0.1l1.8,10.1c0,0,0,0.1,0,0.1c0,0-0.1,0.1-0.1,0.1l-2.5,0.4
				c0,0,0,0,0,0c-0.1,0-0.1,0-0.1-0.1l-0.3-1.5L37,21.5l-0.6,1.9C36.4,23.4,36.4,23.5,36.3,23.5z M38.9,18.7l-0.4-2.1l-0.6,2.1
				L38.9,18.7z"/>
			
				<linearGradient id="SVGID_25_" gradientUnits="userSpaceOnUse" x1="38.7641" y1="23.5927" x2="38.9074" y2="12.6717" gradientTransform="matrix(0.9999 -1.311839e-02 1.311839e-02 0.9999 -0.9293 0.2554)">
				<stop  offset="0" style="stop-color:#2EAAFA"/>
				<stop  offset="1" style="stop-color:#1F2F98"/>
			</linearGradient>
			<path class="st29" d="M33.9,22.6L37,12.4l3.5,0.1l1.8,10.1L39.9,23l-0.3-1.6L37,21.4l-0.6,2L33.9,22.6z M39.1,18.9L38.6,16
				l-0.9,2.8L39.1,18.9z"/>
		</g>
	</g>
</g>
</svg>
