<?xml version="1.0" encoding="utf-8"?>
<!-- Generator: Adobe Illustrator 27.0.0, SVG Export Plug-In . SVG Version: 6.00 Build 0)  -->
<svg version="1.1" id="圖層_1" xmlns="http://www.w3.org/2000/svg" xmlns:xlink="http://www.w3.org/1999/xlink" x="0px" y="0px"
	 viewBox="0 0 32 32" style="enable-background:new 0 0 32 32;" xml:space="preserve">
<style type="text/css">
	.st0{fill:#079EB2;}
</style>
<path class="st0" d="M23,0H9C7.3,0,6,1.4,6,3v26c0,1.6,1.3,3,3,3h14c1.6,0,3-1.4,3-3V3C26,1.4,24.6,0,23,0z M12,1.5h8v1h-8V1.5z
	 M16,30c-1.1,0-2-0.9-2-2s0.9-2,2-2s2,0.9,2,2S17.1,30,16,30z M24,24H8V4h16V24z"/>
</svg>
