<?xml version="1.0" encoding="utf-8"?>
<!-- Generator: Adobe Illustrator 25.0.1, SVG Export Plug-In . SVG Version: 6.00 Build 0)  -->
<svg version="1.1" id="圖層_1" xmlns="http://www.w3.org/2000/svg" xmlns:xlink="http://www.w3.org/1999/xlink" x="0px" y="0px"
	 viewBox="0 0 267 234" style="enable-background:new 0 0 267 234;" xml:space="preserve">
<style type="text/css">
	.st0{fill:none;}
	.st1{fill:#0080D6;}
	.st2{clip-path:url(#SVGID_2_);fill:#171C61;}
	.st3{clip-path:url(#SVGID_2_);fill:#171C62;}
	.st4{clip-path:url(#SVGID_2_);fill:#171C63;}
	.st5{clip-path:url(#SVGID_2_);fill:#171C64;}
	.st6{clip-path:url(#SVGID_2_);fill:#181C65;}
	.st7{clip-path:url(#SVGID_2_);fill:#181D66;}
	.st8{clip-path:url(#SVGID_2_);fill:#181D67;}
	.st9{clip-path:url(#SVGID_2_);fill:#181D68;}
	.st10{clip-path:url(#SVGID_2_);fill:#181D69;}
	.st11{clip-path:url(#SVGID_2_);fill:#181D6A;}
	.st12{clip-path:url(#SVGID_2_);fill:#191D6B;}
	.st13{clip-path:url(#SVGID_2_);fill:#191D6C;}
	.st14{clip-path:url(#SVGID_2_);fill:#191D6D;}
	.st15{clip-path:url(#SVGID_2_);fill:#191D6E;}
	.st16{clip-path:url(#SVGID_2_);fill:#191E6F;}
	.st17{clip-path:url(#SVGID_2_);fill:#191E70;}
	.st18{clip-path:url(#SVGID_2_);fill:#1A1E71;}
	.st19{clip-path:url(#SVGID_2_);fill:#1A1E72;}
	.st20{clip-path:url(#SVGID_2_);fill:#1A1E73;}
	.st21{clip-path:url(#SVGID_2_);fill:#1A1E75;}
	.st22{clip-path:url(#SVGID_2_);fill:#1A1E76;}
	.st23{clip-path:url(#SVGID_2_);fill:#1A1E77;}
	.st24{clip-path:url(#SVGID_2_);fill:#1B1E78;}
	.st25{clip-path:url(#SVGID_2_);fill:#1B1E79;}
	.st26{clip-path:url(#SVGID_2_);fill:#1B1F7A;}
	.st27{clip-path:url(#SVGID_2_);fill:#1B1F7B;}
	.st28{clip-path:url(#SVGID_2_);fill:#1B1F7C;}
	.st29{clip-path:url(#SVGID_2_);fill:#1B1F7D;}
	.st30{clip-path:url(#SVGID_2_);fill:#1C1F7E;}
	.st31{clip-path:url(#SVGID_2_);fill:#1C1F7F;}
	.st32{clip-path:url(#SVGID_2_);fill:#1C1F80;}
	.st33{clip-path:url(#SVGID_2_);fill:#1C1F81;}
	.st34{clip-path:url(#SVGID_2_);fill:#1C1F82;}
	.st35{clip-path:url(#SVGID_2_);fill:#1C2083;}
	.st36{clip-path:url(#SVGID_2_);fill:#1D2084;}
	.st37{clip-path:url(#SVGID_2_);fill:#1D2085;}
	.st38{clip-path:url(#SVGID_2_);fill:#1D2086;}
	.st39{clip-path:url(#SVGID_2_);fill:#1D2087;}
	.st40{clip-path:url(#SVGID_2_);fill:#1D2188;}
	.st41{clip-path:url(#SVGID_2_);fill:#1D2288;}
	.st42{clip-path:url(#SVGID_2_);fill:#1D2389;}
	.st43{clip-path:url(#SVGID_2_);fill:#1D248A;}
	.st44{clip-path:url(#SVGID_2_);fill:#1E258A;}
	.st45{clip-path:url(#SVGID_2_);fill:#1E268B;}
	.st46{clip-path:url(#SVGID_2_);fill:#1E278C;}
	.st47{clip-path:url(#SVGID_2_);fill:#1E288C;}
	.st48{clip-path:url(#SVGID_2_);fill:#1E298D;}
	.st49{clip-path:url(#SVGID_2_);fill:#1E2A8E;}
	.st50{clip-path:url(#SVGID_2_);fill:#1E2B8E;}
	.st51{clip-path:url(#SVGID_2_);fill:#1E2C8F;}
	.st52{clip-path:url(#SVGID_2_);fill:#1E2D90;}
	.st53{clip-path:url(#SVGID_2_);fill:#1F2E90;}
	.st54{clip-path:url(#SVGID_2_);fill:#1F2F91;}
	.st55{clip-path:url(#SVGID_2_);fill:#1F3092;}
	.st56{clip-path:url(#SVGID_2_);fill:#1F3192;}
	.st57{clip-path:url(#SVGID_2_);fill:#1F3293;}
	.st58{clip-path:url(#SVGID_2_);fill:#1F3394;}
	.st59{clip-path:url(#SVGID_2_);fill:#1F3494;}
	.st60{clip-path:url(#SVGID_2_);fill:#1F3595;}
	.st61{clip-path:url(#SVGID_2_);fill:#1F3696;}
	.st62{clip-path:url(#SVGID_2_);fill:#203796;}
	.st63{clip-path:url(#SVGID_2_);fill:#203897;}
	.st64{clip-path:url(#SVGID_2_);fill:#203998;}
	.st65{clip-path:url(#SVGID_2_);fill:#203A98;}
	.st66{clip-path:url(#SVGID_2_);fill:#203B99;}
	.st67{clip-path:url(#SVGID_2_);fill:#203C9A;}
	.st68{clip-path:url(#SVGID_2_);fill:#203D9A;}
	.st69{clip-path:url(#SVGID_2_);fill:#203E9B;}
	.st70{clip-path:url(#SVGID_2_);fill:#203F9C;}
	.st71{clip-path:url(#SVGID_2_);fill:#21409C;}
	.st72{clip-path:url(#SVGID_2_);fill:#21419D;}
	.st73{clip-path:url(#SVGID_2_);fill:#21429E;}
	.st74{clip-path:url(#SVGID_2_);fill:#21439E;}
	.st75{clip-path:url(#SVGID_2_);fill:#21449F;}
	.st76{clip-path:url(#SVGID_2_);fill:#2145A0;}
	.st77{clip-path:url(#SVGID_2_);fill:#2146A0;}
	.st78{clip-path:url(#SVGID_2_);fill:#2147A1;}
	.st79{clip-path:url(#SVGID_2_);fill:#2248A2;}
	.st80{clip-path:url(#SVGID_2_);fill:#2249A2;}
	.st81{clip-path:url(#SVGID_2_);fill:#224AA3;}
	.st82{clip-path:url(#SVGID_2_);fill:#224BA4;}
	.st83{clip-path:url(#SVGID_2_);fill:#224CA4;}
	.st84{clip-path:url(#SVGID_2_);fill:#224DA5;}
	.st85{clip-path:url(#SVGID_2_);fill:#224EA6;}
	.st86{clip-path:url(#SVGID_2_);fill:#224FA6;}
	.st87{clip-path:url(#SVGID_2_);fill:#2250A7;}
	.st88{clip-path:url(#SVGID_2_);fill:#2351A8;}
	.st89{clip-path:url(#SVGID_2_);fill:#2352A8;}
	.st90{clip-path:url(#SVGID_2_);fill:#2353A9;}
	.st91{clip-path:url(#SVGID_2_);fill:#2354AA;}
	.st92{clip-path:url(#SVGID_2_);fill:#2355AA;}
	.st93{clip-path:url(#SVGID_2_);fill:#2356AB;}
	.st94{clip-path:url(#SVGID_2_);fill:#2357AC;}
	.st95{clip-path:url(#SVGID_2_);fill:#2358AC;}
	.st96{clip-path:url(#SVGID_2_);fill:#2359AD;}
	.st97{clip-path:url(#SVGID_2_);fill:#245AAE;}
	.st98{clip-path:url(#SVGID_2_);fill:#245BAE;}
	.st99{clip-path:url(#SVGID_2_);fill:#245CAF;}
	.st100{clip-path:url(#SVGID_2_);fill:#245DB0;}
	.st101{clip-path:url(#SVGID_2_);fill:#245EB0;}
	.st102{clip-path:url(#SVGID_2_);fill:#245FB1;}
	.st103{clip-path:url(#SVGID_2_);fill:#2460B2;}
	.st104{clip-path:url(#SVGID_2_);fill:#2461B2;}
	.st105{clip-path:url(#SVGID_2_);fill:#2462B3;}
	.st106{clip-path:url(#SVGID_2_);fill:#2564B4;}
	.st107{clip-path:url(#SVGID_2_);fill:#2565B5;}
	.st108{clip-path:url(#SVGID_2_);fill:#2566B5;}
	.st109{clip-path:url(#SVGID_2_);fill:#2567B6;}
	.st110{clip-path:url(#SVGID_2_);fill:#2568B7;}
	.st111{clip-path:url(#SVGID_2_);fill:#2569B7;}
	.st112{clip-path:url(#SVGID_2_);fill:#256AB8;}
	.st113{clip-path:url(#SVGID_2_);fill:#256BB9;}
	.st114{clip-path:url(#SVGID_2_);fill:#256CB9;}
	.st115{clip-path:url(#SVGID_2_);fill:#266DBA;}
	.st116{clip-path:url(#SVGID_2_);fill:#266EBB;}
	.st117{clip-path:url(#SVGID_2_);fill:#266FBB;}
	.st118{clip-path:url(#SVGID_2_);fill:#2670BC;}
	.st119{clip-path:url(#SVGID_2_);fill:#2671BD;}
	.st120{clip-path:url(#SVGID_2_);fill:#2672BD;}
	.st121{clip-path:url(#SVGID_2_);fill:#2673BE;}
	.st122{clip-path:url(#SVGID_2_);fill:#2674BF;}
	.st123{clip-path:url(#SVGID_2_);fill:#2675BF;}
	.st124{clip-path:url(#SVGID_2_);fill:#2776C0;}
	.st125{clip-path:url(#SVGID_2_);fill:#2777C1;}
	.st126{clip-path:url(#SVGID_2_);fill:#2778C1;}
	.st127{clip-path:url(#SVGID_2_);fill:#2779C2;}
	.st128{clip-path:url(#SVGID_2_);fill:#277AC3;}
	.st129{clip-path:url(#SVGID_2_);fill:#277BC3;}
	.st130{clip-path:url(#SVGID_2_);fill:#277CC4;}
	.st131{clip-path:url(#SVGID_2_);fill:#277DC5;}
	.st132{clip-path:url(#SVGID_2_);fill:#277EC5;}
	.st133{clip-path:url(#SVGID_2_);fill:#287FC6;}
	.st134{clip-path:url(#SVGID_2_);fill:#2880C7;}
	.st135{clip-path:url(#SVGID_2_);fill:#2881C7;}
	.st136{clip-path:url(#SVGID_2_);fill:#2882C8;}
	.st137{clip-path:url(#SVGID_2_);fill:#2883C9;}
	.st138{clip-path:url(#SVGID_2_);fill:#2884C9;}
	.st139{clip-path:url(#SVGID_2_);fill:#2885CA;}
	.st140{clip-path:url(#SVGID_2_);fill:#2886CB;}
	.st141{clip-path:url(#SVGID_2_);fill:#2987CB;}
	.st142{clip-path:url(#SVGID_2_);fill:#2988CC;}
	.st143{clip-path:url(#SVGID_2_);fill:#2989CD;}
	.st144{clip-path:url(#SVGID_2_);fill:#298ACD;}
	.st145{clip-path:url(#SVGID_2_);fill:#298BCE;}
	.st146{clip-path:url(#SVGID_2_);fill:#298CCF;}
	.st147{clip-path:url(#SVGID_2_);fill:#298DCF;}
	.st148{clip-path:url(#SVGID_2_);fill:#298ED0;}
	.st149{clip-path:url(#SVGID_2_);fill:#298FD1;}
	.st150{clip-path:url(#SVGID_2_);fill:#2A90D1;}
	.st151{clip-path:url(#SVGID_2_);fill:#2A91D2;}
	.st152{clip-path:url(#SVGID_2_);fill:#2A92D3;}
	.st153{clip-path:url(#SVGID_2_);fill:#2A93D3;}
	.st154{clip-path:url(#SVGID_2_);fill:#2A94D4;}
	.st155{clip-path:url(#SVGID_2_);fill:#2A95D5;}
	.st156{clip-path:url(#SVGID_2_);fill:#2A96D5;}
	.st157{clip-path:url(#SVGID_2_);fill:#2A97D6;}
	.st158{clip-path:url(#SVGID_2_);fill:#2A98D7;}
	.st159{clip-path:url(#SVGID_2_);fill:#2B99D7;}
	.st160{clip-path:url(#SVGID_2_);fill:#2B9AD8;}
	.st161{clip-path:url(#SVGID_2_);fill:#2B9BD9;}
	.st162{clip-path:url(#SVGID_2_);fill:#2B9CD9;}
	.st163{clip-path:url(#SVGID_2_);fill:#2B9DDA;}
	.st164{clip-path:url(#SVGID_2_);fill:#2B9EDB;}
	.st165{clip-path:url(#SVGID_2_);fill:#2B9FDB;}
	.st166{clip-path:url(#SVGID_2_);fill:#2BA0DC;}
	.st167{clip-path:url(#SVGID_2_);fill:#2BA1DD;}
	.st168{clip-path:url(#SVGID_2_);fill:#2CA2DD;}
	.st169{clip-path:url(#SVGID_2_);fill:#2CA3DE;}
	.st170{clip-path:url(#SVGID_2_);fill:#2CA4DF;}
	.st171{clip-path:url(#SVGID_2_);fill:#2CA5DF;}
	.st172{clip-path:url(#SVGID_2_);fill:#2CA6E0;}
	.st173{fill:#FFFFFF;}
	.st174{fill:#BCBCBC;}
	.st175{fill:#231815;}
	.st176{fill:#EBC481;}
	.st177{fill:#FFFFFF;stroke:#231815;stroke-width:3.0643;stroke-miterlimit:10;}
	.st178{fill:#ED7A49;}
	.st179{fill:#E58A4C;}
	.st180{fill:#C30D23;}
	.st181{fill:#F7B52C;}
	.st182{fill:#FAED00;}
	.st183{fill:#C98918;}
	.st184{fill:#009FE8;}
	.st185{fill:#007EAA;}
</style>
<g>
	<g>
		<path class="st0" d="M39.2,205.5c5,3.6,11.3,7,18.7,10C51.7,212.7,45.4,209.4,39.2,205.5C39.2,205.5,39.2,205.5,39.2,205.5z"/>
	</g>
	<g>
		<path class="st1" d="M36.2,203.5c1,0.7,2,1.3,3,2C38.2,204.8,37.1,204.1,36.2,203.5z"/>
	</g>
	<g>
		<g>
			<path class="st0" d="M267.8,139.5c0.2-4.3,0.3-8.7,0.1-13.1c-0.1,2.9-0.3,5.7-0.5,8.5C267.6,136.4,267.7,137.9,267.8,139.5z"/>
		</g>
		<g>
			<path class="st0" d="M39.2,205.5c5,3.6,11.3,7,18.7,10C51.7,212.7,45.4,209.4,39.2,205.5C39.2,205.5,39.2,205.5,39.2,205.5z"/>
		</g>
		<g>
			<path class="st0" d="M57.9,215.5c10.9,4.9,21.5,8.2,30.1,10.3c-0.5-0.5-0.9-1.1-1.1-1.7C76.2,221.9,66.3,218.9,57.9,215.5z"/>
		</g>
		<g>
			<path class="st0" d="M36.2,203.5c1,0.7,2,1.3,3,2C38.2,204.8,37.1,204.1,36.2,203.5z"/>
		</g>
		<g>
			<g>
				<defs>
					<path id="SVGID_1_" d="M57.9,215.5c8.4,3.4,18.2,6.4,29,8.6c-0.3-1.2,0-2.5,1.1-3.9c0,0,9-19.2,22.6-32.8
						c0,0-39.9-42.5-43.3-54.9c0,0-9.3-16.2-4.5-22.8c4.8-6.6,52.9-58.3,104-58.4c0,0,49.1,24,56.8,73c0,0,22.6-4.8,36.8-4
						c3.5,0.2,5.9,5.9,7,14.4c0.3-2.8,0.4-5.6,0.5-8.5c-1.7-50.9-27.6-106.1-63.3-116C142.3-6.8,79.5,26.7,79.5,26.7l0,0
						c-18.2,10.1-34.4,20.8-46.2,30C-17.9,96.6-5.2,171.1,28.6,198c2.5,2,5,3.8,7.6,5.5c1,0.6,2,1.2,3,2
						C45.4,209.4,51.7,212.7,57.9,215.5z"/>
				</defs>
				<clipPath id="SVGID_2_">
					<use xlink:href="#SVGID_1_"  style="overflow:visible;"/>
				</clipPath>
				<polygon class="st2" points="137.1,-6.8 -17.9,101.7 -17.9,-6.8 				"/>
				<polygon class="st2" points="139.6,-6.8 -17.9,103.4 -17.9,101.7 137.1,-6.8 				"/>
				<polygon class="st3" points="142.2,-6.8 -17.9,105.2 -17.9,103.4 139.6,-6.8 				"/>
				<polygon class="st4" points="144.7,-6.8 -17.9,107 -17.9,105.2 142.2,-6.8 				"/>
				<polygon class="st5" points="147.2,-6.8 -17.9,108.7 -17.9,107 144.7,-6.8 				"/>
				<polygon class="st6" points="149.8,-6.8 -17.9,110.5 -17.9,108.7 147.2,-6.8 				"/>
				<polygon class="st7" points="152.3,-6.8 -17.9,112.3 -17.9,110.5 149.8,-6.8 				"/>
				<polygon class="st8" points="154.8,-6.8 -17.9,114.1 -17.9,112.3 152.3,-6.8 				"/>
				<polygon class="st9" points="157.4,-6.8 -17.9,115.8 -17.9,114.1 154.8,-6.8 				"/>
				<polygon class="st10" points="159.9,-6.8 -17.9,117.6 -17.9,115.8 157.4,-6.8 				"/>
				<polygon class="st11" points="162.4,-6.8 -17.9,119.4 -17.9,117.6 159.9,-6.8 				"/>
				<polygon class="st12" points="165,-6.8 -17.9,121.1 -17.9,119.4 162.4,-6.8 				"/>
				<polygon class="st13" points="167.5,-6.8 -17.9,122.9 -17.9,121.1 165,-6.8 				"/>
				<polygon class="st14" points="170,-6.8 -17.9,124.7 -17.9,122.9 167.5,-6.8 				"/>
				<polygon class="st15" points="172.5,-6.8 -17.9,126.5 -17.9,124.7 170,-6.8 				"/>
				<polygon class="st16" points="175.1,-6.8 -17.9,128.2 -17.9,126.5 172.5,-6.8 				"/>
				<polygon class="st17" points="177.6,-6.8 -17.9,130 -17.9,128.2 175.1,-6.8 				"/>
				<polygon class="st18" points="180.1,-6.8 -17.9,131.8 -17.9,130 177.6,-6.8 				"/>
				<polygon class="st19" points="182.7,-6.8 -17.9,133.5 -17.9,131.8 180.1,-6.8 				"/>
				<polygon class="st20" points="185.2,-6.8 -17.9,135.3 -17.9,133.5 182.7,-6.8 				"/>
				<polygon class="st21" points="187.7,-6.8 -17.9,137.1 -17.9,135.3 185.2,-6.8 				"/>
				<polygon class="st22" points="190.3,-6.8 -17.9,138.9 -17.9,137.1 187.7,-6.8 				"/>
				<polygon class="st23" points="192.8,-6.8 -17.9,140.6 -17.9,138.9 190.3,-6.8 				"/>
				<polygon class="st24" points="195.3,-6.8 -17.9,142.4 -17.9,140.6 192.8,-6.8 				"/>
				<polygon class="st25" points="197.8,-6.8 -17.9,144.2 -17.9,142.4 195.3,-6.8 				"/>
				<polygon class="st26" points="200.4,-6.8 -17.9,145.9 -17.9,144.2 197.8,-6.8 				"/>
				<polygon class="st27" points="202.9,-6.8 -17.9,147.7 -17.9,145.9 200.4,-6.8 				"/>
				<polygon class="st28" points="205.4,-6.8 -17.9,149.5 -17.9,147.7 202.9,-6.8 				"/>
				<polygon class="st29" points="208,-6.8 -17.9,151.3 -17.9,149.5 205.4,-6.8 				"/>
				<polygon class="st30" points="210.5,-6.8 -17.9,153 -17.9,151.3 208,-6.8 				"/>
				<polygon class="st31" points="213,-6.8 -17.9,154.8 -17.9,153 210.5,-6.8 				"/>
				<polygon class="st32" points="215.6,-6.8 -17.2,156.1 -17.9,155.2 -17.9,154.8 213,-6.8 				"/>
				<polygon class="st33" points="218.1,-6.8 -16.4,157.3 -17.2,156.1 215.6,-6.8 				"/>
				<polygon class="st34" points="220.6,-6.8 -15.5,158.5 -16.4,157.3 218.1,-6.8 				"/>
				<polygon class="st35" points="222.8,-6.8 222.9,-6.7 -14.7,159.7 -15.5,158.5 220.6,-6.8 				"/>
				
					<rect x="-40.5" y="76.4" transform="matrix(0.8192 -0.5735 0.5735 0.8192 -25.3109 73.88)" class="st36" width="290.1" height="1.5"/>
				
					<rect x="-39.7" y="77.6" transform="matrix(0.8192 -0.5735 0.5735 0.8192 -25.8423 74.5721)" class="st37" width="290.1" height="1.5"/>
				
					<rect x="-38.9" y="78.7" transform="matrix(0.8192 -0.5735 0.5735 0.8192 -26.3736 75.2643)" class="st38" width="290.1" height="1.5"/>
				
					<rect x="-38" y="79.9" transform="matrix(0.8192 -0.5735 0.5735 0.8192 -26.9049 75.9564)" class="st39" width="290.1" height="1.5"/>
				
					<rect x="-37.3" y="81.1" transform="matrix(0.8192 -0.5735 0.5735 0.8192 -27.3858 76.5828)" class="st39" width="290.1" height="1.2"/>
				
					<rect x="-36.6" y="82.1" transform="matrix(0.8192 -0.5735 0.5735 0.8192 -27.8161 77.1434)" class="st40" width="290.1" height="1.2"/>
				
					<rect x="-35.9" y="83.1" transform="matrix(0.8192 -0.5735 0.5735 0.8192 -28.2465 77.704)" class="st41" width="290.1" height="1.2"/>
				
					<rect x="-35.2" y="84" transform="matrix(0.8192 -0.5735 0.5735 0.8192 -28.6768 78.2646)" class="st42" width="290.1" height="1.2"/>
				
					<rect x="-34.6" y="85" transform="matrix(0.8192 -0.5735 0.5735 0.8192 -29.1072 78.8252)" class="st43" width="290.1" height="1.2"/>
				
					<rect x="-33.9" y="86" transform="matrix(0.8192 -0.5735 0.5735 0.8192 -29.5375 79.3858)" class="st44" width="290.1" height="1.2"/>
				
					<rect x="-33.2" y="86.9" transform="matrix(0.8192 -0.5735 0.5735 0.8192 -29.9679 79.9464)" class="st45" width="290.1" height="1.2"/>
				
					<rect x="-32.6" y="87.9" transform="matrix(0.8192 -0.5735 0.5735 0.8192 -30.3982 80.507)" class="st46" width="290.1" height="1.2"/>
				
					<rect x="-31.9" y="88.8" transform="matrix(0.8192 -0.5735 0.5735 0.8192 -30.8285 81.0676)" class="st47" width="290.1" height="1.2"/>
				
					<rect x="-31.2" y="89.8" transform="matrix(0.8192 -0.5735 0.5735 0.8192 -31.2589 81.6282)" class="st48" width="290.1" height="1.2"/>
				
					<rect x="-30.5" y="90.8" transform="matrix(0.8192 -0.5735 0.5735 0.8192 -31.6892 82.1887)" class="st49" width="290.1" height="1.2"/>
				
					<rect x="-29.9" y="91.7" transform="matrix(0.8192 -0.5735 0.5735 0.8192 -32.1196 82.7494)" class="st50" width="290.1" height="1.2"/>
				
					<rect x="-29.2" y="92.7" transform="matrix(0.8192 -0.5735 0.5735 0.8192 -32.5499 83.31)" class="st51" width="290.1" height="1.2"/>
				
					<rect x="-28.5" y="93.7" transform="matrix(0.8192 -0.5735 0.5735 0.8192 -32.9803 83.8705)" class="st52" width="290.1" height="1.2"/>
				
					<rect x="-27.8" y="94.6" transform="matrix(0.8192 -0.5735 0.5735 0.8192 -33.4106 84.4311)" class="st53" width="290.1" height="1.2"/>
				
					<rect x="-27.2" y="95.6" transform="matrix(0.8192 -0.5735 0.5735 0.8192 -33.841 84.9917)" class="st54" width="290.1" height="1.2"/>
				
					<rect x="-26.5" y="96.5" transform="matrix(0.8192 -0.5735 0.5735 0.8192 -34.2713 85.5523)" class="st55" width="290.1" height="1.2"/>
				
					<rect x="-25.8" y="97.5" transform="matrix(0.8192 -0.5735 0.5735 0.8192 -34.7016 86.1129)" class="st56" width="290.1" height="1.2"/>
				
					<rect x="-25.1" y="98.5" transform="matrix(0.8192 -0.5735 0.5735 0.8192 -35.132 86.6735)" class="st57" width="290.1" height="1.2"/>
				
					<rect x="-24.5" y="99.4" transform="matrix(0.8192 -0.5735 0.5735 0.8192 -35.5623 87.2341)" class="st58" width="290.1" height="1.2"/>
				
					<rect x="-23.8" y="100.4" transform="matrix(0.8192 -0.5735 0.5735 0.8192 -35.9927 87.7947)" class="st59" width="290.1" height="1.2"/>
				
					<rect x="-23.1" y="101.4" transform="matrix(0.8192 -0.5735 0.5735 0.8192 -36.423 88.3553)" class="st60" width="290.1" height="1.2"/>
				
					<rect x="-22.4" y="102.3" transform="matrix(0.8192 -0.5735 0.5735 0.8192 -36.8534 88.9159)" class="st61" width="290.1" height="1.2"/>
				
					<rect x="-21.8" y="103.3" transform="matrix(0.8192 -0.5735 0.5735 0.8192 -37.2837 89.4765)" class="st62" width="290.1" height="1.2"/>
				
					<rect x="-21.1" y="104.3" transform="matrix(0.8192 -0.5735 0.5735 0.8192 -37.7141 90.0371)" class="st63" width="290.1" height="1.2"/>
				
					<rect x="-20.4" y="105.2" transform="matrix(0.8192 -0.5735 0.5735 0.8192 -38.1444 90.5976)" class="st64" width="290.1" height="1.2"/>
				
					<rect x="-19.7" y="106.2" transform="matrix(0.8192 -0.5735 0.5735 0.8192 -38.5748 91.1582)" class="st65" width="290.1" height="1.2"/>
				
					<rect x="-19.1" y="107.1" transform="matrix(0.8192 -0.5735 0.5735 0.8192 -39.0051 91.7188)" class="st66" width="290.1" height="1.2"/>
				
					<rect x="-18.4" y="108.1" transform="matrix(0.8192 -0.5735 0.5735 0.8192 -39.4354 92.2795)" class="st67" width="290.1" height="1.2"/>
				
					<rect x="-17.7" y="109.1" transform="matrix(0.8192 -0.5735 0.5735 0.8192 -39.8658 92.84)" class="st68" width="290.1" height="1.2"/>
				
					<rect x="-17" y="110" transform="matrix(0.8192 -0.5735 0.5735 0.8192 -40.2961 93.4006)" class="st69" width="290.1" height="1.2"/>
				
					<rect x="-16.4" y="111" transform="matrix(0.8192 -0.5735 0.5735 0.8192 -40.7265 93.9612)" class="st70" width="290.1" height="1.2"/>
				
					<rect x="-15.7" y="112" transform="matrix(0.8192 -0.5735 0.5735 0.8192 -41.1568 94.5218)" class="st71" width="290.1" height="1.2"/>
				
					<rect x="-15" y="112.9" transform="matrix(0.8192 -0.5735 0.5735 0.8192 -41.5872 95.0824)" class="st72" width="290.1" height="1.2"/>
				
					<rect x="-14.4" y="113.9" transform="matrix(0.8192 -0.5735 0.5735 0.8192 -42.0175 95.643)" class="st73" width="290.1" height="1.2"/>
				
					<rect x="-13.7" y="114.8" transform="matrix(0.8192 -0.5735 0.5735 0.8192 -42.4479 96.2036)" class="st74" width="290.1" height="1.2"/>
				
					<rect x="-13" y="115.8" transform="matrix(0.8192 -0.5735 0.5735 0.8192 -42.8782 96.7642)" class="st75" width="290.1" height="1.2"/>
				
					<rect x="-12.3" y="116.8" transform="matrix(0.8192 -0.5735 0.5735 0.8192 -43.3085 97.3248)" class="st76" width="290.1" height="1.2"/>
				
					<rect x="-11.7" y="117.7" transform="matrix(0.8192 -0.5735 0.5735 0.8192 -43.7389 97.8854)" class="st77" width="290.1" height="1.2"/>
				
					<rect x="-11" y="118.7" transform="matrix(0.8192 -0.5735 0.5735 0.8192 -44.1692 98.446)" class="st78" width="290.1" height="1.2"/>
				
					<rect x="-10.3" y="119.7" transform="matrix(0.8192 -0.5735 0.5735 0.8192 -44.5996 99.0066)" class="st79" width="290.1" height="1.2"/>
				
					<rect x="-9.6" y="120.6" transform="matrix(0.8192 -0.5735 0.5735 0.8192 -45.0299 99.5672)" class="st80" width="290.1" height="1.2"/>
				
					<rect x="-9" y="121.6" transform="matrix(0.8192 -0.5735 0.5735 0.8192 -45.4603 100.1277)" class="st81" width="290.1" height="1.2"/>
				
					<rect x="-8.3" y="122.5" transform="matrix(0.8192 -0.5735 0.5735 0.8192 -45.8906 100.6883)" class="st82" width="290.1" height="1.2"/>
				
					<rect x="-7.6" y="123.5" transform="matrix(0.8192 -0.5735 0.5735 0.8192 -46.321 101.2489)" class="st83" width="290.1" height="1.2"/>
				
					<rect x="-6.9" y="124.5" transform="matrix(0.8192 -0.5735 0.5735 0.8192 -46.7513 101.8096)" class="st84" width="290.1" height="1.2"/>
				
					<rect x="-6.3" y="125.4" transform="matrix(0.8192 -0.5735 0.5735 0.8192 -47.1816 102.3701)" class="st85" width="290.1" height="1.2"/>
				
					<rect x="-5.6" y="126.4" transform="matrix(0.8192 -0.5735 0.5735 0.8192 -47.612 102.9307)" class="st86" width="290.1" height="1.2"/>
				
					<rect x="-4.9" y="127.4" transform="matrix(0.8192 -0.5735 0.5735 0.8192 -48.0423 103.4913)" class="st87" width="290.1" height="1.2"/>
				
					<rect x="-4.2" y="128.3" transform="matrix(0.8192 -0.5735 0.5735 0.8192 -48.4727 104.0519)" class="st88" width="290.1" height="1.2"/>
				
					<rect x="-3.6" y="129.3" transform="matrix(0.8192 -0.5735 0.5735 0.8192 -48.903 104.6125)" class="st89" width="290.1" height="1.2"/>
				
					<rect x="-2.9" y="130.3" transform="matrix(0.8192 -0.5735 0.5735 0.8192 -49.3334 105.1731)" class="st90" width="290.1" height="1.2"/>
				
					<rect x="-2.2" y="131.2" transform="matrix(0.8192 -0.5735 0.5735 0.8192 -49.7637 105.7337)" class="st91" width="290.1" height="1.2"/>
				
					<rect x="-1.5" y="132.2" transform="matrix(0.8192 -0.5735 0.5735 0.8192 -50.1941 106.2943)" class="st92" width="290.1" height="1.2"/>
				
					<rect x="-0.9" y="133.1" transform="matrix(0.8192 -0.5735 0.5735 0.8192 -50.6244 106.8549)" class="st93" width="290.1" height="1.2"/>
				
					<rect x="-0.2" y="134.1" transform="matrix(0.8192 -0.5735 0.5735 0.8192 -51.0548 107.4155)" class="st94" width="290.1" height="1.2"/>
				
					<rect x="0.5" y="135.1" transform="matrix(0.8192 -0.5735 0.5735 0.8192 -51.4851 107.9761)" class="st95" width="290.1" height="1.2"/>
				
					<rect x="1.1" y="136" transform="matrix(0.8192 -0.5735 0.5735 0.8192 -51.9154 108.5367)" class="st96" width="290.1" height="1.2"/>
				
					<rect x="1.8" y="137" transform="matrix(0.8192 -0.5735 0.5735 0.8192 -52.3458 109.0972)" class="st97" width="290.1" height="1.2"/>
				
					<rect x="2.5" y="138" transform="matrix(0.8192 -0.5735 0.5735 0.8192 -52.7761 109.6578)" class="st98" width="290.1" height="1.2"/>
				
					<rect x="3.2" y="138.9" transform="matrix(0.8192 -0.5735 0.5735 0.8192 -53.2065 110.2184)" class="st99" width="290.1" height="1.2"/>
				<polygon class="st100" points="267.4,56.8 267.9,57.5 267.9,57.9 30.4,224.1 29.7,223.2 				"/>
				<polygon class="st101" points="267.9,59.3 32.4,224.1 30.4,224.1 30.4,224.1 267.9,57.9 				"/>
				<polygon class="st102" points="267.9,60.7 34.5,224.1 32.4,224.1 267.9,59.3 				"/>
				<polygon class="st103" points="267.9,62.2 36.5,224.1 34.5,224.1 267.9,60.7 				"/>
				<polygon class="st104" points="267.9,63.6 38.6,224.1 36.5,224.1 267.9,62.2 				"/>
				<polygon class="st105" points="267.9,65 40.6,224.1 38.6,224.1 267.9,63.6 				"/>
				<polygon class="st106" points="267.9,66.5 42.7,224.1 40.6,224.1 267.9,65 				"/>
				<polygon class="st107" points="267.9,67.9 44.7,224.1 42.7,224.1 267.9,66.5 				"/>
				<polygon class="st108" points="267.9,69.4 46.8,224.1 44.7,224.1 267.9,67.9 				"/>
				<polygon class="st109" points="267.9,70.8 48.8,224.1 46.8,224.1 267.9,69.4 				"/>
				<polygon class="st110" points="267.9,72.2 50.9,224.1 48.8,224.1 267.9,70.8 				"/>
				<polygon class="st111" points="267.9,73.7 52.9,224.1 50.9,224.1 267.9,72.2 				"/>
				<polygon class="st112" points="267.9,75.1 55,224.1 52.9,224.1 267.9,73.7 				"/>
				<polygon class="st113" points="267.9,76.5 57,224.1 55,224.1 267.9,75.1 				"/>
				<polygon class="st114" points="267.9,78 59.1,224.1 57,224.1 267.9,76.5 				"/>
				<polygon class="st115" points="267.9,79.4 61.1,224.1 59.1,224.1 267.9,78 				"/>
				<polygon class="st116" points="267.9,80.8 63.2,224.1 61.1,224.1 267.9,79.4 				"/>
				<polygon class="st117" points="267.9,82.3 65.2,224.1 63.2,224.1 267.9,80.8 				"/>
				<polygon class="st118" points="267.9,83.7 67.3,224.1 65.2,224.1 267.9,82.3 				"/>
				<polygon class="st119" points="267.9,85.1 69.3,224.1 67.3,224.1 267.9,83.7 				"/>
				<polygon class="st120" points="267.9,86.6 71.4,224.1 69.3,224.1 267.9,85.1 				"/>
				<polygon class="st121" points="267.9,88 73.4,224.1 71.4,224.1 267.9,86.6 				"/>
				<polygon class="st122" points="267.9,89.4 75.5,224.1 73.4,224.1 267.9,88 				"/>
				<polygon class="st123" points="267.9,90.9 77.5,224.1 75.5,224.1 267.9,89.4 				"/>
				<polygon class="st124" points="267.9,92.3 79.6,224.1 77.5,224.1 267.9,90.9 				"/>
				<polygon class="st125" points="267.9,93.7 81.6,224.1 79.6,224.1 267.9,92.3 				"/>
				<polygon class="st126" points="267.9,95.2 83.7,224.1 81.6,224.1 267.9,93.7 				"/>
				<polygon class="st127" points="267.9,96.6 85.7,224.1 83.7,224.1 267.9,95.2 				"/>
				<polygon class="st128" points="267.9,98 87.8,224.1 85.7,224.1 267.9,96.6 				"/>
				<polygon class="st129" points="267.9,99.5 89.8,224.1 87.8,224.1 267.9,98 				"/>
				<polygon class="st130" points="267.9,100.9 91.9,224.1 89.8,224.1 267.9,99.5 				"/>
				<polygon class="st131" points="267.9,102.4 93.9,224.1 91.9,224.1 267.9,100.9 				"/>
				<polygon class="st132" points="267.9,103.8 96,224.1 93.9,224.1 267.9,102.4 				"/>
				<polygon class="st133" points="267.9,105.2 98,224.1 96,224.1 267.9,103.8 				"/>
				<polygon class="st134" points="267.9,106.7 100.1,224.1 98,224.1 267.9,105.2 				"/>
				<polygon class="st135" points="267.9,108.1 102.1,224.1 100.1,224.1 267.9,106.7 				"/>
				<polygon class="st136" points="267.9,109.5 104.2,224.1 102.1,224.1 267.9,108.1 				"/>
				<polygon class="st137" points="267.9,111 106.2,224.1 104.2,224.1 267.9,109.5 				"/>
				<polygon class="st138" points="267.9,112.4 108.3,224.1 106.2,224.1 267.9,111 				"/>
				<polygon class="st139" points="267.9,113.8 110.3,224.1 108.3,224.1 267.9,112.4 				"/>
				<polygon class="st140" points="267.9,115.3 112.4,224.1 110.3,224.1 267.9,113.8 				"/>
				<polygon class="st141" points="267.9,116.7 114.4,224.1 112.4,224.1 267.9,115.3 				"/>
				<polygon class="st142" points="267.9,118.1 116.5,224.1 114.4,224.1 267.9,116.7 				"/>
				<polygon class="st143" points="267.9,119.6 118.5,224.1 116.5,224.1 267.9,118.1 				"/>
				<polygon class="st144" points="267.9,121 120.6,224.1 118.5,224.1 267.9,119.6 				"/>
				<polygon class="st145" points="267.9,122.4 122.6,224.1 120.6,224.1 267.9,121 				"/>
				<polygon class="st146" points="267.9,123.9 124.7,224.1 122.6,224.1 267.9,122.4 				"/>
				<polygon class="st147" points="267.9,125.3 126.7,224.1 124.7,224.1 267.9,123.9 				"/>
				<polygon class="st148" points="267.9,126.7 128.8,224.1 126.7,224.1 267.9,125.3 				"/>
				<polygon class="st149" points="267.9,128.2 130.8,224.1 128.8,224.1 267.9,126.7 				"/>
				<polygon class="st150" points="267.9,129.6 132.9,224.1 130.8,224.1 267.9,128.2 				"/>
				<polygon class="st151" points="267.9,131 134.9,224.1 132.9,224.1 267.9,129.6 				"/>
				<polygon class="st152" points="267.9,132.5 137,224.1 134.9,224.1 267.9,131 				"/>
				<polygon class="st153" points="267.9,133.9 139,224.1 137,224.1 267.9,132.5 				"/>
				<polygon class="st154" points="267.9,135.4 141.1,224.1 139,224.1 267.9,133.9 				"/>
				<polygon class="st155" points="267.9,136.8 143.1,224.1 141.1,224.1 267.9,135.4 				"/>
				<polygon class="st156" points="267.9,138.2 145.2,224.1 143.1,224.1 267.9,136.8 				"/>
				<polygon class="st157" points="267.9,139.7 147.2,224.1 145.2,224.1 267.9,138.2 				"/>
				<polygon class="st158" points="267.9,141.1 149.3,224.1 147.2,224.1 267.9,139.7 				"/>
				<polygon class="st159" points="267.9,142.5 151.3,224.1 149.3,224.1 267.9,141.1 				"/>
				<polygon class="st160" points="267.9,144 153.4,224.1 151.3,224.1 267.9,142.5 				"/>
				<polygon class="st161" points="267.9,145.4 155.4,224.1 153.4,224.1 267.9,144 				"/>
				<polygon class="st162" points="267.9,146.8 157.5,224.1 155.4,224.1 267.9,145.4 				"/>
				<polygon class="st163" points="267.9,148.3 159.5,224.1 157.5,224.1 267.9,146.8 				"/>
				<polygon class="st164" points="267.9,149.7 161.6,224.1 159.5,224.1 267.9,148.3 				"/>
				<polygon class="st165" points="267.9,151.1 163.6,224.1 161.6,224.1 267.9,149.7 				"/>
				<polygon class="st166" points="267.9,152.6 165.7,224.1 163.6,224.1 267.9,151.1 				"/>
				<polygon class="st167" points="267.9,154 167.7,224.1 165.7,224.1 267.9,152.6 				"/>
				<polygon class="st168" points="267.9,155.4 169.8,224.1 167.7,224.1 267.9,154 				"/>
				<polygon class="st169" points="267.9,156.9 171.8,224.1 169.8,224.1 267.9,155.4 				"/>
				<polygon class="st170" points="267.9,158.3 173.9,224.1 171.8,224.1 267.9,156.9 				"/>
				<polygon class="st171" points="267.9,159.7 175.9,224.1 173.9,224.1 267.9,158.3 				"/>
				<polygon class="st172" points="267.9,161.2 178,224.1 175.9,224.1 267.9,159.7 				"/>
				<polygon class="st172" points="178,224.1 267.9,161.2 267.9,224.1 				"/>
			</g>
		</g>
		<g>
			<path class="st173" d="M227.3,200.5c25.8-11.3,37.4-35.9,40.1-65.5c-1.1-8.6-3.4-14.2-7-14.4c-14.2-0.8-36.8,4-36.8,4
				c-7.7-49.1-56.8-73-56.8-73c-51.1,0.1-99.2,51.8-104,58.4c-4.8,6.6,4.5,22.8,4.5,22.8c3.5,12.4,43.3,54.9,43.3,54.9
				c-13.6,13.6-22.6,32.8-22.6,32.8c-1.1,1.4-1.5,2.7-1.1,3.9c10.3,2.1,21.5,3.7,33.3,4.4C140.9,226.1,184.6,219.1,227.3,200.5z"/>
		</g>
	</g>
	<g>
		<g>
			<path class="st174" d="M147.4,134c0,0-60.7-15.9-62.5-1.6c-1.7,14.3,41.3,3.4,41.3,3.4L147.4,134z"/>
		</g>
		<g>
			<path class="st174" d="M102.7,133.1c0,0,10.6,15.7,13.1,22.2c2.5,6.6,12.7-5.5,12.7-5.5l-3.4-16.7L102.7,133.1z"/>
		</g>
		<g>
			<path class="st174" d="M136.3,140.2c0,0-39.3,22.3-32.9,27.7c6.4,5.5,12,0,12,0l20.1-15.5L136.3,140.2z"/>
		</g>
	</g>
	<g>
		<path class="st174" d="M138.8,161.9c0,0,2.2,6.8,0,16.3s-23.9,49-15.8,40s21-34.6,27.5-33c6.5,1.6,10.1,5.5,18.1,5.5
			c8,0,16.9-9.4,16.9-12.5c0,0,6.5,3.3,16.6-4.6c0,0,5.9-3.8,5.9-11.7c0-7.8,23.5,10.7,23.5,10.7s-22.8-21.3-16.8-21.6
			c6-0.2,17.5-0.9,25.1,0c7.6,0.9-6-8.5-30.5-6.8c0,0-14.6-10.2-12.6-15.2c2-5-17.4,0-17.4,0L138.8,161.9z"/>
	</g>
	<g>
		<path class="st174" d="M204.6,168c0,0,22.4,11.5,31.8,10.2l-28.2-22.9L204.6,168z"/>
	</g>
	<g>
		<path class="st174" d="M185.4,178.2c0,0,3.3,30.8-2.7,37c-6,6.2-16.7-30-16.7-30L185.4,178.2z"/>
	</g>
	<g>
		<path class="st174" d="M157.7,74.6c0,0,30.3,1.6,36.6,10.9s-10.8,5.1-10.8,5.1s10.5,9.1,7.8,23c-2.7,13.9,22.9-2.7,24.3,0.2
			c1.4,2.9-19.5,18.5-23.3,19.2s-16.4-8.8-16.4-8.8L157.7,74.6z"/>
	</g>
	<g>
		<g>
			<g>
				<path class="st175" d="M163.4,51.4c0,0,17,7.2,36.6,28.4c2.1,2.3,24.3,33.8,21.6,41c0,0-0.4,0.7-1.9,2
					c-53.7,11.3-88.7,39.6-108.4,60.9c-0.8-0.3-1.7-0.8-2.6-1.6c0,0-52-58.1-45.3-69.2c0,0,7.5-16.1,41.6-38.4
					C105,74.5,134.8,55.9,163.4,51.4 M163.4,47.8c-0.2,0-0.4,0-0.6,0c-29,4.5-58.5,22.8-59.7,23.5c0,0,0,0-0.1,0
					c-33.1,21.7-41.9,37.8-42.8,39.7c-2.2,3.9-0.9,9.8,4.3,19.1c3.6,6.4,9,14.3,16.2,23.7c12.1,15.8,25.2,30.5,25.3,30.7
					c0.1,0.1,0.1,0.1,0.2,0.2c1.2,1.1,2.5,1.9,3.8,2.4c0.4,0.1,0.8,0.2,1.2,0.2c1,0,2-0.4,2.7-1.2c19.6-21.2,53.9-48.7,106.4-59.8
					c0.6-0.1,1.2-0.4,1.7-0.8c1.7-1.5,2.3-2.4,2.6-2.9c0.1-0.2,0.2-0.4,0.3-0.6c1-2.7,0.4-6.4-2-11.9c-1.6-3.8-4.1-8.4-7.3-13.7
					c-5.2-8.7-11.6-17.7-13-19.2c-19.9-21.5-37.1-29-37.9-29.3C164.3,47.9,163.9,47.8,163.4,47.8L163.4,47.8z"/>
			</g>
		</g>
		<g>
			<path class="st175" d="M92.2,213.8c-0.3,0-0.6-0.1-0.9-0.2c-0.9-0.5-1.2-1.6-0.7-2.5c0.5-0.9,12-21.4,37.7-43.2
				c15.1-12.8,31.9-23.3,50.1-31.2c22.7-9.9,47.4-15.9,73.6-17.7c1-0.1,1.9,0.7,2,1.7c0.1,1-0.7,1.9-1.7,2
				c-25.7,1.8-50,7.6-72.3,17.4c-17.8,7.8-34.3,18.1-49.1,30.6c-13.2,11.2-22.5,22-28,29.2c-6,7.8-8.9,13-8.9,13
				C93.5,213.4,92.9,213.8,92.2,213.8z"/>
		</g>
		<g>
			<path class="st175" d="M136.3,137.6c-0.2,0-0.5,0-0.7-0.1c-0.1,0-11-4.3-22.6-7c-14.5-3.3-23.9-2.6-26.5,1.9
				c-0.5,0.9-1.6,1.2-2.5,0.7c-0.9-0.5-1.2-1.6-0.7-2.5c8.2-14.1,49,1.7,53.6,3.5c0.9,0.4,1.4,1.4,1,2.4
				C137.7,137.2,137,137.6,136.3,137.6z"/>
		</g>
		<g>
			<path class="st175" d="M155.7,112.4c-0.2,0-0.3,0-0.5-0.1c-1-0.3-1.5-1.3-1.2-2.3c0.1-0.3,2.4-8.1,7.4-15.9
				c6.7-10.6,15.1-15.8,24.2-15.2c1,0.1,1.8,1,1.7,2c-0.1,1-1,1.8-2,1.7c-18.9-1.3-27.7,28.1-27.8,28.4
				C157.2,111.9,156.5,112.4,155.7,112.4z"/>
		</g>
		<g>
			<path class="st175" d="M169.4,129.9c-1.5,0-2.4,0-2.6,0c-1,0-1.8-0.9-1.8-1.9c0-1,0.8-1.8,1.8-1.8c0,0,0,0,0,0
				c8.5,0.2,32.2-0.6,38.8-7c0.7-0.7,1.9-0.7,2.6,0c0.7,0.7,0.7,1.9,0,2.6C200.5,129.2,177.2,129.9,169.4,129.9z"/>
		</g>
		<g>
			<path class="st175" d="M110,172.6c-0.7,0-1.3-0.4-1.7-1c-0.4-0.9-0.1-2,0.9-2.5c4.3-2.1,17.8-13.4,22.6-17.6
				c0.8-0.7,1.9-0.6,2.6,0.2c0.7,0.8,0.6,1.9-0.2,2.6c-0.7,0.6-17.8,15.4-23.4,18.1C110.5,172.6,110.2,172.6,110,172.6z"/>
		</g>
		<g>
			<path class="st175" d="M132.5,200.9c-0.3,0-0.6-0.1-0.9-0.2c-0.9-0.5-1.2-1.6-0.7-2.5l19.6-33.8c0.5-0.9,1.6-1.2,2.5-0.7
				c0.9,0.5,1.2,1.6,0.7,2.5l-19.6,33.8C133.7,200.5,133.1,200.9,132.5,200.9z"/>
		</g>
		<g>
			<path class="st175" d="M175.9,209c-0.7,0-1.3-0.4-1.6-1L156,171c-0.5-0.9-0.1-2,0.8-2.5c0.9-0.4,2-0.1,2.5,0.8l18.2,36.9
				c0.5,0.9,0.1,2-0.8,2.5C176.5,208.9,176.2,209,175.9,209z"/>
		</g>
		<g>
			<path class="st175" d="M231.3,175.4c-0.4,0-0.8-0.1-1.1-0.4l-37-29.2c-0.8-0.6-0.9-1.8-0.3-2.6c0.6-0.8,1.8-0.9,2.6-0.3l37,29.2
				c0.8,0.6,0.9,1.8,0.3,2.6C232.4,175.1,231.9,175.4,231.3,175.4z"/>
		</g>
		<g>
			<path class="st175" d="M238.6,149.6c-0.2,0-0.3,0-0.5-0.1c-17.4-5-38.9-3.2-39.1-3.1c-1,0.1-1.9-0.7-2-1.7c-0.1-1,0.7-1.9,1.7-2
				c0.9-0.1,22.4-2,40.5,3.3c1,0.3,1.5,1.3,1.3,2.3C240.2,149.1,239.4,149.6,238.6,149.6z"/>
		</g>
	</g>
	<g>
		<g>
			<g>
				<path class="st173" d="M153.9,179.6c2.8,2.7,5.8,4.6,8.9,5.3c8.6,1.7,13.8-5,14.4-8.3c0.5-2.9-0.4-6.6-2.3-10.3
					C164.6,169.6,158,175,153.9,179.6z"/>
			</g>
			<g>
				<path class="st176" d="M174.9,166.3c-4.4-8.8-13.9-17.8-21.8-17.9c-13.5-0.1-10.2,11.7-10.2,11.7c1.9,7.1,6,14.6,11,19.6
					C158,175,164.6,169.6,174.9,166.3z"/>
			</g>
			<g>
				<path class="st175" d="M152.9,148.4c0.1,0,0.1,0,0.2,0c11.2,0.1,25.8,18.3,24.1,28.2c-0.5,3-4.7,8.6-11.6,8.6
					c-0.9,0-1.8-0.1-2.8-0.3c-8.6-1.7-16.9-13.7-19.9-24.8C142.9,160.1,139.7,148.4,152.9,148.4 M152.9,144.7L152.9,144.7
					c-5.3,0-9.2,1.6-11.7,4.8c-3.6,4.7-2.1,10.7-1.9,11.5c3.1,11.7,12.1,25.3,22.7,27.5c1.2,0.2,2.3,0.4,3.5,0.4
					c8.6,0,14.4-6.8,15.2-11.6c1-5.8-2-13.5-8-20.8c-6.1-7.3-13.4-11.7-19.7-11.8L152.9,144.7L152.9,144.7z"/>
			</g>
			<g>
				<path class="st175" d="M167.4,187.1c-0.2,0-0.3,0-0.5-0.1c-3.7-2.2-5.3-5.1-5.3-5.3c-0.2-0.4-0.1-1,0.4-1.2
					c0.4-0.2,1-0.1,1.2,0.4l0,0c0,0,1.5,2.6,4.7,4.5c0.4,0.3,0.6,0.8,0.3,1.3C168,186.9,167.7,187.1,167.4,187.1z"/>
			</g>
			<g>
				<path class="st175" d="M176,182.2c-0.4,0-0.8-0.3-0.9-0.8c-0.6-3.3-3.2-5.6-3.3-5.6c-0.4-0.3-0.4-0.9-0.1-1.3
					c0.3-0.4,0.9-0.4,1.3-0.1c0.1,0.1,3.2,2.7,3.9,6.7c0.1,0.5-0.3,1-0.8,1.1C176.1,182.2,176.1,182.2,176,182.2z"/>
			</g>
		</g>
		<g>
			<g>
				<path class="st173" d="M177.6,163.3c1.8,3.4,4.1,6.2,6.9,7.7c7.7,4.2,14.6-0.6,16.2-3.6c1.4-2.6,1.6-6.4,0.9-10.5
					C190.8,156.9,182.8,160.1,177.6,163.3z"/>
			</g>
			<g>
				<path class="st176" d="M201.6,156.8c-1.5-9.7-7.9-21.2-15.5-23.6c-12.8-4.1-13.2,8.1-13.2,8.1c-0.3,7.4,1.4,15.8,4.7,21.9
					C182.8,160.1,190.8,156.9,201.6,156.8z"/>
			</g>
			<g>
				<path class="st175" d="M181.3,132.4c1.4,0,3,0.3,4.8,0.9c10.7,3.5,19.1,25.2,14.5,34.1c-1.1,2.2-5,5.3-10,5.3
					c-1.9,0-4-0.5-6.2-1.7c-7.7-4.2-12.1-18.2-11.6-29.6C172.9,141.3,173.2,132.4,181.3,132.4 M181.3,128.7L181.3,128.7
					c-8.6,0-11.9,7.5-12.1,12.5c-0.5,12.1,4,27.8,13.5,33c2.6,1.4,5.2,2.1,8,2.1c6.2,0,11.4-3.8,13.3-7.3c2.7-5.2,2.2-13.5-1.4-22.2
					c-3.6-8.8-9.3-15.2-15.3-17.1C185.1,129,183.1,128.7,181.3,128.7L181.3,128.7z"/>
			</g>
			<g>
				<path class="st175" d="M188.4,174.4c-0.3,0-0.5-0.1-0.7-0.3c-2.8-3.2-3.5-6.5-3.5-6.6c-0.1-0.5,0.2-1,0.7-1.1
					c0.5-0.1,1,0.2,1.1,0.7c0,0,0.6,3,3.1,5.7c0.3,0.4,0.3,1-0.1,1.3C188.9,174.4,188.7,174.4,188.4,174.4z"/>
			</g>
			<g>
				<path class="st175" d="M198.2,172.4c0,0-0.1,0-0.1,0c-0.5-0.1-0.9-0.5-0.8-1c0.4-3.3-1.4-6.3-1.4-6.4c-0.3-0.4-0.1-1,0.3-1.3
					c0.4-0.3,1-0.1,1.3,0.3c0.1,0.1,2.2,3.6,1.7,7.6C199,172,198.6,172.4,198.2,172.4z"/>
			</g>
		</g>
		<g>
			<g>
				<g>
					<path class="st173" d="M190.5,107.9c4.8,18.1-10.5,37.1-31.7,45c-26.7,10-43.6-4.1-48.4-22.2s9.1-37.5,31-43.4
						C163.2,81.5,185.7,89.8,190.5,107.9z"/>
				</g>
				<g>
					<path class="st177" d="M193.7,118.3"/>
				</g>
				<g>
					<path class="st176" d="M143.8,156.9c0,0-19.4-0.1-18-18.4c0,0,1.1-4.8,7.1-7.6s7-10.5,7-10.5s-0.1-5.2,4.4-6
						c4.6-0.8,3.7-3.3,3.7-3.3s0.1-3.5,4.1-3.2c4,0.2,11.6-1.3,15.5-6.5c3.9-5.2,11.7-3.7,11.7-3.7s17.7,7.4,9.4,29.9
						c0,0,6.5-10,4.2-20.4c-2.3-10.4-8.8-21.1-32.2-29.4l-6.6-1.4l-11.7-7.4l-7,0.9L135.1,80l-0.4,8.4c0,0-6,0.4-9.1,5.7
						c-3.1,5.4-4.1,4.1-4.1,4.1s-9.6-3.3-11.9-2.8c-2.3,0.5-6.2,1.1-6.2,1.1l4.9,20.7c0,0,2.1,21.4,7.5,28.3
						C121.3,152.3,129.7,159.9,143.8,156.9z"/>
				</g>
				<g>
					<path class="st178" d="M108.6,102.8c0,0,1.5,7.5,3.3,10c0,0,0.6-3.3,3.9-5.3L108.6,102.8z"/>
				</g>
				<g>
					<path class="st178" d="M145.9,83.4c0,0,4-2.9,6-3.6c0,0-7-4.7-9-4L145.9,83.4z"/>
				</g>
				<g>
					<circle class="st173" cx="126.2" cy="109.3" r="2.3"/>
				</g>
				<g>
					<circle class="st173" cx="145.7" cy="92.9" r="2.3"/>
				</g>
				<g>
					<path class="st175" d="M194.9,107.4c-0.3-2.5-0.9-5-1.9-7.3c-0.1-0.3-0.2-0.6-0.4-0.9l-0.4-0.9c-0.3-0.6-0.6-1.1-0.9-1.7
						c-0.6-1.1-1.3-2.1-2.1-3.1c-1.5-2-3.2-3.8-5-5.5c-3.4-3.1-7.3-5.6-11.4-7.7c-4.1-2.1-8.3-3.7-12.6-5c-1-0.3-2-0.6-3.1-0.8
						l-0.8-0.2c0,0,0,0,0,0l-1.2-0.9c-1.8-1.2-3.7-2.3-5.7-3.2c-2-0.9-4-1.7-6.1-2.3c-1-0.3-2.1-0.6-3.1-0.8
						c-0.5-0.1-1.1-0.2-1.6-0.3c-0.5-0.1-1-0.2-1.5-0.2l-0.8-0.1l-0.4,0l-0.2,0c0,0-0.1,0-0.1,0l-0.1,0.1c-0.3,0.4-0.6,0.7-0.8,1.1
						l-0.4,0.5c-0.1,0.2-0.2,0.4-0.3,0.6c-0.1,0.2-0.2,0.4-0.3,0.6c0,0.1-0.1,0.2-0.1,0.3l-0.1,0.2c-0.1,0.3-0.2,0.5-0.3,0.8
						c-0.3,1.1-0.5,2.1-0.6,3.1c-0.2,2-0.3,4-0.2,5.9c0.1,1.9,0.2,3.8,0.5,5.7l0.1,0.8c0,0,0,0,0,0l0,0l-1.2,0.6
						c-3.6,1.8-6.7,4.3-9.4,7c-0.3,0.3-0.7,0.7-1,1l-0.7,0.8c0,0,0,0,0,0l-0.1,0l-0.7-0.2l-0.7-0.2l-1.4-0.4
						c-0.5-0.1-0.9-0.3-1.4-0.4l-0.7-0.2l-0.7-0.2c-1.9-0.4-3.8-0.7-5.9-0.8c-1,0-2.1,0-3.1,0.1l-0.6,0.1c-0.2,0-0.5,0.1-0.7,0.1
						c-0.4,0.1-0.9,0.2-1.3,0.4c-0.4,0.2-0.8,0.3-1.2,0.5l-0.1,0c0,0,0,0.1,0,0.1l0,0.2l0,0.3l-0.1,0.6l-0.1,1.3c-0.1,0.4,0,1,0,1.1
						c0,0.5,0,1,0.1,1.5l0.1,1.5c0.1,0.5,0.1,1,0.2,1.4c0.3,1.9,0.6,3.8,1,5.6c0.4,1.8,0.9,3.7,1.4,5.5c0.3,0.9,0.5,1.8,0.8,2.7
						l0.4,1.4l0,0.1l0,0l0,0.1l0.1,0.7c0.4,3.7,1,7.4,1.6,11.1l0,0.2l0,0.2c0.4,2,0.8,3.9,1.3,5.9c0.1,0.5,0.2,1,0.4,1.5l0.2,0.7
						l0.2,0.7c0.3,1,0.7,2,1.2,3l0.2,0.4c0.1,0.1,0.2,0.3,0.3,0.5l0.1,0.2l0.1,0.3l0.7,1.4c0.2,0.5,0.5,0.9,0.8,1.3
						c0.3,0.4,0.5,0.9,0.9,1.3l0.9,1.3c0.3,0.4,0.7,0.8,1,1.2c0.3,0.4,0.7,0.8,1.1,1.2c0.4,0.4,0.7,0.8,1.2,1.1
						c3.2,2.9,7,4.9,11.1,6c4,1.2,8.2,1.5,12.3,1.3c2.6-0.1,5.2-0.5,7.8-1.1c0,0,0.1-0.1,0.2-0.1c1.8-0.4,3.7-1,5.4-1.5
						c3.9-1.3,7.7-2.8,11.4-4.6c0.9-0.5,1.8-1,2.7-1.5c0.5-0.3,0.9-0.5,1.3-0.8l0.7-0.4l0.7-0.4c1.8-1.1,3.4-2.3,5.1-3.6l1.4-1.2
						c0.5-0.4,0.9-0.8,1.4-1.2c0,0,0.1-0.1,0.4-0.4c6.1-3.9,12.7-20.9,12.7-20.9c0.4-1.1,0.8-2.1,1-2.9c0.2-0.7,0.3-1.2,0.3-1.2
						c0.2-1.4,0.5-2.7,0.6-4.2l0-0.4c0-0.6,0.1-1.2,0.1-1.9C195.2,109.9,195.1,108.6,194.9,107.4z M106.1,117.7
						C106.1,117.7,106.1,117.7,106.1,117.7L106.1,117.7C106.1,117.7,106.1,117.7,106.1,117.7z M111.8,142.9L111.8,142.9L111.8,142.9
						L111.8,142.9z M111.8,142.9L111.8,142.9L111.8,142.9C111.8,142.9,111.8,142.9,111.8,142.9z M189.3,120.9
						c-3.2,9.9-10.1,16.9-10.1,16.9c-0.4,0.3-0.7,0.6-0.9,0.8c-0.3,0.2-0.5,0.4-0.6,0.5c-0.1,0.1-0.2,0.2-0.2,0.2l-1.5,1.3l-1.5,1.3
						c-6,4.7-13.1,8.1-20.5,10.5c-2.3,0.7-4.7,1.4-7,1.9c0,0-0.1,0-0.1,0.1c-1.7,0.3-3.4,0.5-5.2,0.6c-3.7,0.2-7.4-0.1-10.9-1.1
						c-3.5-1-6.7-2.7-9.3-5.1c-0.3-0.3-0.6-0.6-1-0.9c-0.3-0.3-0.6-0.6-0.9-1l-0.9-1l-0.8-1.1c-0.3-0.4-0.5-0.7-0.7-1.1
						c-0.2-0.4-0.5-0.8-0.7-1.2l-0.6-1.2l-0.2-0.3l0-0.1l0,0l-0.1-0.1l-0.1-0.2c0,0,0-0.1-0.1-0.1c0,0,0,0,0,0c0,0,0,0,0,0
						c0-0.1-0.1-0.1-0.1-0.2l-0.1-0.2c-0.3-0.7-0.6-1.6-0.9-2.4l-0.2-0.7l-0.2-0.7c-0.1-0.4-0.2-0.9-0.4-1.4
						c-0.5-1.8-0.8-3.7-1.2-5.6l0-0.2l0-0.2c-0.6-3.6-1.2-7.2-1.6-10.8l-0.1-0.7l-0.1-0.6c-0.1-0.2-0.2-0.5-0.2-0.5l-0.4-1.3
						c-0.3-0.9-0.5-1.7-0.8-2.6c-0.5-1.7-0.9-3.5-1.3-5.2c-0.4-1.8-0.7-3.5-1-5.3c-0.1-0.4-0.1-0.9-0.2-1.3l-0.1-1.3
						c0-0.4,0-0.8-0.1-1.3l0-0.2l0.1,0c0.8-0.1,1.6-0.1,2.4-0.1c1.6,0.1,3.4,0.3,5,0.7l0.6,0.1l0.6,0.2c0.4,0.1,0.8,0.2,1.3,0.3
						l1.3,0.4l0.6,0.2l0.6,0.2l2.5,0.9l0.3,0.1l0.2,0.1c0,0,0.1-0.1,0.1-0.1l0.4-0.5c0.3-0.4,0.6-0.7,0.9-1.1l0.4-0.5l0.2-0.3
						l0.4-0.5c0.3-0.3,0.6-0.6,0.9-0.9c2.5-2.5,5.3-4.6,8.2-6.2l0.6-0.3l0.3-0.1l0.1-0.1l0.1,0c0.1,0,0.1-0.1,0.1,0l0,0l0.1,0l2.6-1
						l0.3-0.1l0,0c0,0,0,0,0,0l0-0.1l0-0.2l-0.1-0.7c-0.1-0.5-0.2-0.9-0.2-1.4l-0.1-0.7l-0.1-0.6l-0.1-0.7c-0.2-1.8-0.4-3.6-0.4-5.3
						c-0.1-1.8,0-3.5,0.2-5.2c0.1-0.8,0.2-1.6,0.5-2.3c0.1-0.2,0.1-0.4,0.2-0.5l0-0.1c0,0,0,0,0,0c0.5,0.1,0.9,0.2,1.4,0.3
						c0.9,0.2,1.9,0.5,2.8,0.7c1.9,0.5,3.7,1.2,5.5,2c1.8,0.8,3.5,1.8,5,2.8l1.3,0.9l0.3,0.2l0.2,0.1c0.1,0,0.1,0.1,0.2,0.1l0.8,0.2
						l0.7,0.2c1,0.2,1.9,0.5,2.9,0.8c4.1,1.2,8.1,2.8,11.9,4.7c3.8,1.9,7.3,4.3,10.4,7c1.6,1.5,3.1,3.1,4.4,4.8
						c0.6,0.9,1.3,1.8,1.8,2.7c0.2,0.5,0.5,0.9,0.8,1.4l0.3,0.7c0.1,0.2,0.2,0.5,0.3,0.7c0.8,2,1.3,4,1.6,6.1
						c0.1,1.1,0.2,2.1,0.2,3.2c0,0.5,0,1.1-0.1,1.6l0,0.3c0,0.5-0.1,1-0.2,1.5l-0.1,0.8l-0.1,0.8c0,0,0,0.2-0.1,0.5
						c0,0.3-0.1,0.8-0.2,1.3C189.8,118.8,189.6,119.8,189.3,120.9L189.3,120.9z M115.4,140.2C115.4,140.2,115.4,140.2,115.4,140.2
						L115.4,140.2z"/>
				</g>
				<g>
					
						<ellipse transform="matrix(0.7724 -0.6351 0.6351 0.7724 -59.183 110.9109)" class="st179" cx="125.2" cy="138" rx="6.3" ry="3.8"/>
				</g>
				<g>
					
						<ellipse transform="matrix(0.7724 -0.6351 0.6351 0.7724 -23.0929 132.8169)" class="st179" cx="173.8" cy="98.6" rx="6.3" ry="3.8"/>
				</g>
			</g>
			<g>
				<path class="st175" d="M132.2,112.9c0,0-10.2,7.5-10.5,15.1c-0.3,7.6,5.1-2.3,5.1-2.3s6.5-9.6,8.3-10c1.8-0.4-1.8,0.4-1.8,0.4
					L132.2,112.9z"/>
			</g>
			<g>
				<path class="st175" d="M148.4,101.1c0,0,10.2-7.5,17.6-5.5s-3.7,4.2-3.7,4.2s-11.1,3.3-12.1,4.9c-0.9,1.6,0.9-1.6,0.9-1.6
					L148.4,101.1z"/>
			</g>
			<g>
				<g>
					<path class="st180" d="M154.7,133.9c-5.8,0-8.8-7.1-8.9-7.4c-0.1-0.3-0.1-0.7,0.1-0.9l4.8-5.8c0.1-0.1,0.2-0.2,0.4-0.3l7.3-2.9
						c0.1,0,0.2-0.1,0.3-0.1c0.2,0,0.5,0.1,0.7,0.3c0.2,0.2,5.1,5.3,4.1,10.3c-0.5,2.5-2.3,4.5-5.5,5.9
						C156.9,133.7,155.8,133.9,154.7,133.9C154.7,133.9,154.7,133.9,154.7,133.9z"/>
				</g>
				<g>
					<path class="st175" d="M158.7,117.6c0,0,9.6,10-1.1,14.8c-1,0.5-2,0.7-2.9,0.7c-5.2,0-8-6.8-8-6.8l4.8-5.8L158.7,117.6
						 M158.7,115.7c-0.2,0-0.5,0-0.7,0.1l-7.3,2.9c-0.3,0.1-0.5,0.3-0.7,0.5l-4.8,5.8c-0.4,0.5-0.5,1.2-0.3,1.9
						c0.1,0.3,3.3,7.9,9.7,7.9c1.2,0,2.4-0.3,3.7-0.8c3.5-1.5,5.5-3.8,6-6.6c0.5-2.4-0.2-5-1.8-7.8c-1.2-2-2.5-3.3-2.5-3.4
						C159.7,115.9,159.2,115.7,158.7,115.7L158.7,115.7z"/>
				</g>
			</g>
			<g>
				<g>
					<g>
						
							<ellipse transform="matrix(0.8289 -0.5594 0.5594 0.8289 -38.1784 100.671)" class="st175" cx="145.5" cy="112.7" rx="5.4" ry="4"/>
					</g>
					<g>
						<g>
							<path class="st175" d="M145.5,116c0,0,0,0,0-0.1c0.1-0.6,0.7-1.8,2.4-2.1c0,0,0.2,0,0.2,0c0,0,0.7,0.8,1.6,1.9
								c0.2,0.3,0.5,0.6,0.8,0.9c0.1,0.2,0.3,0.3,0.4,0.5c0.1,0.2,0.3,0.3,0.4,0.5c0.1,0.2,0.3,0.3,0.4,0.5l0.1,0.1
								c0,0.1,0,0.1,0,0.2l0,0.3c0,0.2-0.1,0.4-0.1,0.7l-0.1,0.3l-0.1,0.3l-0.1,0.4c-0.1,0.5-0.3,1-0.5,1.5c-0.4,1-0.9,2-1.5,2.9
								c-0.7,0.9-1.5,1.7-2.5,2.1c-0.2,0.1-0.5,0.2-0.7,0.3c-0.1,0-0.2,0.1-0.3,0.1c0,0-0.1,0-0.1,0c-0.1,0-0.1,0-0.2,0
								c-0.4,0.1-0.7,0.1-1,0.1c-0.5,0-0.8,0-0.8,0s-0.2,0-0.5-0.1c-0.3-0.1-0.8-0.2-1.4-0.5c-0.5-0.3-1.1-0.8-1.5-1.4
								c-0.3-0.6-0.4-1.3-0.4-1.8c0-0.5,0.1-0.8,0.2-1.1c0.1-0.3,0.2-0.5,0.3-0.6c0.2-0.3,0.4-0.3,0.5-0.2c0.3,0.2,0.5,1,0.8,1.6
								c0,0,0.1,0.1,0.2,0.4c0.2,0.2,0.4,0.4,0.6,0.5c0.3,0.1,0.6,0.1,0.9,0.1c0.3,0,0.5-0.1,0.5-0.1s0.2,0,0.5,0
								c0.3,0,0.7-0.1,1-0.3c0.4-0.2,0.8-0.5,1.2-1.1c0.4-0.6,0.7-1.3,1-2.1c0.1-0.4,0.3-0.8,0.4-1.2c0-0.1,0-0.2,0.1-0.3
								c-0.4-0.5-0.8-1-1.2-1.4C146.2,116.8,145.6,116,145.5,116z"/>
						</g>
					</g>
					<g>
						<g>
							<path class="st175" d="M150.5,120.5C150.5,120.5,150.5,120.5,150.5,120.5c-0.2-0.3-0.4-0.8-0.4-1.3c0-0.6,0.1-1.2,0.4-1.9
								c0,0,0.1-0.1,0.1-0.1c0,0,0.2,0,0.5,0c0.3,0,0.8,0,1.3-0.1c1.1-0.1,2.5-0.3,3.6-0.8c0.6-0.2,1-0.5,1.3-0.9
								c0.3-0.3,0.5-0.6,0.5-0.9c0.1-0.3,0.1-0.6,0.1-0.7c0-0.1-0.1-0.2-0.1-0.2c0,0,0-0.1,0-0.1c0-0.1,0-0.2-0.1-0.4
								c-0.1-0.4-0.6-1-1.1-1.4c-0.9-0.7-1.2-1.1-1-1.4c0.2-0.3,0.9-0.5,1.8-0.3c-0.1-0.1,0.9,0.1,2,0.7c0.5,0.3,1,0.8,1.3,1.2
								c0.2,0.2,0.3,0.4,0.3,0.6c0.1,0.1,0.1,0.2,0.1,0.2s0,0.1,0.1,0.2c0,0.1,0.1,0.3,0.1,0.6c0.1,0.5,0,1.3-0.2,2
								c-0.2,0.8-0.7,1.7-1.4,2.4c-0.7,0.7-1.6,1.2-2.4,1.5c-1.7,0.7-3.4,0.9-4.6,1C151.4,120.5,150.6,120.5,150.5,120.5z"/>
						</g>
					</g>
				</g>
			</g>
		</g>
		<g>
			<path class="st173" d="M155.3,99.5c-0.5,4.3-7.7,10.3-7.3,9.9c0,0-2.4-4.7-3.1-8.5c-0.7-3.8,1.3-7.3,4.4-7.9
				C152.5,92.4,155.8,95.3,155.3,99.5z"/>
			<path class="st175" d="M147.5,110.5l-0.7-1.2l0-0.1c-0.7-1.4-2.3-5-2.9-8.1c-0.4-2-0.1-4.1,0.9-5.8c1-1.7,2.5-2.9,4.3-3.2
				c1.8-0.3,3.6,0.2,5,1.5c1.6,1.5,2.4,3.7,2.1,6.1c-0.5,4.4-7.3,10.5-8,10.7L147.5,110.5z M150.2,93.9c-0.2,0-0.5,0-0.7,0.1
				c-1.3,0.3-2.4,1.1-3.1,2.3c-0.7,1.3-1,2.9-0.6,4.5c0.5,2.5,1.8,5.6,2.5,7.2c1.9-1.7,5.7-5.7,6.1-8.5l0,0c0.2-1.8-0.4-3.4-1.5-4.5
				C152.1,94.2,151.2,93.9,150.2,93.9z"/>
		</g>
	</g>
	<g>
		<path class="st1" d="M140.1,130.9"/>
	</g>
	<g>
		<g>
			<path class="st181" d="M185.5,40.9c-0.3,0-0.5-0.1-0.8-0.3c-0.4-0.3-0.6-0.9-0.4-1.4l0.9-2.6l-1.9-1.1c-0.4-0.3-0.7-0.8-0.6-1.3
				c0.1-0.5,0.5-0.9,1-1l2.3-0.3l1.5-3.2c0.2-0.4,0.6-0.7,1.1-0.7c0,0,0.1,0,0.1,0c0.5,0,0.9,0.4,1.1,0.9l0.7,2.7h2.4
				c0.5,0,1,0.3,1.2,0.8c0.2,0.5,0,1-0.4,1.4l-1.9,1.6l0.6,2.4c0.1,0.5-0.1,1-0.5,1.3c-0.2,0.2-0.5,0.2-0.7,0.2
				c-0.2,0-0.4-0.1-0.6-0.2l-2-1.2l-2.6,1.7C185.9,40.9,185.7,40.9,185.5,40.9z"/>
		</g>
		<g>
			<path d="M188.7,30.3l0.9,3.7h3.4l-2.5,2l0.8,3.1l-2.6-1.6l-3.2,2.2l1.3-3.6l-2.8-1.6l3-0.4L188.7,30.3 M193,33.9L193,33.9
				 M188.7,27.8c-1,0-1.8,0.6-2.2,1.4l-1.2,2.6l-1.7,0.2c-1,0.1-1.9,0.9-2.1,2c-0.2,1,0.3,2.1,1.2,2.6l1,0.6l-0.6,1.6
				c-0.4,1,0,2.1,0.8,2.8c0.4,0.3,1,0.5,1.5,0.5c0.5,0,1-0.1,1.4-0.4l1.9-1.3l1.3,0.8c0.4,0.2,0.8,0.4,1.3,0.4c0.5,0,1-0.2,1.5-0.5
				c0.8-0.6,1.2-1.6,0.9-2.6l-0.4-1.6l1.2-1c0.6-0.4,0.9-1.1,0.9-1.9c0-1.4-1.1-2.5-2.4-2.5h0h-1.4l-0.4-1.8c-0.2-1-1.1-1.8-2.1-1.9
				C188.8,27.8,188.8,27.8,188.7,27.8L188.7,27.8z"/>
		</g>
	</g>
	<g>
		<g>
			<path class="st181" d="M27.7,140.1c-0.3,0-0.5-0.1-0.8-0.3c-0.4-0.3-0.6-0.9-0.4-1.4l1.8-4.9l-3.7-2.2c-0.4-0.3-0.7-0.8-0.6-1.3
				c0.1-0.5,0.5-0.9,1-1l4.2-0.6l2.6-5.6c0.2-0.4,0.6-0.7,1.1-0.7c0,0,0.1,0,0.1,0c0.5,0,0.9,0.4,1.1,0.9l1.3,5.1H40
				c0.5,0,1,0.3,1.2,0.8c0.2,0.5,0,1-0.4,1.4l-3.4,2.9l1.1,4.4c0.1,0.5-0.1,1-0.5,1.3c-0.2,0.2-0.5,0.2-0.7,0.2
				c-0.2,0-0.4-0.1-0.6-0.2l-3.6-2.2l-4.6,3.1C28.2,140,28,140.1,27.7,140.1z"/>
		</g>
		<g>
			<path d="M33,123.5l1.5,6H40l-4,3.4l1.3,5.1l-4.3-2.6l-5.3,3.6l2.1-5.8l-4.6-2.7l4.9-0.7L33,123.5 M40,129.5L40,129.5 M33,121
				c-1,0-1.8,0.6-2.2,1.4l-2.3,5l-3.6,0.5c-1,0.1-1.9,0.9-2.1,2c-0.2,1,0.3,2.1,1.2,2.6l2.8,1.7l-1.4,3.9c-0.4,1,0,2.1,0.8,2.8
				c0.4,0.3,1,0.5,1.5,0.5c0.5,0,1-0.1,1.4-0.4l4-2.7l3,1.8c0.4,0.2,0.8,0.4,1.3,0.4c0.5,0,1-0.2,1.5-0.5c0.8-0.6,1.2-1.6,0.9-2.6
				l-0.9-3.6l2.8-2.3c0.6-0.4,0.9-1.1,0.9-1.9c0-1.4-1.1-2.5-2.4-2.5h0h-3.6l-1-4.1c-0.2-1-1.1-1.8-2.1-1.9
				C33.2,121,33.1,121,33,121L33,121z"/>
		</g>
	</g>
	<g>
		<g>
			<path class="st181" d="M102.4,31.5c-0.1,0-0.2,0-0.3,0c-0.5-0.1-0.9-0.6-1-1.1l-0.5-5.2l-4.3-0.4c-0.5,0-1-0.4-1.1-0.9
				c-0.1-0.5,0.1-1,0.5-1.3l3.6-2.4l-0.1-6.2c0-0.5,0.3-1,0.8-1.2c0.1,0,0.3-0.1,0.4-0.1c0.4,0,0.7,0.2,0.9,0.5l3.3,4l4.1-1.9
				c0.2-0.1,0.3-0.1,0.5-0.1c0.3,0,0.6,0.1,0.9,0.4c0.4,0.4,0.5,0.9,0.3,1.4l-1.9,4l2.9,3.5c0.3,0.4,0.4,0.9,0.1,1.4
				c-0.2,0.4-0.6,0.6-1.1,0.6c0,0-0.1,0-0.1,0l-4.2-0.5l-2.8,4.8C103.3,31.3,102.8,31.5,102.4,31.5z"/>
		</g>
		<g>
			<path d="M100.6,14.1l3.9,4.8l5-2.4l-2.2,4.8l3.4,4.1l-5-0.5l-3.2,5.5l-0.6-6.2l-5.3-0.5l4.1-2.7L100.6,14.1 M109.5,16.5
				L109.5,16.5 M100.6,11.6c-0.3,0-0.6,0-0.8,0.1c-1,0.4-1.6,1.3-1.6,2.3l0.1,5.5l-3,2c-0.9,0.6-1.3,1.6-1,2.6
				c0.3,1,1.1,1.7,2.2,1.8l3.3,0.3l0.4,4.1c0.1,1.1,0.9,1.9,1.9,2.2c0.2,0,0.4,0.1,0.5,0.1c0.9,0,1.7-0.4,2.1-1.2l2.4-4.1l3.4,0.4
				c0.1,0,0.2,0,0.3,0c0.9,0,1.7-0.5,2.2-1.3c0.5-0.9,0.4-2-0.3-2.7l-2.4-2.9l1.5-3.3c0.2-0.3,0.3-0.7,0.3-1.1
				c0-1.3-1.1-2.4-2.4-2.5c0,0,0,0,0,0c-0.1,0-0.1,0-0.2,0c-0.3,0-0.6,0.1-0.9,0.3l-3.2,1.5l-2.7-3.3
				C102,11.9,101.3,11.6,100.6,11.6L100.6,11.6z"/>
		</g>
	</g>
	<g>
		<g>
			<path class="st182" d="M237.4,77.3c-0.1,0-0.2,0-0.3,0c-0.5-0.1-0.9-0.6-1-1.1l-0.5-5.2l-4.3-0.4c-0.5,0-1-0.4-1.1-0.9
				c-0.1-0.5,0.1-1,0.5-1.3l3.6-2.4l-0.1-6.2c0-0.5,0.3-1,0.8-1.2c0.1,0,0.3-0.1,0.4-0.1c0.4,0,0.7,0.2,0.9,0.5l3.3,4l4.1-1.9
				c0.2-0.1,0.3-0.1,0.5-0.1c0.3,0,0.6,0.1,0.9,0.4c0.4,0.4,0.5,0.9,0.3,1.4l-1.9,4l2.9,3.5c0.3,0.4,0.4,0.9,0.1,1.4
				c-0.2,0.4-0.6,0.6-1.1,0.6c0,0-0.1,0-0.1,0l-4.2-0.5l-2.8,4.8C238.3,77.1,237.9,77.3,237.4,77.3z"/>
		</g>
		<g>
			<path d="M235.6,59.9l3.9,4.8l5-2.4l-2.2,4.8l3.4,4.1l-5-0.5l-3.2,5.5l-0.6-6.2l-5.3-0.5l4.1-2.7L235.6,59.9 M244.5,62.3
				L244.5,62.3 M235.6,57.5c-0.3,0-0.6,0-0.8,0.1c-1,0.4-1.6,1.3-1.6,2.3l0.1,5.5l-3,2c-0.9,0.6-1.3,1.6-1,2.6
				c0.3,1,1.1,1.7,2.2,1.8l3.3,0.3l0.4,4.1c0.1,1.1,0.9,1.9,1.9,2.2c0.2,0,0.4,0.1,0.5,0.1c0.9,0,1.7-0.4,2.1-1.2l2.4-4.1l3.4,0.4
				c0.1,0,0.2,0,0.3,0c0.9,0,1.7-0.5,2.2-1.3c0.5-0.9,0.4-2-0.3-2.7l-2.4-2.9l1.5-3.3c0.2-0.3,0.3-0.7,0.3-1.1
				c0-1.3-1.1-2.4-2.4-2.5c0,0,0,0,0,0c-0.1,0-0.1,0-0.2,0c-0.3,0-0.6,0.1-0.9,0.3l-3.2,1.5l-2.7-3.3
				C237,57.8,236.3,57.5,235.6,57.5L235.6,57.5z"/>
		</g>
	</g>
	<g>
		<g>
			<path class="st182" d="M52.3,191.5c-0.1,0-0.2,0-0.3,0c-0.5-0.1-0.9-0.6-1-1.1l-0.5-5.2l-4.3-0.4c-0.5,0-1-0.4-1.1-0.9
				c-0.1-0.5,0.1-1,0.5-1.3l3.6-2.4l-0.1-6.2c0-0.5,0.3-1,0.8-1.2c0.1,0,0.3-0.1,0.4-0.1c0.4,0,0.7,0.2,0.9,0.5l3.3,4l4.1-1.9
				c0.2-0.1,0.3-0.1,0.5-0.1c0.3,0,0.6,0.1,0.9,0.4c0.4,0.4,0.5,0.9,0.3,1.4l-1.9,4l2.9,3.5c0.3,0.4,0.4,0.9,0.1,1.4
				c-0.2,0.4-0.6,0.6-1.1,0.6c0,0-0.1,0-0.1,0l-4.2-0.5l-2.8,4.8C53.2,191.2,52.8,191.5,52.3,191.5z"/>
		</g>
		<g>
			<path d="M50.5,174l3.9,4.8l5-2.4l-2.2,4.8l3.4,4.1l-5-0.5l-3.2,5.5l-0.6-6.2l-5.3-0.5l4.1-2.7L50.5,174 M59.4,176.4L59.4,176.4
				 M50.5,171.6c-0.3,0-0.6,0-0.8,0.1c-1,0.4-1.6,1.3-1.6,2.3l0.1,5.5l-3,2c-0.9,0.6-1.3,1.6-1,2.6c0.3,1,1.1,1.7,2.2,1.8l3.3,0.3
				l0.4,4.1c0.1,1.1,0.9,1.9,1.9,2.2c0.2,0,0.4,0.1,0.5,0.1c0.9,0,1.7-0.4,2.1-1.2l2.4-4.1l3.4,0.4c0.1,0,0.2,0,0.3,0
				c0.9,0,1.7-0.5,2.2-1.3c0.5-0.9,0.4-2-0.3-2.7l-2.4-2.9l1.5-3.3c0.2-0.3,0.3-0.7,0.3-1.1c0-1.3-1.1-2.4-2.4-2.5c0,0,0,0,0,0
				c-0.1,0-0.1,0-0.2,0c-0.3,0-0.6,0.1-0.9,0.3l-3.2,1.5l-2.7-3.3C51.9,171.9,51.2,171.6,50.5,171.6L50.5,171.6z"/>
		</g>
	</g>
	<g>
		<g>
			<path class="st181" d="M50.5,81.9c6.9,1,16.3,0.8,25.3,0.1c6.9-5.4,11.4-10.7,11.4-10.7s-23.6,10.2-38.2-7.6
				c0,0-19.1-14.7-7.6-36.3c0,0-5.6,4.9-10.8,12.3C32.1,51.7,37.3,80,50.5,81.9z"/>
		</g>
		<g>
			<path class="st183" d="M38.5,89c13,8.3,27.5,0.7,37.3-6.9c-9,0.7-18.4,0.9-25.3-0.1c-13.2-1.9-18.4-30.2-20-42.2
				C21.4,52.7,13.6,73.2,38.5,89z"/>
		</g>
		<g>
			<path d="M50.7,93.8c-4.6,0-9-1.2-12.9-3.8c-10.7-6.8-16.5-15.1-17.2-24.7c-0.6-8.3,2.6-17.6,9.4-27c5.1-7,10.2-11.6,10.5-11.8
				c0.4-0.4,1.1-0.4,1.6,0c0.5,0.4,0.6,1,0.3,1.5c-10.9,20.4,6.6,34.1,7.3,34.7c0.1,0.1,0.1,0.1,0.2,0.2c5.8,7.1,13.7,10.4,23.6,10
				c7.4-0.3,13.1-2.7,13.2-2.8c0.5-0.2,1.1-0.1,1.5,0.4c0.3,0.5,0.3,1.1,0,1.5c-0.3,0.3-6.9,8.1-16.3,14.3
				C64.3,91.3,57.2,93.8,50.7,93.8z M37.7,32.8C31.8,39.3,22.1,52,23.1,65.1c0.7,8.8,6.1,16.5,16.1,22.8l0,0
				c3.8,2.4,7.7,3.4,11.6,3.4C64,91.3,77.2,79.8,83,73.9c-7.8,2-23.9,4-35-9.3C46.6,63.4,32,51,37.7,32.8z"/>
		</g>
		<g>
			<path class="st181" d="M40.1,68.8c0,0,14-2.6,19.2-11.4c0,0-2,15.6-13.3,17.6"/>
			<path d="M45.9,76.2c-0.6,0-1.1-0.4-1.2-1c-0.1-0.7,0.3-1.3,1-1.4c6.4-1.1,9.6-7,11.1-11.5c-6.4,5.8-16,7.6-16.5,7.7
				c-0.7,0.1-1.3-0.3-1.4-1c-0.1-0.7,0.3-1.3,1-1.4c0.1,0,13.5-2.6,18.4-10.8c0.3-0.5,0.9-0.7,1.5-0.5c0.5,0.2,0.9,0.7,0.8,1.3
				c0,0.2-0.5,4.1-2.5,8.4c-2.7,5.8-6.8,9.3-11.8,10.2C46.1,76.2,46,76.2,45.9,76.2z"/>
		</g>
		<g>
			<path d="M49.9,84c-3.3,0-5.4-1.1-5.5-1.1c-0.6-0.3-0.8-1.1-0.5-1.7c0.3-0.6,1-0.8,1.6-0.5c0.4,0.2,8.7,4.2,17.3-6.5
				c0.4-0.5,1.2-0.6,1.7-0.2c0.5,0.4,0.6,1.2,0.2,1.7c-5.1,6.4-10.4,8-13.8,8.3C50.6,84,50.3,84,49.9,84z"/>
		</g>
		<g>
			<path d="M29.3,68.4c-1.3,0-2.4-0.6-2.9-0.9c-0.1,0-0.2-0.1-0.2-0.1c-0.6-0.2-1-0.7-0.9-1.4c0.1-0.7,0.7-1.1,1.4-1
				c0.3,0,0.6,0.2,0.9,0.4c0.6,0.3,1.4,0.8,2.3,0.5c0.8-0.2,1.6-1.1,2.4-2.5c0.3-0.6,1.1-0.8,1.7-0.5c0.6,0.3,0.8,1.1,0.5,1.7
				c-1.1,2-2.3,3.3-3.8,3.7C30.1,68.3,29.7,68.4,29.3,68.4z M26.3,67.4C26.3,67.4,26.3,67.4,26.3,67.4
				C26.3,67.4,26.3,67.4,26.3,67.4z"/>
		</g>
		<g>
			<path d="M41.5,62.3c-1.3,0-2.4-0.6-2.9-0.9c-0.1,0-0.2-0.1-0.2-0.1c-0.6-0.2-1-0.7-0.9-1.4c0.1-0.7,0.7-1.1,1.4-1
				c0.3,0,0.6,0.2,0.9,0.4c0.6,0.3,1.4,0.8,2.3,0.5c0.8-0.2,1.6-1.1,2.4-2.5c0.3-0.6,1.1-0.8,1.7-0.5c0.6,0.3,0.8,1.1,0.5,1.7
				c-1.1,2-2.3,3.3-3.8,3.7C42.3,62.3,41.9,62.3,41.5,62.3z M38.5,61.3C38.5,61.3,38.5,61.3,38.5,61.3
				C38.5,61.3,38.5,61.3,38.5,61.3z"/>
		</g>
		<g>
			<g>
				<path class="st184" d="M43.2,48.5L43.2,48.5c0,0-5.9-7.5-0.7-16.6c5.1-9-17.3-11.6-23.4-2.2c0,0-0.1,0.6-0.1,1.3
					c4.6-1.7,12.9-4.3,15.3-2.7c3.4,2.2,5.6,7.8-0.5,13c-4.5,3.8-1.2,11.3-4.2,16c6.2-1.1,13.2-3.1,16.4-6.4
					C50,46.8,47.1,47.3,43.2,48.5z"/>
			</g>
			<g>
				<path class="st185" d="M33.8,41.3c6.1-5.2,3.9-10.8,0.5-13C31.9,26.7,23.6,29.4,19,31c0.1,1.4,0.7,3.5,3.9,2.4
					c4.7-1.6,13.6-6.6,10.1-1.5c-3.5,5.1-15.8,17.9-15.1,21.1c-5.5-0.5-6.1,5.6,0.9,5.6c0,0,5-0.3,10.9-1.4
					C32.6,52.5,29.3,45.1,33.8,41.3z"/>
			</g>
		</g>
		<g>
			<path d="M19.4,54.4c-0.6,0-1.2,0-1.7-0.1c-0.5-0.1-1-0.4-1.1-1c-0.6-2.6,3.4-7.6,10-15.5c2.2-2.6,4.2-5,5.3-6.6
				c0,0,0.1-0.1,0.1-0.1c-1.2,0.4-3.2,1.2-4.6,1.8c-1.5,0.6-3,1.3-4.2,1.7c-1.8,0.6-3.2,0.5-4.2-0.4c-1.7-1.5-1.3-4.3-1.2-4.6
				c0-0.2,0.1-0.3,0.2-0.5c4.7-7.3,17.7-7.9,23.3-4.5c3.1,1.9,3.9,4.8,2.2,7.9c-4.6,8.2,0.4,14.9,0.6,15.2c0.2,0.3,0.3,0.7,0.2,1.1
				s-0.4,0.7-0.8,0.8c-1.2,0.4-2.5,0.9-3.7,1.3c-1.1,0.4-2.1,0.8-3,1c0,0-0.1,0-0.1,0C36.2,52.2,25.5,54.4,19.4,54.4z M19.2,51.9
				c5.6,0.1,16-2.1,17-2.3c0.8-0.3,1.8-0.6,2.8-1c0.8-0.3,1.6-0.6,2.3-0.8c-1.5-2.7-4.1-9.1,0.1-16.5c1.1-1.9,0.7-3.4-1.3-4.6
				c-4.7-2.9-15.9-2.2-19.9,3.5c-0.1,0.7,0,1.8,0.4,2.1c0.3,0.3,0.9,0.2,1.8-0.1c1.1-0.4,2.6-1,4-1.6c4.7-2,7-2.9,8.1-1.5
				c1,1.2-0.2,2.8-0.7,3.5c-1.2,1.7-3.2,4.1-5.4,6.8C25.5,43,20.3,49.3,19.2,51.9z"/>
		</g>
		<g>
			<g>
				<path class="st0" d="M19.9,56c-1.3-0.2-2.3-0.6-3-1.2c-0.8,0.1-1.3,0.3-1.5,0.6c-0.1,0.2-0.1,0.3,0,0.5c0.3,0.5,1.3,1.1,3.2,1.1
					c1.8-0.1,4.6-0.4,7.7-0.9c-1.2,0.1-2.3,0.2-3.3,0.2C21.8,56.2,20.8,56.2,19.9,56z"/>
			</g>
			<g>
				<path class="st0" d="M43.5,50.8c0.4-0.3,0.8-0.6,1.1-0.9c-0.1,0-0.2,0.1-0.4,0.1C44,50.3,43.8,50.5,43.5,50.8z"/>
			</g>
			<g>
				<path d="M49.3,47c-0.9-1.3-2.5-1.3-5.4-0.5c-1.2-2.1-3.5-7.5,0-13.7c1.9-3.3,1-6.6-2.3-8.6c-5.8-3.5-19.2-2.9-24,4.6
					c-0.1,0.2-0.2,0.4-0.3,0.6c-0.1,0.3-0.5,3.4,1.4,5.1c0.8,0.7,2.3,1.3,4.7,0.5c1.3-0.4,2.8-1.1,4.2-1.7c0.9-0.4,2-0.9,3-1.2
					c-1.1,1.5-2.7,3.4-4.4,5.4c-5.7,6.8-9.1,11-9.9,13.9c-1.7,0.2-3,0.9-3.8,2.1c-0.8,1.2-0.9,2.7-0.2,4c1,1.9,3.3,2.9,6.3,2.9
					c0,0,0.1,0,0.1,0c0.9-0.1,21.8-1.5,28.5-8.3C48.4,50.9,50.5,48.8,49.3,47z M28.9,39.7c2.2-2.6,4.3-5.1,5.5-6.8
					c0.5-0.7,1.8-2.6,0.6-4.1c-1.4-1.7-4.1-0.6-8.7,1.4c-1.4,0.6-2.9,1.2-4,1.6C21.4,32.1,21,32,21,31.9c-0.2-0.2-0.3-0.9-0.3-1.5
					c3.9-5.4,14.6-6,19.1-3.2c2.2,1.3,1.8,2.7,1.1,3.9c-4.1,7.1-1.9,13.4-0.4,16.5c-0.6,0.2-1.2,0.4-1.8,0.6c-1,0.4-2,0.7-2.8,1
					c-1,0.2-10.4,2.1-16,2.2C21.5,48.6,26.2,43,28.9,39.7z M43.5,50.8c-3.4,2.9-11,4.8-17.1,5.3c-3.1,0.5-5.9,0.8-7.7,0.9
					c-2,0-3-0.6-3.2-1.1c-0.1-0.2-0.1-0.3,0-0.5c0.2-0.3,0.7-0.6,1.5-0.6c0.1,0,0.2,0,0.3,0c0.2,0,0.3,0,0.5,0
					c5.7,0.5,18.6-2.1,19.2-2.3c0.1,0,0.1,0,0.2,0c0.8-0.3,1.9-0.6,3-1c1.1-0.4,2.8-1,4.3-1.5c0.1,0,0.2-0.1,0.4-0.1
					C44.3,50.2,43.9,50.5,43.5,50.8z"/>
			</g>
		</g>
		<g>
			<circle class="st173" cx="17" cy="33.1" r="4.8"/>
			<path d="M17,39.1c-3.3,0-6-2.7-6-6s2.7-6,6-6s6,2.7,6,6S20.3,39.1,17,39.1z M17,29.5c-2,0-3.5,1.6-3.5,3.5s1.6,3.5,3.5,3.5
				s3.5-1.6,3.5-3.5S18.9,29.5,17,29.5z"/>
		</g>
	</g>
</g>
</svg>
