<?xml version="1.0" encoding="utf-8"?>
<!-- Generator: Adobe Illustrator 25.0.1, SVG Export Plug-In . SVG Version: 6.00 Build 0)  -->
<svg version="1.1" id="圖層_1" xmlns="http://www.w3.org/2000/svg" xmlns:xlink="http://www.w3.org/1999/xlink" x="0px" y="0px"
	 viewBox="0 0 58.1 37" style="enable-background:new 0 0 58.1 37;" xml:space="preserve">
<style type="text/css">
	.st0{fill:#036EB7;}
	.st1{fill:#369AD6;}
</style>
<g>
	<polygon class="st0" points="43.1,22.2 42.8,21.8 40,17.4 38.9,15.6 29.1,0 29.1,0 29.1,0 19.2,15.6 18.1,17.4 15.3,21.8 
		15.1,22.2 11.4,28 14.3,37 21,25.1 21.1,24.9 23.7,20.4 24.2,19.5 29.1,10.8 29.1,10.9 29.1,10.8 34,19.5 34.5,20.4 37,24.9 
		37.1,25.1 43.9,37 46.7,28 	"/>
	<polygon class="st1" points="44.5,22.4 39.8,14.8 58.1,0 54.6,16.5 50.1,37 43.9,37 49.2,20.3 	"/>
	<g>
		<polygon class="st1" points="18.3,14.8 0,0 3.6,16.5 8,37 14.3,37 9,20.3 13.7,22.4 		"/>
		<polygon class="st1" points="33,20.3 33,20.3 29.1,23.3 25.1,20.3 25.1,20.3 21.9,26 29.1,29.1 29.1,29.1 29.1,29.1 36.3,26 		"/>
	</g>
</g>
</svg>
