<svg id="images-pplogo" xmlns="http://www.w3.org/2000/svg" xmlns:xlink="http://www.w3.org/1999/xlink" width="204" height="54" viewBox="0 0 204 54"><defs><style>.a,.d{fill:#fff;}.a{stroke:#707070;}.b{clip-path:url(#a);}.c{fill:#f19021;}</style><clipPath id="a"><rect class="a" width="204" height="54" transform="translate(57 2264)"/></clipPath></defs><g class="b" transform="translate(-57 -2264)"><g transform="translate(100.181 2264)"><path class="c" d="M101.274,21.039c-5.845.363-3.221,7.976,3.241,7.574C110.837,28.22,107.5,20.652,101.274,21.039Z"/><path class="c" d="M98.807,16.337a18.831,18.831,0,1,0,18.831,18.831A18.831,18.831,0,0,0,98.807,16.337Zm0,35.689a16.853,16.853,0,1,1,16.85-16.852,16.854,16.854,0,0,1-16.85,16.852ZM98.239,3.191a9.562,9.562,0,0,0-3.694,8.562S91.735,4.459,88.086,0c-.492,5.74,1.306,13.345,1.306,13.345a9.561,9.561,0,0,0-7.884-4.979,16.124,16.124,0,0,1,6.858,8.768,18.717,18.717,0,0,1,9.183-2.779,16.154,16.154,0,0,1,.689-11.164Z"/><path class="d" d="M1.64,37.015v3.941H0V30.8H3.452a3.714,3.714,0,0,1,2.639.835,3.012,3.012,0,0,1,.89,2.286,2.912,2.912,0,0,1-.906,2.266,3.755,3.755,0,0,1-2.617.826Zm3.667-3.092a1.722,1.722,0,0,0-.482-1.317,2.2,2.2,0,0,0-1.545-.452H1.64v3.523H3.28Q5.305,35.677,5.307,33.923Zm8.443,7.033L11.219,36.9H10.053v4.055H8.413V30.8H12a3.712,3.712,0,0,1,2.639.848,2.936,2.936,0,0,1,.9,2.245,2.874,2.874,0,0,1-.669,1.956,3.125,3.125,0,0,1-1.928.977l2.669,4.128Zm-3.7-5.221h1.809q1.987,0,1.985-1.754a1.732,1.732,0,0,0-.482-1.3,2.092,2.092,0,0,0-1.5-.467H10.053Zm13.017,3.02H18.784l-.777,2.2H16.253l3.74-10h1.885l3.725,10H23.846Zm-.461-1.265-1.683-4.745-1.683,4.745Zm11.277-5.884a4.2,4.2,0,0,1,1.6,2.432H33.757a2.755,2.755,0,0,0-1.087-1.309,3.218,3.218,0,0,0-1.79-.489,3.286,3.286,0,0,0-1.705.445A3.068,3.068,0,0,0,28,33.95a4.138,4.138,0,0,0-.417,1.934,4.3,4.3,0,0,0,.431,2,3,3,0,0,0,1.214,1.272,3.671,3.671,0,0,0,1.819.445,3.206,3.206,0,0,0,2.169-.795,3.328,3.328,0,0,0,1.093-2.15H30.578V35.447h5.105v1.567a4.856,4.856,0,0,1-.8,2.036,4.56,4.56,0,0,1-1.653,1.461,4.949,4.949,0,0,1-2.352.546,5.1,5.1,0,0,1-2.619-.661,4.515,4.515,0,0,1-1.754-1.834,6.127,6.127,0,0,1,0-5.365,4.5,4.5,0,0,1,1.747-1.827,5.119,5.119,0,0,1,2.611-.654,4.947,4.947,0,0,1,3.02.891Zm13.376-.646v10H45.607V33.463l-2.89,7.493H41.279l-2.906-7.493v7.493H36.734v-10h1.984l3.308,7.982,3.25-7.982Zm8.025,7.795H51.008l-.777,2.2h-1.76l3.74-10h1.883l3.726,10H56.064Zm-.46-1.265-1.683-4.745-1.683,4.745ZM64.838,30.8v1.323H62v8.831H60.349V32.125H57.532V30.8Zm2.516,0V40.956H65.715V30.8Zm9.278.848A4.641,4.641,0,0,1,78.3,34.226H76.559a3.086,3.086,0,0,0-1.143-1.461,3.31,3.31,0,0,0-1.92-.54,2.991,2.991,0,0,0-1.618.445,3.086,3.086,0,0,0-1.122,1.272,4.745,4.745,0,0,0,0,3.855,3.081,3.081,0,0,0,1.122,1.274,2.989,2.989,0,0,0,1.618.445,3.31,3.31,0,0,0,1.92-.538,3.1,3.1,0,0,0,1.143-1.446H78.3A4.6,4.6,0,0,1,76.632,40.1a4.975,4.975,0,0,1-3.106.943,4.912,4.912,0,0,1-2.546-.655,4.425,4.425,0,0,1-1.711-1.827,6.248,6.248,0,0,1,0-5.365,4.479,4.479,0,0,1,1.711-1.834,4.874,4.874,0,0,1,2.546-.661,4.964,4.964,0,0,1,3.106.95Zm9.4,5.365v3.941H84.4V30.8h3.452a3.721,3.721,0,0,1,2.639.835,3,3,0,0,1,.89,2.286,2.912,2.912,0,0,1-.906,2.266,3.755,3.755,0,0,1-2.617.826Zm3.673-3.092a1.722,1.722,0,0,0-.482-1.317,2.2,2.2,0,0,0-1.547-.452H86.036v3.523h1.64Q89.708,35.677,89.708,33.923Zm4.482,5.753H97.7v1.28h-5.15V30.8h1.64Zm11.017-.921h-4.285l-.777,2.2H98.39l3.741-10h1.883l3.726,10h-1.756Zm-.46-1.265-1.683-4.745-1.683,4.745Zm9.574-6.689-3.379,6.458v3.7h-1.65v-3.7L105.9,30.8h1.9l2.331,4.7,2.329-4.7Z"/></g></g></svg>