<?xml version="1.0" encoding="utf-8"?>
<!-- Generator: Adobe Illustrator 25.0.1, SVG Export Plug-In . SVG Version: 6.00 Build 0)  -->
<svg version="1.1" id="圖層_1" xmlns="http://www.w3.org/2000/svg" xmlns:xlink="http://www.w3.org/1999/xlink" x="0px" y="0px"
	 viewBox="0 0 359.6 163" style="enable-background:new 0 0 359.6 163;" xml:space="preserve">
<style type="text/css">
	.st0{fill:#FFFFFF;}
</style>
<g>
	<path class="st0" d="M304.3,151.3l1.8,4.5l2.6,6.8h-9.9l-5.8-15.4l-2.3-6.2l-11.8-31.2c-0.1-0.4-0.4-0.7-0.6-1
		c-0.3-0.4-0.7-0.7-1.2-0.9c-0.5-0.2-0.9-0.3-1.4-0.3c-0.5,0-1,0.1-1.4,0.3c-0.5,0.2-0.9,0.5-1.2,0.9c-0.3,0.3-0.5,0.6-0.6,1
		l-11.8,31.1l-2.3,6.2l-5.8,15.5h-9.9l2.5-6.5l2-4.9l2.7-6.9l2.4-6.2l15.4-39l0.5-1.4c0.2,0.1,0.3,0.2,0.5,0.3l0.2,0.1
		c2,1.1,4.3,1.7,6.7,1.7h0.2c2.4,0,4.7-0.6,6.7-1.7l0.2-0.1c0.2-0.1,0.4-0.2,0.5-0.3l0.5,1.4l15.4,39l2.4,6.2L304.3,151.3z
		 M277.4,80.2c1.2,0.3,2.2,0.9,3.1,1.7c0.9,0.8,1.5,1.8,1.8,2.9c0.2,0.6,0.2,1.1,0.2,1.7c0,0.6-0.1,1.2-0.2,1.7
		c-0.3,1.1-0.9,2-1.7,2.8v0.1c-0.8,0.8-1.9,1.4-3.1,1.7c-1.2,0.3-2.4,0.3-3.6,0c-1.2-0.3-2.3-0.9-3.1-1.7V91
		c-0.8-0.8-1.4-1.8-1.7-2.8c-0.2-0.6-0.3-1.1-0.2-1.7c0-0.6,0.1-1.2,0.2-1.7c0.2-0.6,0.4-1.1,0.7-1.6c0.3-0.5,0.7-1,1.1-1.4
		c0.9-0.8,1.9-1.4,3.1-1.7c1.2-0.3,2.4-0.3,3.6,0L277.4,80.2z M289.5,86.4l43.8-11.1c1.6,7.5,1.6,15.2,0,22.6l-43.8-11.2L289.5,86.4
		L289.5,86.4z M287.7,80.1c-0.1-0.1-0.1-0.1-0.1-0.2l32-30.5c5.3,5.7,9.4,12.4,11.9,19.6L287.7,80.1z M282.7,75.2l-0.2-0.1
		l11.7-41.7c7.6,2.4,14.6,6.3,20.6,11.3L282.7,75.2z M275.7,30.5c4,0,8,0.4,11.9,1.2l-11.7,41.7h-0.2l-11.7-41.7
		C267.7,30.9,271.7,30.5,275.7,30.5z M257.1,33.4l11.7,41.7l-0.2,0.1l-32.1-30.5C242.5,39.7,249.5,35.8,257.1,33.4z M236.5,128.5
		l19.1-18.2L246,135C242.6,133.2,239.4,131,236.5,128.5z M275.7,142.6c-2.8,0-5.5-0.2-8.2-0.5l8.2-21.6l8.2,21.6
		C281.2,142.5,278.4,142.6,275.7,142.6z M305.3,135l-9.7-24.7l19.2,18.2C311.9,131,308.7,133.2,305.3,135z M319.6,123.9l-29.9-28.5
		l-0.7-2l42.5,10.9C329,111.5,324.9,118.1,319.6,123.9L319.6,123.9z M300.2,17.9c0.2-0.4,0.4-0.8,0.7-1.1c0.3-0.3,0.7-0.6,1.1-0.7
		c0.4-0.2,0.9-0.3,1.3-0.3c0.5,0,0.9,0.1,1.3,0.2c0.7,0.3,1.4,0.8,1.7,1.5c0.4,0.7,0.5,1.4,0.4,2.2c-0.1,0.8-0.6,1.4-1.2,1.9
		c-0.6,0.5-1.4,0.8-2.2,0.8c-0.4,0-0.9-0.1-1.3-0.2c-0.4-0.2-0.8-0.4-1.2-0.7c-0.3-0.3-0.6-0.7-0.8-1.1c-0.2-0.4-0.3-0.8-0.3-1.3
		C300,18.7,300,18.2,300.2,17.9L300.2,17.9z M258.3,15.9c-0.1-0.8,0.1-1.7,0.6-2.4c0.5-0.7,1.3-1.2,2.2-1.3c0.9-0.2,1.8,0,2.5,0.5
		c0.7,0.5,1.3,1.2,1.5,2c0.2,0.9,0,1.7-0.6,2.5c-0.5,0.7-1.3,1.2-2.2,1.4c-0.2,0-0.4,0-0.6,0c-0.8,0-1.6-0.3-2.2-0.8
		C258.9,17.3,258.4,16.6,258.3,15.9L258.3,15.9z M272.2,14.1c0-0.4,0.1-0.9,0.3-1.3c0.2-0.4,0.4-0.8,0.7-1.1
		c0.3-0.3,0.7-0.6,1.1-0.7c0.4-0.2,0.9-0.3,1.3-0.3h0.3c0.9,0,1.8,0.3,2.4,1c0.7,0.6,1,1.5,1,2.3c0,0.9-0.4,1.7-1,2.3
		c-0.6,0.6-1.5,1-2.4,1h-0.3c-0.9,0-1.8-0.3-2.4-1C272.6,15.8,272.2,14.9,272.2,14.1L272.2,14.1z M286.6,14.8
		c0.1-0.6,0.4-1.2,0.9-1.6c0.5-0.5,1-0.8,1.7-0.9c0.6-0.2,1.3-0.1,1.9,0.1c0.6,0.2,1.2,0.6,1.6,1c0.4,0.5,0.7,1.1,0.8,1.7
		c0.1,0.6,0,1.2-0.3,1.8c-0.3,0.6-0.7,1-1.3,1.4c-0.6,0.3-1.2,0.5-1.9,0.5h-0.7c-0.5-0.1-0.9-0.2-1.3-0.5c-0.4-0.2-0.7-0.6-1-0.9
		c-0.3-0.4-0.4-0.8-0.5-1.2C286.4,15.6,286.4,15.1,286.6,14.8L286.6,14.8z M232.6,26.6c-0.5-0.7-0.6-1.6-0.4-2.5
		c0.2-0.8,0.8-1.6,1.6-2c0.8-0.4,1.7-0.5,2.6-0.3c0.9,0.2,1.6,0.7,2.1,1.5c0.5,0.7,0.6,1.6,0.4,2.4c-0.2,0.8-0.7,1.6-1.5,2
		c-0.5,0.3-1.2,0.5-1.8,0.5c-0.6,0-1.2-0.1-1.7-0.4C233.4,27.5,232.9,27.1,232.6,26.6z M340.8,55.9c-0.3-0.6-0.4-1.2-0.3-1.9
		c0.1-0.6,0.4-1.2,0.8-1.7c0.5-0.5,1-0.8,1.7-1c0.7-0.2,1.4-0.1,2,0.1c0.6,0.2,1.2,0.6,1.6,1.1c0.4,0.5,0.7,1.1,0.7,1.8
		c0,0.6-0.1,1.3-0.4,1.9c-0.3,0.6-0.8,1-1.5,1.3c-0.5,0.2-1,0.3-1.6,0.3c-0.6,0-1.3-0.2-1.8-0.5C341.5,56.9,341.1,56.5,340.8,55.9z
		 M324.8,35.6c-0.5-0.4-0.9-1-1-1.6c-0.2-0.6-0.1-1.3,0.1-1.9c0.2-0.6,0.7-1.1,1.2-1.5c0.6-0.4,1.2-0.6,1.9-0.6
		c0.7,0,1.4,0.1,1.9,0.5c0.6,0.3,1.1,0.8,1.3,1.4c0.3,0.6,0.4,1.2,0.3,1.9c-0.1,0.6-0.4,1.2-0.9,1.7c-0.3,0.3-0.7,0.6-1.2,0.8
		c-0.4,0.2-0.9,0.3-1.4,0.3C326.3,36.4,325.4,36.1,324.8,35.6z M348,63.8c0.4-0.1,0.9-0.2,1.3-0.1c0.5,0.1,0.9,0.2,1.3,0.4
		c0.4,0.2,0.7,0.5,1,0.8c0.3,0.3,0.5,0.7,0.6,1.1c0.1,0.4,0.2,0.8,0.1,1.3c-0.1,0.4-0.2,0.8-0.4,1.2c-0.2,0.4-0.5,0.7-0.9,1
		s-0.8,0.5-1.2,0.6c-0.3,0.1-0.6,0.1-0.9,0.1c-0.7,0-1.5-0.3-2.1-0.7c-0.6-0.4-1-1-1.2-1.7c-0.1-0.4-0.2-0.8-0.1-1.3
		c0.1-0.4,0.2-0.8,0.4-1.2c0.2-0.4,0.5-0.7,0.9-1C347.2,64.1,347.6,63.9,348,63.8z M244.9,20.1c-0.2-0.6-0.3-1.3-0.1-1.9
		c0.2-0.6,0.5-1.2,1-1.6c0.5-0.4,1.1-0.7,1.8-0.8c0.7-0.1,1.4,0,2,0.3c0.6,0.3,1.1,0.7,1.5,1.3c0.4,0.6,0.5,1.2,0.5,1.8
		c0,0.6-0.2,1.3-0.6,1.8c-0.4,0.5-0.9,0.9-1.6,1.2c-0.4,0.2-0.8,0.2-1.2,0.2c-0.7,0-1.4-0.2-2-0.6C245.6,21.3,245.2,20.7,244.9,20.1
		z M333.8,45c-0.3-0.3-0.5-0.7-0.6-1.2c-0.1-0.4-0.1-0.9-0.1-1.3c0.1-0.4,0.2-0.8,0.4-1.2c0.2-0.4,0.5-0.7,0.9-1
		c0.4-0.3,0.8-0.5,1.2-0.7c0.5-0.1,0.9-0.2,1.4-0.2c0.5,0,0.9,0.2,1.4,0.4s0.8,0.5,1.1,0.9c0.3,0.4,0.5,0.8,0.6,1.2
		c0.1,0.4,0.1,0.9,0,1.4c-0.1,0.5-0.3,0.9-0.6,1.3c-0.3,0.4-0.6,0.7-1,0.9c-0.6,0.4-1.3,0.7-2.1,0.7c-0.5,0-1.1-0.1-1.5-0.4
		C334.5,45.8,334.1,45.5,333.8,45L333.8,45z M339,132.5c-0.3,0.4-0.7,0.7-1.2,1c-0.5,0.2-1,0.3-1.5,0.3c-0.7,0-1.5-0.2-2.1-0.7
		c-0.5-0.4-1-0.9-1.2-1.5c-0.2-0.6-0.3-1.3-0.1-1.9c0.2-0.6,0.5-1.2,1.1-1.6c0.5-0.4,1.1-0.7,1.8-0.8c0.7-0.1,1.4,0,2,0.3
		c0.6,0.3,1.1,0.7,1.5,1.3c0.3,0.6,0.5,1.2,0.5,1.9C339.7,131.3,339.5,131.9,339,132.5L339,132.5z M329.4,138.1
		c0.3,0.3,0.6,0.7,0.7,1.1c0.2,0.4,0.2,0.9,0.2,1.3c0,0.4-0.1,0.9-0.3,1.3c-0.2,0.4-0.5,0.8-0.8,1.1c-0.6,0.5-1.5,0.8-2.3,0.8
		c-0.5,0-1-0.1-1.4-0.3c-0.4-0.2-0.8-0.4-1.2-0.8c-0.6-0.6-0.9-1.5-0.9-2.4c0-0.9,0.5-1.7,1.1-2.3c0.7-0.6,1.6-0.9,2.5-0.9
		C328,137.2,328.8,137.6,329.4,138.1L329.4,138.1z M346.8,120.6c-0.3,0.6-0.7,1-1.3,1.3c-0.5,0.3-1.2,0.5-1.8,0.5
		c-0.5,0-1.1-0.1-1.6-0.4c-0.6-0.3-1.1-0.8-1.4-1.3c-0.3-0.6-0.5-1.2-0.4-1.9c0.1-0.7,0.3-1.3,0.7-1.8c0.4-0.5,1-0.9,1.6-1.1
		c0.7-0.2,1.3-0.2,2,0s1.2,0.5,1.7,1c0.4,0.5,0.7,1.1,0.8,1.8C347.2,119.3,347.1,120,346.8,120.6z M278.9,159.2
		c0,0.4-0.1,0.9-0.2,1.3c-0.2,0.4-0.4,0.8-0.7,1.1c-0.3,0.3-0.7,0.6-1.1,0.7s-0.9,0.3-1.3,0.3c-0.9,0-1.8-0.3-2.4-1
		c-0.6-0.6-1-1.5-1-2.3c0-0.9,0.4-1.7,1-2.3c0.6-0.6,1.5-1,2.4-1c0.5,0,0.9,0.1,1.3,0.2c0.4,0.2,0.8,0.4,1.1,0.7
		c0.3,0.3,0.6,0.7,0.7,1.1C278.9,158.3,278.9,158.7,278.9,159.2z M313,23.3c0.2-0.4,0.6-0.7,0.9-0.9c0.4-0.3,0.8-0.4,1.2-0.5
		c0.4-0.1,0.9-0.1,1.4,0c0.5,0.1,0.9,0.2,1.3,0.5c0.8,0.5,1.3,1.2,1.5,2.1c0.2,0.9,0,1.7-0.4,2.5c-0.3,0.5-0.8,0.9-1.3,1.1
		s-1.1,0.4-1.7,0.4c-0.6,0-1.3-0.2-1.8-0.5c-0.4-0.2-0.7-0.5-1-0.9c-0.3-0.4-0.5-0.7-0.6-1.2c-0.1-0.4-0.1-0.9,0-1.3
		C312.6,24.1,312.8,23.7,313,23.3z M226.6,137.7c0.5,0.5,0.9,1,1,1.7c0.2,0.6,0.1,1.3-0.2,1.9c-0.3,0.6-0.7,1.1-1.3,1.5
		c-0.6,0.4-1.3,0.6-1.9,0.6c-0.4,0-0.9-0.1-1.3-0.2c-0.4-0.1-0.8-0.4-1.1-0.7c-0.3-0.3-0.6-0.6-0.8-1c-0.2-0.4-0.3-0.8-0.3-1.2
		c0-0.4,0.1-0.9,0.2-1.3c0.2-0.4,0.4-0.8,0.7-1.1c0.6-0.6,1.5-1,2.4-1.1C225,136.8,225.9,137.1,226.6,137.7z M318.5,146.6
		c0.3,0.5,0.5,1.1,0.5,1.7c0,0.6-0.1,1.2-0.4,1.7s-0.7,0.9-1.3,1.2c-0.5,0.3-1.1,0.4-1.8,0.4c-0.6,0-1.1-0.1-1.6-0.4
		c-0.5-0.3-0.9-0.7-1.2-1.1c-0.2-0.4-0.4-0.8-0.5-1.2c-0.1-0.4-0.1-0.9,0-1.3c0.1-0.4,0.3-0.8,0.6-1.2c0.3-0.4,0.6-0.7,1-0.9
		c0.8-0.4,1.7-0.6,2.6-0.3C317.3,145.4,318,145.9,318.5,146.6z M235.4,151.5c-0.6,0-1.3-0.2-1.8-0.5c-0.8-0.5-1.3-1.2-1.5-2.1
		c-0.2-0.9-0.1-1.7,0.4-2.5c0.5-0.7,1.3-1.1,2.1-1.3c0.9-0.2,1.8,0,2.5,0.4c0.7,0.4,1.3,1.1,1.5,1.9c0.2,0.8,0.1,1.7-0.3,2.4
		c-0.3,0.5-0.7,0.9-1.3,1.1C236.6,151.4,236,151.5,235.4,151.5z M352.2,107.6c-0.2,0.7-0.6,1.3-1.2,1.7c-0.6,0.4-1.3,0.7-2.1,0.7
		c-0.3,0-0.7,0-1-0.1c-0.4-0.1-0.8-0.3-1.2-0.6c-0.4-0.3-0.7-0.6-0.9-1c-0.2-0.4-0.4-0.8-0.4-1.2c-0.1-0.4,0-0.9,0.1-1.3
		c0.1-0.4,0.3-0.8,0.6-1.1c0.3-0.3,0.6-0.6,1-0.8c0.4-0.2,0.8-0.3,1.3-0.4c0.5,0,0.9,0,1.3,0.1c0.4,0.1,0.8,0.3,1.2,0.6
		c0.4,0.3,0.7,0.6,0.9,1c0.2,0.4,0.4,0.8,0.4,1.2C352.3,106.7,352.3,107.1,352.2,107.6z M354.9,93.8c-0.1,0.8-0.5,1.6-1.1,2.1
		c-0.6,0.6-1.5,0.9-2.3,0.9c-0.1,0-0.2,0-0.3,0c-0.7-0.1-1.3-0.3-1.9-0.7c-0.5-0.4-0.9-1-1.1-1.6s-0.2-1.3,0-1.9
		c0.2-0.6,0.6-1.2,1.1-1.6c0.5-0.4,1.2-0.7,1.8-0.7c0.7-0.1,1.4,0.1,2,0.4c0.6,0.3,1.1,0.8,1.4,1.3C354.8,92.5,355,93.2,354.9,93.8z
		 M351.2,76.8c0.5,0,0.9,0,1.3,0.1c0.4,0.1,0.8,0.3,1.2,0.6c0.3,0.3,0.6,0.6,0.8,1c0.2,0.4,0.3,0.8,0.4,1.2c0.1,0.9-0.2,1.7-0.8,2.4
		c-0.6,0.7-1.4,1.1-2.3,1.2h-0.3c-0.9,0-1.8-0.3-2.5-0.9c-0.7-0.6-1.1-1.4-1.1-2.3c0-0.9,0.3-1.7,0.9-2.4
		C349.5,77.3,350.3,76.9,351.2,76.8L351.2,76.8z M221.8,35.2c-0.3-0.3-0.6-0.7-0.7-1.1c-0.2-0.4-0.2-0.8-0.2-1.3
		c0-0.4,0.1-0.9,0.3-1.3c0.2-0.4,0.5-0.7,0.8-1c0.7-0.6,1.6-0.9,2.5-0.9c0.9,0,1.8,0.4,2.4,1.1c0.6,0.6,0.9,1.5,0.9,2.4
		c0,0.9-0.5,1.7-1.1,2.3c-0.3,0.3-0.7,0.5-1.1,0.7c-0.4,0.1-0.8,0.2-1.3,0.2c-0.5,0-1-0.1-1.4-0.3C222.6,35.8,222.2,35.5,221.8,35.2
		z"/>
</g>
<g>
	<path class="st0" d="M249.2,70.4c-2-1.8-5.1-3-8.8-4c-5.7-1.4-12.8-2-19.5-2.1c-3.9-23.2-13.2-57.7-20.9-62.7
		c-6.1-4-23,1.2-50.2,15.4l-0.1,0c-20.6-2.9-39.5,1.2-57.1,5.7c-3.1,0.8-6.2,1.8-9.4,2.9c-37.6-11.8-42.3-6.5-43.8-4.8
		c-6.4,7.4-6.6,45.3-6.6,54.5c-0.1,0.2-0.2,0.5-0.3,0.7c-0.6,1.8-1.2,3.6-1.7,5.3c-0.3,1.1-0.6,2.3-0.8,3.5
		C18.2,87.5,3.5,91.7-1,98.1c-0.4,0.5-0.3,1.3,0.3,1.7c0.3,0.2,0.6,0.3,0.9,0.2c0.3,0,0.6-0.2,0.9-0.5C5,94,18.2,90.1,29.3,87.6
		c-0.5,2.4-1,5.1-1.5,8c-10.6,5.3-23.2,12.7-26,19.8c-0.3,0.6,0.1,1.3,0.7,1.6c0.2,0.1,0.4,0.1,0.6,0.1c0.4,0,0.8-0.4,1-0.8
		c2.4-5.9,13.3-12.6,23.1-17.6c-0.8,5.1-1.6,10.8-2.4,16.9c-0.2,0.7-0.4,1.2-0.4,1.2s-1.4,4.2-0.9,10c0.2,2.3,0.7,4.9,1.8,7.4
		c1.4,3.3,3.6,6.8,7.1,10c1.1,1,2.4,2,3.8,3c9.8,6.8,26.8,11.9,56,11.5c74.6-1,112.8-11.7,131.4-31.7c1.2-1.2,2.2-2.5,3.2-3.8
		c0.7-0.9,1.4-1.8,2.1-2.8c0,0,1.8-2.4,3.1-6c0.8-2.2,1.3-4.9,1-7.8c-0.2-0.6-0.3-1.1-0.5-1.8c-2.5-9.8-5.5-18.9-8.8-27.2
		c6.8,1.8,13.8,4.2,18.7,7c2.4,1.4,4.4,2.9,5.5,4.6c0.3,0.4,0.7,0.6,1.2,0.5c0.2,0,0.4-0.1,0.5-0.2c0.6-0.4,0.7-1.2,0.4-1.7
		c-1.5-2.3-4.4-4.3-8-6.2c-5.6-2.9-12.8-5.2-19.5-6.9l0-0.1c-0.2-0.4-0.3-0.8-0.5-1.1c-0.3-2.1-0.6-4.3-0.9-6.7
		c6.8,0.1,14,0.7,19.4,2.2c2.9,0.8,5.3,1.8,6.8,3.2c0.3,0.3,0.7,0.3,1,0.3c0.3-0.1,0.5-0.2,0.8-0.4
		C249.8,71.7,249.7,70.9,249.2,70.4z M197.7,4.9c5.6,3.7,14.5,33.1,18.7,56.9c-3.6-6.7-7.5-12.5-11.6-17.3c-0.4-1.4-0.7-2.8-1.1-4.1
		c0-0.1-0.1-0.3-0.1-0.5c-0.4-1.4-0.8-2.8-1.2-4.1c-0.1-0.3-0.1-0.5-0.2-0.7c-0.4-1.2-0.7-2.3-1.1-3.4c-0.1-0.2-0.2-0.4-0.2-0.6
		c-0.3-1-0.7-2-1-2.9c-0.1-0.3-0.2-0.5-0.3-0.8c-0.3-0.8-0.6-1.5-0.9-2.2c-0.1-0.3-0.2-0.6-0.4-0.8c-0.3-0.6-0.5-1.2-0.8-1.8
		c-0.1-0.3-0.3-0.5-0.4-0.8c-0.3-0.5-0.5-0.9-0.7-1.4c-0.1-0.3-0.3-0.5-0.5-0.7c-0.2-0.4-0.5-0.7-0.7-1.1c-0.1-0.2-0.3-0.4-0.5-0.6
		c-0.2-0.3-0.4-0.6-0.6-0.8c-0.2-0.2-0.3-0.3-0.5-0.5c-0.2-0.2-0.4-0.5-0.5-0.6c-0.2-0.2-0.3-0.3-0.4-0.4c-0.2-0.2-0.4-0.3-0.6-0.5
		c-0.2-0.1-0.3-0.2-0.4-0.3c-0.2-0.1-0.3-0.2-0.5-0.3c-0.2-0.1-0.3-0.1-0.4-0.2c-0.2-0.1-0.3-0.1-0.5-0.2c-0.1,0-0.3-0.1-0.4-0.1
		c-0.1,0-0.3-0.1-0.4-0.1c-0.1,0-0.3,0-0.4,0c-0.1,0-0.2-0.1-0.4,0c-0.3,0-0.5,0-0.7,0c-0.1,0-0.2,0-0.3,0
		c-4.8,0.6-10.9,3.4-18.3,8.2c-4.5-1.6-9.1-2.8-13.7-3.8C178,7.1,193.5,2.1,197.7,4.9z M199.3,38.7c-2.4-2.2-5-4.2-7.6-5.8
		c-5.9-3.7-11.8-6.6-17.7-9.1c0,0,0,0-0.1,0c0.2-0.1,0.4-0.3,0.7-0.4c0.8-0.4,1.5-0.9,2.3-1.4c0.7-0.4,1.3-0.7,2-1.1
		c0.9-0.5,1.8-0.9,2.6-1.3c0.4-0.2,0.8-0.3,1.2-0.5c0.8-0.4,1.7-0.7,2.5-0.9c1.2-0.4,2.2-0.6,3.1-0.7c0.1,0,0.1,0,0.1,0
		c0,0,0,0,0.1,0c0.1,0,0.1,0,0.2,0.1l0.1,0c0.1,0,0.2,0,0.3,0.1c0.1,0,0.1,0,0.1,0.1c0.1,0,0.2,0.1,0.3,0.2c0.1,0,0.1,0.1,0.2,0.1
		c0.1,0.1,0.3,0.2,0.4,0.3c0,0.1,0.1,0.1,0.2,0.2c0.2,0.2,0.3,0.3,0.4,0.4c0,0.1,0.2,0.2,0.2,0.2c0.2,0.2,0.3,0.4,0.5,0.6
		c0,0.1,0.2,0.2,0.2,0.3c0.2,0.3,0.4,0.6,0.6,0.9c0,0.1,0.1,0.1,0.2,0.3c0.3,0.4,0.5,0.9,0.8,1.5c0.6,1.2,1.3,2.6,2,4.3
		c0,0.1,0.1,0.3,0.2,0.4c0.3,0.7,0.6,1.5,0.9,2.3c0.1,0.3,0.2,0.5,0.3,0.8c0.3,0.8,0.5,1.5,0.8,2.3c0.1,0.3,0.2,0.7,0.4,1.1
		c0.2,0.8,0.5,1.7,0.8,2.6c0.2,0.4,0.2,0.9,0.4,1.3C199.2,38.3,199.2,38.5,199.3,38.7z M42.3,23.4c0.5-0.6,1.6-1.1,3.3-1.2
		c4.9-0.6,15.1,0.8,32.2,5.9c-2.4,1.1-4.8,2.3-7.1,3.7c-0.7-0.2-1.3-0.4-2-0.5c-0.9-0.3-1.8-0.5-2.7-0.8c-1-0.2-1.7-0.4-2.6-0.6
		c-0.7-0.2-1.4-0.3-1.9-0.4c-0.9-0.1-1.6-0.2-2.3-0.4c-0.4,0-1-0.2-1.3-0.2c-0.7-0.1-1.4-0.1-2-0.2c-0.3,0-0.6,0-0.9-0.1
		c-0.6,0-1.1,0-1.7,0c-0.2,0-0.4,0-0.6,0c-0.5,0.1-1,0.1-1.4,0.2c-0.1,0-0.3,0.1-0.4,0.1c-0.4,0.1-0.8,0.3-1.1,0.4
		c-0.1,0-0.1,0-0.2,0.1c-0.4,0.2-0.7,0.4-0.9,0.5c-1.4,0.9-2.1,2.3-2.3,4.1c-0.2,2.9-0.3,6-0.4,9.3c0,0.3,0,0.5,0,0.7
		c0,1.4-0.1,3-0.1,4.5c0,0.3,0,0.7,0,1c0,1.1,0,2.1,0.1,3.2c-3.5,4.3-6.5,8.9-9,13.7C37,46.7,38.8,27.4,42.3,23.4z M66,34.5
		c-6.1,4.1-11.6,8.8-16.5,14.2c0-2.2,0-4.4,0.1-6.4c0-0.6,0-1.1,0-1.7c0.1-2.1,0.2-4.2,0.3-6.1c0.1-0.5,0.2-0.8,0.6-1.1
		c0.1-0.1,0.3-0.2,0.5-0.3c0.1,0,0.3-0.1,0.3-0.1c0.1,0,0.3-0.1,0.5-0.1c0.2,0,0.4,0,0.6-0.1c0.2,0,0.5-0.1,0.7-0.1
		c0.3,0,0.6,0,0.8-0.1c0.3,0,0.6,0,0.9,0c0.3,0,0.7,0,1.1,0.1c0.4,0,0.8,0.1,1.2,0.1c0.4,0,0.9,0.1,1.4,0.2c0.5,0.1,1.1,0.2,1.6,0.3
		c0.5,0.1,1.1,0.2,1.7,0.3c0.7,0.2,1.4,0.3,2.2,0.5C64.8,34.2,65.4,34.3,66,34.5z M227.9,105.7c0,0,0,1.5-0.7,3.9
		c-0.8,2.5-2.4,6.1-5.7,10c-1,1.2-2.2,2.5-3.5,3.7c-9.3,9-27.3,19.3-62.2,25.6c-52,9.4-95.4,5.3-115.3-7.2c-1.4-0.9-2.7-1.8-3.9-2.8
		c-5.1-4.2-7.8-9.1-7.8-14.7c1.2-10.8,2.5-20.4,3.9-28.3c6.4-3,11.3-5,11.5-5c0.6-0.2,0.9-1,0.7-1.6c-0.2-0.6-1-0.9-1.6-0.7
		c-0.5,0.2-4.6,1.8-10,4.3c0.4-2.4,0.9-4.6,1.3-6.5c6.4-1.3,11.3-1.9,11.4-1.9c0.7-0.1,1.2-0.7,1.1-1.4c-0.1-0.7-0.7-1.2-1.4-1.1
		c-0.5,0.1-4.7,0.7-10.4,1.7c0.1-0.4,0.2-0.8,0.3-1.2c0.5-1.7,1-3.3,1.6-5c7.6-21,25.9-39.2,47.8-47.6c3-1.1,6-2.1,8.9-2.8
		c8-2,16.3-3.9,24.9-5.1c0.8-0.1,1.6-0.3,2.4-0.3c9-1.2,18.3-1.4,27.9-0.1c13.7,1.9,26.8,6.9,40.1,15.1c8.6,5.3,16.4,14.6,23.3,27.5
		c-6.6,0.2-11.6,0.6-12.1,0.7c0,0,0,0-0.1,0c-0.7,0.1-1.2,0.7-1.1,1.3c0.1,0.7,0.7,1.2,1.4,1.1c0.1,0,5.8-0.5,13.2-0.7
		c1.1,2.1,2.1,4.3,3.1,6.6c-6.8-1.6-12.1-2.4-12.8-2.5c-0.7-0.1-1.3,0.4-1.4,1.1c-0.1,0.7,0.4,1.3,1,1.4c0.2,0,6.5,1,14.4,2.9
		c0,0.1,0.1,0.2,0.2,0.4C221.9,85.4,225.2,95.2,227.9,105.7z"/>
	<path class="st0" d="M67,57.4c-4.2,0.5-8,2.5-10.6,5.9c-2.6,3.3-3.8,7.4-3.4,11.6c0.5,4.2,2.5,8,5.9,10.6c3.3,2.7,7.4,3.8,11.6,3.4
		c4-0.4,7.5-2.3,10-5.1c2.9-3.2,4.5-7.7,4-12.4c-0.5-4.2-2.5-8-5.9-10.6C75.3,58.1,71.2,56.9,67,57.4z M70,85
		c-6.6,0.7-12.5-4-13.2-10.6c-0.4-3.2,0.6-6.3,2.5-8.8c0.2-0.2,0.3-0.4,0.4-0.5c2-2.2,4.6-3.5,7.6-3.9c3.2-0.4,6.3,0.6,8.8,2.5
		c2.5,2,4.1,4.8,4.4,8C81.3,78.4,76.6,84.3,70,85z"/>
	<path class="st0" d="M67.7,63.4c-5.4,0.6-9.3,5.4-8.7,10.9c0.6,5.4,5.4,9.3,10.9,8.7c5.4-0.6,9.3-5.4,8.7-10.9
		C77.9,66.7,73,62.8,67.7,63.4z M70.2,74.3c7.2,5.6-8.2,7.5-2.6,0.3c-5.6,7.2-7.5-8.2-0.3-2.6c-7.2-5.6,8.2-7.5,2.6-0.3
		C75.5,64.5,77.4,79.9,70.2,74.3z"/>
	<path class="st0" d="M180.9,76.1c2.7-3.3,3.8-7.4,3.4-11.6c-1-8.7-8.8-15-17.5-14c-4.2,0.5-8,2.5-10.6,5.9
		c-2.6,3.3-3.8,7.4-3.4,11.6c0.5,4.2,2.5,8,5.9,10.6c3.3,2.6,7.4,3.8,11.6,3.4c3.9-0.4,7.4-2.2,10-5.1
		C180.5,76.6,180.6,76.4,180.9,76.1z M169.8,78.1c-6.6,0.7-12.5-4-13.2-10.6c-0.4-3.2,0.5-6.3,2.5-8.8c0.2-0.2,0.3-0.4,0.4-0.5
		c2-2.2,4.6-3.5,7.6-3.9c6.6-0.7,12.5,4,13.2,10.6c0.3,3.2-0.6,6.3-2.5,8.8C175.8,76.2,173,77.7,169.8,78.1z"/>
	<path class="st0" d="M167.4,56.4c-5.4,0.6-9.3,5.4-8.7,10.9c0.6,5.4,5.4,9.3,10.9,8.7c5.4-0.6,9.3-5.4,8.7-10.9
		C177.7,59.7,172.8,55.8,167.4,56.4z M170,67.4c7.2,5.6-8.2,7.5-2.6,0.3c-5.6,7.2-7.5-8.2-0.3-2.6c-7.2-5.6,8.2-7.5,2.6-0.3
		C175.2,57.6,177.1,72.9,170,67.4z"/>
	<path class="st0" d="M124.5,75.2c0,0-0.5,1.7-2,1.9c-1.9,0.2-2.7,0-3-1.9c0-0.1,0.1,0,0.1-0.1l1.2-1.2c0.9-0.9,0.2-2.4-1.1-2.3
		l-2.7,0.3c-1.2,0.1-1.6,1.8-0.6,2.5l1.4,0.9c0.1,0,0.1,0,0.1,0.1c0.2,1.9-0.5,2.3-2.5,2.5c-1.4,0.2-2.3-1.4-2.4-1.4
		c-0.2-0.4-0.6-0.5-1-0.2c-0.4,0.2-0.5,0.6-0.2,1c0,0.1,1.4,2.4,3.8,2.1c0.9-0.1,2.5-0.3,3.3-1.6c1.1,1.1,2.6,0.9,3.5,0.8
		c2.4-0.3,3.2-2.8,3.2-2.9c0.1-0.4-0.1-0.8-0.5-0.9C125,74.6,124.6,74.9,124.5,75.2z"/>
	<path class="st0" d="M55.9,91.6c-5.2,0.7-9.2,3.5-8.8,6.4c0.3,2.9,4.9,4.6,10.1,4c5.2-0.7,9.2-3.5,8.8-6.4
		C65.7,92.7,61.1,90.9,55.9,91.6z"/>
	<path class="st0" d="M188.4,80.8c-5.2,0.7-9.2,3.5-8.8,6.4c0.3,2.9,4.9,4.6,10.1,4c5.2-0.7,9.2-3.5,8.8-6.4
		C198.2,81.9,193.6,80.1,188.4,80.8z"/>
</g>
</svg>
