<svg width="70" height="68" viewBox="0 0 70 68" fill="none" xmlns="http://www.w3.org/2000/svg">
<path d="M34.786 67.6214C15.6063 67.6214 0 52.4518 0 33.8089C0 33.658 0.00368769 33.5109 0.0110631 33.3637L0.0184385 33.1208L1.43083 33.1282L0.0184385 33.0988C0.376145 16.3507 13.5375 2.22596 30.6337 0.246512L30.7554 0.231794C31.3675 0.161888 32.035 0.10302 32.673 0.066227L32.7873 0.0588684C33.488 0.0183964 34.1481 0 34.786 0H34.8561C34.9593 0 35.0626 0.00367928 35.1622 0.00735855L35.2728 0.0110378C35.7522 0.0183964 36.2279 0.0257549 36.6962 0.0515099C37.0613 0.0699063 37.4227 0.0993405 37.7878 0.132454L37.9906 0.15085C38.1639 0.165567 38.341 0.180285 38.5143 0.198681C38.9605 0.242832 39.4104 0.301701 39.864 0.364248L40.2291 0.419438C49.1238 1.76237 57.0413 6.34675 62.5212 13.3263L64.0442 15.5265C65.1247 17.1528 66.0577 18.86 66.8284 20.6297C68.5432 24.5629 69.4614 28.7609 69.5536 33.0988L69.561 33.3232C69.5647 33.4851 69.572 33.647 69.572 33.8126C69.572 52.4518 53.9694 67.6214 34.786 67.6214ZM4.77556 33.1908C4.77556 33.3048 4.77188 33.4189 4.76819 33.5329C4.7645 33.6249 4.76081 33.7169 4.76081 33.8089C4.76081 49.8358 18.2283 62.8715 34.786 62.8715C51.3438 62.8715 64.8149 49.8321 64.8149 33.8089C64.8149 33.6985 64.8112 33.5918 64.8075 33.4851L64.8002 33.2018C64.719 29.482 63.9336 25.8911 62.4695 22.5245C61.5034 20.317 60.2459 18.2124 58.7302 16.2808L57.6571 14.9084C53.0032 9.64338 46.6235 6.18854 39.521 5.11419L39.2002 5.06636C38.8204 5.01485 38.4258 4.96334 38.0312 4.92287C37.8911 4.90816 37.7546 4.89712 37.6219 4.88608L37.4596 4.87504C37.0835 4.84193 36.7737 4.81617 36.4565 4.80146C36.0435 4.77938 35.6305 4.77202 35.2175 4.76834L34.7381 4.7573C34.2476 4.7573 33.6723 4.7757 33.0454 4.81249L32.9348 4.81985C32.378 4.85297 31.8064 4.90448 31.2385 4.9707L31.1205 4.98542C16.4397 6.67421 5.08902 18.8085 4.77556 33.1908Z" fill="url(#paint0_linear_323_4950)"/>
<path d="M34.9337 4.42616C18.2211 4.42616 4.61719 17.6053 4.61719 33.8089C4.61719 50.0124 18.2174 63.1952 34.9411 63.1952C51.6021 63.1952 65.206 50.0639 65.2687 33.9192L65.2724 33.8273C65.2724 27.3444 63.1446 21.2073 59.1176 16.0674L58.0703 14.7281C52.6457 8.57639 44.8831 4.85664 36.5157 4.46296L36.4346 4.45928C36.2134 4.44824 35.9921 4.44088 35.7708 4.4372C35.6786 4.43352 35.5901 4.43352 35.5053 4.43352L35.214 4.42984C35.1513 4.42984 35.0849 4.42984 35.0185 4.42984H34.9706H34.9337V4.42616Z" fill="url(#paint1_linear_323_4950)"/>
<path d="M67.352 33.8089C67.352 51.1714 52.841 65.2483 34.9446 65.2483C17.0482 65.2483 2.53711 51.1751 2.53711 33.8089C2.53711 16.4464 17.0482 2.37313 34.9446 2.37313C52.841 2.37313 67.352 16.4464 67.352 33.8089Z" fill="url(#paint2_linear_323_4950)"/>
<path opacity="0.49" d="M34.9409 2.37313C17.0445 2.37313 2.53711 16.4464 2.53711 33.8089C2.53711 34.1915 2.55555 34.5705 2.5703 34.9458C10.8234 42.1277 22.1888 46.5686 34.7344 46.5686C47.5012 46.5686 59.0437 41.9695 67.3299 34.5631C67.3373 34.3093 67.352 34.0627 67.352 33.8052C67.352 16.4464 52.841 2.37313 34.9409 2.37313Z" fill="white"/>
<path opacity="0.49" d="M60.8066 14.787C54.8879 7.24817 45.5396 2.37681 35.0149 2.37681C24.4091 2.37681 14.9944 7.32176 9.08301 14.9599C16.4068 19.3456 25.2609 21.9138 34.8047 21.9138C44.4664 21.9138 53.4275 19.2794 60.8066 14.787Z" fill="white"/>
<path opacity="0.49" d="M34.9446 4.1723C52.5312 4.1723 66.8321 17.7672 67.3262 34.7103C67.3373 34.4123 67.352 34.1106 67.352 33.8089C67.352 16.4464 52.841 2.37313 34.9446 2.37313C17.0482 2.37313 2.53711 16.4464 2.53711 33.8089C2.53711 34.1106 2.55186 34.4123 2.55924 34.7103C3.05339 17.7672 17.358 4.1723 34.9446 4.1723Z" fill="white"/>
<path d="M34.9411 63.9164C17.2734 63.9164 2.9209 50.1964 2.55213 33.1429C2.54844 33.3637 2.53369 33.5844 2.53369 33.8052C2.53369 51.1677 17.0448 65.2446 34.9411 65.2446C52.8375 65.2446 67.3486 51.1714 67.3486 33.8052C67.3486 33.5844 67.3339 33.3637 67.3302 33.1429C66.9651 50.2001 52.6089 63.9164 34.9411 63.9164Z" fill="#F5E768"/>
<path d="M57.2733 33.8089C57.2733 45.7739 47.2759 55.4725 34.9406 55.4725C22.6089 55.4725 12.6079 45.7739 12.6079 33.8089C12.6079 21.8475 22.6052 12.1453 34.9406 12.1453C47.2759 12.1453 57.2733 21.8475 57.2733 33.8089Z" fill="url(#paint3_linear_323_4950)"/>
<path d="M34.9412 11.7553C28.2739 11.7553 22.274 14.5405 18.1143 18.9814C22.1744 15.3242 27.6101 13.0835 33.5878 13.0835C46.1481 13.0835 56.3262 22.9587 56.3262 35.1445C56.3262 40.8584 54.0877 46.0646 50.4111 49.983C54.8806 45.9542 57.6758 40.2035 57.6758 33.8162C57.6832 21.6342 47.5015 11.7553 34.9412 11.7553Z" fill="url(#paint4_linear_323_4950)"/>
<path opacity="0.43" d="M20.78 46.8666C20.78 34.6809 30.9617 24.8057 43.5183 24.8057C48.6479 24.8057 53.3829 26.454 57.1849 29.2355C55.0129 19.25 45.8784 11.7553 34.9371 11.7553C22.3768 11.7553 12.1987 21.6342 12.1987 33.8162C12.1987 41.0239 15.761 47.4259 21.2705 51.451C20.9496 49.9683 20.78 48.4377 20.78 46.8666Z" fill="#CE5716"/>
<path d="M34.9405 54.6704C22.6014 54.6704 12.5635 45.1337 12.2206 33.2423C12.2132 33.452 12.2021 33.6617 12.2021 33.8751C12.2021 46.0609 22.3839 55.936 34.9405 55.936C47.4971 55.936 57.6788 46.0609 57.6788 33.8751C57.6788 33.6617 57.6714 33.452 57.664 33.2423C57.3174 45.1337 47.2832 54.6704 34.9405 54.6704Z" fill="url(#paint5_linear_323_4950)"/>
<path d="M30.5897 4.44091C32.0979 4.32685 33.6541 4.90082 32.8982 5.55573C32.1422 6.21064 27.0458 9.14302 24.8184 7.32914C22.5947 5.51158 28.8159 4.57704 30.5897 4.44091Z" fill="white"/>
<path d="M13.0581 12.4323C8.3342 16.3949 4.52112 23.7203 4.617 27.9993C4.7092 32.2783 7.00294 25.5636 8.18669 23.1316C9.37044 20.696 15.2855 13.2712 19.5706 11.0231C23.8594 8.77143 20.4409 6.23641 13.0581 12.4323Z" fill="white"/>
<path d="M49.3423 54.0524L35.1977 46.417L20.8417 53.6479L23.8025 37.9575L12.4375 26.6666L28.3848 24.5793L35.7315 10.382L42.6351 24.814L58.5219 27.3258L46.8648 38.2971L49.3423 54.0524Z" fill="url(#paint6_linear_323_4950)"/>
<path d="M29.0849 25.5581L35.6964 12.774L41.8749 25.6929L43.3452 23.7853L35.782 8L27.685 23.6205H27.6548L29.0748 25.5581H29.0849Z" fill="#AE6025"/>
<path d="M24.9455 37.603L14.7185 27.4108L29.0746 25.5581L27.6546 23.6205L10.1665 25.8877L22.6544 38.3271V38.3471L24.9455 37.628V37.603Z" fill="#AE6025"/>
<path d="M35.2281 45.2385L22.282 51.7553L24.9457 37.628L22.6546 38.3471L19.4067 55.5406L35.1878 47.6255L35.2281 47.6455V45.2385Z" fill="#D99E5D"/>
<path d="M47.9875 38.6816L60.833 26.6217L43.3549 23.8352L43.3449 23.7852L41.8745 25.6929L41.8947 25.7578L56.2356 28.0299L45.6964 37.9026L45.7166 37.9875L47.9875 38.6816Z" fill="#AE6025"/>
<path d="M45.7169 37.9875L47.9476 52.1198L35.228 45.2384V47.6454L50.7271 56L47.9878 38.6816L45.7169 37.9875Z" fill="#D99E5D"/>
<defs>
<linearGradient id="paint0_linear_323_4950" x1="31.3697" y1="19.9162" x2="42.0579" y2="63.5662" gradientUnits="userSpaceOnUse">
<stop stop-color="#C85819"/>
<stop offset="0.9515" stop-color="#C62E1D"/>
</linearGradient>
<linearGradient id="paint1_linear_323_4950" x1="4.61837" y1="33.8114" x2="65.2709" y2="33.8114" gradientUnits="userSpaceOnUse">
<stop stop-color="#F3CD1F"/>
<stop offset="1" stop-color="#C6341D"/>
</linearGradient>
<linearGradient id="paint2_linear_323_4950" x1="34.943" y1="-0.47187" x2="34.943" y2="58.7036" gradientUnits="userSpaceOnUse">
<stop stop-color="#F3DE24"/>
<stop offset="1" stop-color="#C85819"/>
</linearGradient>
<linearGradient id="paint3_linear_323_4950" x1="34.9417" y1="18.7702" x2="34.9417" y2="59.8497" gradientUnits="userSpaceOnUse">
<stop stop-color="#C6341D"/>
<stop offset="1" stop-color="#F3CD1F"/>
</linearGradient>
<linearGradient id="paint4_linear_323_4950" x1="18.1158" y1="30.8667" x2="57.6817" y2="30.8667" gradientUnits="userSpaceOnUse">
<stop stop-color="#F3CD1F"/>
<stop offset="1" stop-color="#C6341D"/>
</linearGradient>
<linearGradient id="paint5_linear_323_4950" x1="12.2016" y1="44.5909" x2="57.681" y2="44.5909" gradientUnits="userSpaceOnUse">
<stop stop-color="#F3DE24"/>
<stop offset="1" stop-color="#C85819"/>
</linearGradient>
<linearGradient id="paint6_linear_323_4950" x1="35.481" y1="11.4408" x2="35.481" y2="59.8866" gradientUnits="userSpaceOnUse">
<stop stop-color="#FFDE89"/>
<stop offset="0.2364" stop-color="#FEDC88"/>
<stop offset="0.3216" stop-color="#F8D582"/>
<stop offset="0.3823" stop-color="#EFCA79"/>
<stop offset="0.4314" stop-color="#E3B96B"/>
<stop offset="0.4734" stop-color="#D2A35A"/>
<stop offset="0.5107" stop-color="#BD8745"/>
<stop offset="0.5435" stop-color="#A5682C"/>
<stop offset="0.5533" stop-color="#9D5D23"/>
<stop offset="1" stop-color="#DDBB68"/>
</linearGradient>
</defs>
</svg>
