<?xml version="1.0" encoding="utf-8"?>
<!-- Generator: Adobe Illustrator 25.0.1, SVG Export Plug-In . SVG Version: 6.00 Build 0)  -->
<svg version="1.1" id="圖層_1" xmlns="http://www.w3.org/2000/svg" xmlns:xlink="http://www.w3.org/1999/xlink" x="0px" y="0px"
	 viewBox="0 0 115.8 67" style="enable-background:new 0 0 115.8 67;" xml:space="preserve">
<style type="text/css">
	.st0{fill:#999999;}
	.st1{fill:#545454;}
	.st2{fill:#D3D3D3;}
	.st3{fill:#FF6D00;}
	.st4{fill:#4D4D4D;}
	.st5{fill:#FFFFFF;}
	.st6{fill:none;}
	.st7{fill:#FFA943;}
	.st8{fill:#DB2F0E;}
	.st9{fill:#BC0000;}
	.st10{fill:#FBB03B;}
	.st11{fill:#231815;}
	.st12{clip-path:url(#SVGID_2_);}
</style>
<g>
	<path d="M112.1,34.8c0-0.2,0-0.3-0.1-0.5c-0.8-0.9-2.1-1.6-3.6-2.2c-2.4-0.9-5.5-1.6-8.4-2c-0.5-10.4-2.6-25.6-5.7-28.2
		c-2.5-2.1-10.1-0.7-22.8,4c0,0,0,0,0,0c-8.8-2.4-17.3-1.6-25.2-0.6C44.8,5.4,43.4,5.6,42,6C26.2-1.2,23.9,0.8,23.1,1.5
		c-3.2,2.9-5.4,19.4-5.8,23.4c-0.1,0.1-0.1,0.2-0.2,0.3c-0.4,0.7-0.7,1.5-1,2.2c-0.1,0.4-0.3,0.8-0.4,1.2c0,0-0.1,0-0.1,0
		c-5.3,0.5-11.9,1.5-14.2,4.1c-0.1,0.2-0.1,0.4-0.1,0.5c0,0.2,0,0.4,0.1,0.5C1.4,33.9,1.5,34,1.7,34c0.1,0,0.3-0.1,0.4-0.2
		c2-2.2,8-3.2,13-3.7c-0.3,0.9-0.6,1.9-1,3.1c0,0-0.1,0-0.1,0C9,34.9,3.1,37.5,1.5,40.5c-0.1,0.2-0.1,0.3,0,0.5c0,0.2,0,0.5,0.2,0.6
		c0.1,0,0.2,0.1,0.3,0.1c0.2,0,0.4-0.1,0.5-0.3c1.3-2.5,6.5-4.8,11.1-6.4c-0.6,2.2-1.3,4.6-2,7.3c-0.1,0.3-0.2,0.5-0.2,0.5
		s-0.9,1.8-0.9,4.3c0,1,0.1,2.1,0.4,3.3c0.4,1.5,1.2,3.1,2.6,4.7c0.4,0.5,0.9,1,1.5,1.5c3.9,3.5,11,6.6,23.8,8.1
		c32.6,3.6,49.9,1,59.1-6.7c0.6-0.5,1.1-1,1.6-1.5c0.1-0.1,0.1-0.1,0.1-0.2l0,0c0,0,0,0,0,0c0.3-0.3,0.6-0.6,0.9-1
		c0,0,0.9-1,1.7-2.4c0.5-0.9,0.8-2.1,0.9-3.3c0-0.3-0.1-0.5-0.1-0.8c-0.6-4.4-1.4-8.5-2.4-12.3c2.9,1.2,5.8,2.6,7.8,4.1
		c1,0.7,1.8,1.5,2.2,2.3c0.1,0.2,0.3,0.3,0.5,0.3c0.1,0,0.2,0,0.2-0.1c0.2-0.1,0.3-0.4,0.3-0.6c0-0.1,0-0.3,0-0.4
		c-0.5-1.1-1.7-2.1-3.2-3.1c-2.3-1.6-5.3-3-8.1-4.1c0,0-0.1,0-0.1,0c0-0.1,0-0.2-0.1-0.2c0-0.9,0-1.9,0-3c3,0.4,6.1,1.1,8.4,2
		c1.2,0.5,2.2,1.1,2.8,1.8c0.1,0.1,0.3,0.2,0.4,0.2c0.1,0,0.3,0,0.4-0.1C112.1,35.2,112.1,35,112.1,34.8z"/>
	<g>
		<g>
			<path class="st0" d="M42.4,7.8c-10,2.5-19,9.4-23.5,18.2c-0.4,0.7-0.7,1.4-1,2.1c-0.1,0.1-0.1,0.3-0.2,0.5
				c2.6-0.2,4.4-0.2,4.7-0.2h0c0.3,0,0.5,0.2,0.5,0.5c0,0.3-0.2,0.5-0.5,0.5c-0.1,0-2.2,0-5.1,0.2c-0.3,0.8-0.6,1.8-0.9,2.8
				c2.5-0.8,4.4-1.3,4.6-1.3c0.3-0.1,0.6,0.1,0.7,0.4s-0.1,0.6-0.4,0.7c-0.1,0-2.3,0.6-5.3,1.6c-1.2,4-2.5,9-3.9,14.8
				c42.6,1.7,45.3-36,45.5-42.4C53.8,6.2,50.1,6.6,46.5,7C45.1,7.2,43.8,7.4,42.4,7.8z M24.7,39.6c-3,0-5.3-1.5-5.3-3.2s2.4-3,5.4-3
				c3,0,5.3,1.5,5.3,3.2C30,38.3,27.6,39.6,24.7,39.6z"/>
			<path class="st0" d="M24.3,13.7c0.1-0.7,0.2-1.3,0.3-2c0-0.1,0-0.2,0-0.3c0.2-1.5,0.4-2.8,0.7-4c0.1-0.7,0.6-1.3,1.2-1.6
				c0.1-0.1,0.3-0.1,0.4-0.2c0,0,0.1,0,0.1,0c0.1,0,0.3-0.1,0.5-0.1c0.1,0,0.1,0,0.2,0c0.2,0,0.4,0,0.6,0c0.1,0,0.2,0,0.3,0
				c0.2,0,0.5,0,0.7,0.1c0.1,0,0.3,0.1,0.4,0.1c0.3,0,0.6,0.1,0.9,0.2c0.2,0,0.4,0.1,0.6,0.2c0.3,0.1,0.6,0.2,1,0.3
				c0.3,0.1,0.6,0.2,0.8,0.3c0.4,0.1,0.7,0.2,1.1,0.4c0.3,0.1,0.8,0.3,1.1,0.5c0.3,0.1,0.5,0.2,0.8,0.3c1.1-0.5,2.2-0.9,3.3-1.2
				c-7.2-3.2-11.5-4.3-13.7-4.3c-0.7,0-1.2,0.1-1.5,0.4c-1.7,1.6-3.6,9.9-4.8,18.6c1.4-2,2.9-3.8,4.7-5.5c0.1-0.5,0.1-1,0.2-1.4
				C24.3,14,24.3,13.9,24.3,13.7z"/>
			<path class="st1" d="M34,8.6c-0.3-0.1-0.5-0.2-0.7-0.3c-0.3-0.1-0.6-0.2-0.9-0.3c-0.3-0.1-0.5-0.2-0.7-0.2
				c-0.2-0.1-0.5-0.2-0.7-0.2c-0.2-0.1-0.4-0.1-0.6-0.2c-0.2,0-0.4-0.1-0.5-0.1c-0.2,0-0.3-0.1-0.5-0.1c-0.1,0-0.3,0-0.4-0.1
				c-0.1,0-0.3,0-0.4,0c-0.1,0-0.2,0-0.3,0c-0.1,0-0.2,0-0.3,0c-0.1,0-0.2,0-0.2,0c-0.1,0-0.1,0-0.2,0c-0.1,0-0.2,0.1-0.2,0.1
				C27.1,7.4,27,7.5,27,7.7c-0.2,0.8-0.3,1.7-0.5,2.6c0,0.2-0.1,0.5-0.1,0.7c-0.1,0.9-0.3,1.8-0.4,2.8C28.4,11.9,31.1,10.1,34,8.6z"
				/>
			<path class="st1" d="M29.8,7.3c0.2,0,0.3,0.1,0.5,0.1C30.1,7.4,29.9,7.3,29.8,7.3z"/>
			<path class="st1" d="M30.9,7.6c0.2,0.1,0.5,0.1,0.7,0.2C31.4,7.7,31.1,7.6,30.9,7.6z"/>
			<path class="st1" d="M28.9,7.1c0.1,0,0.3,0,0.4,0.1C29.1,7.2,29,7.2,28.9,7.1z"/>
			<path class="st1" d="M32.3,8c0.3,0.1,0.6,0.2,0.9,0.3C32.9,8.2,32.6,8.1,32.3,8z"/>
			<path class="st1" d="M27.3,7.3c0.1,0,0.1-0.1,0.2-0.1C27.5,7.2,27.4,7.2,27.3,7.3z"/>
			<path class="st1" d="M26.4,11.1c0-0.3,0.1-0.5,0.1-0.7C26.5,10.6,26.4,10.9,26.4,11.1z"/>
			<path class="st1" d="M27.7,7.2c0.1,0,0.1,0,0.2,0C27.9,7.1,27.8,7.1,27.7,7.2z"/>
			<path class="st1" d="M28.2,7.1c0.1,0,0.2,0,0.3,0C28.4,7.1,28.3,7.1,28.2,7.1z"/>
			<path class="st2" d="M88.9,14.8c1,0.8,2,1.9,3,3c0-0.1,0-0.2,0-0.3c0-0.2-0.1-0.4-0.1-0.6c-0.1-0.4-0.1-0.8-0.2-1.2
				c0-0.2-0.1-0.3-0.1-0.5c-0.1-0.4-0.2-0.7-0.2-1.1c0-0.1-0.1-0.3-0.1-0.4c-0.1-0.4-0.2-0.7-0.3-1c0-0.1,0-0.1,0-0.2
				c-0.2-0.8-0.4-1.4-0.6-2c0,0,0,0,0,0c-0.1-0.3-0.2-0.5-0.3-0.7c0,0,0-0.1-0.1-0.1c-0.1-0.2-0.1-0.3-0.2-0.4c0,0,0-0.1-0.1-0.1
				c-0.1-0.1-0.1-0.2-0.2-0.3c0,0-0.1-0.1-0.1-0.1c-0.1-0.1-0.1-0.2-0.2-0.2c0,0,0-0.1-0.1-0.1c-0.1-0.1-0.1-0.1-0.1-0.2
				c0,0,0,0-0.1-0.1c0,0-0.1-0.1-0.1-0.1c0,0,0,0,0,0c0,0-0.1,0-0.1-0.1c0,0,0,0,0,0c0,0-0.1,0-0.1,0c0,0,0,0,0,0c0,0-0.1,0-0.1,0
				c-0.4,0-0.9,0.1-1.4,0.1c-0.4,0.1-0.8,0.2-1.1,0.3c-0.2,0-0.4,0.1-0.6,0.1c-0.4,0.1-0.8,0.3-1.2,0.4c-0.3,0.1-0.6,0.2-0.9,0.4
				c-0.3,0.1-0.7,0.3-1.1,0.5c-0.1,0-0.2,0.1-0.3,0.2C84.1,11.2,86.5,12.8,88.9,14.8z"/>
			<path class="st2" d="M90.9,12.7c0.1,0.3,0.2,0.7,0.3,1C91,13.3,91,13,90.9,12.7z"/>
			<path class="st2" d="M86.9,8.1c0.5-0.1,1-0.1,1.4-0.1C87.9,7.9,87.4,8,86.9,8.1z"/>
			<path class="st2" d="M85.2,8.5c0.2-0.1,0.4-0.1,0.6-0.1C85.6,8.4,85.4,8.4,85.2,8.5z"/>
			<path class="st2" d="M83.1,9.2C83.4,9.1,83.7,9,84,8.9C83.7,9,83.4,9.1,83.1,9.2z"/>
			<path class="st2" d="M82,9.7c-0.1,0.1-0.2,0.1-0.3,0.1c0,0,0,0,0,0C81.8,9.8,81.9,9.7,82,9.7z"/>
			<path class="st2" d="M91.5,15.7c0.1,0.4,0.1,0.8,0.2,1.2C91.7,16.4,91.6,16,91.5,15.7z"/>
			<path class="st2" d="M91.2,14.1c0.1,0.3,0.2,0.7,0.2,1.1C91.4,14.8,91.3,14.4,91.2,14.1z"/>
			<path class="st2" d="M89.1,8.5c0.1,0.1,0.1,0.1,0.2,0.2C89.2,8.6,89.2,8.5,89.1,8.5z"/>
			<path class="st2" d="M88.7,8.1c0,0,0.1,0.1,0.1,0.1C88.8,8.1,88.8,8.1,88.7,8.1z"/>
			<path class="st2" d="M89.4,8.8c0.1,0.1,0.1,0.2,0.2,0.3C89.5,9,89.4,8.9,89.4,8.8z"/>
			<path class="st2" d="M88.6,8c0,0,0.1,0,0.1,0.1C88.6,8,88.6,8,88.6,8z"/>
			<path class="st2" d="M88.9,8.2c0,0,0.1,0.1,0.1,0.2C89,8.3,88.9,8.3,88.9,8.2z"/>
			<path class="st2" d="M89.6,9.2c0.1,0.1,0.1,0.3,0.2,0.4C89.8,9.5,89.7,9.4,89.6,9.2z"/>
			<path class="st2" d="M88.4,7.9C88.4,7.9,88.4,7.9,88.4,7.9C88.4,7.9,88.4,7.9,88.4,7.9z"/>
			<path class="st2" d="M88.4,7.9C88.5,8,88.5,8,88.4,7.9C88.5,8,88.5,8,88.4,7.9z"/>
			<path class="st2" d="M89.9,9.8c0.1,0.2,0.2,0.4,0.3,0.7C90.1,10.3,90,10,89.9,9.8z"/>
			<path class="st2" d="M90.2,10.5c0.2,0.5,0.4,1.2,0.6,2C90.6,11.7,90.4,11.1,90.2,10.5z"/>
			<path class="st2" d="M91.9,17.7c0-0.1,0-0.2,0-0.3C91.9,17.5,91.9,17.6,91.9,17.7C91.9,17.7,91.9,17.7,91.9,17.7z"/>
			<path class="st3" d="M24.7,33.4c-3,0-5.4,1.3-5.4,3s2.4,3.1,5.3,3.2c3,0,5.4-1.3,5.4-3C30.1,34.9,27.7,33.5,24.7,33.4z"/>
			<path class="st3" d="M82.5,35.1c-3,0-5.4,1.3-5.4,3c0,1.7,2.4,3.1,5.3,3.2c3,0,5.4-1.3,5.4-3C87.8,36.5,85.4,35.1,82.5,35.1z"/>
			<g>
				<path class="st4" d="M22.5,28.3L22.5,28.3c-0.2,0-2.1,0-4.7,0.2c-0.1,0-0.3,0-0.4,0c0,0,0,0,0,0c-0.2,0-0.4,0-0.6,0
					c-0.1,0-0.1,0-0.2,0c-0.4,0-0.8,0.1-1.2,0.1c-5.3,0.5-11.9,1.5-14.2,4.1c-0.2,0.2-0.2,0.6,0,0.8c0.1,0.1,0.2,0.1,0.4,0.1
					c0.1,0,0.3-0.1,0.4-0.2c2-2.2,8-3.2,13-3.7c0.4,0,0.8-0.1,1.2-0.1c0.1,0,0.3,0,0.4,0c0,0,0.1,0,0.1,0c0,0,0,0,0,0
					c0.2,0,0.4,0,0.6,0c2.9-0.2,5-0.2,5.1-0.2c0.3,0,0.5-0.2,0.5-0.5C23,28.6,22.8,28.3,22.5,28.3z"/>
				<path class="st4" d="M21,31.1c-0.2,0.1-2.1,0.5-4.6,1.3c-0.3,0.1-0.7,0.2-1,0.3c-0.1,0-0.1,0-0.2,0.1c-0.4,0.1-0.8,0.3-1.3,0.4
					C9,34.9,3.1,37.5,1.5,40.5c-0.1,0.3,0,0.6,0.2,0.7c0.1,0,0.2,0.1,0.3,0.1c0.2,0,0.4-0.1,0.5-0.3c1.3-2.5,6.5-4.8,11.1-6.4
					c0.4-0.2,0.8-0.3,1.2-0.4c0,0,0,0,0.1,0c0.4-0.1,0.8-0.3,1.2-0.4c2.9-1,5.2-1.5,5.3-1.6c0.3-0.1,0.5-0.4,0.4-0.7
					S21.3,31,21,31.1z"/>
				<path class="st4" d="M112,34.3c-0.8-0.9-2.1-1.6-3.6-2.2c-2.4-0.9-5.5-1.6-8.4-2c-0.3,0-0.6-0.1-0.9-0.1c-0.2,0-0.3,0-0.5-0.1
					c-0.4-0.1-0.8-0.1-1.2-0.1c0,0,0,0,0,0c-0.3,0-0.6-0.1-1-0.1c-0.1,0-0.1,0-0.2,0c-2.9-0.3-5.1-0.4-5.3-0.4c0,0,0,0,0,0
					c-0.3,0-0.5,0.2-0.5,0.5c0,0.3,0.2,0.6,0.5,0.6c0.1,0,2.6,0.1,5.8,0.4c0.1,0,0.2,0,0.2,0c0.3,0,0.6,0.1,0.9,0.1c0,0,0,0,0,0
					c0.4,0,0.8,0.1,1.2,0.2c0,0,0.1,0,0.1,0c0.3,0,0.6,0.1,0.9,0.1c3,0.4,6.1,1.1,8.4,2c1.2,0.5,2.2,1.1,2.8,1.8
					c0.1,0.1,0.3,0.2,0.4,0.2c0.1,0,0.3,0,0.4-0.1C112.2,34.9,112.2,34.5,112,34.3z"/>
				<path class="st4" d="M108.3,38.9c-2.3-1.6-5.3-3-8.1-4.1c-0.1,0-0.1,0-0.2-0.1c-0.3-0.1-0.6-0.2-0.9-0.3c-0.1,0-0.2-0.1-0.2-0.1
					c0,0,0,0,0,0c-0.3-0.1-0.7-0.3-1-0.4c-0.1,0-0.2-0.1-0.2-0.1c-2.9-1-5.2-1.7-5.4-1.8c-0.3-0.1-0.6,0.1-0.7,0.4
					c-0.1,0.3,0.1,0.6,0.4,0.7c0.1,0,2.8,0.8,6.1,2c0.1,0,0.2,0.1,0.2,0.1c0.3,0.1,0.6,0.2,1,0.4c0.2,0.1,0.5,0.2,0.7,0.3
					c0.2,0.1,0.4,0.1,0.5,0.2c2.9,1.2,5.8,2.6,7.8,4.1c1,0.7,1.8,1.5,2.2,2.3c0.1,0.2,0.3,0.3,0.5,0.3c0.1,0,0.2,0,0.2-0.1
					c0.3-0.1,0.4-0.5,0.2-0.7C110.9,40.9,109.8,39.9,108.3,38.9z"/>
			</g>
			<path class="st5" d="M88.2,6.2c0.1,0,0.1,0,0.1,0c0.1,0,0.2,0,0.3,0c0,0,0.1,0,0.2,0c0.1,0,0.1,0,0.2,0c0.1,0,0.1,0,0.2,0.1
				c0.1,0,0.1,0,0.2,0.1c0.1,0,0.1,0.1,0.2,0.1c0.1,0,0.1,0.1,0.2,0.1c0.1,0,0.1,0.1,0.2,0.2C90,6.9,90.1,7,90.1,7
				c0.1,0.1,0.1,0.2,0.2,0.2c0.1,0.1,0.1,0.1,0.2,0.2c0.1,0.1,0.1,0.2,0.2,0.3c0.1,0.1,0.1,0.2,0.2,0.3c0.1,0.1,0.1,0.3,0.2,0.4
				c0.1,0.1,0.1,0.2,0.2,0.3c0.1,0.2,0.2,0.3,0.2,0.5c0.1,0.1,0.1,0.2,0.2,0.3c0.1,0.2,0.2,0.4,0.2,0.6c0,0.1,0.1,0.2,0.1,0.4
				c0.1,0.2,0.2,0.5,0.3,0.8c0,0.1,0.1,0.3,0.1,0.4c0.1,0.3,0.2,0.7,0.3,1c0,0.1,0.1,0.2,0.1,0.4c0.1,0.4,0.2,0.9,0.3,1.3
				c0,0.1,0,0.2,0.1,0.3c0.1,0.5,0.2,1,0.3,1.5c0,0.1,0,0.2,0.1,0.3c0.1,0.6,0.2,1.2,0.3,1.9c0,0.1,0,0.1,0,0.2
				c0.1,0.6,0.2,1.2,0.3,1.9c1.5,2.3,2.9,5.1,4.1,8.2c-0.6-10.6-2.8-24-5.1-25.9c-1.7-1.5-8.8-0.1-19,3.5c2,0.7,3.9,1.4,5.8,2.4
				C83.3,7.1,86.1,6.2,88.2,6.2z"/>
			<g>
				<path class="st6" d="M77.1,38.1c0,1.7,2.4,3.1,5.3,3.2c3,0,5.4-1.3,5.4-3c0-1.7-2.4-3.1-5.3-3.2C79.5,35,77.1,36.4,77.1,38.1z"
					/>
				<path class="st6" d="M90.9,29.3c-0.3,0-0.5,0.2-0.5,0.5c0,0.1,0,0.1,0.1,0.2c0.1-0.2,0.2-0.4,0.5-0.4c0,0,0,0,0,0
					c0.2,0,2.4,0.1,5.3,0.4c0-0.1-0.1-0.2-0.1-0.3C93.3,29.4,91.2,29.3,90.9,29.3C90.9,29.3,90.9,29.3,90.9,29.3z"/>
				<path class="st6" d="M57.6,6.4c-3.8,0.1-7.5,0.4-11.1,0.9c-1.3,0.2-2.7,0.4-4,0.7c-10,2.5-19,9.4-23.5,18.2
					c-0.4,0.7-0.7,1.4-1,2.1c-0.1,0.1-0.1,0.3-0.2,0.5c2.6-0.2,4.4-0.2,4.7-0.2h0c0.3,0,0.5,0.2,0.5,0.5c0,0.3-0.2,0.5-0.5,0.5
					c-0.1,0-2.2,0-5.1,0.2c-0.3,0.8-0.6,1.8-0.9,2.8c2.5-0.8,4.4-1.3,4.6-1.3c0.3-0.1,0.6,0.1,0.7,0.4s-0.1,0.6-0.4,0.7
					c-0.1,0-2.3,0.6-5.3,1.6c-1,3.3-2.1,7.5-3.2,12.1c-0.1,0.8,0,1.6,0.1,2.4C54.2,49.7,57.4,13.5,57.6,6.4z"/>
				<path class="st6" d="M91.6,32.4c0,0.1,0,0.2,0,0.3c0.1-0.3,0.4-0.4,0.7-0.4c0.2,0.1,2.5,0.7,5.4,1.8c0-0.1-0.1-0.2-0.1-0.3
					c-2.9-1-5.1-1.7-5.3-1.7C92,32,91.7,32.2,91.6,32.4z"/>
				<path class="st6" d="M74.1,6.7c2,0.7,3.9,1.4,5.8,2.4c3.5-1.7,6.3-2.6,8.4-2.6c0.1,0,0.1,0,0.1,0c0.1,0,0.2,0,0.3,0
					c0,0,0.1,0,0.2,0c0.1,0,0.1,0,0.2,0c0.1,0,0.1,0,0.2,0.1c0.1,0,0.1,0,0.2,0.1c0.1,0,0.1,0.1,0.2,0.1c0.1,0,0.1,0.1,0.2,0.1
					c0.1,0,0.1,0.1,0.2,0.2c0.1,0.1,0.1,0.1,0.2,0.2c0.1,0.1,0.1,0.2,0.2,0.2c0.1,0.1,0.1,0.1,0.2,0.2c0.1,0.1,0.1,0.2,0.2,0.3
					c0.1,0.1,0.1,0.2,0.2,0.3C91,8.4,91,8.6,91.1,8.7c0.1,0.1,0.1,0.2,0.2,0.3c0.1,0.2,0.2,0.3,0.2,0.5c0.1,0.1,0.1,0.2,0.2,0.3
					c0.1,0.2,0.2,0.4,0.2,0.6c0,0.1,0.1,0.2,0.1,0.4c0.1,0.2,0.2,0.5,0.3,0.8c0,0.1,0.1,0.3,0.1,0.4c0.1,0.3,0.2,0.7,0.3,1
					c0,0.1,0.1,0.2,0.1,0.4c0.1,0.4,0.2,0.9,0.3,1.3c0,0.1,0,0.2,0.1,0.3c0.1,0.5,0.2,1,0.3,1.5c0,0.1,0,0.2,0.1,0.3
					c0.1,0.6,0.2,1.2,0.3,1.9c0,0.1,0,0.1,0,0.2c0.1,0.6,0.2,1.2,0.3,1.9c1.5,2.3,2.9,5.1,4.1,8.2c-0.6-10.6-2.8-24-5.1-25.9
					C91.4,1.7,84.4,3,74.1,6.7z"/>
				<path class="st6" d="M32.3,8.3c-0.3-0.1-0.5-0.2-0.7-0.2c-0.2-0.1-0.5-0.2-0.7-0.2c-0.2-0.1-0.4-0.1-0.6-0.2
					c-0.2,0-0.4-0.1-0.5-0.1c-0.2,0-0.3-0.1-0.5-0.1c-0.1,0-0.3,0-0.4-0.1c-0.1,0-0.3,0-0.4,0c-0.1,0-0.2,0-0.3,0
					c-0.1,0-0.2,0-0.3,0c-0.1,0-0.2,0-0.2,0c-0.1,0-0.1,0-0.2,0c-0.1,0-0.2,0.1-0.2,0.1C27.1,7.7,27,7.8,27,8
					c-0.2,0.8-0.3,1.7-0.5,2.6c0,0.2-0.1,0.5-0.1,0.7c-0.1,0.9-0.3,1.8-0.4,2.8c2.4-2,5.1-3.8,8-5.3c-0.3-0.1-0.5-0.2-0.7-0.3
					C32.9,8.5,32.6,8.4,32.3,8.3z"/>
				<path class="st6" d="M91.8,17.2c-0.1-0.4-0.1-0.8-0.2-1.2c0-0.2-0.1-0.3-0.1-0.5c-0.1-0.4-0.2-0.7-0.2-1.1
					c0-0.1-0.1-0.3-0.1-0.4c-0.1-0.4-0.2-0.7-0.3-1c0-0.1,0-0.1,0-0.2c-0.2-0.8-0.4-1.4-0.6-2c0,0,0,0,0,0c-0.1-0.3-0.2-0.5-0.3-0.7
					c0,0,0-0.1-0.1-0.1c-0.1-0.2-0.1-0.3-0.2-0.4c0,0,0-0.1-0.1-0.1c-0.1-0.1-0.1-0.2-0.2-0.3c0,0-0.1-0.1-0.1-0.1
					c-0.1-0.1-0.1-0.2-0.2-0.2c0,0,0-0.1-0.1-0.1C89,8.6,89,8.6,88.9,8.5c0,0,0,0-0.1-0.1c0,0-0.1-0.1-0.1-0.1c0,0,0,0,0,0
					c0,0-0.1,0-0.1-0.1c0,0,0,0,0,0c0,0-0.1,0-0.1,0c0,0,0,0,0,0c0,0-0.1,0-0.1,0c-0.4,0-0.9,0-1.4,0.1c-0.4,0.1-0.8,0.2-1.1,0.3
					c-0.2,0-0.4,0.1-0.6,0.1C84.8,8.9,84.4,9,84,9.2c-0.3,0.1-0.6,0.2-0.9,0.4C82.7,9.7,82.4,9.8,82,10c-0.1,0.1-0.2,0.1-0.3,0.1
					c0,0,0,0,0,0c2.4,1.4,4.9,3,7.2,4.9c1,0.8,2,1.9,3,3c0,0,0,0,0,0c0-0.1,0-0.2,0-0.3C91.9,17.5,91.8,17.3,91.8,17.2z"/>
				<path class="st6" d="M24.2,2.8c-1.7,1.6-3.6,9.9-4.8,18.6c1.4-2,2.9-3.8,4.7-5.5c0.1-0.5,0.1-1,0.2-1.4c0-0.1,0-0.3,0.1-0.5
					c0.1-0.7,0.2-1.3,0.3-2c0-0.1,0-0.2,0-0.3c0.2-1.5,0.4-2.8,0.7-4C25.5,7,25.9,6.4,26.5,6C26.7,6,26.8,5.9,27,5.9
					c0,0,0.1,0,0.1,0c0.2,0,0.3-0.1,0.5-0.1c0.1,0,0.1,0,0.2,0c0.2,0,0.4,0,0.6,0c0.1,0,0.2,0,0.3,0c0.2,0,0.5,0,0.7,0.1
					c0.1,0,0.3,0.1,0.4,0.1c0.3,0,0.6,0.1,0.9,0.2c0.2,0,0.4,0.1,0.6,0.2c0.3,0.1,0.6,0.2,1,0.3c0.3,0.1,0.6,0.2,0.8,0.3
					c0.4,0.1,0.7,0.2,1.1,0.4c0.3,0.1,0.8,0.3,1.1,0.5c0.3,0.1,0.5,0.2,0.8,0.3c1.1-0.5,2.2-0.9,3.3-1.2c-7.2-3.2-11.5-4.3-13.7-4.3
					C25,2.4,24.5,2.6,24.2,2.8z"/>
				<path class="st5" d="M17,54.4c2,1.6,4.6,3.1,7.9,4.4c5.6-11.3,13.8-19.4,28-19.9c17.9-0.6,27.8,8.9,33.9,21.6
					c3.9-1.3,6.7-2.9,8.8-4.4c0.6-0.5,1.2-1,1.7-1.4c0.1-0.1,0.1-0.1,0.1-0.2l-1.6-1.3c-0.2-0.1,0.6,0.5,1.6,1.3
					c1.5-1.5,2.4-2.9,2.9-3.9c0.5-1,0.5-1.7,0.5-1.7c-0.6-4.7-1.5-9.2-2.6-13.2c0-0.1,0-0.1-0.1-0.2c-3.3-1.2-6.1-2-6.1-2
					c-0.3-0.1-0.5-0.4-0.4-0.7c0,0,0,0,0,0c0-0.1-0.1-0.2,0-0.3c0.1-0.3,0.4-0.5,0.7-0.4c0.2,0.1,2.5,0.7,5.3,1.7
					c-0.3-0.9-0.6-1.8-0.9-2.7c-3.2-0.3-5.7-0.4-5.8-0.4c-0.3,0-0.5-0.3-0.5-0.6c0,0,0-0.1,0-0.1c0-0.1-0.1-0.1-0.1-0.2
					c0-0.3,0.3-0.5,0.5-0.5c0,0,0,0,0,0c0.2,0,2.4,0.1,5.2,0.4c-2.3-5.8-5.1-10.2-8.5-12.9c-5.4-4.3-10.8-7.2-16.7-8.8
					c-4.1-1.1-8.2-1.5-12.2-1.5c-0.4,0-0.7,0-1.1,0c0,0,0,0,0,0c-0.2,7.1-3.4,43.3-44.6,42.1c0.3,1.5,1.1,3,2.4,4.4
					C15.9,53.4,16.4,53.9,17,54.4z M87.8,38.2c0,1.7-2.4,3-5.4,3c-3,0-5.3-1.5-5.3-3.2c0-1.7,2.4-3,5.4-3
					C85.4,35.1,87.8,36.5,87.8,38.2z"/>
				<path class="st5" d="M97.4,54.4C97.4,54.4,97.4,54.4,97.4,54.4c-1-0.9-1.7-1.4-1.6-1.3L97.4,54.4z"/>
				<path class="st5" d="M99.6,56.2L99.6,56.2C99.6,56.3,99.6,56.2,99.6,56.2C99.6,56.2,99.6,56.2,99.6,56.2z"/>
				<path class="st7" d="M66.9,63.8c8.6-0.5,15-1.8,19.8-3.4c-6.1-12.6-16-22.2-33.9-21.6c-14.2,0.5-22.4,8.6-28,19.9
					C34.6,62.7,49.5,64.8,66.9,63.8z"/>
			</g>
			<g>
				<path d="M112,34.6c-0.8-0.9-2.1-1.6-3.6-2.2c-2.4-0.9-5.5-1.6-8.4-2C99.5,20,97.4,4.5,94.2,1.9c-2.5-2.1-10.1-0.7-22.8,4
					c0,0,0,0,0,0c-8.8-2.4-17.3-1.6-25.2-0.6C44.8,5.4,43.4,5.6,42,6C26.2-1.2,23.9,0.8,23.1,1.5c-3.2,2.9-5.4,19.4-5.8,23.4
					c-0.1,0.1-0.1,0.2-0.2,0.3c-0.4,0.7-0.7,1.5-1,2.2c-0.2,0.4-0.4,1-0.6,1.5c-5.3,0.5-11.9,1.5-14.2,4.1c-0.2,0.2-0.2,0.6,0,0.8
					C1.4,33.9,1.5,34,1.7,34c0.1,0,0.3-0.1,0.4-0.2c2-2.2,8-3.2,13-3.7c-0.4,1-0.7,2.1-1.1,3.4c-4.9,1.7-10.8,4.3-12.4,7.2
					c-0.1,0.3,0,0.6,0.2,0.7c0.1,0,0.2,0.1,0.3,0.1c0.2,0,0.4-0.1,0.5-0.3c1.3-2.5,6.5-4.8,11.1-6.4c-0.6,2.2-1.3,4.6-2,7.3
					c-0.1,0.3-0.2,0.5-0.2,0.5s-0.9,1.8-0.9,4.3c0,1,0.1,2.1,0.4,3.3c0.4,1.5,1.2,3.1,2.6,4.7c0.4,0.5,0.9,1,1.5,1.5
					c3.9,3.5,11,6.6,23.8,8.1c32.6,3.6,49.9,1,59.1-6.7c0.6-0.5,1.1-1,1.6-1.5c0.4-0.4,0.7-0.7,1.1-1.1c0,0,0.9-1,1.7-2.4
					c0.5-0.9,0.8-2.1,0.9-3.3c0-0.3-0.1-0.5-0.1-0.8c-0.6-4.4-1.4-8.5-2.4-12.3c2.9,1.2,5.8,2.6,7.8,4.1c1,0.7,1.8,1.5,2.2,2.3
					c0.1,0.2,0.3,0.3,0.5,0.3c0.1,0,0.2,0,0.2-0.1c0.3-0.1,0.4-0.5,0.2-0.7c-0.5-1.1-1.7-2.1-3.2-3.1c-2.3-1.6-5.3-3-8.1-4.1
					c0,0,0,0,0,0c-0.1-0.2-0.1-0.3-0.2-0.5c0-0.9,0-1.9,0-3c3,0.4,6.1,1.1,8.4,2c1.2,0.5,2.2,1.1,2.8,1.8c0.1,0.1,0.3,0.2,0.4,0.2
					c0.1,0,0.3,0,0.4-0.1C112.2,35.2,112.2,34.8,112,34.6z M93.1,3.2c2.2,1.9,4.5,15.2,5.1,25.9c-1.2-3.1-2.6-5.8-4.1-8.2
					c-0.1-0.6-0.2-1.3-0.3-1.9c0-0.1,0-0.1,0-0.2c-0.1-0.7-0.2-1.3-0.3-1.9c0-0.1,0-0.2-0.1-0.3c-0.1-0.5-0.2-1.1-0.3-1.5
					c0-0.1,0-0.2-0.1-0.3c-0.1-0.5-0.2-0.9-0.3-1.3c0-0.1-0.1-0.2-0.1-0.4c-0.1-0.4-0.2-0.7-0.3-1c0-0.1-0.1-0.3-0.1-0.4
					c-0.1-0.3-0.2-0.6-0.3-0.8c0-0.1-0.1-0.2-0.1-0.4c-0.1-0.2-0.2-0.4-0.2-0.6c-0.1-0.1-0.1-0.2-0.2-0.3c-0.1-0.2-0.2-0.4-0.2-0.5
					c-0.1-0.1-0.1-0.2-0.2-0.3C91,8.6,91,8.4,90.9,8.3c-0.1-0.1-0.1-0.2-0.2-0.3c-0.1-0.1-0.1-0.2-0.2-0.3c-0.1-0.1-0.1-0.1-0.2-0.2
					c-0.1-0.1-0.1-0.2-0.2-0.2C90.1,7.3,90,7.2,90,7.2C89.9,7.1,89.8,7,89.8,7c-0.1,0-0.1-0.1-0.2-0.1c-0.1,0-0.1-0.1-0.2-0.1
					c-0.1,0-0.1,0-0.2-0.1c-0.1,0-0.1-0.1-0.2-0.1c-0.1,0-0.1,0-0.2,0c-0.1,0-0.1,0-0.2,0c-0.1,0-0.2,0-0.3,0c0,0-0.1,0-0.1,0
					c-2.1,0-4.9,0.9-8.4,2.6c-1.9-1-3.8-1.7-5.8-2.4C84.4,3,91.4,1.7,93.1,3.2z M91.9,18C91.9,18,91.9,18,91.9,18
					c-1-1.1-1.9-2.1-3-3c-2.4-1.9-4.8-3.5-7.2-4.9c0,0,0,0,0,0c0.1-0.1,0.2-0.1,0.3-0.1c0.4-0.2,0.7-0.3,1.1-0.5
					c0.3-0.1,0.6-0.2,0.9-0.4c0.4-0.1,0.8-0.3,1.2-0.4c0.2-0.1,0.4-0.1,0.6-0.1c0.4-0.1,0.8-0.2,1.1-0.3c0.5-0.1,1-0.1,1.4-0.1
					c0,0,0,0,0.1,0c0,0,0,0,0,0c0,0,0.1,0,0.1,0c0,0,0,0,0,0c0,0,0.1,0,0.1,0.1c0,0,0,0,0,0c0,0,0.1,0.1,0.1,0.1c0,0,0,0,0.1,0.1
					c0,0,0.1,0.1,0.1,0.2c0,0,0,0.1,0.1,0.1c0.1,0.1,0.1,0.1,0.2,0.2c0,0,0.1,0.1,0.1,0.1c0.1,0.1,0.1,0.2,0.2,0.3
					c0,0,0,0.1,0.1,0.1c0.1,0.1,0.1,0.3,0.2,0.4c0,0,0,0.1,0.1,0.1c0.1,0.2,0.2,0.4,0.3,0.7c0,0,0,0,0,0c0.2,0.5,0.4,1.2,0.6,2
					c0,0.1,0,0.1,0,0.2c0.1,0.3,0.2,0.7,0.3,1c0,0.1,0.1,0.3,0.1,0.4c0.1,0.3,0.2,0.7,0.2,1.1c0,0.2,0.1,0.3,0.1,0.5
					c0.1,0.4,0.1,0.8,0.2,1.2c0,0.2,0.1,0.4,0.1,0.6C91.9,17.8,91.9,17.9,91.9,18z M24.2,2.8c0.3-0.2,0.8-0.4,1.5-0.4
					c2.2,0,6.5,1.2,13.7,4.3c-1.1,0.4-2.2,0.8-3.3,1.2c-0.3-0.1-0.6-0.2-0.8-0.3c-0.4-0.2-0.8-0.3-1.1-0.5c-0.4-0.2-0.7-0.3-1.1-0.4
					c-0.3-0.1-0.6-0.2-0.8-0.3c-0.4-0.1-0.7-0.2-1-0.3c-0.2-0.1-0.4-0.1-0.6-0.2c-0.3-0.1-0.6-0.1-0.9-0.2c-0.1,0-0.3-0.1-0.4-0.1
					c-0.3,0-0.5-0.1-0.7-0.1c-0.1,0-0.2,0-0.3,0c-0.2,0-0.4,0-0.6,0c-0.1,0-0.1,0-0.2,0c-0.2,0-0.3,0.1-0.5,0.1c0,0-0.1,0-0.1,0
					C26.8,5.9,26.7,6,26.5,6c-0.7,0.3-1.1,0.9-1.2,1.6c-0.2,1.2-0.5,2.6-0.7,4c0,0.1,0,0.2,0,0.3c-0.1,0.6-0.2,1.3-0.3,2
					c0,0.1,0,0.3-0.1,0.5c-0.1,0.5-0.1,0.9-0.2,1.4c-1.8,1.7-3.3,3.5-4.7,5.5C20.7,12.7,22.5,4.3,24.2,2.8z M34,8.9
					c-2.9,1.4-5.5,3.2-8,5.3c0.1-1,0.3-1.9,0.4-2.8c0-0.3,0.1-0.5,0.1-0.7C26.7,9.7,26.8,8.8,27,8c0-0.2,0.1-0.4,0.3-0.5
					c0.1,0,0.1-0.1,0.2-0.1c0,0,0.1,0,0.2,0c0.1,0,0.1,0,0.2,0c0.1,0,0.2,0,0.3,0c0.1,0,0.2,0,0.3,0c0.1,0,0.2,0,0.4,0
					c0.1,0,0.3,0,0.4,0.1c0.1,0,0.3,0.1,0.5,0.1c0.2,0,0.3,0.1,0.5,0.1c0.2,0,0.4,0.1,0.6,0.2c0.2,0.1,0.5,0.1,0.7,0.2
					c0.2,0.1,0.5,0.1,0.7,0.2c0.3,0.1,0.6,0.2,0.9,0.3C33.5,8.7,33.7,8.8,34,8.9z M100.8,48.8c0,0-0.1,0.7-0.5,1.7
					c-0.5,1.1-1.4,2.5-3,4.1c-0.5,0.5-1.1,1-1.7,1.4c-4.5,3.4-13,6.9-28.6,7.8c-23.2,1.3-41.9-2.9-50-9.4c-0.6-0.5-1.1-0.9-1.6-1.4
					c-2-2.1-2.9-4.4-2.6-6.8c1.1-4.6,2.2-8.8,3.2-12.1c2.9-1,5.2-1.5,5.3-1.6c0.3-0.1,0.5-0.4,0.4-0.7c-0.1-0.3-0.4-0.5-0.7-0.4
					c-0.2,0.1-2.1,0.5-4.6,1.3c0.3-1,0.6-1.9,0.9-2.8c2.9-0.2,5-0.2,5.1-0.2c0.3,0,0.5-0.2,0.5-0.5c0-0.3-0.2-0.5-0.5-0.5h0
					c-0.2,0-2.1,0-4.7,0.2c0.1-0.2,0.1-0.4,0.2-0.5c0.3-0.7,0.6-1.4,1-2.1c4.4-8.7,13.4-15.7,23.5-18.2c1.4-0.3,2.7-0.6,4-0.7
					c3.6-0.4,7.3-0.8,11.2-0.9c0.4,0,0.7,0,1.1,0c4,0,8.1,0.4,12.2,1.5c5.9,1.6,11.3,4.5,16.7,8.8C91.1,19.5,94,24,96.3,30
					c-2.9-0.3-5.1-0.4-5.3-0.4c0,0,0,0,0,0c-0.3,0-0.5,0.2-0.5,0.5c0,0.3,0.2,0.6,0.5,0.6c0.1,0,2.6,0.1,5.8,0.4c0.4,1,0.7,2,1,3
					c-2.9-1-5.2-1.7-5.4-1.8c-0.3-0.1-0.6,0.1-0.7,0.4c-0.1,0.3,0.1,0.6,0.4,0.7c0.1,0,2.8,0.8,6.1,2c0,0.1,0,0.1,0.1,0.2
					C99.3,39.6,100.2,44.1,100.8,48.8z"/>
			</g>
		</g>
		<g>
			<path class="st8" d="M57.9,29.9l-0.3-0.3c-1.3,0.2-2.6,2.5-3,3.2c0.2,0.5,0.7,0.8,1.5,0.9C58.5,33.7,57.9,29.9,57.9,29.9z"/>
			<path class="st9" d="M57.6,29.6l-1-0.5c0,0,0.1-0.4,0.1-0.4l-2.2,1.6c0,0-0.4,1.5,0.1,2.6C55,32,56.3,29.8,57.6,29.6z"/>
		</g>
		<g>
			<path class="st0" d="M34.7,19.9c-1.3,0-2.5,0.4-3.5,1.3c-0.1,0.1-0.2,0.1-0.2,0.2c-1,1-1.6,2.3-1.6,3.7c0,2.9,2.3,5.3,5.2,5.3
				c2.9,0,5.3-2.3,5.3-5.2c0-1.4-0.5-2.7-1.5-3.7C37.4,20.5,36.1,19.9,34.7,19.9z M34.5,29.5c-2.4,0-4.3-2-4.3-4.4
				c0-2.4,2-4.3,4.4-4.3c2.4,0,4.3,2,4.3,4.4S36.9,29.5,34.5,29.5z"/>
			<path class="st5" d="M39.2,30.4c-1.2,1.1-2.9,1.7-4.7,1.7c-1.9,0-3.6-0.8-4.9-2.1c-1.3-1.3-2-3.1-2-5c0-1.9,0.8-3.6,2.1-4.9
				c1.3-1.3,3.1-2,5-2c1.9,0,3.6,0.8,4.9,2.1c1.3,1.3,2,3.1,2,5C41.5,27.3,40.6,29.2,39.2,30.4z"/>
			<g>
				<ellipse class="st10" cx="34.6" cy="25.2" rx="1" ry="0.5"/>
				<ellipse class="st10" cx="78.5" cy="27.6" rx="1" ry="0.5"/>
			</g>
			<g>
				<path class="st5" d="M78.6,22.3c-1.3,0-2.5,0.4-3.5,1.3c-0.1,0.1-0.2,0.1-0.2,0.2c-1,1-1.6,2.3-1.6,3.7c0,2.9,2.3,5.3,5.2,5.3
					c1.4,0,2.7-0.5,3.7-1.5c1-1,1.6-2.3,1.6-3.7C83.8,24.7,81.5,22.3,78.6,22.3z M78.5,31.9c-2.4,0-4.3-2-4.3-4.4
					c0-2.4,2-4.3,4.4-4.3c2.4,0,4.3,2,4.3,4.4C82.8,30,80.9,31.9,78.5,31.9z"/>
			</g>
			<g>
				<path d="M34.7,18.2c-1.9,0-3.6,0.7-5,2c-1.3,1.3-2.1,3-2.1,4.9c0,1.9,0.7,3.6,2,5c1.3,1.3,3,2.1,4.9,2.1c1.8,0,3.4-0.6,4.7-1.7
					c1.5-1.3,2.4-3.1,2.4-5.2c0-1.9-0.7-3.6-2-5C38.3,19,36.6,18.2,34.7,18.2z M34.5,30.4c-2.9,0-5.2-2.4-5.2-5.3
					c0-1.4,0.6-2.7,1.6-3.7c0.1-0.1,0.2-0.1,0.2-0.2c1-0.8,2.2-1.3,3.5-1.3c1.4,0,2.7,0.6,3.7,1.6c1,1,1.5,2.3,1.5,3.7
					C39.8,28.1,37.4,30.5,34.5,30.4z"/>
				<path d="M34.7,20.8c-2.4,0-4.4,1.9-4.4,4.3c0,2.4,1.9,4.4,4.3,4.4c2.4,0,4.4-1.9,4.4-4.3S37,20.9,34.7,20.8z M35.2,25.7
					c2.8,2.8-4,2.8-1.2,0c-2.8,2.8-2.8-4,0-1.2c-2.8-2.8,4-2.8,1.2,0C38,21.8,38,28.6,35.2,25.7z"/>
				<path d="M78.6,20.6c-1.9,0-3.6,0.7-5,2c-1.3,1.3-2.1,3-2.1,4.9c0,1.9,0.7,3.6,2,5c1.3,1.3,3,2.1,4.9,2.1c1.7,0,3.4-0.6,4.7-1.7
					c0.1-0.1,0.2-0.2,0.3-0.3c1.3-1.3,2.1-3,2.1-4.9C85.6,23.8,82.5,20.6,78.6,20.6z M82.2,31.3c-1,1-2.3,1.5-3.7,1.5
					c-2.9,0-5.2-2.4-5.2-5.3c0-1.4,0.6-2.7,1.6-3.7c0.1-0.1,0.2-0.1,0.2-0.2c1-0.8,2.2-1.3,3.5-1.3c2.9,0,5.2,2.4,5.2,5.3
					C83.8,29,83.2,30.4,82.2,31.3z"/>
				<path d="M78.6,23.2c-2.4,0-4.4,1.9-4.4,4.3c0,2.4,1.9,4.4,4.3,4.4c2.4,0,4.4-1.9,4.4-4.3C82.9,25.2,81,23.3,78.6,23.2z
					 M79.1,28.1c2.8,2.8-4,2.8-1.2,0c-2.8,2.8-2.8-4,0-1.2c-2.8-2.8,4-2.8,1.2,0C81.9,24.2,81.9,31,79.1,28.1z"/>
				<path d="M59.7,28.6c0,0-0.5,1-1.3,1c-1.1,0-1.6-0.2-1.6-1.4c0,0,0,0,0.1,0l0.8-0.6c0.6-0.5,0.3-1.4-0.5-1.4l-1.6,0
					c-0.8,0-1.1,0.9-0.5,1.4l0.8,0.7c0,0,0,0,0.1,0c0,1.1-0.5,1.3-1.7,1.3c-0.9,0-1.3-1-1.3-1c-0.1-0.2-0.3-0.3-0.6-0.2
					c-0.2,0.1-0.3,0.3-0.2,0.6c0,0.1,0.7,1.5,2.1,1.5c0.6,0,1.5,0,2.1-0.7c0.5,0.7,1.5,0.7,2.1,0.7c1.4,0,2.1-1.4,2.1-1.5
					c0.1-0.2,0-0.5-0.2-0.6C60.1,28.2,59.8,28.3,59.7,28.6z"/>
			</g>
		</g>
	</g>
</g>
<g>
	<g>
		<path class="st11" d="M2.4,49.5c-2.3,6.2,1.3,13.2,8.2,15.7c6.8,2.5,14.3-0.5,16.6-6.6c2.3-6.2-1.3-13.2-8.2-15.7
			C12.2,40.4,4.7,43.3,2.4,49.5z"/>
		<path class="st11" d="M17.5,43.1c0,0,5.4-1.7,8.7,0.5c0,0-3.4,1.2-3.5,1.9C22.6,45.5,18.6,42.6,17.5,43.1z"/>
		<path class="st5" d="M20.4,45.8c0,0,3-2.3,3.7-2.2c0,0-3.5-0.9-6.9,0.8L20.4,45.8z"/>
		<path class="st5" d="M3.4,49.8c-2.1,5.6,1.2,12.1,7.5,14.4c6.3,2.3,13.1-0.4,15.3-6.1c2.1-5.6-1.2-12.1-7.5-14.4
			C12.4,41.5,5.5,44.2,3.4,49.8z"/>
	</g>
	<g>
		<defs>
			<polygon id="SVGID_1_" points="14,45.7 21.9,52 14.5,61.2 6.6,55 			"/>
		</defs>
		<clipPath id="SVGID_2_">
			<use xlink:href="#SVGID_1_"  style="overflow:visible;"/>
		</clipPath>
		<g class="st12">
			<path d="M10.7,53.5c0.4,0.3,0.7,0.7,0.8,1.1l4.2-5.3l0,0l0,0l0,0l0,0l0,0l0,0l0,0l0,0l0,0l0,0l0,0l0,0l0,0c0,0,0,0,0.1,0l0,0l0,0
				l0,0l0.1,0l0,0l0,0l0,0l0,0l0,0c0,0,0,0,0.1,0c0.1,0,0.1,0,0.1,0l5.1,2.4c0.2,0.1,0.3,0.4,0.2,0.6l0,0c0,0.1,0,0.1-0.1,0.1
				l-5.1,6.4l0,0c-0.3,0.4-0.8,0.6-1.4,0.6c-0.5,0-1.1-0.2-1.6-0.6c-0.5-0.4-0.8-0.9-0.9-1.4c-0.1-0.5,0-1.1,0.3-1.5
				c0.3-0.4,0.9-0.6,1.4-0.6c0.5,0,1.1,0.2,1.6,0.6c0.4,0.3,0.7,0.7,0.8,1.1l3-3.8l-4.3-2l-4.1,5.1l0,0C11,56.8,10.5,57,9.9,57
				c-0.5,0-1.1-0.2-1.6-0.6C7.9,56,7.6,55.5,7.5,55c-0.1-0.5,0-1.1,0.3-1.5c0.3-0.4,0.9-0.6,1.4-0.6C9.7,52.9,10.2,53.1,10.7,53.5z"
				/>
		</g>
	</g>
</g>
</svg>
