<svg width="110" height="67" viewBox="0 0 110 67" fill="none" xmlns="http://www.w3.org/2000/svg">
<path d="M107.535 39.5251C108.896 31.3028 102.599 23.5078 93.47 22.1145C84.3408 20.7212 75.8364 26.2571 74.4749 34.4793C73.1134 42.7016 79.4105 50.4966 88.5397 51.8899C97.6689 53.2833 106.173 47.7473 107.535 39.5251Z" fill="#231815"/>
<path d="M90.367 51.2253C90.367 51.2253 84.0899 54.6619 79.457 52.7278C79.457 52.7278 83.3494 50.3493 83.3449 49.4436C83.3449 49.4394 89.1151 52.0887 90.367 51.2253Z" fill="#231815"/>
<path d="M86.0992 48.6184C86.0992 48.6184 82.9166 52.2241 82.0879 52.258C82.0879 52.258 86.6194 52.4907 90.5249 49.5495L86.0992 48.6184Z" fill="white"/>
<path d="M106.186 39.3191C107.436 31.7686 101.653 24.6104 93.2694 23.3308C84.8855 22.0512 77.0755 27.1348 75.8253 34.6854C74.575 42.2359 80.358 49.3941 88.7419 50.6737C97.1258 51.9533 104.936 46.8697 106.186 39.3191Z" fill="white"/>
<g clip-path="url(#clip0_2421_10460)">
<path d="M85.1951 37.141C85.7888 37.3825 86.2716 37.7589 86.599 38.2105L89.8372 30.3224L89.8469 30.2987L89.8518 30.2868L89.8615 30.2631L89.8664 30.2512L89.8762 30.2275L89.881 30.2157L89.8859 30.2038L89.8908 30.1919L89.8956 30.1801L89.9005 30.1682L89.9054 30.1563L89.9151 30.1326L89.92 30.1208C89.9416 30.1019 89.9681 30.0711 89.9897 30.0522L90.0113 30.0333L90.028 30.0263L90.0329 30.0144L90.1809 29.9916L90.1976 29.9845L90.2095 29.9894L90.2381 29.9872L90.2667 29.985L90.2953 29.9828C90.324 29.9806 90.3526 29.9784 90.3812 29.9762C90.4433 29.9599 90.4719 29.9577 90.4957 29.9674L97.5783 31.077C97.8925 31.1218 98.0975 31.399 98.0686 31.7056L98.0637 31.7174C98.0631 31.7864 98.0506 31.8506 98.0263 31.9099L94.0625 41.5654L94.0576 41.5772C93.7996 42.2059 93.2501 42.633 92.5788 42.8167C91.9529 42.9912 91.2025 42.9627 90.49 42.6729C89.7776 42.383 89.2171 41.8919 88.8979 41.3191C88.5529 40.7081 88.4661 40.0083 88.7241 39.3796C88.9822 38.751 89.5366 38.312 90.2127 38.1164C90.8386 37.942 91.5891 37.9704 92.3015 38.2603C92.8952 38.5018 93.3781 38.8782 93.7054 39.3298L96.0233 33.6836L90.1164 32.7478L86.9658 40.4223L86.9561 40.446C86.691 41.058 86.1415 41.4851 85.4821 41.6736C84.8562 41.8481 84.1058 41.8197 83.3933 41.5298C82.6809 41.24 82.1204 40.7489 81.8012 40.1761C81.4514 39.5769 81.3645 38.8771 81.6226 38.2485C81.8807 37.6198 82.435 37.1809 83.1111 36.9853C83.737 36.8108 84.4826 36.8511 85.1951 37.141Z" fill="black"/>
</g>
<path d="M64.4873 50.267C59.2065 63.4219 41.2287 68.0341 24.609 63.2715C3.69147 57.2871 -0.222198 41.1311 5.05857 27.9761C10.3393 14.8212 27.6559 9.29716 43.7395 15.6356C59.823 21.9741 69.768 37.112 64.4873 50.267Z" fill="white"/>
<path d="M13.6706 58.9603C13.6706 58.9603 1.88496 50.152 11.0615 39.697C11.0615 39.697 13.9387 37.2626 18.8352 38.2806C23.7318 39.2987 27.9224 35.0494 27.9224 35.0494C27.9224 35.0494 30.192 31.8536 33.3551 33.4294C36.5182 35.0052 37.0901 33.1019 37.0901 33.1019C37.0901 33.1019 38.7073 31.0303 41.0663 32.9868C43.4252 34.9432 48.7774 37.4396 53.54 36.0055C58.3025 34.5714 62.3502 39.0242 62.3502 39.0242C62.3502 39.0242 69.8201 51.533 54.4692 61.3948C54.4692 61.3948 63.0114 58.2255 66.2817 50.8956C69.561 43.5656 70.4813 34.1111 59.9466 18.6102L56.5511 14.8124L52.7358 5.07453L48.0894 2.46301L43.2733 8.41196L39.2167 13.2986C39.2167 13.2986 35.3745 10.811 31.023 12.6612C26.6715 14.5114 26.6536 13.272 26.6536 13.272C26.6536 13.272 22.2932 6.95128 20.6759 6.21651C19.0586 5.48175 16.3959 4.10074 16.3959 4.10074L9.98928 18.9023C9.98928 18.9023 1.50967 32.8451 1.74199 39.4403C1.97431 46.0355 3.63628 54.4278 13.6706 58.9603Z" fill="#EBC481"/>
<path d="M18.0583 59.2966C18.1297 59.332 18.1565 59.3408 18.2191 59.4559C18.4514 59.8189 18.6927 60.3677 18.6212 60.9343C18.5765 61.5009 18.1744 62.1029 16.995 62.4038C16.9503 62.4127 16.7626 62.4393 16.6733 62.4216C14.8237 61.6248 13.0902 60.6599 11.4193 59.571C8.81915 57.8448 6.40661 55.7644 4.44978 53.2414C2.51082 50.7184 1.04543 47.7528 0.419959 44.5836C0.321671 44.194 0.276994 43.7957 0.214447 43.3973C0.1519 42.9989 0.089353 42.6006 0.0804177 42.2022C0.0536118 41.8038 0.0178706 41.4055 0 41.0071L0.0089353 39.812C0 39.4136 0.0446765 39.0153 0.0714824 38.6258C0.107224 38.2274 0.125094 37.829 0.187641 37.4395L0.375283 36.271L0.411024 36.0231V36.0497V36.0762C0.411024 36.0939 0.411024 36.0674 0.411024 36.0674L0.419959 35.8903C0.43783 35.7575 0.446765 35.607 0.464636 35.4919L0.527183 35.1467C0.705889 34.2791 0.938207 33.5267 1.19733 32.7919L1.39391 32.2342L1.59942 31.6942C1.74238 31.3224 1.88535 30.9683 2.03725 30.6142C2.61804 29.1977 3.27032 27.8433 3.93153 26.4888L4.00302 26.3472L4.0745 26.2056C5.34331 23.6737 6.69254 21.195 8.09539 18.7605L8.35451 18.3002L8.39025 18.2471L8.40812 18.2205C8.40812 18.2117 8.40812 18.2205 8.40812 18.2205C8.40812 18.2294 8.40812 18.2294 8.40812 18.2294L8.43493 18.1408L8.7834 17.1228C9.02466 16.45 9.26591 15.7861 9.52503 15.1221C10.0343 13.7942 10.5794 12.4752 11.1691 11.1739C11.7499 9.86367 12.3933 8.58004 13.0902 7.30527C13.2689 6.98657 13.4476 6.66788 13.6353 6.34919L14.2161 5.41081C14.4126 5.10097 14.636 4.79113 14.8505 4.48129C14.922 4.38391 15.1543 4.02095 15.3777 3.80849L16.0478 3.08258L16.3873 2.71962L16.5571 2.54257L16.6375 2.45404C16.6554 2.43634 16.6643 2.41863 16.6822 2.40978L16.7448 2.41863C17.0664 2.48945 17.3702 2.53372 17.6919 2.62224C18.0136 2.68421 18.3263 2.82585 18.648 2.95864C18.8088 3.02061 18.9607 3.09143 19.1216 3.1711L19.4968 3.36586C20.2117 3.76423 20.8639 4.21571 21.4715 4.69375C22.6867 5.64983 23.7411 6.721 24.7061 7.83642L25.0725 8.2525L25.4209 8.67742C25.6533 8.9607 25.8856 9.24399 26.109 9.53612L26.7523 10.4125L27.074 10.8552L27.3778 11.3066L27.4135 11.3598L28.2266 11.2004C28.593 11.1384 28.9504 11.0765 29.3167 11.0234C32.2386 10.6073 35.2319 10.5011 38.261 11.0234L39.2707 11.227H39.2796L39.5834 10.6781C40.2982 9.42989 41.0577 8.20823 41.8798 7.00428C42.7286 5.82688 43.6222 4.65834 44.6855 3.54291C45.2216 2.9852 45.7934 2.44519 46.4725 1.94945C46.6512 1.82551 46.8121 1.70157 47.0086 1.58649L47.1516 1.49796C47.2231 1.4537 47.2856 1.41829 47.3571 1.37403C47.509 1.29435 47.6699 1.23239 47.8307 1.15271C47.9915 1.08189 48.1434 0.993365 48.3043 0.949102L48.7868 0.807461C49.1084 0.710082 49.439 0.630409 49.7607 0.53303L49.8233 0.515325C49.8501 0.506472 49.859 0.541883 49.8769 0.550735L49.9841 0.648114L50.1896 0.842871L50.6096 1.24124C50.8866 1.49796 51.1636 1.78125 51.4316 2.06453C51.7175 2.36552 51.9945 2.66651 52.2626 2.97635C52.8076 3.58718 53.317 4.23342 53.8173 4.87966C54.8092 6.18099 55.7027 7.55314 56.4979 8.98726C57.2932 10.4214 57.9812 11.9263 58.5352 13.4844L58.8837 14.5555C58.8747 14.5378 58.8837 14.5555 58.8837 14.5467L59.2679 14.9982C59.7951 15.6179 60.2865 16.2464 60.7779 16.8926C62.8509 19.6369 64.6916 22.5406 66.2285 25.639C67.7564 28.7286 68.9895 32.004 69.6864 35.4477C70.0528 37.2713 70.2672 39.1304 70.2672 41.016C70.2672 41.9543 70.2226 42.8927 70.1243 43.8399C70.0528 44.3091 70.017 44.7872 69.9188 45.2564L69.7758 45.9646C69.7311 46.2036 69.6864 46.4338 69.615 46.6639C69.1414 48.523 68.4087 50.3112 67.4526 51.9666C66.988 52.7988 66.4429 53.5867 65.8711 54.348C65.5851 54.7286 65.2813 55.0916 64.9775 55.4546L64.7988 55.6582C64.1019 56.4637 63.3424 57.2074 62.5739 57.9244C62.5739 57.9244 62.2969 58.1369 61.8323 58.4821C61.3677 58.8274 60.6975 59.2877 59.9112 59.7746C59.116 60.2527 58.2046 60.7573 57.2664 61.1999C56.3192 61.6425 55.3453 62.0409 54.4517 62.333C52.9417 62.873 51.9141 63.0766 51.2976 63.1121C50.681 63.1475 50.4845 63.0147 50.5828 62.8111C50.7704 62.4038 52.1286 61.6071 53.7012 60.5891C53.5046 60.6422 55.4614 59.5267 57.2306 58.1369C58.1242 57.4464 58.9641 56.7028 59.5806 56.1185C59.8755 55.8264 60.1257 55.5785 60.3044 55.4014C60.4741 55.2244 60.5635 55.1182 60.5635 55.1182L60.9924 54.7109L61.4034 54.286C61.6804 54.0116 61.9395 53.7106 62.1987 53.4185L62.3595 53.2414C62.6186 52.9227 62.8777 52.6129 63.1279 52.2853C63.6104 51.6302 64.0751 50.9663 64.4682 50.2581C65.2724 48.8594 65.8889 47.3633 66.2821 45.8141C66.3446 45.6193 66.3804 45.4246 66.4161 45.2298L66.5323 44.6367C66.6127 44.2472 66.6395 43.8399 66.7021 43.4416C66.7914 42.636 66.8271 41.8215 66.8271 40.9983C66.8182 39.3605 66.6395 37.7139 66.3089 36.0851C65.6834 33.0044 64.5665 29.9945 63.1369 27.1174C61.7072 24.2403 59.9738 21.496 58.0169 18.9199C57.5612 18.3179 57.0966 17.7336 56.6141 17.1582L56.2388 16.7244L55.8457 16.2907C55.801 16.2552 55.801 16.2021 55.7831 16.1579L55.7384 16.0162L55.6491 15.7329L55.2827 14.591C54.7913 13.2277 54.1837 11.8998 53.4689 10.6073C52.763 9.32366 51.9499 8.0843 51.0563 6.9069C50.6006 6.32263 50.1449 5.73836 49.6535 5.1895C49.4122 4.90621 49.162 4.64064 48.9119 4.37506C48.9119 4.37506 48.9029 4.38391 48.894 4.38391L48.8136 4.43703C48.7063 4.49899 48.5902 4.58752 48.483 4.66719C48.0362 4.99474 47.5805 5.41081 47.1516 5.86229C46.2849 6.77411 45.4718 7.82757 44.7123 8.92529C43.9528 10.023 43.2379 11.1739 42.5678 12.3512L42.3176 12.7939L42.0942 13.1922L41.853 13.6349C41.6832 13.9447 41.5313 14.2634 41.3705 14.5733L41.1292 15.0424L41.0667 15.1575L41.0399 15.2195C41.0399 15.2372 41.0309 15.2283 41.013 15.2283L40.9773 15.2195L40.7271 15.1487L38.6899 14.5821L38.6273 14.5644L38.5916 14.5555C38.6005 14.5555 38.5558 14.5467 38.5112 14.5378L38.4486 14.529L38.3325 14.5024L38.1001 14.4582L37.6355 14.3608C35.1247 13.927 32.4262 14.0067 29.7992 14.3785C29.4686 14.4228 29.138 14.4847 28.8164 14.5378L28.3249 14.6264L28.0658 14.6795L27.5565 14.7857C27.2169 14.8654 26.8685 14.9628 26.52 15.0424L26.0017 15.1752C25.9571 15.1841 25.9124 15.2018 25.8766 15.2018L25.832 15.1221L25.689 14.9008L24.5542 13.2188L24.2683 12.8027L23.9734 12.3955L23.3837 11.5899C23.1782 11.3243 22.9727 11.0676 22.7672 10.8109L22.4544 10.4214L22.1328 10.0496C21.275 9.05808 20.3457 8.11971 19.3628 7.34953C18.8714 6.96002 18.3621 6.61477 17.8617 6.33148L17.7723 6.28722L17.674 6.42886C17.4953 6.69444 17.2988 6.95116 17.129 7.22559L16.6107 8.05774C16.441 8.34102 16.2801 8.63316 16.1193 8.92529C15.4759 10.0938 14.8773 11.3066 14.3233 12.546C13.7693 13.7854 13.2421 15.0424 12.7596 16.3172C12.5184 16.9546 12.2771 17.592 12.0537 18.2382L11.7231 19.1943C11.7052 19.2386 11.6427 19.451 11.5802 19.6015L11.3657 19.9733L11.0887 20.4337C9.70374 22.8327 8.39025 25.2583 7.15718 27.7105L7.0857 27.8521L7.01421 27.9938C6.37087 29.2951 5.75434 30.6053 5.20928 31.9155C5.06632 32.243 4.93229 32.5706 4.80719 32.8981L4.61955 33.3939L4.44978 33.8808C4.21746 34.527 4.02089 35.191 3.90473 35.7752L3.86899 35.97C3.86005 36.0408 3.86005 36.0674 3.85112 36.1205C3.85112 36.147 3.84218 35.9965 3.84218 36.0319V36.0851C3.84218 36.1028 3.85112 36.1116 3.84218 36.147C3.83325 36.1824 3.83325 36.2179 3.82431 36.2444L3.81538 36.3861V36.4569V36.4923V36.5454L3.7707 36.8375L3.60986 37.8556C3.55625 38.192 3.54732 38.5372 3.51157 38.8736C3.48477 39.21 3.44009 39.5553 3.45796 39.8917L3.44903 40.9097L3.51157 41.9189C3.52051 42.2553 3.57412 42.5917 3.62773 42.9193C3.68135 43.2468 3.70815 43.5832 3.7975 43.9108C4.32469 46.54 5.53095 49.0099 7.19292 51.1699C8.86382 53.3299 10.9904 55.189 13.3315 56.7382C14.8326 57.712 16.4231 58.5884 18.0583 59.2966Z" fill="#231815"/>
<path d="M16.7268 10.271C16.7268 10.271 14.2249 15.5117 14.207 17.84C14.207 17.84 16.0834 16.1137 18.9964 16.3527L16.7268 10.271Z" fill="#ED7A49"/>
<path d="M48.3486 15.3435C48.3486 15.3435 52.1193 15.4055 53.6383 15.8747C53.6383 15.8747 51.4849 9.83723 49.9659 9.36804L48.3486 15.3435Z" fill="#ED7A49"/>
<path d="M24.5371 23.9129C25.524 23.9129 26.3241 23.1202 26.3241 22.1423C26.3241 21.1645 25.524 20.3718 24.5371 20.3718C23.5501 20.3718 22.75 21.1645 22.75 22.1423C22.75 23.1202 23.5501 23.9129 24.5371 23.9129Z" fill="white"/>
<path d="M43.8818 22.7797C44.8688 22.7797 45.6688 21.987 45.6688 21.0092C45.6688 20.0313 44.8688 19.2386 43.8818 19.2386C42.8948 19.2386 42.0947 20.0313 42.0947 21.0092C42.0947 21.987 42.8948 22.7797 43.8818 22.7797Z" fill="white"/>
<path d="M15.3956 61.8019C15.3152 61.7665 15.2884 61.7488 15.2169 61.6249C14.9578 61.2442 14.7165 60.6422 14.8416 60.0845C14.9757 59.5268 15.4492 59.0222 16.5483 58.7301C16.584 58.7212 16.7627 58.6947 16.8431 58.7124C18.4962 59.4737 20.2207 60.1465 21.972 60.7396C27.5566 62.6252 33.4449 63.7407 39.2708 63.599L40.7898 63.5282L42.2998 63.3954C42.2998 63.3954 42.3803 63.3954 42.5232 63.3865C42.6662 63.3777 42.8717 63.3688 43.1398 63.3511C43.3989 63.3334 43.7205 63.3157 44.069 63.298C44.4264 63.2626 44.8196 63.2272 45.2395 63.1829C45.6684 63.1564 46.1063 63.0767 46.5709 63.0147C46.8032 62.9793 47.0355 62.9528 47.2768 62.9174C47.5181 62.8819 47.7504 62.8288 47.9916 62.7846L48.7154 62.6518L49.0728 62.5898C49.189 62.5633 49.3051 62.5367 49.4213 62.5101C49.8859 62.4039 50.3505 62.3065 50.7973 62.2092C51.5211 61.9878 52.1376 61.8373 52.6469 61.7046C53.1384 61.5541 53.5315 61.4567 53.8353 61.4124C54.434 61.315 54.6574 61.3859 54.5948 61.616C54.5323 61.8373 54.1749 62.1915 53.6119 62.6252C53.469 62.7315 53.3171 62.8465 53.1562 62.9705C52.9865 63.0767 52.8078 63.1918 52.6201 63.3069C52.2448 63.5282 51.8338 63.7849 51.387 64.0151C51.4943 63.9974 51.0028 64.2275 50.1986 64.5905C49.7966 64.7853 49.3051 64.9535 48.7779 65.1482C48.5099 65.2456 48.2329 65.3518 47.9469 65.4492C47.661 65.5377 47.3661 65.6263 47.0713 65.7148C46.7764 65.8033 46.4816 65.9007 46.1867 65.9804C45.8918 66.0512 45.597 66.1309 45.32 66.1928C45.034 66.2636 44.766 66.3345 44.4979 66.3964C44.2388 66.4495 43.9886 66.4938 43.7563 66.5381C43.2917 66.6266 42.9074 66.7063 42.6394 66.7505C42.3713 66.7859 42.2105 66.8125 42.2105 66.8125C41.7369 66.8479 41.2633 66.901 40.7898 66.9276L39.3691 66.9896C37.7875 67.0161 36.197 66.9984 34.6333 66.8656L34.0436 66.8214L33.4539 66.7594C33.0607 66.7151 32.6676 66.6797 32.2834 66.6266C31.506 66.5204 30.7286 66.4141 29.9512 66.2725C26.8507 65.7502 23.8216 64.9535 20.864 63.9531C19.0055 63.3246 17.1916 62.6164 15.3956 61.8019Z" fill="#C30D23"/>
<path d="M14.207 24.8512L26.3769 29.2244L14.8146 36.1029" stroke="black" stroke-width="4" stroke-miterlimit="10" stroke-linecap="round" stroke-linejoin="round"/>
<path d="M54.2998 23.3816L42.8447 29.3482L55.2469 34.6067" stroke="black" stroke-width="4" stroke-miterlimit="10" stroke-linecap="round" stroke-linejoin="round"/>
<path d="M10.9533 41.9695C13.61 41.8396 15.7 40.4556 15.6214 38.8783C15.5428 37.301 13.3254 36.1276 10.6687 36.2576C8.01207 36.3875 5.9221 37.7715 6.00068 39.3488C6.07927 40.9261 8.29664 42.0994 10.9533 41.9695Z" fill="#E58A4C"/>
<path d="M58.6154 39.9698C61.2721 39.8399 63.3621 38.4559 63.2835 36.8786C63.2049 35.3013 60.9875 34.128 58.3309 34.2579C55.6742 34.3878 53.5842 35.7718 53.6628 37.3491C53.7414 38.9264 55.9587 40.0998 58.6154 39.9698Z" fill="#E58A4C"/>
<path d="M36.1244 38.8029L36.1064 38.8207C36.1244 38.8296 36.1513 38.8296 36.1692 38.8386L36.1244 38.8029Z" fill="#DB2F0E"/>
<path d="M39.0196 41.078L38.3315 40.538C35.5795 41.2639 33.3635 46.4958 32.6934 48.2486C33.3367 49.2047 34.3821 49.8686 36.062 49.727C41.3338 49.2843 39.0196 41.078 39.0196 41.078Z" fill="#DB2F0E"/>
<path d="M38.332 40.538L36.1786 38.8383C36.1607 38.8294 36.1339 38.8294 36.1161 38.8206L31.7735 42.7511C31.7735 42.7511 31.3178 46.1948 32.6939 48.2486C33.364 46.4958 35.58 41.2639 38.332 40.538Z" fill="#BC0000"/>
<path d="M39.1476 33.8225C39.1599 32.1651 37.3217 30.808 35.0418 30.7914C32.7619 30.7748 30.9037 32.105 30.8914 33.7624C30.8791 35.4198 32.7174 36.7769 34.9973 36.7935C37.2771 36.8101 39.1353 35.4799 39.1476 33.8225Z" fill="#231815"/>
<path d="M33.6595 35.855C33.6595 35.8284 33.6595 35.8107 33.7131 35.7664C34.0437 35.4566 34.9372 34.9697 36.1078 35.5009C36.1256 35.5097 36.2061 35.5628 36.2239 35.5894C36.2239 35.6248 36.3043 36.3773 36.4205 37.4838C36.4473 37.7583 36.483 38.0593 36.5099 38.3691C36.5277 38.5373 36.5456 38.7143 36.5635 38.8914C36.5813 39.0596 36.5992 39.2189 36.6171 39.3871C36.626 39.5553 36.6349 39.7147 36.6528 39.8829L36.6618 40.0068C36.6439 40.0422 36.6081 40.0688 36.5813 40.1042L36.4026 40.2901C36.2865 40.414 36.1614 40.538 36.0363 40.6619L35.8486 40.8478L35.6967 40.9895L35.4734 41.1842C35.1696 41.4409 34.8568 41.6977 34.5173 41.9367C33.8471 42.4147 33.1055 42.8397 32.3013 43.1141C31.4971 43.3974 30.6036 43.5125 29.8173 43.362C29.6207 43.3354 29.4331 43.2734 29.2633 43.2292C29.1829 43.2026 29.1025 43.1761 29.031 43.1407C28.9953 43.1229 28.9595 43.1141 28.9238 43.1052C28.888 43.0875 28.8434 43.0698 28.8076 43.061C28.5396 42.9459 28.334 42.8308 28.1553 42.7246C27.8069 42.521 27.6192 42.3705 27.6192 42.3705C27.6192 42.3705 27.5031 42.2731 27.3244 42.0695C27.1457 41.8747 26.9044 41.5737 26.69 41.1488C26.4844 40.7327 26.3325 40.1662 26.3951 39.6262C26.4487 39.0862 26.681 38.617 26.9312 38.2983C27.1367 38.015 27.3422 37.8379 27.512 37.7052C27.6907 37.5812 27.8337 37.5015 27.9588 37.4661C28.2 37.3865 28.334 37.4396 28.3877 37.5635C28.5038 37.8114 28.2804 38.3691 28.2179 38.9003C28.2447 38.8825 28.209 39.0242 28.209 39.2189C28.209 39.4137 28.2715 39.6085 28.3966 39.7678C28.5217 39.9272 28.7183 40.0954 28.9059 40.2016C29.0935 40.3167 29.2454 40.3786 29.2454 40.3786C29.2454 40.3786 29.3437 40.4583 29.5492 40.5645C29.7637 40.6796 30.0228 40.8036 30.3087 40.839C30.6126 40.8744 31.0236 40.839 31.515 40.6531C32.0065 40.476 32.5426 40.1662 33.0519 39.7944C33.311 39.6085 33.5612 39.4049 33.8025 39.1924C33.865 39.1393 33.9275 39.0862 33.9812 39.033C33.9275 38.5373 33.8829 38.077 33.8382 37.6786C33.7399 36.634 33.6684 35.8904 33.6595 35.855Z" fill="#231815"/>
<path d="M34.8749 40.7946C34.857 40.7769 34.8481 40.7769 34.857 40.7061C34.866 40.4848 34.9464 40.1395 35.1608 39.7854C35.3931 39.4313 35.7506 39.0772 36.2688 38.7674C36.2867 38.7585 36.3671 38.7231 36.385 38.7231C36.3939 38.732 36.519 38.8117 36.7156 38.9533C36.9211 39.0861 37.207 39.2808 37.5644 39.4845C38.2703 39.8917 39.2532 40.3697 40.1735 40.5556C40.6292 40.6441 41.0581 40.6618 41.3798 40.591C41.7104 40.5291 41.9338 40.3963 42.1214 40.2281C42.3269 40.051 42.4074 39.9094 42.452 39.8209C42.4967 39.7323 42.5056 39.6792 42.5056 39.6792C42.5056 39.6792 42.5324 39.6527 42.5682 39.5907C42.6039 39.5287 42.6575 39.4225 42.6933 39.2631C42.7737 38.9533 42.7201 38.4044 42.6039 37.8998C42.3627 37.0854 42.3091 36.7136 42.5593 36.5897C42.8094 36.4923 43.3277 36.6959 43.8102 37.1474C43.7923 37.0854 44.3553 37.6077 44.7216 38.4576C44.9092 38.8736 45.0075 39.3871 45.0075 39.7943C45.0075 39.9979 44.9897 40.175 44.9718 40.29C44.9539 40.414 44.936 40.4848 44.936 40.4848C44.936 40.4848 44.9182 40.5379 44.8824 40.6441C44.8467 40.7504 44.7841 40.892 44.6948 41.0691C44.5071 41.4232 44.1676 41.8658 43.703 42.2465C43.2205 42.6537 42.5146 42.9901 41.7729 43.1229C41.0313 43.2468 40.2718 43.1937 39.5927 43.0521C38.2256 42.7599 37.0819 42.1668 36.2509 41.6976C35.4289 41.2019 34.9017 40.8123 34.8749 40.7946Z" fill="#231815"/>
<defs>
<clipPath id="clip0_2421_10460">
<rect width="12.7677" height="15.0407" fill="white" transform="matrix(0.926275 0.376848 -0.379766 0.925083 86.4336 26.5291)"/>
</clipPath>
</defs>
</svg>
