<?xml version="1.0" encoding="utf-8"?>
<!-- Generator: Adobe Illustrator 25.0.1, SVG Export Plug-In . SVG Version: 6.00 Build 0)  -->
<svg version="1.1" id="圖層_1" xmlns="http://www.w3.org/2000/svg" xmlns:xlink="http://www.w3.org/1999/xlink" x="0px" y="0px"
	 viewBox="0 0 110 68" style="enable-background:new 0 0 110 68;" xml:space="preserve">
<style type="text/css">
	.st0{fill:#999999;}
	.st1{fill:#545454;}
	.st2{fill:#D3D3D3;}
	.st3{fill:#FF6D00;}
	.st4{fill:#4D4D4D;}
	.st5{fill:#FFFFFF;}
	.st6{fill:none;}
	.st7{fill:#FFA943;}
	.st8{fill:#FBB03B;}
	.st9{fill:none;stroke:#000000;stroke-width:2.3497;stroke-linecap:round;stroke-linejoin:round;stroke-miterlimit:10;}
	.st10{fill:none;stroke:#000000;stroke-width:1.7623;stroke-linecap:round;stroke-linejoin:round;stroke-miterlimit:10;}
	.st11{fill:#231815;}
	.st12{fill:#252525;}
</style>
<g>
	<path class="st0" d="M35,10.3c-8.4,2.2-16,8.5-19.7,16.3c-0.3,0.6-0.6,1.2-0.8,1.9c-0.1,0.1-0.1,0.3-0.2,0.4
		c2.1-0.1,3.7-0.2,3.9-0.2h0c0.3,0,0.5,0.2,0.5,0.5c0,0.3-0.2,0.5-0.5,0.5c0,0-1.9,0-4.3,0.2c-0.2,0.7-0.5,1.6-0.8,2.5
		c2.1-0.7,3.7-1.1,3.9-1.2c0.2-0.1,0.5,0.1,0.6,0.4s-0.1,0.5-0.3,0.6c-0.1,0-2,0.5-4.4,1.4c-1,3.6-2.1,8.1-3.3,13.3
		c35.8,1.5,38.1-32.3,38.2-38c-3.2,0.1-6.3,0.4-9.4,0.8C37.3,9.8,36.1,10,35,10.3z M20,38.9c-2.5,0-4.5-1.3-4.5-2.8
		c0-1.5,2.1-2.7,4.5-2.7c2.5,0,4.5,1.3,4.5,2.8C24.6,37.7,22.5,38.9,20,38.9z"/>
	<path class="st0" d="M19.7,15.6c0.1-0.6,0.1-1.2,0.2-1.8c0-0.1,0-0.2,0-0.3c0.2-1.3,0.4-2.5,0.6-3.6c0.1-0.7,0.5-1.2,1-1.5
		c0.1-0.1,0.2-0.1,0.4-0.2c0,0,0.1,0,0.1,0c0.1,0,0.3-0.1,0.4-0.1c0,0,0.1,0,0.1,0c0.2,0,0.3,0,0.5,0c0.1,0,0.2,0,0.2,0
		c0.2,0,0.4,0,0.6,0.1c0.1,0,0.2,0,0.3,0.1c0.2,0,0.5,0.1,0.7,0.2c0.1,0,0.3,0.1,0.5,0.1c0.3,0.1,0.5,0.2,0.8,0.3
		c0.2,0.1,0.5,0.2,0.7,0.3c0.3,0.1,0.6,0.2,0.9,0.4c0.3,0.1,0.6,0.3,1,0.4c0.2,0.1,0.4,0.2,0.7,0.3c0.9-0.4,1.8-0.8,2.8-1.1
		c-6-2.8-9.7-3.9-11.5-3.9c-0.6,0-1,0.1-1.3,0.3c-1.4,1.4-3,8.9-4,16.7c1.1-1.8,2.5-3.4,3.9-4.9c0-0.4,0.1-0.9,0.1-1.3
		C19.7,15.9,19.7,15.8,19.7,15.6z"/>
	<path class="st1" d="M27.9,11.1c-0.2-0.1-0.4-0.2-0.6-0.3c-0.3-0.1-0.5-0.2-0.8-0.3c-0.2-0.1-0.4-0.1-0.6-0.2
		c-0.2-0.1-0.4-0.1-0.6-0.2c-0.2-0.1-0.3-0.1-0.5-0.1c-0.2,0-0.3-0.1-0.5-0.1c-0.1,0-0.3-0.1-0.4-0.1c-0.1,0-0.2,0-0.3,0
		c-0.1,0-0.2,0-0.3,0c-0.1,0-0.2,0-0.3,0c-0.1,0-0.2,0-0.2,0c-0.1,0-0.1,0-0.2,0c0,0-0.1,0-0.1,0c-0.1,0-0.2,0.1-0.2,0.1
		C22.1,10,22,10.1,22,10.3c-0.1,0.7-0.3,1.5-0.4,2.4c0,0.2-0.1,0.4-0.1,0.7c-0.1,0.8-0.2,1.6-0.3,2.5C23.2,14,25.5,12.4,27.9,11.1z"
		/>
	<path class="st1" d="M24.3,9.9c0.1,0,0.3,0.1,0.5,0.1C24.6,10,24.5,9.9,24.3,9.9z"/>
	<path class="st1" d="M25.3,10.1c0.2,0.1,0.4,0.1,0.6,0.2C25.7,10.3,25.5,10.2,25.3,10.1z"/>
	<path class="st1" d="M23.6,9.8c0.1,0,0.2,0,0.3,0C23.8,9.8,23.7,9.8,23.6,9.8z"/>
	<path class="st1" d="M26.5,10.5c0.2,0.1,0.5,0.2,0.8,0.3C27,10.7,26.7,10.6,26.5,10.5z"/>
	<path class="st1" d="M22.3,9.9c0,0,0.1-0.1,0.2-0.1C22.4,9.8,22.3,9.8,22.3,9.9z"/>
	<path class="st1" d="M21.5,13.3c0-0.2,0.1-0.4,0.1-0.7C21.6,12.9,21.5,13.1,21.5,13.3z"/>
	<path class="st1" d="M22.6,9.8c0.1,0,0.1,0,0.2,0C22.7,9.7,22.7,9.8,22.6,9.8z"/>
	<path class="st1" d="M23,9.7c0.1,0,0.2,0,0.3,0C23.2,9.7,23.1,9.7,23,9.7z"/>
	<path class="st2" d="M74.1,16.6c0.9,0.8,1.7,1.7,2.5,2.7c0-0.1,0-0.2,0-0.3c0-0.2-0.1-0.4-0.1-0.5c-0.1-0.4-0.1-0.7-0.2-1.1
		c0-0.1-0.1-0.3-0.1-0.4c-0.1-0.3-0.1-0.7-0.2-1c0-0.1,0-0.2-0.1-0.3c-0.1-0.3-0.1-0.6-0.2-0.9c0-0.1,0-0.1,0-0.2
		c-0.2-0.7-0.4-1.3-0.5-1.8c0,0,0,0,0,0c-0.1-0.2-0.2-0.4-0.2-0.6c0,0,0-0.1,0-0.1c-0.1-0.1-0.1-0.3-0.2-0.4c0,0,0-0.1-0.1-0.1
		c-0.1-0.1-0.1-0.2-0.2-0.3c0,0,0-0.1-0.1-0.1c0-0.1-0.1-0.1-0.1-0.2c0,0,0-0.1-0.1-0.1c0-0.1-0.1-0.1-0.1-0.1c0,0,0,0,0,0
		c0,0-0.1-0.1-0.1-0.1c0,0,0,0,0,0c0,0-0.1,0-0.1-0.1c0,0,0,0,0,0c0,0-0.1,0-0.1,0c0,0,0,0,0,0c0,0,0,0-0.1,0c-0.4,0-0.8,0-1.2,0.1
		c-0.3,0.1-0.6,0.1-1,0.2c-0.2,0-0.3,0.1-0.5,0.1c-0.3,0.1-0.7,0.2-1,0.4c-0.3,0.1-0.5,0.2-0.8,0.3c-0.3,0.1-0.6,0.3-0.9,0.4
		c-0.1,0-0.2,0.1-0.3,0.1C70.1,13.4,72.1,14.9,74.1,16.6z"/>
	<path class="st2" d="M75.7,14.7c0.1,0.3,0.1,0.6,0.2,0.9C75.9,15.3,75.8,15,75.7,14.7z"/>
	<path class="st2" d="M72.4,10.6c0.4-0.1,0.8-0.1,1.2-0.1C73.2,10.5,72.8,10.5,72.4,10.6z"/>
	<path class="st2" d="M71,11c0.2-0.1,0.3-0.1,0.5-0.1C71.3,10.9,71.1,10.9,71,11z"/>
	<path class="st2" d="M69.2,11.6c0.3-0.1,0.5-0.2,0.8-0.3C69.7,11.4,69.4,11.5,69.2,11.6z"/>
	<path class="st2" d="M68.3,12.1c-0.1,0-0.2,0.1-0.3,0.1c0,0,0,0,0,0C68.1,12.1,68.2,12.1,68.3,12.1z"/>
	<path class="st2" d="M76.3,17.4c0.1,0.3,0.1,0.7,0.2,1.1C76.4,18.1,76.3,17.7,76.3,17.4z"/>
	<path class="st2" d="M76,16c0.1,0.3,0.1,0.6,0.2,1C76.1,16.6,76.1,16.3,76,16z"/>
	<path class="st2" d="M74.2,11c0,0.1,0.1,0.1,0.1,0.2C74.3,11.1,74.3,11,74.2,11z"/>
	<path class="st2" d="M73.9,10.6c0,0,0.1,0.1,0.1,0.1C74,10.7,73.9,10.6,73.9,10.6z"/>
	<path class="st2" d="M74.4,11.3c0,0.1,0.1,0.2,0.2,0.3C74.5,11.4,74.5,11.3,74.4,11.3z"/>
	<path class="st2" d="M73.8,10.5C73.8,10.5,73.8,10.6,73.8,10.5C73.8,10.6,73.8,10.5,73.8,10.5z"/>
	<path class="st2" d="M74.1,10.7c0,0,0.1,0.1,0.1,0.1C74.1,10.8,74.1,10.8,74.1,10.7z"/>
	<path class="st2" d="M74.7,11.6c0.1,0.1,0.1,0.3,0.2,0.4C74.8,11.9,74.7,11.8,74.7,11.6z"/>
	<path class="st2" d="M73.6,10.5C73.6,10.5,73.6,10.5,73.6,10.5C73.6,10.5,73.6,10.5,73.6,10.5z"/>
	<path class="st2" d="M73.7,10.5C73.7,10.5,73.7,10.5,73.7,10.5C73.7,10.5,73.7,10.5,73.7,10.5z"/>
	<path class="st2" d="M74.9,12.2c0.1,0.2,0.2,0.4,0.2,0.6C75.1,12.6,75,12.3,74.9,12.2z"/>
	<path class="st2" d="M75.1,12.8c0.2,0.5,0.3,1.1,0.5,1.8C75.5,13.9,75.3,13.3,75.1,12.8z"/>
	<path class="st2" d="M76.6,19.3c0-0.1,0-0.2,0-0.3C76.6,19.1,76.6,19.2,76.6,19.3C76.6,19.3,76.6,19.3,76.6,19.3z"/>
	<path class="st3" d="M20.1,33.3c-2.5,0-4.5,1.2-4.5,2.7c0,1.5,2,2.8,4.5,2.8c2.5,0,4.5-1.2,4.5-2.7C24.6,34.6,22.6,33.4,20.1,33.3z
		"/>
	<path class="st3" d="M68.7,34.8c-2.5,0-4.5,1.2-4.5,2.7c0,1.5,2,2.8,4.5,2.8c2.5,0,4.5-1.2,4.5-2.7C73.2,36.1,71.2,34.9,68.7,34.8z
		"/>
	<g>
		<path class="st4" d="M18.2,28.8L18.2,28.8c-0.2,0-1.8,0-3.9,0.2c-0.1,0-0.2,0-0.3,0c0,0,0,0,0,0c-0.2,0-0.3,0-0.5,0
			c0,0-0.1,0-0.1,0c-0.3,0-0.7,0.1-1,0.1c-4.4,0.4-10,1.4-11.9,3.7c-0.2,0.2-0.2,0.5,0,0.7c0.1,0.1,0.2,0.1,0.3,0.1
			c0.1,0,0.2-0.1,0.3-0.2c1.7-2,6.7-2.9,10.9-3.3c0.3,0,0.7-0.1,1-0.1c0.1,0,0.3,0,0.4,0c0,0,0.1,0,0.1,0c0,0,0,0,0,0
			c0.2,0,0.3,0,0.5,0c2.4-0.2,4.2-0.2,4.3-0.2c0.3,0,0.5-0.2,0.5-0.5C18.6,29,18.4,28.8,18.2,28.8z"/>
		<path class="st4" d="M17,31.2c-0.2,0.1-1.8,0.5-3.9,1.2c-0.3,0.1-0.6,0.2-0.9,0.3c-0.1,0-0.1,0-0.2,0.1c-0.3,0.1-0.7,0.3-1.1,0.4
			C6.9,34.7,1.9,37,0.6,39.6c-0.1,0.2,0,0.5,0.2,0.7c0.1,0,0.1,0.1,0.2,0.1c0.2,0,0.3-0.1,0.4-0.3c1.1-2.2,5.5-4.3,9.3-5.8
			c0.4-0.1,0.7-0.3,1-0.4c0,0,0,0,0.1,0c0.3-0.1,0.7-0.2,1-0.3c2.5-0.9,4.4-1.4,4.4-1.4c0.2-0.1,0.4-0.3,0.3-0.6S17.2,31.2,17,31.2z
			"/>
		<path class="st4" d="M93.5,34.1c-0.6-0.8-1.7-1.5-3.1-2c-2-0.8-4.6-1.4-7.1-1.8c-0.2,0-0.5-0.1-0.7-0.1c-0.1,0-0.3,0-0.4-0.1
			c-0.3,0-0.7-0.1-1-0.1c0,0,0,0,0,0C81,30,80.7,30,80.4,30c-0.1,0-0.1,0-0.2,0c-2.4-0.3-4.3-0.3-4.5-0.3c0,0,0,0,0,0
			c-0.2,0-0.5,0.2-0.5,0.5c0,0.3,0.2,0.5,0.4,0.5c0.1,0,2.1,0.1,4.9,0.4c0.1,0,0.1,0,0.2,0c0.3,0,0.5,0.1,0.8,0.1c0,0,0,0,0,0
			c0.3,0,0.7,0.1,1,0.1c0,0,0.1,0,0.1,0c0.2,0,0.5,0.1,0.7,0.1c2.5,0.4,5.1,1,7,1.8c1,0.5,1.9,1,2.4,1.6c0.1,0.1,0.2,0.2,0.3,0.2
			c0.1,0,0.2,0,0.3-0.1C93.6,34.6,93.6,34.3,93.5,34.1z"/>
		<path class="st4" d="M90.4,38.2c-1.9-1.4-4.5-2.7-6.9-3.7c0,0-0.1,0-0.1-0.1c-0.2-0.1-0.5-0.2-0.7-0.3c-0.1,0-0.1-0.1-0.2-0.1
			c0,0,0,0,0,0c-0.3-0.1-0.6-0.2-0.9-0.3c-0.1,0-0.1,0-0.2-0.1c-2.4-0.9-4.4-1.5-4.6-1.6c-0.2-0.1-0.5,0.1-0.6,0.3
			c-0.1,0.3,0.1,0.5,0.3,0.6c0.1,0,2.3,0.7,5.2,1.8c0.1,0,0.1,0.1,0.2,0.1c0.3,0.1,0.5,0.2,0.8,0.3c0.2,0.1,0.4,0.2,0.6,0.2
			c0.2,0.1,0.3,0.1,0.5,0.2c2.4,1,4.9,2.3,6.6,3.7c0.8,0.7,1.5,1.4,1.8,2.1c0.1,0.2,0.2,0.3,0.4,0.3c0.1,0,0.1,0,0.2-0.1
			c0.2-0.1,0.3-0.4,0.2-0.7C92.6,40.1,91.6,39.1,90.4,38.2z"/>
	</g>
	<path class="st5" d="M73.5,8.9c0,0,0.1,0,0.1,0c0.1,0,0.2,0,0.3,0c0,0,0.1,0,0.1,0c0.1,0,0.1,0,0.2,0c0,0,0.1,0,0.1,0.1
		c0,0,0.1,0,0.1,0.1c0.1,0,0.1,0.1,0.2,0.1c0,0,0.1,0.1,0.1,0.1c0.1,0,0.1,0.1,0.2,0.1c0,0,0.1,0.1,0.2,0.1c0.1,0.1,0.1,0.1,0.2,0.2
		c0,0.1,0.1,0.1,0.1,0.2c0.1,0.1,0.1,0.2,0.2,0.3c0,0.1,0.1,0.1,0.1,0.2c0.1,0.1,0.1,0.2,0.2,0.4c0,0.1,0.1,0.2,0.1,0.3
		c0.1,0.1,0.1,0.3,0.2,0.5c0,0.1,0.1,0.2,0.1,0.3c0.1,0.2,0.1,0.4,0.2,0.6c0,0.1,0.1,0.2,0.1,0.3c0.1,0.2,0.1,0.5,0.2,0.7
		c0,0.1,0.1,0.2,0.1,0.4c0.1,0.3,0.2,0.6,0.2,0.9c0,0.1,0.1,0.2,0.1,0.3c0.1,0.4,0.2,0.8,0.2,1.2c0,0.1,0,0.2,0.1,0.3
		c0.1,0.4,0.2,0.9,0.2,1.4c0,0.1,0,0.2,0,0.3c0.1,0.5,0.2,1.1,0.3,1.7c0,0.1,0,0.1,0,0.2c0.1,0.5,0.1,1.1,0.2,1.7
		c1.3,2.1,2.4,4.5,3.5,7.3c-0.5-9.5-2.4-21.5-4.3-23.2c-1.5-1.3-7.4-0.1-16,3.2c1.6,0.6,3.3,1.3,4.8,2.2C69.4,9.7,71.7,8.9,73.5,8.9
		z"/>
	<g>
		<path class="st6" d="M64.1,37.5c0,1.5,2,2.8,4.5,2.8c2.5,0,4.5-1.2,4.5-2.7c0-1.5-2-2.8-4.5-2.8C66.2,34.8,64.1,36,64.1,37.5z"/>
		<path class="st6" d="M75.7,29.6c-0.2,0-0.5,0.2-0.5,0.5c0,0.1,0,0.1,0.1,0.2c0.1-0.2,0.2-0.4,0.4-0.4c0,0,0,0,0,0
			c0.2,0,2.1,0.1,4.5,0.3c0-0.1-0.1-0.2-0.1-0.3C77.8,29.7,76,29.6,75.7,29.6C75.8,29.6,75.8,29.6,75.7,29.6z"/>
		<path class="st6" d="M47.8,9.1c-3.2,0.1-6.3,0.4-9.4,0.8c-1.1,0.1-2.3,0.4-3.4,0.7c-8.4,2.2-16,8.5-19.7,16.3
			c-0.3,0.6-0.6,1.2-0.8,1.9c-0.1,0.1-0.1,0.3-0.2,0.4C16.4,29,18,29,18.2,29h0c0.3,0,0.5,0.2,0.5,0.5c0,0.3-0.2,0.5-0.5,0.5
			c0,0-1.9,0-4.3,0.2c-0.2,0.7-0.5,1.6-0.8,2.5c2.1-0.7,3.7-1.1,3.9-1.2c0.2-0.1,0.5,0.1,0.6,0.4c0.1,0.3-0.1,0.5-0.3,0.6
			c-0.1,0-2,0.5-4.4,1.4c-0.8,3-1.8,6.7-2.7,10.9c-0.1,0.7,0,1.4,0.1,2.2C44.9,47.9,47.6,15.5,47.8,9.1z"/>
		<path class="st6" d="M76.3,32.5c0,0.1,0,0.2,0,0.3c0.1-0.2,0.3-0.4,0.6-0.3c0.2,0.1,2.1,0.6,4.6,1.6c0-0.1-0.1-0.2-0.1-0.3
			c-2.4-0.9-4.3-1.5-4.5-1.6C76.6,32,76.4,32.2,76.3,32.5z"/>
		<path class="st6" d="M61.6,9.4c1.6,0.6,3.3,1.3,4.8,2.2c2.9-1.5,5.3-2.3,7.1-2.3c0,0,0.1,0,0.1,0c0.1,0,0.2,0,0.3,0
			c0,0,0.1,0,0.1,0c0.1,0,0.1,0,0.2,0c0,0,0.1,0,0.1,0.1c0,0,0.1,0,0.1,0.1c0.1,0,0.1,0.1,0.2,0.1c0,0,0.1,0.1,0.1,0.1
			c0.1,0,0.1,0.1,0.2,0.1c0,0,0.1,0.1,0.2,0.1c0.1,0.1,0.1,0.1,0.2,0.2c0,0.1,0.1,0.1,0.1,0.2c0.1,0.1,0.1,0.2,0.2,0.3
			c0,0.1,0.1,0.1,0.1,0.2c0.1,0.1,0.1,0.2,0.2,0.4c0,0.1,0.1,0.2,0.1,0.3c0.1,0.1,0.1,0.3,0.2,0.5c0,0.1,0.1,0.2,0.1,0.3
			c0.1,0.2,0.1,0.4,0.2,0.6c0,0.1,0.1,0.2,0.1,0.3c0.1,0.2,0.1,0.5,0.2,0.7c0,0.1,0.1,0.2,0.1,0.4c0.1,0.3,0.2,0.6,0.2,0.9
			c0,0.1,0.1,0.2,0.1,0.3c0.1,0.4,0.2,0.8,0.2,1.2c0,0.1,0,0.2,0.1,0.3c0.1,0.4,0.2,0.9,0.2,1.4c0,0.1,0,0.2,0,0.3
			c0.1,0.5,0.2,1.1,0.3,1.7c0,0.1,0,0.1,0,0.2c0.1,0.5,0.1,1.1,0.2,1.7c1.3,2.1,2.4,4.5,3.5,7.3c-0.5-9.5-2.4-21.5-4.3-23.2
			C76.2,4.9,70.2,6.1,61.6,9.4z"/>
		<path class="st6" d="M26.5,10.8c-0.2-0.1-0.4-0.1-0.6-0.2c-0.2-0.1-0.4-0.1-0.6-0.2c-0.2-0.1-0.3-0.1-0.5-0.1
			c-0.2,0-0.3-0.1-0.5-0.1c-0.1,0-0.3-0.1-0.4-0.1c-0.1,0-0.2,0-0.3,0c-0.1,0-0.2,0-0.3,0c-0.1,0-0.2,0-0.3,0c-0.1,0-0.2,0-0.2,0
			c-0.1,0-0.1,0-0.2,0c0,0-0.1,0-0.1,0c-0.1,0-0.2,0.1-0.2,0.1c-0.2,0.1-0.2,0.2-0.3,0.4c-0.1,0.7-0.3,1.5-0.4,2.4
			c0,0.2-0.1,0.4-0.1,0.7c-0.1,0.8-0.2,1.6-0.3,2.5c2-1.8,4.3-3.5,6.7-4.7c-0.2-0.1-0.4-0.2-0.6-0.3C27,11,26.7,10.9,26.5,10.8z"/>
		<path class="st6" d="M76.5,18.7c-0.1-0.4-0.1-0.7-0.2-1.1c0-0.1-0.1-0.3-0.1-0.4c-0.1-0.3-0.1-0.7-0.2-1c0-0.1,0-0.2-0.1-0.3
			c-0.1-0.3-0.1-0.6-0.2-0.9c0-0.1,0-0.1,0-0.2c-0.2-0.7-0.4-1.3-0.5-1.8c0,0,0,0,0,0c-0.1-0.2-0.2-0.4-0.2-0.6c0,0,0-0.1,0-0.1
			c-0.1-0.1-0.1-0.3-0.2-0.4c0,0,0-0.1-0.1-0.1c-0.1-0.1-0.1-0.2-0.2-0.3c0,0,0-0.1-0.1-0.1c0-0.1-0.1-0.1-0.1-0.2
			c0,0,0-0.1-0.1-0.1c0-0.1-0.1-0.1-0.1-0.1c0,0,0,0,0,0c0,0-0.1-0.1-0.1-0.1c0,0,0,0,0,0c0,0-0.1,0-0.1-0.1c0,0,0,0,0,0
			c0,0-0.1,0-0.1,0c0,0,0,0,0,0c0,0,0,0-0.1,0c-0.4,0-0.8,0-1.2,0.1c-0.3,0.1-0.6,0.1-1,0.2c-0.2,0-0.3,0.1-0.5,0.1
			c-0.3,0.1-0.7,0.2-1,0.4c-0.3,0.1-0.5,0.2-0.8,0.3c-0.3,0.1-0.6,0.3-0.9,0.4c-0.1,0-0.2,0.1-0.3,0.1c0,0,0,0,0,0
			c2.1,1.2,4.1,2.7,6.1,4.4c0.9,0.8,1.7,1.7,2.5,2.7c0,0,0,0,0,0c0-0.1,0-0.2,0-0.3C76.5,19.1,76.5,18.9,76.5,18.7z"/>
		<path class="st6" d="M19.7,5.8c-1.4,1.4-3,8.9-4,16.7c1.1-1.8,2.5-3.4,3.9-4.9c0-0.4,0.1-0.9,0.1-1.3c0-0.1,0-0.3,0-0.4
			c0.1-0.6,0.1-1.2,0.2-1.8c0-0.1,0-0.2,0-0.3c0.2-1.3,0.4-2.5,0.6-3.6c0.1-0.7,0.5-1.2,1-1.5c0.1-0.1,0.2-0.1,0.4-0.2
			c0,0,0.1,0,0.1,0c0.1,0,0.3-0.1,0.4-0.1c0,0,0.1,0,0.1,0c0.2,0,0.3,0,0.5,0c0.1,0,0.2,0,0.2,0c0.2,0,0.4,0,0.6,0.1
			c0.1,0,0.2,0,0.3,0.1c0.2,0,0.5,0.1,0.7,0.2c0.1,0,0.3,0.1,0.5,0.1C25.9,9,26.1,9,26.4,9.2c0.2,0.1,0.5,0.2,0.7,0.3
			c0.3,0.1,0.6,0.2,0.9,0.4c0.3,0.1,0.6,0.3,1,0.4c0.2,0.1,0.4,0.2,0.7,0.3c0.9-0.4,1.8-0.8,2.8-1.1c-6-2.8-9.7-3.9-11.5-3.9
			C20.3,5.5,19.9,5.6,19.7,5.8z"/>
		<path class="st5" d="M13.6,52.1c1.7,1.5,3.9,2.8,6.6,3.9c4.7-10.1,11.6-17.4,23.5-17.9c15.1-0.6,23.4,8,28.5,19.4
			c3.3-1.2,5.6-2.6,7.4-4c0.5-0.4,1-0.9,1.4-1.3c0,0,0.1-0.1,0.1-0.1L79.9,51c-0.1-0.1,0.5,0.4,1.3,1.2c1.3-1.3,2-2.6,2.4-3.5
			c0.4-0.9,0.5-1.5,0.5-1.5c-0.5-4.3-1.3-8.2-2.2-11.8c0-0.1,0-0.1,0-0.2c-2.8-1.1-5.1-1.8-5.2-1.8c-0.2-0.1-0.4-0.3-0.3-0.6
			c0,0,0,0,0,0c0-0.1-0.1-0.2,0-0.3c0.1-0.3,0.3-0.4,0.6-0.3c0.2,0.1,2.1,0.6,4.5,1.6c-0.2-0.8-0.5-1.6-0.8-2.4
			c-2.7-0.3-4.8-0.4-4.9-0.4c-0.3,0-0.5-0.2-0.4-0.5c0,0,0-0.1,0-0.1c0-0.1-0.1-0.1-0.1-0.2c0-0.3,0.2-0.5,0.5-0.5c0,0,0,0,0,0
			c0.2,0,2,0.1,4.4,0.3c-1.9-5.2-4.3-9.1-7.2-11.6c-4.5-3.9-9.1-6.5-14-7.9c-3.5-1-6.9-1.3-10.3-1.3c-0.3,0-0.6,0-0.9,0c0,0,0,0,0,0
			c-0.2,6.4-2.9,38.8-37.5,37.8c0.3,1.4,1,2.7,2.1,4C12.7,51.3,13.1,51.7,13.6,52.1z M73.1,37.7c0,1.5-2.1,2.7-4.5,2.7
			c-2.5,0-4.5-1.3-4.5-2.8c0-1.5,2.1-2.7,4.5-2.7C71.2,34.9,73.2,36.1,73.1,37.7z"/>
		<path class="st5" d="M81.2,52.2C81.2,52.2,81.2,52.2,81.2,52.2c-0.9-0.8-1.5-1.3-1.3-1.2L81.2,52.2z"/>
		<path class="st5" d="M83,53.8L83,53.8C83.1,53.8,83.1,53.8,83,53.8C83,53.8,83,53.8,83,53.8z"/>
		<path class="st7" d="M55.6,60.6c7.2-0.4,12.6-1.6,16.7-3c-5.1-11.3-13.5-19.9-28.5-19.4c-11.9,0.5-18.8,7.7-23.5,17.9
			C28.4,59.6,40.9,61.5,55.6,60.6z"/>
	</g>
	<g>
		<path d="M93.5,34.4c-0.6-0.8-1.7-1.5-3.1-2c-2-0.8-4.6-1.4-7.1-1.8C83,21.3,81.2,7.4,78.5,5C76.5,3.2,70,4.4,59.4,8.6c0,0,0,0,0,0
			C52,6.5,44.8,7.1,38.2,8c-1.2,0.2-2.4,0.4-3.6,0.7c-13.3-6.5-15.2-4.6-15.9-4c-2.7,2.6-4.5,17.4-4.9,21c0,0.1-0.1,0.2-0.2,0.3
			c-0.3,0.7-0.6,1.3-0.9,2c-0.2,0.4-0.3,0.9-0.5,1.3c-4.4,0.4-10,1.4-11.9,3.7c-0.2,0.2-0.2,0.5,0,0.7c0.1,0.1,0.2,0.1,0.3,0.1
			c0.1,0,0.2-0.1,0.3-0.2c1.7-2,6.7-2.9,10.9-3.3c-0.3,0.9-0.6,1.9-0.9,3.1C6.9,35,1.9,37.3,0.6,39.9c-0.1,0.2,0,0.5,0.2,0.7
			c0.1,0,0.1,0.1,0.2,0.1c0.2,0,0.3-0.1,0.4-0.3c1.1-2.2,5.5-4.3,9.3-5.8c-0.5,1.9-1.1,4.1-1.7,6.5c-0.1,0.3-0.2,0.5-0.2,0.5
			s-0.7,1.6-0.8,3.9c0,0.9,0.1,1.9,0.3,3c0.3,1.4,1,2.8,2.2,4.3c0.4,0.5,0.8,0.9,1.3,1.4c3.3,3.1,9.3,6,20,7.2
			c27.4,3.3,42,0.9,49.7-6c0.5-0.4,0.9-0.9,1.4-1.3c0.3-0.3,0.6-0.6,0.9-1c0,0,0.8-0.9,1.4-2.2c0.4-0.8,0.7-1.9,0.7-3
			c0-0.2-0.1-0.5-0.1-0.7c-0.5-3.9-1.2-7.7-2-11.1c2.4,1,4.9,2.3,6.6,3.7c0.8,0.7,1.5,1.4,1.8,2.1c0.1,0.2,0.2,0.3,0.4,0.3
			c0.1,0,0.1,0,0.2-0.1c0.2-0.1,0.3-0.4,0.2-0.7c-0.5-1-1.4-1.9-2.6-2.8c-1.9-1.4-4.5-2.7-6.9-3.7c0,0,0,0,0,0
			c0-0.2-0.1-0.3-0.1-0.5c0-0.8,0-1.7,0-2.7c2.5,0.4,5.1,1,7,1.8c1,0.5,1.9,1,2.4,1.6c0.1,0.1,0.2,0.2,0.3,0.2c0.1,0,0.2,0,0.3-0.1
			C93.6,34.9,93.7,34.6,93.5,34.4z M77.6,6.2c1.9,1.7,3.8,13.7,4.3,23.2c-1-2.8-2.2-5.2-3.5-7.3c-0.1-0.6-0.1-1.1-0.2-1.7
			c0-0.1,0-0.1,0-0.2c-0.1-0.6-0.2-1.2-0.3-1.7c0-0.1,0-0.2,0-0.3c-0.1-0.5-0.2-0.9-0.2-1.4c0-0.1,0-0.2-0.1-0.3
			c-0.1-0.4-0.2-0.8-0.2-1.2c0-0.1-0.1-0.2-0.1-0.3c-0.1-0.3-0.2-0.6-0.2-0.9c0-0.1-0.1-0.2-0.1-0.4c-0.1-0.2-0.1-0.5-0.2-0.7
			c0-0.1-0.1-0.2-0.1-0.3c-0.1-0.2-0.1-0.4-0.2-0.6c0-0.1-0.1-0.2-0.1-0.3c-0.1-0.2-0.1-0.3-0.2-0.5c0-0.1-0.1-0.2-0.1-0.3
			c-0.1-0.1-0.1-0.2-0.2-0.4c0-0.1-0.1-0.1-0.1-0.2c-0.1-0.1-0.1-0.2-0.2-0.3c0-0.1-0.1-0.1-0.1-0.2c-0.1-0.1-0.1-0.2-0.2-0.2
			C75.1,9.9,75,9.8,75,9.8c-0.1,0-0.1-0.1-0.2-0.1c0,0-0.1-0.1-0.1-0.1c-0.1,0-0.1-0.1-0.2-0.1c0,0-0.1,0-0.1-0.1c0,0-0.1,0-0.1-0.1
			c-0.1,0-0.1,0-0.2,0c0,0-0.1,0-0.1,0c-0.1,0-0.2,0-0.3,0c0,0-0.1,0-0.1,0c-1.8,0-4.2,0.8-7.1,2.3c-1.6-0.9-3.2-1.6-4.8-2.2
			C70.2,6.1,76.2,4.9,77.6,6.2z M76.6,19.5C76.6,19.5,76.6,19.5,76.6,19.5c-0.8-1-1.6-1.9-2.5-2.7c-2-1.7-4-3.2-6.1-4.4c0,0,0,0,0,0
			c0.1,0,0.2-0.1,0.3-0.1c0.3-0.1,0.6-0.3,0.9-0.4c0.3-0.1,0.5-0.2,0.8-0.3c0.3-0.1,0.7-0.3,1-0.4c0.2-0.1,0.3-0.1,0.5-0.1
			c0.3-0.1,0.7-0.2,1-0.2c0.4-0.1,0.8-0.1,1.2-0.1c0,0,0,0,0.1,0c0,0,0,0,0,0c0,0,0,0,0.1,0c0,0,0,0,0,0c0,0,0.1,0,0.1,0.1
			c0,0,0,0,0,0c0,0,0.1,0.1,0.1,0.1c0,0,0,0,0,0c0,0,0.1,0.1,0.1,0.1c0,0,0,0,0.1,0.1c0,0.1,0.1,0.1,0.1,0.2c0,0,0,0.1,0.1,0.1
			c0,0.1,0.1,0.2,0.2,0.3c0,0,0,0.1,0.1,0.1c0.1,0.1,0.1,0.3,0.2,0.4c0,0,0,0.1,0,0.1c0.1,0.2,0.2,0.4,0.2,0.6c0,0,0,0,0,0
			c0.2,0.5,0.3,1.1,0.5,1.8c0,0.1,0,0.1,0,0.2c0.1,0.3,0.1,0.6,0.2,0.9c0,0.1,0,0.2,0.1,0.3c0.1,0.3,0.1,0.6,0.2,1
			c0,0.1,0.1,0.3,0.1,0.4c0.1,0.3,0.1,0.7,0.2,1.1c0,0.2,0.1,0.3,0.1,0.5C76.6,19.4,76.6,19.4,76.6,19.5z M19.7,5.8
			c0.2-0.2,0.6-0.3,1.3-0.3c1.8,0,5.5,1,11.5,3.9c-0.9,0.3-1.9,0.7-2.8,1.1c-0.2-0.1-0.5-0.2-0.7-0.3c-0.3-0.1-0.7-0.3-1-0.4
			c-0.3-0.1-0.6-0.2-0.9-0.4c-0.2-0.1-0.5-0.2-0.7-0.3C26.1,9,25.9,9,25.6,8.9c-0.2,0-0.3-0.1-0.5-0.1c-0.3-0.1-0.5-0.1-0.7-0.2
			c-0.1,0-0.2-0.1-0.3-0.1c-0.2,0-0.4,0-0.6-0.1c-0.1,0-0.2,0-0.2,0c-0.2,0-0.4,0-0.5,0c0,0-0.1,0-0.1,0c-0.2,0-0.3,0.1-0.4,0.1
			c0,0-0.1,0-0.1,0c-0.1,0.1-0.3,0.1-0.4,0.2c-0.5,0.3-0.9,0.8-1,1.5c-0.2,1.1-0.4,2.3-0.6,3.6c0,0.1,0,0.2,0,0.3
			c-0.1,0.6-0.2,1.1-0.2,1.8c0,0.1,0,0.3,0,0.4c0,0.4-0.1,0.8-0.1,1.3c-1.5,1.5-2.8,3.2-3.9,4.9C16.7,14.7,18.2,7.2,19.7,5.8z
			 M27.9,11.4c-2.4,1.3-4.7,2.9-6.7,4.7c0.1-0.9,0.2-1.7,0.3-2.5c0-0.2,0.1-0.4,0.1-0.7c0.1-0.8,0.3-1.6,0.4-2.4
			c0-0.2,0.1-0.3,0.3-0.4c0.1,0,0.1-0.1,0.2-0.1c0,0,0.1,0,0.1,0c0.1,0,0.1,0,0.2,0c0.1,0,0.1,0,0.2,0c0.1,0,0.2,0,0.3,0
			c0.1,0,0.2,0,0.3,0c0.1,0,0.2,0,0.3,0c0.1,0,0.3,0,0.4,0.1c0.1,0,0.3,0.1,0.5,0.1c0.2,0,0.3,0.1,0.5,0.1c0.2,0.1,0.4,0.1,0.6,0.2
			c0.2,0.1,0.4,0.1,0.6,0.2c0.2,0.1,0.5,0.2,0.8,0.3C27.5,11.2,27.7,11.3,27.9,11.4z M84.1,47.1c0,0-0.1,0.6-0.5,1.5
			c-0.4,0.9-1.2,2.3-2.5,3.7c-0.4,0.4-0.9,0.9-1.4,1.3c-3.8,3.1-10.9,6.2-24,7c-19.5,1.1-35.3-2.6-42-8.5c-0.5-0.4-0.9-0.8-1.3-1.3
			c-1.7-1.9-2.4-4-2.2-6.1c0.9-4.2,1.9-7.9,2.7-10.9c2.5-0.9,4.4-1.4,4.4-1.4c0.2-0.1,0.4-0.3,0.3-0.6c-0.1-0.3-0.3-0.4-0.6-0.4
			c-0.2,0.1-1.8,0.5-3.9,1.2c0.3-0.9,0.5-1.7,0.8-2.5c2.4-0.2,4.2-0.2,4.3-0.2c0.3,0,0.5-0.2,0.5-0.5c0-0.3-0.2-0.5-0.5-0.5h0
			c-0.2,0-1.8,0-3.9,0.2c0.1-0.1,0.1-0.3,0.2-0.4c0.2-0.6,0.5-1.3,0.8-1.9C19,19,26.6,12.8,35,10.6c1.1-0.3,2.3-0.5,3.4-0.7
			c3-0.4,6.2-0.7,9.4-0.8c0.3,0,0.6,0,0.9,0c3.4,0,6.8,0.4,10.3,1.3c4.9,1.4,9.5,4,14,7.9c2.9,2.5,5.4,6.5,7.3,11.9
			c-2.4-0.3-4.3-0.3-4.5-0.3c0,0,0,0,0,0c-0.2,0-0.5,0.2-0.5,0.5c0,0.3,0.2,0.5,0.4,0.5c0.1,0,2.1,0.1,4.9,0.4
			c0.3,0.9,0.6,1.8,0.8,2.7c-2.4-0.9-4.4-1.5-4.6-1.6c-0.2-0.1-0.5,0.1-0.6,0.3c-0.1,0.3,0.1,0.5,0.3,0.6c0.1,0,2.3,0.7,5.2,1.8
			c0,0.1,0,0.1,0,0.2C82.8,38.9,83.5,42.9,84.1,47.1z"/>
	</g>
	<g>
		<path class="st5" d="M32.7,24.3c0,2.1-1.7,3.9-3.7,3.8c-2,0-3.6-1.8-3.6-3.9c0,0,0,0,0,0l-0.8,0.4c0.1,2.4,2,4.4,4.3,4.4
			c2.4,0,4.5-2.1,4.5-4.7c0-1.3-0.4-2.5-1.3-3.4c0,0,0,0,0,0l-0.8,0.4C32.2,22.1,32.7,23.1,32.7,24.3z"/>
		<path class="st8" d="M28.6,23.8c-0.4-0.4-0.7-0.6-1-0.6L27,23.4c-0.6,0.8,0,3.1,1.6,1.4c-2.4,2.5,3.3,2.5,1,0c2.4,2.5,2.4-3.6,0-1
			c0.8-0.8,0.7-1.4,0.3-1.7L28,22.9C28.1,23.2,28.3,23.4,28.6,23.8z"/>
		<path d="M33.5,20.3c-0.1-0.1-0.2-0.3-0.3-0.4c-0.4-0.4-0.9-0.8-1.4-1.1L30,19.7l-4.6,2l-1.9,0.8c-0.1,0.5-0.3,1.1-0.3,1.7
			c0,0.4,0,0.7,0.1,1.1c0.2,1.3,0.7,2.5,1.6,3.4c1.1,1.2,2.6,1.9,4.1,1.9c1.5,0,2.9-0.6,3.9-1.5c1.2-1.1,2-2.8,2-4.7
			C34.9,22.9,34.4,21.4,33.5,20.3z M29.5,23.8c2.4-2.5,2.4,3.6,0,1c2.4,2.5-3.3,2.5-1,0c-1.6,1.7-2.1-0.5-1.6-1.4l0.6-0.3
			c0.3,0,0.6,0.2,1,0.6c-0.3-0.3-0.5-0.6-0.5-0.8l1.8-0.9C30.2,22.4,30.3,22.9,29.5,23.8z M29,29c-2.3,0-4.2-2-4.3-4.4l0.8-0.4
			c0,0,0,0,0,0c0,2.1,1.6,3.9,3.6,3.9c2,0,3.7-1.7,3.7-3.8c0-1.2-0.5-2.3-1.3-3l0.8-0.4c0,0,0,0,0,0c0.8,0.9,1.3,2.1,1.3,3.4
			C33.4,26.9,31.4,29,29,29z"/>
	</g>
	<g>
		<path class="st5" d="M59.6,24.3c0,2.1,1.7,3.9,3.7,3.8c2,0,3.6-1.8,3.6-3.9c0,0,0,0,0,0l0.8,0.4c-0.1,2.4-2,4.4-4.3,4.4
			c-2.4,0-4.5-2.1-4.5-4.7c0-1.3,0.4-2.5,1.3-3.4c0,0,0,0,0,0l0.8,0.4C60.1,22.1,59.6,23.1,59.6,24.3z"/>
		<path class="st8" d="M63.7,23.8c0.4-0.4,0.7-0.6,1-0.6l0.6,0.3c0.6,0.8,0,3.1-1.6,1.4c2.4,2.5-3.3,2.5-1,0c-2.4,2.5-2.4-3.6,0-1
			c-0.8-0.8-0.7-1.4-0.3-1.7l1.8,0.9C64.2,23.2,64,23.4,63.7,23.8z"/>
		<path d="M57.4,24.4c0,1.9,0.8,3.5,2,4.7c1,1,2.4,1.5,3.9,1.5c1.6,0,3-0.7,4.1-1.9c0.9-0.9,1.4-2.1,1.6-3.4c0-0.3,0.1-0.7,0.1-1.1
			c0-0.6-0.1-1.1-0.3-1.7l-1.9-0.8l-4.6-2l-1.9-0.8c-0.5,0.3-1,0.6-1.4,1.1c-0.1,0.1-0.2,0.3-0.3,0.4C57.9,21.4,57.4,22.9,57.4,24.4
			z M62.5,22.1l1.8,0.9c-0.1,0.2-0.2,0.5-0.5,0.8c0.4-0.4,0.7-0.6,1-0.6l0.6,0.3c0.6,0.8,0,3.1-1.6,1.4c2.4,2.5-3.3,2.5-1,0
			c-2.4,2.5-2.4-3.6,0-1C62,22.9,62.1,22.4,62.5,22.1z M58.8,24.3c0-1.3,0.4-2.5,1.3-3.4c0,0,0,0,0,0l0.8,0.4
			c-0.8,0.7-1.3,1.8-1.3,3c0,2.1,1.7,3.9,3.7,3.8c2,0,3.6-1.8,3.6-3.9c0,0,0,0,0,0l0.8,0.4c-0.1,2.4-2,4.4-4.3,4.4
			C60.9,29,58.9,26.9,58.8,24.3z"/>
	</g>
	<path class="st9" d="M37.6,16.8c0,0-4.9,1.2-5.4-2.2"/>
	<path class="st9" d="M56.6,16.7c0,0,4.8,1.5,5.5-1.9"/>
	<path class="st9" d="M40,27.4c0,0,0.6,1.6,2.2,1.9c1.7,0.3,8.8,0.5,8.8,0.5"/>
	<path class="st10" d="M40.1,28.1c0,0-1,3.7-0.2,3.9c0.8,0.3,3.1-2.4,3.1-2.4"/>
</g>
<path class="st11" d="M107.6,36.8c1.3-8.3-4.9-16.1-13.9-17.5c-9-1.4-17.4,4.2-18.7,12.4s4.9,16.1,13.9,17.5
	C97.8,50.6,106.2,45.1,107.6,36.8z"/>
<path class="st5" d="M106.2,36.6c1.2-7.6-4.5-14.8-12.7-16c-8.3-1.3-16,3.8-17.2,11.4C75,39.5,80.8,46.7,89,48
	C97.3,49.3,105,44.2,106.2,36.6z"/>
<path class="st11" d="M90.6,48.6c0,0-6.2,3.4-10.8,1.5c0,0,3.8-2.4,3.8-3.3C83.7,46.8,89.4,49.4,90.6,48.6z"/>
<path class="st5" d="M86.4,46c0,0-3.1,3.6-4,3.7c0,0,4.5,0.2,8.3-2.7L86.4,46z"/>
<path class="st12" d="M97,33.5c0.5-2.8-1.1-5.6-3.9-6.4L92.5,27c-2.8-0.8-5.7,0.8-6.6,3.5l0,0l-0.1,0.4l-2.1,7.8l11.2,3.1l2.1-7.8
	L97,33.5L97,33.5z M92,28.6l0.6,0.2c1.9,0.5,3.1,2.4,2.8,4.3l-7.9-2.2C88.2,29.1,90.1,28.1,92,28.6z M93.6,39.7l-8-2.2l1.4-5l8,2.2
	L93.6,39.7z"/>
<path class="st12" d="M89.7,36.5l-0.2,0.7c-0.1,0.2,0.1,0.4,0.2,0.4l0.2,0.1c0.2,0.1,0.4-0.1,0.4-0.2l0.2-0.7c0.5,0,1-0.4,1.1-0.9
	c0.2-0.7-0.2-1.4-0.9-1.6c-0.7-0.2-1.4,0.2-1.6,0.9C89.1,35.6,89.3,36.2,89.7,36.5z"/>
</svg>
