<svg width="110" height="68" viewBox="0 0 110 68" fill="none" xmlns="http://www.w3.org/2000/svg">
<path d="M64.7866 49.5129C60.0559 62.9819 42.3115 68.3731 25.5221 64.2672C4.40365 59.0992 -0.184205 42.9881 4.54646 29.5191C9.27713 16.0501 26.3254 9.76632 42.6328 15.4878C58.9402 21.2092 69.5084 36.0439 64.7866 49.5129Z" fill="white"/>
<path d="M14.4354 60.3755C14.4354 60.3755 2.30523 51.9941 11.0257 41.0779C11.0257 41.0779 13.7927 38.5073 18.7198 39.3374C23.6468 40.1585 27.6545 35.7046 27.6545 35.7046C27.6545 35.7046 29.7788 32.3931 33.01 33.848C36.2322 35.3029 36.7231 33.3571 36.7231 33.3571C36.7231 33.3571 38.2494 31.206 40.6861 33.0715C43.1229 34.937 48.5676 37.2398 53.2626 35.5975C57.9575 33.9641 62.1794 38.2752 62.1794 38.2752C62.1794 38.2752 70.1591 50.566 55.253 61.1342C55.253 61.1342 63.6433 57.5906 66.6066 50.0662C69.57 42.5417 70.0966 32.9822 58.9304 17.8084L55.3869 14.122L51.1739 4.47324L46.4254 2.0365L41.8733 8.231L38.0262 13.3187C38.0262 13.3187 34.081 10.9712 29.8234 13.0152C25.5658 15.0592 25.4855 13.8096 25.4855 13.8096C25.4855 13.8096 20.8709 7.62404 19.2196 6.94568C17.5683 6.26732 14.8549 4.99986 14.8549 4.99986L9.07991 20.1737C9.07991 20.1737 1.19844 34.571 1.70721 41.2029C2.21598 47.8347 4.23321 56.225 14.4354 60.3755Z" fill="#EBC481"/>
<path d="M18.8269 60.5361C18.8983 60.5629 18.9251 60.5718 18.9876 60.6879C19.2286 61.0449 19.4963 61.5894 19.4517 62.1606C19.4249 62.7319 19.059 63.3567 17.8986 63.7137C17.854 63.7226 17.6665 63.7583 17.5862 63.7405C15.7118 63.0086 13.9356 62.116 12.2218 61.0806C9.553 59.4561 7.0627 57.4567 5.00084 54.9932C2.95684 52.5386 1.37697 49.602 0.618282 46.4423C0.502247 46.0496 0.448692 45.6479 0.36836 45.2552C0.296954 44.8535 0.216622 44.4608 0.180918 44.0591C0.136289 43.6575 0.0916605 43.2558 0.0559573 42.8541L0.0113284 41.6492C-0.015449 41.2475 0.0113284 40.8458 0.02918 40.4442C0.0559573 40.0425 0.0470315 39.6409 0.0916605 39.2481L0.225547 38.061L0.252325 37.8021V37.8289V37.8557C0.252325 37.8735 0.252325 37.8468 0.252325 37.8468V37.6683C0.26125 37.5344 0.270176 37.3826 0.279102 37.2666L0.323731 36.9096C0.466544 36.0259 0.671837 35.2672 0.894982 34.5085L1.06457 33.9462L1.25201 33.3928C1.36805 33.0268 1.50194 32.6698 1.63582 32.3039C2.16244 30.8579 2.75155 29.4565 3.3585 28.073L3.42991 27.9213L3.50131 27.7696C4.66166 25.1632 5.90235 22.6104 7.20551 20.1023L7.44651 19.6292L7.47329 19.5668L7.49114 19.54C7.49114 19.531 7.49114 19.54 7.49114 19.54C7.49114 19.5489 7.49114 19.5489 7.49114 19.5489L7.51792 19.4596L7.83032 18.4243C8.03561 17.737 8.25876 17.0586 8.4819 16.3802C8.93712 15.0235 9.42804 13.6757 9.95466 12.3369C10.4813 10.998 11.0704 9.66805 11.713 8.35596C11.8826 8.02571 12.0433 7.69545 12.2129 7.37412L12.7574 6.40121C12.9359 6.07988 13.1501 5.75856 13.3465 5.43723C13.4089 5.33904 13.6321 4.96416 13.8463 4.74102L14.489 3.98232L14.8103 3.60744L14.971 3.42L15.0513 3.32181C15.0691 3.30396 15.0781 3.28611 15.0959 3.27719L15.1584 3.28611C15.4797 3.34859 15.7921 3.37537 16.1135 3.4557C16.4348 3.50926 16.7561 3.63422 17.0774 3.75025C17.2381 3.80381 17.3988 3.86629 17.5594 3.94662L17.9432 4.13406C18.6752 4.50894 19.3446 4.93738 19.9694 5.3926C21.219 6.30303 22.3169 7.33842 23.3255 8.42737L23.7093 8.82903L24.0753 9.24854C24.3163 9.52524 24.5572 9.80194 24.7982 10.0876L25.4766 10.9444L25.8158 11.3729L26.1371 11.8102L26.1728 11.8638L26.9761 11.6764C27.3421 11.6049 27.6991 11.5157 28.0651 11.4532C30.957 10.9177 33.9472 10.6856 36.9909 11.0783L38.0084 11.2479H38.0173L38.303 10.6856C38.9635 9.40028 39.6686 8.13282 40.4452 6.89213C41.2217 5.65145 42.0696 4.43754 43.0783 3.26826C43.587 2.68808 44.1404 2.11683 44.8009 1.59021C44.9705 1.45632 45.1312 1.32244 45.3186 1.2064L45.4525 1.11714C45.515 1.07252 45.5775 1.02789 45.6578 0.983257C45.8096 0.894 45.9613 0.822593 46.122 0.742261C46.2737 0.670855 46.4254 0.572671 46.5861 0.519116L47.0592 0.349526C47.3716 0.233491 47.7018 0.144233 48.0232 0.0371237L48.0678 0.00142054C48.0946 -0.00750525 48.1035 0.0281979 48.1213 0.0371237L48.2284 0.135307L48.4427 0.322749L48.88 0.706558C49.1657 0.95648 49.4513 1.22425 49.7369 1.50095C50.0315 1.7955 50.326 2.08113 50.6027 2.38461C51.174 2.98263 51.7095 3.60744 52.2272 4.23225C53.2715 5.49971 54.2266 6.8475 55.0745 8.25778C55.9225 9.66805 56.6722 11.1587 57.297 12.7028L57.6898 13.7739C57.6809 13.7561 57.6898 13.7739 57.6898 13.765L58.0914 14.2024C58.6359 14.8093 59.1625 15.4252 59.6802 16.0411C61.8671 18.7188 63.8218 21.5751 65.4909 24.6187C67.1511 27.6624 68.5168 30.9114 69.3558 34.3568C69.7931 36.1776 70.0877 38.0431 70.168 39.9354C70.2127 40.8815 70.2037 41.8277 70.1413 42.7827C70.0966 43.2647 70.0699 43.7467 69.9984 44.2198L69.8824 44.9338C69.8467 45.1748 69.811 45.4069 69.7485 45.6479C69.3558 47.5402 68.6953 49.3789 67.8116 51.0837C67.3832 51.9406 66.8655 52.7528 66.3389 53.5472C66.0711 53.94 65.7765 54.3238 65.4998 54.6987L65.3303 54.9129C64.6697 55.7519 63.9468 56.5285 63.2059 57.2871C63.2059 57.2871 62.9381 57.5103 62.4919 57.8852C62.0366 58.2511 61.394 58.742 60.6264 59.2597C59.8587 59.7774 58.9662 60.3219 58.0468 60.8039C57.1185 61.2948 56.1635 61.7233 55.2798 62.0624C53.7981 62.6694 52.7806 62.9193 52.1647 62.9818C51.5488 63.0443 51.3435 62.9193 51.4417 62.714C51.6202 62.2945 52.9323 61.4376 54.4586 60.3487C54.2712 60.4112 56.1635 59.2062 57.8772 57.7334C58.7341 57.0015 59.5463 56.216 60.1354 55.6091C60.4211 55.2967 60.6621 55.0378 60.8227 54.8593C60.9834 54.6719 61.0727 54.5648 61.0727 54.5648L61.4832 54.1363L61.876 53.69C62.1438 53.3955 62.3847 53.092 62.6347 52.7885L62.7864 52.6011C63.0274 52.2708 63.2773 51.9406 63.5094 51.6103C63.9646 50.932 64.402 50.2358 64.7679 49.5128C65.5177 48.0668 66.0622 46.5405 66.3924 44.9606C66.446 44.7643 66.4728 44.5679 66.4995 44.3626L66.5977 43.7646C66.6602 43.3629 66.6781 42.9612 66.7227 42.5596C66.7762 41.7473 66.7852 40.9172 66.7495 40.0961C66.6781 38.4448 66.4192 36.7935 66.0265 35.169C65.2767 32.0896 64.0271 29.0995 62.4829 26.27C60.9388 23.4316 59.0822 20.736 57.0293 18.219C56.5473 17.6388 56.0564 17.0586 55.5565 16.5052L55.1727 16.0678L54.7621 15.6483C54.7175 15.6216 54.7175 15.568 54.6996 15.5234L54.6461 15.3895L54.539 15.1039L54.1195 13.9703C53.5661 12.6136 52.9056 11.3015 52.1469 10.034C51.3882 8.76655 50.5224 7.55264 49.5762 6.41014C49.1032 5.83889 48.6212 5.27656 48.1035 4.74102C47.8536 4.47324 47.5947 4.20547 47.3269 3.95555C47.3269 3.95555 47.318 3.96447 47.3091 3.96447L47.2288 4.01803C47.1216 4.08051 47.0145 4.17869 46.9074 4.25902C46.4701 4.60713 46.0416 5.04449 45.6221 5.51756C44.792 6.47262 44.0244 7.57049 43.3193 8.70407C42.6052 9.84657 41.9447 11.0337 41.3199 12.2387L41.0878 12.6939L40.8825 13.1045L40.6594 13.5597C40.5076 13.8721 40.3648 14.2024 40.2131 14.5237L39.9899 15.0057L39.9364 15.1306L39.9096 15.1931C39.9096 15.211 39.9007 15.202 39.8828 15.202L39.8471 15.1931L39.5883 15.1306L37.5353 14.6397L37.4729 14.6219L37.4818 14.6308C37.4907 14.6308 37.4461 14.6219 37.4015 14.6129L37.339 14.604L37.2229 14.5862L36.9909 14.5505L36.5267 14.4701C34.0007 14.1399 31.3141 14.3273 28.6988 14.8093C28.3686 14.8629 28.0472 14.9432 27.717 15.0057L27.235 15.1217L26.9761 15.1842L26.4763 15.3181C26.1371 15.4073 25.7979 15.5234 25.4498 15.6216L24.9411 15.7822C24.8964 15.7911 24.8518 15.809 24.8161 15.8179L24.7358 15.7108L24.584 15.4966L23.379 13.8453L23.0845 13.4347L22.7721 13.042L22.1473 12.2565C21.9331 11.9977 21.7099 11.7478 21.4957 11.4978L21.1654 11.123L20.8263 10.7659C19.9248 9.80194 18.9697 8.90043 17.9522 8.15959C17.4434 7.78471 16.9257 7.46338 16.408 7.19561L16.3098 7.14205L16.2206 7.28487C16.051 7.56156 15.8725 7.82041 15.7118 8.11496L15.2298 8.98077C15.0781 9.27532 14.9263 9.57879 14.7746 9.87335C14.1855 11.0783 13.6321 12.319 13.1322 13.5954C12.6324 14.8629 12.1593 16.1571 11.722 17.4603C11.5077 18.1118 11.2935 18.7634 11.0972 19.4239L10.8026 20.4058C10.7848 20.4504 10.7312 20.6646 10.6776 20.8253L10.4813 21.2091L10.2403 21.6732C8.95497 24.1457 7.74999 26.6449 6.62534 29.162L6.56286 29.3048L6.49145 29.4565C5.91128 30.7954 5.34895 32.1343 4.85803 33.4821C4.73307 33.8212 4.60811 34.1515 4.501 34.4907L4.33141 34.9994L4.17967 35.4993C3.97438 36.1598 3.80479 36.8382 3.71553 37.4273L3.68875 37.6236C3.67983 37.695 3.67983 37.7307 3.67983 37.7843C3.67983 37.8111 3.6709 37.6593 3.6709 37.695L3.67983 37.7486C3.67983 37.7664 3.68875 37.7754 3.67983 37.8111C3.67983 37.8468 3.6709 37.8914 3.6709 37.9093V38.0521V38.1235V38.1592L3.65305 38.2127L3.61735 38.5162L3.50131 39.5427C3.45668 39.8818 3.46561 40.23 3.44776 40.5691C3.43883 40.9083 3.41205 41.2564 3.42991 41.5956L3.46561 42.6221L3.57272 43.6307C3.5995 43.9699 3.6709 44.3001 3.73338 44.6304C3.79586 44.9606 3.84049 45.2998 3.9476 45.6211C4.58133 48.2542 5.89342 50.6821 7.63395 52.7975C9.39233 54.904 11.597 56.6891 13.998 58.1529C15.5333 59.0723 17.1578 59.8935 18.8269 60.5361Z" fill="#231815"/>
<path d="M15.4439 11.2034C15.4439 11.2034 13.1678 16.5856 13.2482 18.9331C13.2482 18.9331 15.0423 17.1122 17.961 17.2372L15.4439 11.2034Z" fill="#ED7A49"/>
<path d="M47.2197 14.9968C47.2197 14.9968 50.9864 14.8986 52.5216 15.3092C52.5216 15.3092 50.1117 9.3111 48.5854 8.90051L47.2197 14.9968Z" fill="#ED7A49"/>
<path d="M34.8838 39.4845C37.7758 39.3855 40.0611 37.58 39.9883 35.4517C39.9154 33.3234 37.512 31.6783 34.6201 31.7772C31.7282 31.8762 29.4428 33.6817 29.5157 35.81C29.5885 37.9383 31.9919 39.5835 34.8838 39.4845Z" fill="#231815"/>
<path d="M14.7859 43.2183C17.4321 42.9773 19.4601 41.4965 19.3157 39.9107C19.1713 38.325 16.9091 37.2349 14.263 37.4759C11.6168 37.7169 9.58875 39.1977 9.73317 40.7834C9.87759 42.3692 12.1398 43.4593 14.7859 43.2183Z" fill="#E58A4C"/>
<path d="M55.4969 39.5065C58.143 39.2655 60.1711 37.7847 60.0267 36.1989C59.8822 34.6132 57.62 33.5231 54.9739 33.7641C52.3277 34.0051 50.2997 35.4859 50.4441 37.0716C50.5885 38.6574 52.8507 39.7475 55.4969 39.5065Z" fill="#E58A4C"/>
<path d="M16.2733 63.1693C16.193 63.1336 16.1662 63.1247 16.0948 62.9997C15.8271 62.6249 15.5593 62.0268 15.6575 61.4556C15.7735 60.8933 16.2198 60.3666 17.2998 60.0185C17.3355 60.0096 17.514 59.9739 17.5944 59.9917C19.2813 60.688 21.0308 61.2949 22.7981 61.8215C28.457 63.4907 34.3748 64.3743 40.1855 63.9816L41.694 63.8477L43.1935 63.6513C43.1935 63.6513 43.2739 63.6424 43.4167 63.6335C43.5595 63.6156 43.7648 63.5978 44.0236 63.571C44.2825 63.5442 44.5949 63.5174 44.9519 63.4817C45.3 63.4282 45.6927 63.3746 46.1123 63.3211C46.5318 63.2764 46.9781 63.1783 47.4333 63.0979C47.6653 63.0533 47.8974 63.0176 48.1384 62.973C48.3705 62.9283 48.6115 62.8659 48.8435 62.8123L49.5576 62.6516L49.9146 62.5713C50.0307 62.5356 50.1467 62.5088 50.2627 62.4731C50.7269 62.3482 51.1821 62.2232 51.6195 62.1161C52.3335 61.8662 52.9405 61.6876 53.4403 61.527C53.9312 61.3574 54.3151 61.2414 54.6096 61.1789C55.2076 61.0539 55.4308 61.1253 55.3683 61.3485C55.3147 61.5716 54.9666 61.9465 54.4311 62.4106C54.2972 62.5267 54.1544 62.6516 53.9937 62.7766C53.8331 62.8926 53.6545 63.0087 53.476 63.1336C53.1101 63.3746 52.7084 63.6424 52.28 63.8923C52.3871 63.8655 51.9051 64.1244 51.1107 64.5171C50.718 64.7224 50.236 64.9188 49.7094 65.1419C49.4505 65.249 49.1738 65.374 48.8971 65.4811C48.6115 65.5793 48.3259 65.6864 48.0402 65.7846C47.7457 65.8828 47.4601 65.9988 47.1744 66.0881C46.8799 66.1773 46.5943 66.2577 46.3176 66.338C46.0409 66.4183 45.7642 66.4986 45.5053 66.579C45.2465 66.6415 44.9965 66.7039 44.7734 66.7575C44.3182 66.8646 43.9344 66.9628 43.6666 67.0163C43.3988 67.0699 43.2471 67.0967 43.2471 67.0967C42.774 67.1592 42.3099 67.2306 41.8368 67.2752L40.4176 67.4002C38.8377 67.4894 37.2579 67.543 35.678 67.4716L35.0889 67.4537L34.4998 67.418C34.1071 67.3912 33.7143 67.3734 33.3216 67.3377C32.5361 67.2573 31.7596 67.1949 30.983 67.0788C27.8679 66.6772 24.8064 65.9988 21.8163 65.1151C19.9418 64.5528 18.0942 63.9191 16.2733 63.1693Z" fill="#C30D23"/>
<path d="M24.0592 31.7683C23.1309 29.751 21.3814 30.2509 19.3642 31.1792C17.347 32.1074 15.8296 33.1161 16.7579 35.1333C17.6861 37.1505 20.0693 38.0252 22.0866 37.097C24.1038 36.1687 24.9874 33.7855 24.0592 31.7683Z" fill="#231815"/>
<path d="M24.6306 32.6965C24.6306 32.4198 24.2468 32.1877 23.7737 32.1967C23.3007 32.1967 22.9258 32.7054 22.9258 32.7054C22.9258 32.7054 23.3096 33.2142 23.7827 33.2053C24.2557 33.2053 24.6306 32.9821 24.6306 32.6965Z" fill="#F7F7F7"/>
<path d="M28.8765 21.3966L29.6263 28.0285L23.9316 27.5733" stroke="#C9913F" stroke-width="2" stroke-miterlimit="10" stroke-linecap="round" stroke-linejoin="round"/>
<path d="M40.6513 20.9413L39.8926 27.5731L45.5872 27.1269" stroke="#C9913F" stroke-width="2" stroke-miterlimit="10" stroke-linecap="round" stroke-linejoin="round"/>
<path d="M23.9326 29.3406C24.9185 29.3406 25.7178 28.5413 25.7178 27.5554C25.7178 26.5695 24.9185 25.7703 23.9326 25.7703C22.9467 25.7703 22.1475 26.5695 22.1475 27.5554C22.1475 28.5413 22.9467 29.3406 23.9326 29.3406Z" fill="white"/>
<path d="M43.1943 27.3947C44.1803 27.3947 44.9795 26.5954 44.9795 25.6095C44.9795 24.6236 44.1803 23.8243 43.1943 23.8243C42.2084 23.8243 41.4092 24.6236 41.4092 25.6095C41.4092 26.5954 42.2084 27.3947 43.1943 27.3947Z" fill="white"/>
<path d="M51.1555 31.1435C51.6285 28.9745 49.9237 28.323 47.7547 27.8499C45.5858 27.3768 43.7649 27.2697 43.3008 29.4387C42.8277 31.6076 44.2112 33.7498 46.3802 34.214C48.5402 34.696 50.6824 33.3125 51.1555 31.1435Z" fill="#231815"/>
<path d="M51.0491 32.2323C51.2187 32.0092 51.0491 31.5986 50.6742 31.313C50.2993 31.0273 49.6924 31.2059 49.6924 31.2059C49.6924 31.2059 49.6924 31.8396 50.0673 32.1252C50.4421 32.4108 50.8795 32.4555 51.0491 32.2323Z" fill="#F7F7F7"/>
<path d="M32.8672 24.2617L33.2421 28.7692" stroke="#C9913F" stroke-width="2" stroke-miterlimit="10" stroke-linecap="round" stroke-linejoin="round"/>
<path d="M37.2138 23.4762L36.5176 28.8942" stroke="#C9913F" stroke-width="2" stroke-miterlimit="10" stroke-linecap="round" stroke-linejoin="round"/>
<path d="M32.6089 47.2276C34.1174 48.4058 39.9995 48.4058 40.2494 47.2276C40.4279 46.4064 39.2497 44.9694 37.6788 43.4877C35.7062 44.2821 33.7247 45.3353 32.359 46.094C32.243 46.5671 32.2876 46.9777 32.6089 47.2276Z" fill="#F40000"/>
<path d="M32.3682 46.0942C33.7338 45.3266 35.7153 44.2823 37.6879 43.4879C37.0096 42.8541 36.2687 42.2115 35.519 41.6045C35.519 41.5956 32.7966 44.3447 32.3682 46.0942Z" fill="#AF0000"/>
<path d="M107.568 36.8271C108.912 28.5762 102.699 20.754 93.6913 19.3558C84.684 17.9576 76.2931 23.5128 74.9498 31.7638C73.6065 40.0148 79.8195 47.837 88.8269 49.2352C97.8342 50.6334 106.225 45.0781 107.568 36.8271Z" fill="#231815"/>
<path d="M106.236 36.6203C107.469 29.0434 101.764 21.8602 93.4917 20.5762C85.2197 19.2921 77.514 24.3935 76.2804 31.9704C75.0469 39.5473 80.7526 46.7305 89.0246 48.0145C97.2966 49.2986 105.002 44.1972 106.236 36.6203Z" fill="white"/>
<path d="M90.6296 48.5682C90.6296 48.5682 84.4363 52.0168 79.8652 50.0759C79.8652 50.0759 83.7056 47.6891 83.7013 46.7803C83.7013 46.776 89.3944 49.4346 90.6296 48.5682Z" fill="#231815"/>
<path d="M86.4207 45.9521C86.4207 45.9521 83.2805 49.5704 82.4629 49.6044C82.4629 49.6044 86.9339 49.838 90.7873 46.8865L86.4207 45.9521Z" fill="white"/>
<path d="M96.9727 33.5158C97.5183 30.7048 95.8259 27.907 93.0308 27.1406L92.4589 26.9838C89.6638 26.2173 86.781 27.7605 85.8165 30.4567L85.7924 30.4501L85.6769 30.8712L83.5383 38.6704L94.7428 41.7428L96.8814 33.9436L96.9969 33.5224L96.9727 33.5158ZM92.0147 28.6035L92.5866 28.7604C94.4876 29.2816 95.6367 31.1554 95.3456 33.0697L87.4517 30.9051C88.1616 29.1057 90.1137 28.0823 92.0147 28.6035ZM93.5759 39.6812L85.5934 37.4924L86.9592 32.5116L94.9417 34.7005L93.5759 39.6812Z" fill="#252525"/>
<path d="M89.7048 36.4602L89.5005 37.2053C89.4495 37.3916 89.5603 37.5874 89.7456 37.6382L89.9308 37.689C90.1161 37.7398 90.3113 37.6279 90.3624 37.4416L90.5667 36.6965C91.0828 36.6465 91.5352 36.2916 91.6795 35.7651C91.8661 35.0848 91.4693 34.3839 90.7927 34.1984C90.1161 34.0129 89.4173 34.4134 89.2308 35.0937C89.0865 35.6201 89.2946 36.1561 89.7048 36.4602Z" fill="#252525"/>
</svg>
